<svg xmlns="http://www.w3.org/2000/svg" viewBox="0 0 472.5 83"><defs><style>.cls-1,.cls-2{fill:#fff;}.cls-2{stroke:#fff;stroke-miterlimit:10;}.cls-3{fill:#f7f789;}.cls-4{fill:#ff9f00;}.cls-5{fill:#f77e00;}.cls-6{fill:#d6ea13;}.cls-7{fill:#1e1e1a;}</style></defs><title>Banner</title><g id="Layer_2" data-name="Layer 2"><g id="Layer_1-2" data-name="Layer 1"><rect class="cls-1" x="90.2" y="0.5" width="382.3" height="81"/><path d="M102.5,39.9v9.8H96.6V24.1h8.9a10.8,10.8,0,0,1,7,2.1,6.8,6.8,0,0,1,2.6,5.6,5.5,5.5,0,0,1-1,3.4,7.6,7.6,0,0,1-3.1,2.4,5.3,5.3,0,0,1,3.4,2.2,6.7,6.7,0,0,1,1,3.9v1.6a11.1,11.1,0,0,0,.3,2.3,3.2,3.2,0,0,0,1,1.8v.3h-6.1a2.5,2.5,0,0,1-.9-1.9,11.8,11.8,0,0,1-.2-2.6V43.7a4,4,0,0,0-1-2.8,3.6,3.6,0,0,0-2.8-1Zm0-4.5h3a3.7,3.7,0,0,0,2.7-.9,2.6,2.6,0,0,0,1-2.3,3,3,0,0,0-1-2.5,3.5,3.5,0,0,0-2.7-1h-3Z"/><path d="M125.4,26.3h-6v-4h6Zm0,23.4h-6v-19h6Z"/><path d="M137.2,45.5a2.4,2.4,0,0,0,1.8-.6,2.9,2.9,0,0,0,.6-1.9H145a6.2,6.2,0,0,1-2.1,5,8,8,0,0,1-5.7,2c-2.9,0-5.2-.9-6.7-2.7a10.1,10.1,0,0,1-2.4-7V40a9.8,9.8,0,0,1,2.4-6.9,8.1,8.1,0,0,1,6.6-2.7,7.9,7.9,0,0,1,5.8,2,6.6,6.6,0,0,1,2.1,5.5h-5.4a3.8,3.8,0,0,0-.6-2.2,2.3,2.3,0,0,0-1.9-.9,2.6,2.6,0,0,0-2.4,1.4A9.4,9.4,0,0,0,134,40v.4a9.5,9.5,0,0,0,.7,3.8A2.6,2.6,0,0,0,137.2,45.5Z"/><path d="M155.9,50.1a9,9,0,0,1-6.8-2.6,9.7,9.7,0,0,1-2.5-6.6v-.7a10.3,10.3,0,0,1,2.4-7.1,8.1,8.1,0,0,1,6.6-2.7c2.6,0,4.6.7,6,2.3a8.9,8.9,0,0,1,2.1,6.3v3.1H152.8a3.8,3.8,0,0,0,1.1,2.4,4.1,4.1,0,0,0,2.8.9l2.8-.2,2.6-.9,1.4,3.6a10.2,10.2,0,0,1-3.3,1.5A14.9,14.9,0,0,1,155.9,50.1Zm-.3-15.2a2.6,2.6,0,0,0-2.1.9,4.6,4.6,0,0,0-.7,2.5h5.1v-.5a3.4,3.4,0,0,0-.5-2.2A1.9,1.9,0,0,0,155.6,34.9Z"/><path d="M175.6,49.7V24.1h9.3a10.4,10.4,0,0,1,7.6,3,10,10,0,0,1,3,7.5v4.6a10.1,10.1,0,0,1-10.6,10.5Zm5.9-21V45.2h3.4a4.2,4.2,0,0,0,3.4-1.7,7.1,7.1,0,0,0,1.3-4.3V34.6a7,7,0,0,0-1.3-4.2,4.2,4.2,0,0,0-3.4-1.7Z"/><path d="M205,26.3h-6v-4h6Zm0,23.4h-6v-19h6Z"/><path d="M218.5,44.4a1.7,1.7,0,0,0-.8-1.3,10.3,10.3,0,0,0-2.9-1,11.1,11.1,0,0,1-5-2,4.5,4.5,0,0,1-1.7-3.7,5.4,5.4,0,0,1,2.1-4.3,8.4,8.4,0,0,1,5.7-1.7,9.4,9.4,0,0,1,6.1,1.7,4.8,4.8,0,0,1,2.1,4.3v.2h-5.8a3,3,0,0,0-.5-1.8,3.1,3.1,0,0,0-1.9-.5,2.4,2.4,0,0,0-1.6.5,1.5,1.5,0,0,0-.6,1.3,1.9,1.9,0,0,0,.7,1.3,10.8,10.8,0,0,0,3,.9,12,12,0,0,1,5.2,2.1,4.6,4.6,0,0,1,1.6,3.8,4.8,4.8,0,0,1-2.3,4.2,9.9,9.9,0,0,1-6,1.7,9,9,0,0,1-6.1-2,5.6,5.6,0,0,1-2.2-4.4H213a2.5,2.5,0,0,0,.9,2,3.4,3.4,0,0,0,2.2.6,3,3,0,0,0,1.8-.5A1.5,1.5,0,0,0,218.5,44.4Z"/><path d="M235.5,50.1a9,9,0,0,1-6.8-2.6,9.2,9.2,0,0,1-2.5-6.6v-.7a10.8,10.8,0,0,1,2.3-7.1,8.5,8.5,0,0,1,6.7-2.7c2.6,0,4.6.7,6,2.3a8.9,8.9,0,0,1,2.1,6.3v3.1H232.4a3.4,3.4,0,0,0,1.1,2.4,3.9,3.9,0,0,0,2.8.9l2.8-.2,2.6-.9,1.4,3.6a10.2,10.2,0,0,1-3.3,1.5A15.4,15.4,0,0,1,235.5,50.1Zm-.3-15.2a2.6,2.6,0,0,0-2.1.9,5.7,5.7,0,0,0-.8,2.5h5.2v-.5a4.2,4.2,0,0,0-.5-2.2A2.1,2.1,0,0,0,235.2,34.9Z"/><path d="M256.8,49.7l-.6-1.3-.3-1.6a7.8,7.8,0,0,1-1.9,2.4,4.9,4.9,0,0,1-3,.9,6.5,6.5,0,0,1-4.6-1.5,5.7,5.7,0,0,1-1.7-4.2,5.1,5.1,0,0,1,2.1-4.4c1.4-1,3.6-1.5,6.5-1.5h2.4V37.1a2.4,2.4,0,0,0-.6-1.8,1.8,1.8,0,0,0-1.7-.7,2.5,2.5,0,0,0-1.6.5,2.1,2.1,0,0,0-.5,1.5h-5.8a5.1,5.1,0,0,1,2.2-4.4,9.4,9.4,0,0,1,6.1-1.7,8.8,8.8,0,0,1,5.7,1.7,6.4,6.4,0,0,1,2.2,5v7.2a12.3,12.3,0,0,0,.2,2.8,11.2,11.2,0,0,0,.8,2.6Zm-4.2-3.8a4.2,4.2,0,0,0,2-.5,3.3,3.3,0,0,0,1.1-1.3V41.6h-2.4a2.8,2.8,0,0,0-2,.7,2.9,2.9,0,0,0-.7,1.8,1.8,1.8,0,0,0,.6,1.3A2.2,2.2,0,0,0,252.6,45.9Z"/><path d="M274.8,44.4a1.5,1.5,0,0,0-.8-1.3,10.3,10.3,0,0,0-2.9-1,11.1,11.1,0,0,1-5-2,4.5,4.5,0,0,1-1.7-3.7,5.4,5.4,0,0,1,2.1-4.3,8.4,8.4,0,0,1,5.7-1.7,9.4,9.4,0,0,1,6.1,1.7,4.8,4.8,0,0,1,2.1,4.3v.2h-5.8a3,3,0,0,0-.5-1.8,3.1,3.1,0,0,0-1.9-.5,2,2,0,0,0-1.5.5,1.4,1.4,0,0,0-.7,1.3,1.7,1.7,0,0,0,.8,1.3,8.9,8.9,0,0,0,2.9.9c2.3.5,4.1,1.1,5.2,2.1a4.6,4.6,0,0,1,1.6,3.8,5,5,0,0,1-2.2,4.2,10.5,10.5,0,0,1-6.1,1.7,9.1,9.1,0,0,1-6.1-2,5.6,5.6,0,0,1-2.2-4.4h5.5a2.5,2.5,0,0,0,.8,2,3.4,3.4,0,0,0,2.2.6,3,3,0,0,0,1.8-.5A1.5,1.5,0,0,0,274.8,44.4Z"/><path d="M291.8,50.1a9,9,0,0,1-6.8-2.6,9.7,9.7,0,0,1-2.5-6.6v-.7a10.3,10.3,0,0,1,2.4-7.1,8.1,8.1,0,0,1,6.6-2.7c2.6,0,4.6.7,6,2.3a8.9,8.9,0,0,1,2.1,6.3v3.1H288.7a3.8,3.8,0,0,0,1.1,2.4,4.1,4.1,0,0,0,2.8.9l2.8-.2,2.6-.9,1.4,3.6a10.2,10.2,0,0,1-3.3,1.5A14.9,14.9,0,0,1,291.8,50.1Zm-.3-15.2a2.6,2.6,0,0,0-2.1.9,4.6,4.6,0,0,0-.7,2.5h5.1v-.5a3.4,3.4,0,0,0-.5-2.2A1.9,1.9,0,0,0,291.5,34.9Z"/><path d="M311.5,49.7V24.1h9.3a10.4,10.4,0,0,1,7.6,3,10,10,0,0,1,3,7.5v4.6a10.1,10.1,0,0,1-10.6,10.5Zm5.9-21V45.2h3.4a4.2,4.2,0,0,0,3.4-1.7,7.1,7.1,0,0,0,1.3-4.3V34.6a7,7,0,0,0-1.3-4.2,4.2,4.2,0,0,0-3.4-1.7Z"/><path d="M343.1,50.1a9,9,0,0,1-6.8-2.6,9.7,9.7,0,0,1-2.5-6.6v-.7a10.3,10.3,0,0,1,2.4-7.1,8.1,8.1,0,0,1,6.6-2.7c2.6,0,4.6.7,6,2.3a8.9,8.9,0,0,1,2.1,6.3v3.1H340a3.8,3.8,0,0,0,1.1,2.4,3.9,3.9,0,0,0,2.8.9l2.8-.2,2.6-.9,1.4,3.6a10.2,10.2,0,0,1-3.3,1.5A15.4,15.4,0,0,1,343.1,50.1Zm-.3-15.2a2.6,2.6,0,0,0-2.1.9,4.6,4.6,0,0,0-.7,2.5h5.1v-.5a3.4,3.4,0,0,0-.5-2.2A1.9,1.9,0,0,0,342.8,34.9Z"/><path d="M360.3,26v4.7h3v4.1h-3v8.7a2.1,2.1,0,0,0,.4,1.5,1.3,1.3,0,0,0,1.1.5h1.4l.4,4.4L362,50h-1.7a5.9,5.9,0,0,1-4.5-1.6c-1-1-1.5-2.7-1.5-4.9V34.8h-2.6V30.7h2.6V26Z"/><path d="M374.6,50.1a9,9,0,0,1-6.8-2.6,9.6,9.6,0,0,1-2.4-6.6v-.7a10.3,10.3,0,0,1,2.3-7.1c1.5-1.8,3.7-2.7,6.7-2.7a7.4,7.4,0,0,1,5.9,2.3,8.9,8.9,0,0,1,2.1,6.3v3.1H371.5a3.8,3.8,0,0,0,1.1,2.4,4.1,4.1,0,0,0,2.8.9l2.8-.2,2.6-.9,1.5,3.6a12,12,0,0,1-3.4,1.5A14.9,14.9,0,0,1,374.6,50.1Zm-.2-15.2a2.3,2.3,0,0,0-2.1.9,3.9,3.9,0,0,0-.8,2.5h5.1v-.5a3.4,3.4,0,0,0-.5-2.2A1.9,1.9,0,0,0,374.4,34.9Z"/><path d="M393.1,45.5a2.4,2.4,0,0,0,1.8-.6,2.9,2.9,0,0,0,.6-1.9H401a6.3,6.3,0,0,1-2.2,5,8,8,0,0,1-5.7,2,8.5,8.5,0,0,1-6.7-2.7,10,10,0,0,1-2.3-7V40a9.8,9.8,0,0,1,2.3-6.9,8.5,8.5,0,0,1,6.7-2.7,8,8,0,0,1,5.8,2,7.2,7.2,0,0,1,2.1,5.5h-5.5a3.8,3.8,0,0,0-.6-2.2,2,2,0,0,0-1.8-.9,2.4,2.4,0,0,0-2.4,1.4A7.9,7.9,0,0,0,390,40v.4a8.1,8.1,0,0,0,.7,3.8A2.3,2.3,0,0,0,393.1,45.5Z"/><path d="M410.2,26v4.7h3v4.1h-3v8.7a2.1,2.1,0,0,0,.4,1.5,1.6,1.6,0,0,0,1.1.5h1.5l.4,4.4-1.7.3h-1.7a5.7,5.7,0,0,1-4.4-1.6c-1-1-1.5-2.7-1.5-4.9V34.8h-2.7V30.7h2.7V26Z"/><path d="M422.3,26.3h-5.9v-4h5.9Zm0,23.4h-5.9v-19h5.9Z"/><path d="M425.2,40a10,10,0,0,1,2.4-6.9,8.7,8.7,0,0,1,6.8-2.7,8.5,8.5,0,0,1,6.7,2.7,9.6,9.6,0,0,1,2.5,6.9v.4a9.7,9.7,0,0,1-2.5,7,8.5,8.5,0,0,1-6.7,2.7,8.7,8.7,0,0,1-6.8-2.7,10.1,10.1,0,0,1-2.4-7Zm5.9.4a8.1,8.1,0,0,0,.7,3.8,2.7,2.7,0,0,0,2.6,1.3,2.7,2.7,0,0,0,2.5-1.3,8.3,8.3,0,0,0,.7-3.8V40a8.2,8.2,0,0,0-.7-3.7,2.7,2.7,0,0,0-2.5-1.4,2.8,2.8,0,0,0-2.6,1.4,8.2,8.2,0,0,0-.7,3.7Z"/><path d="M451.6,30.7l.3,2.7a6,6,0,0,1,2.3-2.2,6,6,0,0,1,7.4,1.1c1.1,1.2,1.6,3.2,1.6,6V49.7h-6V38.3a5.4,5.4,0,0,0-.5-2.6,2.1,2.1,0,0,0-1.7-.8,4.5,4.5,0,0,0-3,1.3V49.7h-5.9v-19Z"/><path d="M99.9,64.5a2.7,2.7,0,0,1-.8.7,2.9,2.9,0,0,1-1.4.3l-.9-.2-.7-.4a2.2,2.2,0,0,1-.5-.8,4.9,4.9,0,0,1-.1-1.2V58.5h.7v4.4a2.4,2.4,0,0,0,.2.9c0,.2.2.4.3.6l.5.3h1.4l.6-.3c.2-.1.3-.3.4-.4s.2-.4.3-.6V58.5h.8v6.8h-.8Z"/><path d="M106.8,63.6c0-.2-.1-.3-.1-.4l-.3-.4a1,1,0,0,0-.5-.4l-1-.3-1-.2-.8-.4-.4-.6a1.4,1.4,0,0,1-.2-.7,1.9,1.9,0,0,1,.2-.7l.5-.6.7-.4,1-.2,1.1.2.8.4a1.8,1.8,0,0,1,.5.7,1.9,1.9,0,0,1,.2.8h-.8a.7.7,0,0,0-.1-.5l-.3-.5-.6-.3h-1.5l-.5.3c-.2.1-.3.2-.3.4s-.1.2-.1.4a.6.6,0,0,0,.1.4c0,.1.1.2.2.4a1.1,1.1,0,0,0,.6.2l.9.3,1.1.3.7.5.5.5a1.9,1.9,0,0,1,.1.8,1,1,0,0,1-.2.7c-.1.3-.2.5-.5.6l-.8.4-1,.2-1.2-.2-.8-.5-.5-.6a2.4,2.4,0,0,1-.2-.8h.8a.8.8,0,0,0,.2.7.8.8,0,0,0,.4.4l.6.3h1.4a.6.6,0,0,0,.6-.3q.3-.2.3-.3A1.7,1.7,0,0,0,106.8,63.6Z"/><path d="M109.2,56.5c0-.2,0-.3.1-.4h.8c.1.1.1.2.1.4a.4.4,0,0,1-.1.3.5.5,0,0,1-.8,0A.4.4,0,0,1,109.2,56.5Zm.9,8.8h-.8V58.5h.8Z"/><path d="M112.9,58.5v1.1l.4-.5.5-.4.6-.3h.7l1,.2c.2.1.5.2.6.4a2.2,2.2,0,0,1,.5.8,4.1,4.1,0,0,1,.1,1.2v4.4h-.7V60.9c0-.4-.1-.7-.1-.9a.9.9,0,0,0-.4-.6l-.5-.3h-1.4l-.6.4-.4.5-.3.6v4.7h-.8V58.5Z"/><path d="M119,61.8a3.2,3.2,0,0,1,.2-1.4,3.7,3.7,0,0,1,.5-1.1,2.7,2.7,0,0,1,.8-.7,2,2,0,0,1,1.1-.3,2.8,2.8,0,0,1,1.3.3,3.8,3.8,0,0,1,.9.9v-1h.7v6.7a3.7,3.7,0,0,1-.2,1.2,1.9,1.9,0,0,1-.5.9l-.9.6-1.1.2h-.7l-.7-.2a1,1,0,0,1-.5-.4l-.5-.5.4-.5a3.2,3.2,0,0,0,.9.8l1,.2h.9l.6-.5c.2-.1.3-.4.4-.6a3.1,3.1,0,0,0,.1-1v-.8a2,2,0,0,1-.8.8,2.8,2.8,0,0,1-1.3.3,2,2,0,0,1-1.1-.3,2.7,2.7,0,0,1-.8-.7,3.7,3.7,0,0,1-.5-1.1A3.2,3.2,0,0,1,119,62Zm.7.2a4.3,4.3,0,0,0,.2,1.1,3.2,3.2,0,0,0,.3.9l.7.6.9.2h.7c.2-.1.4-.1.5-.3l.4-.4a.5.5,0,0,0,.3-.5V60.4a1.4,1.4,0,0,0-.2-.6l-.4-.4-.6-.3h-.7l-.9.2-.7.6a3.2,3.2,0,0,0-.3.9,4.3,4.3,0,0,0-.2,1.1Z"/><path d="M136.4,62.5a5.6,5.6,0,0,1-.4,1.2,3.3,3.3,0,0,1-.6,1l-1.1.6-1.3.2a3.7,3.7,0,0,1-1.5-.3,4.4,4.4,0,0,1-1.1-.9,5.4,5.4,0,0,1-.7-1.3,8.8,8.8,0,0,1-.2-1.7V60.1a8.8,8.8,0,0,1,.2-1.7,3.5,3.5,0,0,1,.8-1.3,3.1,3.1,0,0,1,1.1-.8,4.1,4.1,0,0,1,2.8-.1,2.1,2.1,0,0,1,1,.6,1.5,1.5,0,0,1,.6.9,5,5,0,0,1,.4,1.3h-.8a2.9,2.9,0,0,0-.3-1,2.2,2.2,0,0,0-.5-.8l-.7-.4-1.1-.2a2,2,0,0,0-1.1.3,1.6,1.6,0,0,0-.9.7,3.7,3.7,0,0,0-.5,1.1,3.2,3.2,0,0,0-.2,1.4v1.2a3.2,3.2,0,0,0,.2,1.4,3.7,3.7,0,0,0,.5,1.1,1.8,1.8,0,0,0,.8.7,2.4,2.4,0,0,0,1.2.3,2.4,2.4,0,0,0,1.8-.6,3,3,0,0,0,.8-1.7Z"/><path d="M137.7,61.8a5.9,5.9,0,0,1,.2-1.4,2.4,2.4,0,0,1,.6-1.1l1-.7a2.7,2.7,0,0,1,1.2-.3,2.8,2.8,0,0,1,1.3.3l1,.7.6,1.1a5.9,5.9,0,0,1,.2,1.4V62a5.9,5.9,0,0,1-.2,1.4l-.6,1.1-1,.7a2.8,2.8,0,0,1-1.3.3l-1.2-.3-1-.7a2.4,2.4,0,0,1-.6-1.1,5.9,5.9,0,0,1-.2-1.4Zm.7.2a4.3,4.3,0,0,0,.2,1.1,3.6,3.6,0,0,0,.4.9l.8.6.9.2,1-.2.8-.6a3.6,3.6,0,0,0,.4-.9,4.3,4.3,0,0,0,.2-1.1v-.2a4.3,4.3,0,0,0-.2-1.1,3.6,3.6,0,0,0-.4-.9l-.8-.6-1-.2-.9.2-.8.6a3.6,3.6,0,0,0-.4.9,4.3,4.3,0,0,0-.2,1.1Z"/><path d="M146.1,58.5v1.1l.4-.5.6-.4.6-.3h.7l.9.2.7.4a2,2,0,0,1,.4.8,3.7,3.7,0,0,1,.2,1.2v4.4h-.8V60.9a2.2,2.2,0,0,0-.1-.9,1.6,1.6,0,0,0-.3-.6l-.5-.3h-1.5a1,1,0,0,0-.5.4c-.2.2-.4.3-.5.5l-.3.6v4.7h-.7V58.5Z"/><path d="M154.7,64.3l2-5.8h.8L155,65.3h-.7l-2.5-6.8h.7Z"/><path d="M158.3,61.8a3.2,3.2,0,0,1,.2-1.4,2.4,2.4,0,0,1,.6-1.1l1-.7a2.4,2.4,0,0,1,1.2-.3,2.8,2.8,0,0,1,1.3.3l1,.7.6,1.1a5.9,5.9,0,0,1,.2,1.4V62a5.9,5.9,0,0,1-.2,1.4l-.6,1.1-1,.7a2.8,2.8,0,0,1-1.3.3,2.4,2.4,0,0,1-1.2-.3l-1-.7a2.4,2.4,0,0,1-.6-1.1,3.2,3.2,0,0,1-.2-1.4Zm.7.2a4.3,4.3,0,0,0,.2,1.1,3.6,3.6,0,0,0,.4.9l.7.6,1,.2,1-.2.7-.6a4.1,4.1,0,0,0,.5-.9,4.1,4.1,0,0,0,.1-1.1v-.2a4.1,4.1,0,0,0-.1-1.1,4.1,4.1,0,0,0-.5-.9l-.7-.6-1-.2-1,.2-.7.6a3.6,3.6,0,0,0-.4.9,4.3,4.3,0,0,0-.2,1.1Z"/><path d="M166.8,65.3H166V55.6h.8Z"/><path d="M173.3,64.5a2.2,2.2,0,0,1-.9.7,2.5,2.5,0,0,1-1.3.3l-.9-.2-.7-.4a2.2,2.2,0,0,1-.5-.8,5,5,0,0,1-.2-1.2V58.5h.8v4.4a2.5,2.5,0,0,0,.1.9l.4.6.5.3H172l.6-.3c.2-.1.3-.3.4-.4l.3-.6V58.5h.7v6.8h-.7Z"/><path d="M177.2,56.7v1.8h1.4v.6h-1.4v4.6a.7.7,0,0,0,.1.5.5.5,0,0,0,.2.4c0,.1.1.1.2.2h1v.7h-1.4l-.5-.3a3.3,3.3,0,0,1-.3-.6c0-.2-.1-.5-.1-.8V59.1h-1.2v-.6h1.2V56.7Z"/><path d="M180.1,56.5a.5.5,0,0,1,.2-.4h.4c.1,0,.3,0,.3.1a.5.5,0,0,1,.2.4c0,.1-.1.2-.2.3s-.2.2-.3.2a.5.5,0,0,1-.4-.2C180.2,56.7,180.1,56.6,180.1,56.5Zm.9,8.8h-.7V58.5h.7Z"/><path d="M182.7,61.8a5.9,5.9,0,0,1,.2-1.4,3.9,3.9,0,0,1,.6-1.1l1-.7a2.7,2.7,0,0,1,1.2-.3,2.8,2.8,0,0,1,1.3.3l1,.7a3.9,3.9,0,0,1,.6,1.1,5.9,5.9,0,0,1,.2,1.4V62a5.9,5.9,0,0,1-.2,1.4,3.9,3.9,0,0,1-.6,1.1l-1,.7-1.2.3a2.8,2.8,0,0,1-1.3-.3l-1-.7a3.9,3.9,0,0,1-.6-1.1,5.9,5.9,0,0,1-.2-1.4Zm.7.2a4.3,4.3,0,0,0,.2,1.1,3.6,3.6,0,0,0,.4.9l.8.6,1,.2.9-.2.8-.6a3.6,3.6,0,0,0,.4-.9,4.3,4.3,0,0,0,.2-1.1v-.2a4.3,4.3,0,0,0-.2-1.1,3.6,3.6,0,0,0-.4-.9l-.8-.6-1-.2-.9.2-.8.6a3.6,3.6,0,0,0-.4.9,4.3,4.3,0,0,0-.2,1.1Z"/><path d="M191.1,58.5v1.1l.4-.5.6-.4.6-.3h.7l.9.2.7.4a2,2,0,0,1,.4.8,3.7,3.7,0,0,1,.2,1.2v4.4h-.8V60.9a2.2,2.2,0,0,0-.1-.9,1.6,1.6,0,0,0-.3-.6l-.5-.3h-1.4a.9.9,0,0,0-.6.4l-.5.5-.3.6v4.7h-.7V58.5Z"/><path d="M201.9,65.3c-.1-.1-.1-.2-.1-.4a.9.9,0,0,1-.1-.5c-.1.1-.2.3-.4.4l-.5.3-.7.3h-.7l-.9-.2-.7-.4-.5-.6a2.2,2.2,0,0,1-.1-.8,1.5,1.5,0,0,1,.2-.9,1.3,1.3,0,0,1,.6-.7l1-.4,1.3-.2h1.4v-.7a1.6,1.6,0,0,0-.4-1.2,2.1,2.1,0,0,0-1.4-.4h-.7l-.6.3-.4.4a1.3,1.3,0,0,0-.1.6h-.8a1.9,1.9,0,0,1,.2-.8,1.7,1.7,0,0,1,.6-.6l.8-.5,1.1-.2,1,.2.8.4a1.8,1.8,0,0,1,.5.7,3,3,0,0,1,.2,1v4c0,.2.1.3.1.4a.4.4,0,0,0,.1.3h-.8Zm-2.4-.5h.7l.7-.3.5-.4.3-.6V61.9h-2.3l-.8.3c-.2.2-.4.3-.5.5a1.4,1.4,0,0,0-.2.6c0,.2.1.4.1.6l.3.4.5.3Z"/><path d="M205.3,65.3h-.7V55.6h.7Z"/><path d="M217.6,65.3h-.8l-5.3-7.9v7.9h-.8V56.1h.8l5.3,7.9V56.1h.8Z"/><path d="M222.5,65.5a2.8,2.8,0,0,1-1.3-.3l-1-.7a5.4,5.4,0,0,1-.6-1.1,2.7,2.7,0,0,1-.2-1.3v-.3a5.9,5.9,0,0,1,.2-1.4,4.1,4.1,0,0,1,.7-1.1,2.2,2.2,0,0,1,.9-.7,2,2,0,0,1,1.1-.3,2.7,2.7,0,0,1,1.2.3,1.6,1.6,0,0,1,.8.6,1.9,1.9,0,0,1,.5,1,2.7,2.7,0,0,1,.2,1.3V62h-4.9a4.3,4.3,0,0,0,.2,1.1,2.2,2.2,0,0,0,.5.8,1.3,1.3,0,0,0,.7.6l1,.2,1.1-.2a2.7,2.7,0,0,0,.8-.7l.5.3-.4.5-.5.4-.7.3Zm-.2-6.5a1.2,1.2,0,0,0-.8.2c-.2.1-.5.2-.6.4a2.2,2.2,0,0,0-.5.8,2.4,2.4,0,0,0-.2.9h4.1a2.4,2.4,0,0,0-.2-.8l-.3-.7-.6-.5A1.5,1.5,0,0,0,222.3,59Z"/><path d="M230.9,64.5a2.7,2.7,0,0,1-.8.7,2.9,2.9,0,0,1-1.4.3l-.9-.2-.7-.4a5.6,5.6,0,0,1-.5-.8,4.9,4.9,0,0,1-.1-1.2V58.5h.7v4.4a2.4,2.4,0,0,0,.2.9c0,.2.2.4.3.6l.5.3h1.4l.6-.3.5-.4c.1-.2.1-.4.2-.6V58.5h.8v6.8h-.8Z"/><path d="M236.8,59.1h-1.2l-.5.3a1,1,0,0,0-.4.5l-.3.6v4.7h-.8V58.5h.8v1.1a1.8,1.8,0,0,1,.8-.9,1.5,1.5,0,0,1,1.1-.4h.5Z"/><path d="M242.1,65.3c0-.1-.1-.2-.1-.4v-.5l-.4.4-.6.3-.6.3h-.8l-.9-.2-.7-.4-.4-.6a2.4,2.4,0,0,1-.2-.8,2.9,2.9,0,0,1,.2-.9,2.3,2.3,0,0,1,.7-.7,1.9,1.9,0,0,1,.9-.4l1.3-.2H242v-.7a1.7,1.7,0,0,0-.5-1.2,1.7,1.7,0,0,0-1.3-.4h-.8l-.5.3c-.2.1-.3.3-.4.4a1.4,1.4,0,0,0-.2.6h-.7a1.1,1.1,0,0,1,.2-.8l.5-.6.8-.5,1.1-.2,1,.2a2,2,0,0,1,.8.4,1.8,1.8,0,0,1,.5.7,3,3,0,0,1,.2,1v3.7a.4.4,0,0,0,.1.3V65a.4.4,0,0,1,.1.3h-.8Zm-2.4-.5h.8l.6-.3.5-.4a2.1,2.1,0,0,0,.4-.6V61.9h-2.4l-.8.3-.5.5a1.9,1.9,0,0,0,0,1.2l.3.4.5.3Z"/><path d="M245.6,65.3h-.8V55.6h.8Z"/><path d="M257.9,65.3h-.8l-5.3-7.9v7.9H251V56.1h.8l5.3,7.9V56.1h.8Z"/><path d="M262.7,65.5a2.1,2.1,0,0,1-1.2-.3l-1-.7a3,3,0,0,1-.7-1.1,5.1,5.1,0,0,1-.2-1.3v-.3a3.2,3.2,0,0,1,.3-1.4,2.4,2.4,0,0,1,.6-1.1l.9-.7a2.7,2.7,0,0,1,1.2-.3,2,2,0,0,1,1.1.3,1.8,1.8,0,0,1,.9.6,3.1,3.1,0,0,1,.5,1,5.1,5.1,0,0,1,.2,1.3V62h-4.9a4.1,4.1,0,0,0,.1,1.1,5.6,5.6,0,0,0,.5.8,1.6,1.6,0,0,0,.8.6l.9.2,1.1-.2a2.7,2.7,0,0,0,.8-.7l.5.3a2.9,2.9,0,0,1-.9.9l-.7.3Zm-.1-6.5a1.1,1.1,0,0,0-.8.2l-.7.4a5.6,5.6,0,0,0-.5.8,2.4,2.4,0,0,0-.2.9h4.1a2.2,2.2,0,0,0-.1-.8,1.6,1.6,0,0,0-.4-.7l-.6-.5A1.1,1.1,0,0,0,262.6,59Z"/><path d="M267.9,56.7v1.8h1.5v.6h-1.5v4.6a4.3,4.3,0,0,0,.1.5l.2.4.3.2h.9v.7h-1.4l-.5-.3a3.3,3.3,0,0,1-.3-.6,1.9,1.9,0,0,1-.1-.8V59.1h-1.3v-.6h1.3V56.7Z"/><path d="M272.6,63.8v-.1l1.7-5.2h.6l1.7,5.2v.7l.2-.7,1.4-5.2h.8l-2,6.8h-.7l-1.7-5.4v0L273,65.3h-.7l-2-6.8h.8Z"/><path d="M280.3,61.8a5.9,5.9,0,0,1,.2-1.4l.6-1.1,1-.7a2.8,2.8,0,0,1,1.3-.3,2.4,2.4,0,0,1,1.2.3l1,.7a2.4,2.4,0,0,1,.6,1.1,3.2,3.2,0,0,1,.2,1.4V62a3.2,3.2,0,0,1-.2,1.4,2.4,2.4,0,0,1-.6,1.1l-1,.7a2.4,2.4,0,0,1-1.2.3,2.8,2.8,0,0,1-1.3-.3,2.2,2.2,0,0,1-.9-.7,4.1,4.1,0,0,1-.7-1.1,5.9,5.9,0,0,1-.2-1.4Zm.8.2a4.1,4.1,0,0,0,.1,1.1,4.1,4.1,0,0,0,.5.9l.7.6,1,.2,1-.2.7-.6a3.6,3.6,0,0,0,.4-.9,4.3,4.3,0,0,0,.2-1.1v-.2a4.3,4.3,0,0,0-.2-1.1,3.6,3.6,0,0,0-.4-.9l-.7-.6-1-.2-1,.2-.7.6a4.1,4.1,0,0,0-.5.9,4.1,4.1,0,0,0-.1,1.1Z"/><path d="M291.2,59.1H290l-.6.3-.4.5a1.4,1.4,0,0,0-.2.6v4.7H288V58.5h.8v1.1a2.2,2.2,0,0,1,.7-.9,1.6,1.6,0,0,1,1.2-.4h.5Z"/><path d="M294,61.9l-.9.8v2.6h-.7V55.6h.7v6.2l.8-.8,2.6-2.5h.9l-2.9,2.9,3.2,3.9h-.9Z"/><path d="M302.9,63.6c0-.2-.1-.3-.1-.4l-.3-.4a1,1,0,0,0-.5-.4l-1-.3-1-.2-.7-.4a1.3,1.3,0,0,1-.5-.6,1.4,1.4,0,0,1-.2-.7,1.9,1.9,0,0,1,.2-.7l.5-.6.7-.4,1-.2,1.1.2.8.4a1.8,1.8,0,0,1,.5.7,1.9,1.9,0,0,1,.2.8h-.8a.7.7,0,0,0-.1-.5l-.3-.5-.6-.3h-1.5l-.5.3c-.2.1-.3.2-.3.4s-.1.2-.1.4a.6.6,0,0,0,.1.4c0,.1.1.2.2.4a1.1,1.1,0,0,0,.6.2l.9.3,1.1.3.7.5.5.5a1.9,1.9,0,0,1,.1.8,1,1,0,0,1-.2.7c-.1.3-.2.5-.5.6a1.5,1.5,0,0,1-.8.4l-1,.2-1.2-.2-.8-.5-.5-.6a2.4,2.4,0,0,1-.2-.8h.8a.8.8,0,0,0,.2.7l.4.4.6.3h1.5a.5.5,0,0,0,.5-.3q.3-.2.3-.3A1.7,1.7,0,0,0,302.9,63.6Z"/><rect class="cls-2" x="0.5" y="0.5" width="82" height="82"/><circle class="cls-3" cx="41.5" cy="41.5" r="40"/><path class="cls-4" d="M44.9,36.1l-30,30.1a1.4,1.4,0,0,0,0,1.9,1.3,1.3,0,0,0,1,.4,1.1,1.1,0,0,0,.9-.4L46.9,38Z"/><path class="cls-4" d="M49.1,60.4a20.6,20.6,0,0,0-21.4-5.1,21.4,21.4,0,0,0,1.1-6.7,20.5,20.5,0,0,0-6.2-14.7,2,2,0,0,0-3,0,20.8,20.8,0,0,0,0,29.5h0a20.5,20.5,0,0,0,14.7,6.2h0a20.6,20.6,0,0,0,14.8-6.2,2,2,0,0,0,0-3Z"/><path class="cls-5" d="M59,50.5a20.6,20.6,0,0,0-21.4-5.1A20.9,20.9,0,0,0,32.5,24a2,2,0,0,0-3,0,20.8,20.8,0,0,0,0,29.5h0a20.6,20.6,0,0,0,29.5,0,2,2,0,0,0,0-3Z"/><path class="cls-4" d="M44.2,44.3a20.8,20.8,0,0,0-6.6,1.1l-8.1,8.1a20.6,20.6,0,0,0,29.5,0,2,2,0,0,0,0-3A20.6,20.6,0,0,0,44.2,44.3Z"/><path class="cls-4" d="M68.9,40.6a20.6,20.6,0,0,0-21.4-5.1,20.7,20.7,0,0,0,1-6.6,20.5,20.5,0,0,0-6.1-14.8,2.1,2.1,0,0,0-1.5-.7,2.6,2.6,0,0,0-1.6.7,20.9,20.9,0,0,0,0,29.5h0a20.7,20.7,0,0,0,14.8,6.2,21.1,21.1,0,0,0,14.8-6.1,2.2,2.2,0,0,0,0-3.1Z"/><path class="cls-5" d="M68.9,40.6a20.6,20.6,0,0,0-21.4-5.1l-8.2,8.1a20.7,20.7,0,0,0,14.8,6.2,21.1,21.1,0,0,0,14.8-6.1,2.2,2.2,0,0,0,0-3.1Z"/><path class="cls-5" d="M64.1,16.8A20.8,20.8,0,0,0,43.2,37.7a2.1,2.1,0,0,0,2.1,2.1h0a20.5,20.5,0,0,0,14.8-6.1,20.5,20.5,0,0,0,6.1-14.8A2.1,2.1,0,0,0,64.1,16.8Z"/><path class="cls-4" d="M65.6,17.4,43.8,39.2a2,2,0,0,0,1.5.6h0a20.5,20.5,0,0,0,14.8-6.1,20.5,20.5,0,0,0,6.1-14.8A2,2,0,0,0,65.6,17.4Z"/><path class="cls-5" d="M34.3,54.2a20.8,20.8,0,0,0-6.6,1.1l-8.1,8.1a20.5,20.5,0,0,0,14.7,6.2h0a20.6,20.6,0,0,0,14.8-6.2,2,2,0,0,0,0-3A20.6,20.6,0,0,0,34.3,54.2Z"/><path class="cls-6" d="M44.6,46.3c-.2-3-1.4-7.3-3.7-9.3.5-.4.4-1.1.3-1.6s-1.1-2.9-2.3-3-2.2,1.7-2.5,2.8a1.8,1.8,0,0,0,.1,1.6c-2.4,1.9-3.9,6.1-4.3,9.1-.6,4.7,1,8,6,8.2S44.9,51,44.6,46.3Z"/><path class="cls-7" d="M42.8,45.8a.6.6,0,1,1-1.2,0,.6.6,0,0,1,.6-.6A.6.6,0,0,1,42.8,45.8Z"/><path class="cls-7" d="M42.2,47.6c-.4,0-.7.2-.7.6-.2,2.2-1.1,2.7-2.1,2.8s-.6.4-.5.7a.5.5,0,0,0,.7.5c1.9-.3,2.9-1.5,3.1-3.9A.5.5,0,0,0,42.2,47.6Z"/><path class="cls-7" d="M46.1,39.5l2.1,2.1a.6.6,0,0,0,.9,0,.6.6,0,0,0,0-.8l-2.4-2.5a.8.8,0,0,0-.9-.1l-2.2,1.6a9.1,9.1,0,0,0-1.9-2.9,1.9,1.9,0,0,0,.2-.7,54,54,0,0,0,6.9.8.6.6,0,0,0,.6-.6.6.6,0,0,0-.6-.6,45,45,0,0,1-6.3-.7l1.6-.7a.7.7,0,0,0,.4-.6V30.1L47,27.9a.5.5,0,0,0,0-.8.5.5,0,0,0-.8,0l-2.6,2.3a.4.4,0,0,0-.2.4l-.2,3.6-1.7.8a3.5,3.5,0,0,0-2.6-2.4c-1.2,0-2.1,1-2.7,2.2l-1.7-.9V29.5a.8.8,0,0,0-.2-.4L32,26.6a.6.6,0,0,0-.9,0,.6.6,0,0,0,0,.8l2.2,2.3v3.7a.6.6,0,0,0,.3.6l1.6.8a33.3,33.3,0,0,1-6.3.3.7.7,0,0,0-.7.6.6.6,0,0,0,.6.6,31.6,31.6,0,0,0,6.9-.4c0,.3.1.6.1.8a11.8,11.8,0,0,0-2,2.7l-2.1-1.7a.8.8,0,0,0-.9.1l-2.5,2.3a.5.5,0,0,0-.1.8.6.6,0,0,0,.9.1l2.2-2,1.9,1.6a14.9,14.9,0,0,0-1.4,4.8l-2.8.6c-.2,0-.3.1-.4.3a.7.7,0,0,0-.1.5,9.1,9.1,0,0,1,.6,4.1,10.8,10.8,0,0,1-1.5,5.4c-.2.2,0,.6.3.8a.7.7,0,0,0,.8-.3,11,11,0,0,0,1.7-5.9,12.7,12.7,0,0,0-.5-3.9l1.7-.4v.7c-.2,4.8,2.4,7.3,6.6,7.4s7-2.1,7.2-7v-.6l1.7.5a9.9,9.9,0,0,0-.7,3.8,12.3,12.3,0,0,0,1.1,5.8v.3a.8.8,0,0,0,.9.3.7.7,0,0,0,.3-.8,11,11,0,0,1-1.2-5.5,14.3,14.3,0,0,1,.9-4.1c.1-.1,0-.3,0-.5l-.4-.3-2.8-.8a17.3,17.3,0,0,0-1.1-4.9ZM38.9,33c.9.1,1.8,2,1.8,3.1s-.1.4-.2.4-.8.2-1.4.2h-.7c-.6,0-1.2,0-1.4-.2a.6.6,0,0,1-.1-.4C36.9,34.9,38,33,38.9,33Zm-.7,20.5c-3.9-.1-5.6-2.4-5.4-6.2a15.1,15.1,0,0,1,1.7-6.7,8.8,8.8,0,0,1,2.1-3,3.4,3.4,0,0,0,1.5.2H39a5,5,0,0,0,1.8-.2,11,11,0,0,1,2,3.2h0A17.8,17.8,0,0,1,44,47.7C43.9,51.5,42.1,53.6,38.2,53.5Z"/></g></g></svg>