<svg xmlns="http://www.w3.org/2000/svg" viewBox="0 0 471.9 81.9"><defs><style>.cls-1,.cls-2{fill:#fff;}.cls-2{stroke:#fff;stroke-miterlimit:10;}.cls-3{fill:#f7f789;}.cls-4{fill:#ff9f00;}.cls-5{fill:#f77e00;}.cls-6{fill:#d6ea13;}.cls-7{fill:#1e1e1a;}</style></defs><title>Banner_1</title><g id="Layer_2" data-name="Layer 2"><g id="Layer_1-2" data-name="Layer 1"><rect class="cls-1" x="0.5" y="0.5" width="471.4" height="81.4"/><path d="M101.9,39.3v9.8H96V23.5h8.9a10.8,10.8,0,0,1,7,2.1,6.6,6.6,0,0,1,2.6,5.6,5.5,5.5,0,0,1-1,3.4,7,7,0,0,1-3.1,2.4,5.3,5.3,0,0,1,3.4,2.2,6.7,6.7,0,0,1,1,3.9v1.6a11.1,11.1,0,0,0,.3,2.3,3.9,3.9,0,0,0,1,1.8v.3H110a2.5,2.5,0,0,1-.9-1.9,24.6,24.6,0,0,1-.2-2.6V43.1a3.5,3.5,0,0,0-3.8-3.8Zm0-4.5h3a4.1,4.1,0,0,0,2.8-.9,2.9,2.9,0,0,0,.9-2.3,3,3,0,0,0-1-2.5,3.3,3.3,0,0,0-2.7-1h-3Z"/><path d="M124.8,25.7h-6v-4h6Zm0,23.4h-6v-19h6Z"/><path d="M136.6,44.9a2.4,2.4,0,0,0,1.8-.6,2.9,2.9,0,0,0,.6-1.9h5.4a5.9,5.9,0,0,1-2.1,5,8,8,0,0,1-5.7,2c-2.9,0-5.2-.9-6.7-2.7a10.1,10.1,0,0,1-2.4-7v-.4a9.8,9.8,0,0,1,2.4-6.9,8.2,8.2,0,0,1,6.6-2.7,7.7,7.7,0,0,1,5.8,2,6.6,6.6,0,0,1,2.1,5.5H139a3.8,3.8,0,0,0-.6-2.2,2.2,2.2,0,0,0-1.9-.9,2.6,2.6,0,0,0-2.4,1.4,9.5,9.5,0,0,0-.6,3.7v.4a9.7,9.7,0,0,0,.6,3.8A2.6,2.6,0,0,0,136.6,44.9Z"/><path d="M155.3,49.5a9.1,9.1,0,0,1-6.8-2.6,9.6,9.6,0,0,1-2.4-6.6v-.7a10.3,10.3,0,0,1,2.3-7.1c1.5-1.8,3.7-2.7,6.7-2.7a7.4,7.4,0,0,1,5.9,2.3,8.9,8.9,0,0,1,2.1,6.3v3.1H152.2a3.8,3.8,0,0,0,1.1,2.4,4.1,4.1,0,0,0,2.8.9l2.8-.2,2.6-.9,1.5,3.6a12.6,12.6,0,0,1-3.3,1.5A16.1,16.1,0,0,1,155.3,49.5Zm-.2-15.2a2.3,2.3,0,0,0-2.1.9,4.6,4.6,0,0,0-.8,2.5h5.1v-.5a3.4,3.4,0,0,0-.5-2.2A1.9,1.9,0,0,0,155.1,34.3Z"/><path d="M175,49.1V23.5h9.3a10.2,10.2,0,0,1,7.6,3,10,10,0,0,1,3,7.5v4.6a10.1,10.1,0,0,1-10.6,10.5Zm5.9-21V44.6h3.4a4.2,4.2,0,0,0,3.4-1.7,6.5,6.5,0,0,0,1.3-4.3V34a6.4,6.4,0,0,0-1.3-4.2,4.2,4.2,0,0,0-3.4-1.7Z"/><path d="M204.4,25.7h-6v-4h6Zm0,23.4h-6v-19h6Z"/><path d="M217.9,43.8a1.5,1.5,0,0,0-.8-1.3,10.3,10.3,0,0,0-2.9-1,11.1,11.1,0,0,1-5-2,4.5,4.5,0,0,1-1.7-3.7,5.4,5.4,0,0,1,2.1-4.3,8.4,8.4,0,0,1,5.7-1.7,9.4,9.4,0,0,1,6.1,1.7,4.8,4.8,0,0,1,2.1,4.3V36h-5.8a3,3,0,0,0-.5-1.8,3.1,3.1,0,0,0-1.9-.5,2,2,0,0,0-1.5.5,1.4,1.4,0,0,0-.7,1.3,1.7,1.7,0,0,0,.8,1.3,8.9,8.9,0,0,0,2.9.9c2.3.5,4.1,1.1,5.2,2.1a4.6,4.6,0,0,1,1.6,3.8,5,5,0,0,1-2.2,4.2,9.8,9.8,0,0,1-6.1,1.7,9,9,0,0,1-6.1-2,5.6,5.6,0,0,1-2.2-4.4h5.5a2.5,2.5,0,0,0,.8,2,3.4,3.4,0,0,0,2.2.6,3,3,0,0,0,1.8-.5A1.5,1.5,0,0,0,217.9,43.8Z"/><path d="M234.9,49.5a9,9,0,0,1-6.8-2.6,9.7,9.7,0,0,1-2.5-6.6v-.7a10.3,10.3,0,0,1,2.4-7.1,8.1,8.1,0,0,1,6.6-2.7c2.6,0,4.6.7,6,2.3a8.9,8.9,0,0,1,2.1,6.3v3.1H231.8a3.8,3.8,0,0,0,1.1,2.4,3.9,3.9,0,0,0,2.8.9l2.8-.2,2.6-.9,1.4,3.6a10.2,10.2,0,0,1-3.3,1.5A15.4,15.4,0,0,1,234.9,49.5Zm-.3-15.2a2.6,2.6,0,0,0-2.1.9,4.6,4.6,0,0,0-.7,2.5h5.1v-.5a3.4,3.4,0,0,0-.5-2.2A1.9,1.9,0,0,0,234.6,34.3Z"/><path d="M256.2,49.1a5,5,0,0,1-.5-1.3,9.4,9.4,0,0,1-.4-1.6,7.8,7.8,0,0,1-1.9,2.4,4.9,4.9,0,0,1-3,.9,6.5,6.5,0,0,1-4.6-1.5,5.7,5.7,0,0,1-1.7-4.2,5.1,5.1,0,0,1,2.1-4.4c1.5-1,3.6-1.5,6.5-1.5h2.4V36.5a3,3,0,0,0-.5-1.8,2.1,2.1,0,0,0-1.8-.7,2.5,2.5,0,0,0-1.6.5,2.1,2.1,0,0,0-.5,1.5h-5.8a5.3,5.3,0,0,1,2.2-4.4,9.6,9.6,0,0,1,6.1-1.7,8.8,8.8,0,0,1,5.7,1.7,6.4,6.4,0,0,1,2.2,5v7.2a23,23,0,0,0,.2,2.8,19.8,19.8,0,0,0,.8,2.6ZM252,45.3a4.2,4.2,0,0,0,2-.5,3.3,3.3,0,0,0,1.1-1.3V41h-2.4a2.8,2.8,0,0,0-2,.7,2.8,2.8,0,0,0-.6,1.8,1.7,1.7,0,0,0,.5,1.3A2.4,2.4,0,0,0,252,45.3Z"/><path d="M274.2,43.8a1.5,1.5,0,0,0-.8-1.3,10.3,10.3,0,0,0-2.9-1,11.6,11.6,0,0,1-5-2,4.5,4.5,0,0,1-1.7-3.7,5.4,5.4,0,0,1,2.1-4.3,8.9,8.9,0,0,1,5.8-1.7,9.3,9.3,0,0,1,6,1.7,5.1,5.1,0,0,1,2.2,4.3V36h-5.7a2.4,2.4,0,0,0-.6-1.8,3.1,3.1,0,0,0-1.9-.5,2,2,0,0,0-1.5.5,1.6,1.6,0,0,0-.7,1.3,1.7,1.7,0,0,0,.8,1.3,9.9,9.9,0,0,0,2.9.9c2.4.5,4.1,1.1,5.2,2.1a4.7,4.7,0,0,1,1.7,3.8,5.1,5.1,0,0,1-2.3,4.2,11,11,0,0,1-12.2-.3,5.2,5.2,0,0,1-2.1-4.4h5.4a2.5,2.5,0,0,0,.8,2,3.6,3.6,0,0,0,2.2.6,3,3,0,0,0,1.8-.5A1.5,1.5,0,0,0,274.2,43.8Z"/><path d="M291.2,49.5a9,9,0,0,1-6.8-2.6,9.6,9.6,0,0,1-2.4-6.6v-.7a10.3,10.3,0,0,1,2.3-7.1c1.5-1.8,3.7-2.7,6.7-2.7a7.4,7.4,0,0,1,5.9,2.3,8.9,8.9,0,0,1,2.1,6.3v3.1H288.1a3.8,3.8,0,0,0,1.1,2.4,4.1,4.1,0,0,0,2.8.9l2.8-.2,2.6-.9,1.5,3.6a12,12,0,0,1-3.4,1.5A14.9,14.9,0,0,1,291.2,49.5ZM291,34.3a2.3,2.3,0,0,0-2.1.9,3.9,3.9,0,0,0-.8,2.5h5.1v-.5a3.4,3.4,0,0,0-.5-2.2A1.9,1.9,0,0,0,291,34.3Z"/><path d="M310.9,49.1V23.5h9.3a10.2,10.2,0,0,1,7.6,3,10,10,0,0,1,3,7.5v4.6a10.1,10.1,0,0,1-10.6,10.5Zm5.9-21V44.6h3.4a4.2,4.2,0,0,0,3.4-1.7,6.5,6.5,0,0,0,1.3-4.3V34a6.4,6.4,0,0,0-1.3-4.2,4.2,4.2,0,0,0-3.4-1.7Z"/><path d="M342.5,49.5a9,9,0,0,1-6.8-2.6,9.6,9.6,0,0,1-2.4-6.6v-.7a10.3,10.3,0,0,1,2.3-7.1c1.5-1.8,3.7-2.7,6.7-2.7a7.4,7.4,0,0,1,5.9,2.3,8.9,8.9,0,0,1,2.1,6.3v3.1H339.4a3.8,3.8,0,0,0,1.1,2.4,4.1,4.1,0,0,0,2.8.9l2.8-.2,2.6-.9,1.4,3.6a10.2,10.2,0,0,1-3.3,1.5A14.9,14.9,0,0,1,342.5,49.5Zm-.2-15.2a2.3,2.3,0,0,0-2.1.9,3.9,3.9,0,0,0-.8,2.5h5.1v-.5a3.4,3.4,0,0,0-.5-2.2A1.9,1.9,0,0,0,342.3,34.3Z"/><path d="M359.7,25.4v4.7h3v4.1h-3v8.7a2.1,2.1,0,0,0,.4,1.5,1.4,1.4,0,0,0,1.1.5h1.4l.4,4.4-1.6.3h-1.7a5.7,5.7,0,0,1-4.4-1.6c-1.1-1-1.6-2.7-1.6-4.9V34.2h-2.6V30.1h2.6V25.4Z"/><path d="M374,49.5a9.1,9.1,0,0,1-6.8-2.6,9.6,9.6,0,0,1-2.4-6.6v-.7a10.3,10.3,0,0,1,2.3-7.1c1.5-1.8,3.8-2.7,6.7-2.7a7.4,7.4,0,0,1,5.9,2.3,8.5,8.5,0,0,1,2.2,6.3v3.1h-11A3.8,3.8,0,0,0,372,44a4.1,4.1,0,0,0,2.8.9l2.8-.2,2.6-.9,1.5,3.6a12.6,12.6,0,0,1-3.3,1.5A16.1,16.1,0,0,1,374,49.5Zm-.2-15.2a2.3,2.3,0,0,0-2.1.9,4.6,4.6,0,0,0-.8,2.5h5.2v-.5a3.4,3.4,0,0,0-.6-2.2A1.9,1.9,0,0,0,373.8,34.3Z"/><path d="M392.5,44.9a2.4,2.4,0,0,0,1.8-.6,2.9,2.9,0,0,0,.6-1.9h5.5a6.3,6.3,0,0,1-2.2,5,8,8,0,0,1-5.7,2,8.5,8.5,0,0,1-6.7-2.7,10.5,10.5,0,0,1-2.3-7v-.4a10.3,10.3,0,0,1,2.3-6.9,8.5,8.5,0,0,1,6.7-2.7,8,8,0,0,1,5.8,2,7.2,7.2,0,0,1,2.1,5.5h-5.5a3.8,3.8,0,0,0-.6-2.2,2,2,0,0,0-1.8-.9,2.4,2.4,0,0,0-2.4,1.4,7.9,7.9,0,0,0-.7,3.7v.4a8.1,8.1,0,0,0,.7,3.8A2.3,2.3,0,0,0,392.5,44.9Z"/><path d="M409.6,25.4v4.7h3v4.1h-3v8.7a2.7,2.7,0,0,0,.4,1.5,1.6,1.6,0,0,0,1.1.5h1.5l.4,4.4-1.6.3h-1.8a5.7,5.7,0,0,1-4.4-1.6c-1-1-1.5-2.7-1.5-4.9V34.2H401V30.1h2.7V25.4Z"/><path d="M421.7,25.7h-5.9v-4h5.9Zm0,23.4h-5.9v-19h5.9Z"/><path d="M424.6,39.4a10,10,0,0,1,2.4-6.9,8.7,8.7,0,0,1,6.8-2.7,8.8,8.8,0,0,1,6.8,2.7,10,10,0,0,1,2.4,6.9v.4a10.1,10.1,0,0,1-2.4,7,8.8,8.8,0,0,1-6.8,2.7,8.7,8.7,0,0,1-6.8-2.7,10.1,10.1,0,0,1-2.4-7Zm5.9.4a8,8,0,0,0,.8,3.8,3.1,3.1,0,0,0,5,0,8.2,8.2,0,0,0,.8-3.8v-.4a8.1,8.1,0,0,0-.8-3.7,2.7,2.7,0,0,0-2.5-1.4,2.6,2.6,0,0,0-2.5,1.4,8.1,8.1,0,0,0-.8,3.7Z"/><path d="M451.1,30.1l.2,2.7a6,6,0,0,1,2.3-2.2,5.3,5.3,0,0,1,3.1-.8,5.1,5.1,0,0,1,4.3,1.9c1.1,1.2,1.6,3.2,1.6,6V49.1h-5.9V37.7a4.3,4.3,0,0,0-.6-2.6,2.1,2.1,0,0,0-1.7-.8,3.3,3.3,0,0,0-1.7.4,3.8,3.8,0,0,0-1.3.9V49.1h-5.9v-19Z"/><path d="M99.3,63.9a2.7,2.7,0,0,1-.8.7,2.9,2.9,0,0,1-1.4.3l-.9-.2-.7-.4a2,2,0,0,1-.4-.8,2.5,2.5,0,0,1-.2-1.2V57.9h.7v4.4a2.4,2.4,0,0,0,.2.9l.3.6.5.3H98l.6-.3.5-.4a1.4,1.4,0,0,0,.2-.6V57.9h.8v6.8h-.8Z"/><path d="M106.2,63c0-.2-.1-.3-.1-.4s-.1-.3-.3-.4a1,1,0,0,0-.5-.4l-1-.3-1-.2-.7-.4-.5-.6a1.4,1.4,0,0,1-.2-.7,1.9,1.9,0,0,1,.2-.7l.5-.6.8-.4,1-.2,1,.2.8.4a1.8,1.8,0,0,1,.5.7,1.9,1.9,0,0,1,.2.8h-.8a.7.7,0,0,0-.1-.5l-.3-.5-.6-.3h-1.5l-.5.3-.3.4c-.1.1-.1.2-.1.4a.6.6,0,0,0,.1.4c0,.1.1.2.2.4l.6.2.9.3,1.1.3.8.5.4.5a1.9,1.9,0,0,1,.1.8,1.7,1.7,0,0,1-.1.7c-.2.3-.3.5-.6.6l-.8.4-1,.2-1.2-.2-.8-.5-.5-.6a2.4,2.4,0,0,1-.2-.8h.8a1.4,1.4,0,0,0,.2.7c.1.2.3.3.4.4l.6.3h1.5a.5.5,0,0,0,.5-.3l.4-.3A4.3,4.3,0,0,1,106.2,63Z"/><path d="M108.6,55.9c0-.2,0-.3.1-.4h.8c.1.1.1.2.1.4a.4.4,0,0,1-.1.3.5.5,0,0,1-.4.2l-.4-.2A.4.4,0,0,1,108.6,55.9Zm.9,8.8h-.8V57.9h.8Z"/><path d="M112.3,57.9V59l.4-.5.5-.4.6-.3h.7l1,.2.7.4a5.9,5.9,0,0,1,.4.8,4.1,4.1,0,0,1,.1,1.2v4.4H116V60.3c0-.4-.1-.7-.1-.9a.9.9,0,0,0-.4-.6l-.5-.3h-1.4l-.6.4-.4.5-.3.6v4.7h-.7V57.9Z"/><path d="M118.4,61.2a5.9,5.9,0,0,1,.2-1.4,3.7,3.7,0,0,1,.5-1.1,2.7,2.7,0,0,1,.8-.7,2.3,2.3,0,0,1,1.1-.3,2.5,2.5,0,0,1,1.3.3,2.6,2.6,0,0,1,.9.9v-1h.7v6.7a2.2,2.2,0,0,1-.2,1.2,1.9,1.9,0,0,1-.5.9,4.7,4.7,0,0,1-.9.6l-1.1.2h-.7l-.6-.2-.6-.4a1.2,1.2,0,0,1-.5-.5l.4-.5a3.2,3.2,0,0,0,.9.8,1.6,1.6,0,0,0,1,.2h.9a1.5,1.5,0,0,0,.6-.5c.2-.1.3-.4.4-.6a3,3,0,0,0,.2-1v-.8a3.2,3.2,0,0,1-.9.8,2.8,2.8,0,0,1-1.3.3,2.3,2.3,0,0,1-1.1-.3,2.7,2.7,0,0,1-.8-.7,3.7,3.7,0,0,1-.5-1.1,5.9,5.9,0,0,1-.2-1.4Zm.8.2a4.1,4.1,0,0,0,.1,1.1l.3.9.7.6.9.2h.7c.2-.1.4-.1.5-.3l.5-.4.3-.5V59.8l-.3-.6-.4-.4-.6-.3h-.7l-.9.2-.7.6-.3.9a4.1,4.1,0,0,0-.1,1.1Z"/><path d="M135.8,61.9l-.3,1.2a3.6,3.6,0,0,1-.7,1l-1.1.6-1.3.2a3.2,3.2,0,0,1-1.4-.3,2.4,2.4,0,0,1-1.1-.9,3.3,3.3,0,0,1-.7-1.3,4.7,4.7,0,0,1-.3-1.7V59.5a4.7,4.7,0,0,1,.3-1.7,3.3,3.3,0,0,1,.7-1.3,3.1,3.1,0,0,1,1.1-.8,4.1,4.1,0,0,1,2.8-.1,2.1,2.1,0,0,1,1,.6,2.2,2.2,0,0,1,.7.9l.3,1.3H135a1.7,1.7,0,0,0-.3-1,2,2,0,0,0-.4-.8l-.8-.4-1.1-.2a2,2,0,0,0-1.1.3,2.8,2.8,0,0,0-.9.7,3.7,3.7,0,0,0-.5,1.1,5.9,5.9,0,0,0-.2,1.4v1.2a5.9,5.9,0,0,0,.2,1.4,3.7,3.7,0,0,0,.5,1.1,1.8,1.8,0,0,0,.8.7,2.7,2.7,0,0,0,1.2.3,2.4,2.4,0,0,0,1.8-.6,3,3,0,0,0,.8-1.7Z"/><path d="M137.1,61.2a5.9,5.9,0,0,1,.2-1.4l.6-1.1,1-.7a2.8,2.8,0,0,1,1.3-.3,2.7,2.7,0,0,1,1.2.3l1,.7a2.4,2.4,0,0,1,.6,1.1,3.2,3.2,0,0,1,.2,1.4v.2a3.2,3.2,0,0,1-.2,1.4,2.4,2.4,0,0,1-.6,1.1l-1,.7a2.4,2.4,0,0,1-1.2.3,2.8,2.8,0,0,1-1.3-.3l-1-.7-.6-1.1a5.9,5.9,0,0,1-.2-1.4Zm.8.2a4.1,4.1,0,0,0,.1,1.1l.4.9.8.6,1,.2,1-.2.7-.6a3.6,3.6,0,0,0,.4-.9,4.3,4.3,0,0,0,.2-1.1v-.2a4.3,4.3,0,0,0-.2-1.1,3.6,3.6,0,0,0-.4-.9l-.8-.6-.9-.2-1,.2-.8.6-.4.9a4.1,4.1,0,0,0-.1,1.1Z"/><path d="M145.5,57.9V59l.4-.5.6-.4.6-.3h.7l.9.2.7.4a2,2,0,0,1,.4.8,3.7,3.7,0,0,1,.2,1.2v4.4h-.8V60.3a2.2,2.2,0,0,0-.1-.9,1.6,1.6,0,0,0-.3-.6l-.5-.3h-1.4a.9.9,0,0,0-.6.4l-.5.5-.3.6v4.7h-.7V57.9Z"/><path d="M154.1,63.7l2.1-5.8h.7l-2.5,6.8h-.6l-2.6-6.8h.8Z"/><path d="M157.7,61.2a3.2,3.2,0,0,1,.2-1.4,2.4,2.4,0,0,1,.6-1.1l1-.7a2.4,2.4,0,0,1,1.2-.3,2.8,2.8,0,0,1,1.3.3l1,.7.6,1.1a5.9,5.9,0,0,1,.2,1.4v.2a5.9,5.9,0,0,1-.2,1.4l-.6,1.1-1,.7a2.8,2.8,0,0,1-1.3.3l-1.2-.3-1-.7a2.4,2.4,0,0,1-.6-1.1,3.2,3.2,0,0,1-.2-1.4Zm.7.2a4.3,4.3,0,0,0,.2,1.1,3.6,3.6,0,0,0,.4.9l.8.6.9.2,1-.2.8-.6.4-.9a4.1,4.1,0,0,0,.1-1.1v-.2a4.1,4.1,0,0,0-.1-1.1l-.4-.9-.8-.6-1-.2-1,.2-.7.6a3.6,3.6,0,0,0-.4.9,4.3,4.3,0,0,0-.2,1.1Z"/><path d="M166.2,64.7h-.7V55h.7Z"/><path d="M172.7,63.9a2.2,2.2,0,0,1-.9.7,2.5,2.5,0,0,1-1.3.3l-.9-.2-.7-.4a2.2,2.2,0,0,1-.5-.8,4.9,4.9,0,0,1-.1-1.2V57.9h.7v4.4c0,.3.1.7.1.9l.4.6.5.3h1.4l.6-.3.4-.4.3-.6V57.9h.8v6.8h-.8Z"/><path d="M176.6,56.1v1.8H178v.6h-1.4v4.6a.7.7,0,0,0,.1.5.5.5,0,0,0,.2.4l.3.2h.9v.7h-1.4l-.4-.3a.7.7,0,0,1-.3-.6,1.9,1.9,0,0,1-.2-.8V58.5h-1.2v-.6h1.2V56.1Z"/><path d="M179.6,55.9c0-.2,0-.3.1-.4h.8c.1.1.1.2.1.4a.4.4,0,0,1-.1.3l-.4.2-.4-.2A.4.4,0,0,1,179.6,55.9Zm.9,8.8h-.8V57.9h.8Z"/><path d="M182.1,61.2a5.9,5.9,0,0,1,.2-1.4l.6-1.1,1-.7a2.8,2.8,0,0,1,1.3-.3,2.7,2.7,0,0,1,1.2.3l1,.7a2.4,2.4,0,0,1,.6,1.1,3.2,3.2,0,0,1,.2,1.4v.2a3.2,3.2,0,0,1-.2,1.4,2.4,2.4,0,0,1-.6,1.1l-1,.7a2.4,2.4,0,0,1-1.2.3,2.8,2.8,0,0,1-1.3-.3l-1-.7-.6-1.1a5.9,5.9,0,0,1-.2-1.4Zm.8.2a4.1,4.1,0,0,0,.1,1.1,4.1,4.1,0,0,0,.5.9,2.2,2.2,0,0,0,.7.6l1,.2,1-.2.7-.6a3.6,3.6,0,0,0,.4-.9,4.3,4.3,0,0,0,.2-1.1v-.2a4.3,4.3,0,0,0-.2-1.1,3.6,3.6,0,0,0-.4-.9l-.8-.6-.9-.2-1,.2a2.2,2.2,0,0,0-.7.6,4.1,4.1,0,0,0-.5.9,4.1,4.1,0,0,0-.1,1.1Z"/><path d="M190.5,57.9V59l.5-.5a1,1,0,0,1,.5-.4l.6-.3h.7l.9.2.7.4a2,2,0,0,1,.4.8,3.7,3.7,0,0,1,.2,1.2v4.4h-.8V60.3a2.2,2.2,0,0,0-.1-.9,1.6,1.6,0,0,0-.3-.6l-.5-.3h-1.4a1.3,1.3,0,0,0-.6.4l-.5.5a1.4,1.4,0,0,0-.2.6v4.7h-.8V57.9Z"/><path d="M201.3,64.7c-.1-.1-.1-.2-.1-.4s-.1-.3-.1-.5-.2.3-.4.4l-.5.3-.6.3h-.8l-.9-.2-.7-.4-.5-.6a1.9,1.9,0,0,1-.1-.8,2.9,2.9,0,0,1,.2-.9,1.3,1.3,0,0,1,.6-.7l1-.4,1.3-.2h1.4V60a1.6,1.6,0,0,0-.4-1.2,2,2,0,0,0-1.4-.4h-.7l-.6.3-.4.4c0,.2-.1.4-.1.6h-.8a2.4,2.4,0,0,1,.2-.8,3.4,3.4,0,0,1,.6-.6l.8-.5,1.1-.2,1,.2a2,2,0,0,1,.8.4,1.8,1.8,0,0,1,.5.7,3,3,0,0,1,.2,1v4c0,.2.1.3.1.4s.1.2.1.3h-.8Zm-2.4-.5h.8l.6-.3.5-.4.3-.6V61.3h-2.3l-.8.3c-.2.2-.4.3-.5.5a1,1,0,0,0,0,1.2.5.5,0,0,0,.3.4l.4.3Z"/><path d="M204.8,64.7H204V55h.8Z"/><path d="M217,64.7h-.7l-5.4-7.9v7.9h-.7V55.5h.7l5.4,7.9V55.5h.7Z"/><path d="M221.9,64.9a2.8,2.8,0,0,1-1.3-.3,3.1,3.1,0,0,1-.9-.7,3,3,0,0,1-.7-1.1,5.1,5.1,0,0,1-.2-1.3v-.3a5.9,5.9,0,0,1,.2-1.4,4.1,4.1,0,0,1,.7-1.1,3.1,3.1,0,0,1,.9-.7,2.3,2.3,0,0,1,1.1-.3,2.4,2.4,0,0,1,1.2.3,1.6,1.6,0,0,1,.8.6,3.3,3.3,0,0,1,.6,1,5.3,5.3,0,0,1,.1,1.3v.5h-4.9a4.3,4.3,0,0,0,.2,1.1,2.2,2.2,0,0,0,.5.8,1.3,1.3,0,0,0,.7.6l1,.2L223,64a2.7,2.7,0,0,0,.8-.7l.5.3-.4.5-.5.4-.7.3Zm-.2-6.5a1.2,1.2,0,0,0-.8.2l-.6.4a2.2,2.2,0,0,0-.5.8,2.4,2.4,0,0,0-.2.9h4.1a2.4,2.4,0,0,0-.2-.8,1.5,1.5,0,0,0-.3-.7l-.6-.5A1.5,1.5,0,0,0,221.7,58.4Z"/><path d="M230.3,63.9a2.7,2.7,0,0,1-.8.7,2.9,2.9,0,0,1-1.4.3l-.9-.2-.7-.4a2,2,0,0,1-.4-.8,2.5,2.5,0,0,1-.2-1.2V57.9h.8v4.4a2.5,2.5,0,0,0,.1.9l.3.6.5.3H229l.6-.3.5-.4a1.4,1.4,0,0,0,.2-.6V57.9h.8v6.8h-.7Z"/><path d="M236.2,58.5H235l-.5.3a1,1,0,0,0-.4.5l-.3.6v4.7h-.7V57.9h.7V59a2.4,2.4,0,0,1,.8-.9,1.6,1.6,0,0,1,1.2-.4h.5Z"/><path d="M241.5,64.7c0-.1-.1-.2-.1-.4v-.5l-.4.4-.6.3-.6.3H239l-.9-.2-.7-.4a2.1,2.1,0,0,1-.4-.6,1.9,1.9,0,0,1-.2-.8,2.9,2.9,0,0,1,.2-.9,2.6,2.6,0,0,1,1.7-1.1l1.3-.2h1.4V60a1.7,1.7,0,0,0-.5-1.2,1.7,1.7,0,0,0-1.3-.4h-.7l-.6.3c-.2.1-.3.3-.4.4a1.3,1.3,0,0,0-.1.6H237a2.4,2.4,0,0,1,.2-.8l.5-.6.8-.5,1.1-.2,1,.2.8.4a1.8,1.8,0,0,1,.5.7,1.6,1.6,0,0,1,.2,1v3.7c0,.1.1.2.1.3v.4a.4.4,0,0,1,.1.3h-.8Zm-2.4-.5h.8l.6-.3.5-.4.4-.6V61.3H239l-.8.3-.4.5a.7.7,0,0,0-.2.6,1.3,1.3,0,0,0,.1.6l.3.4.5.3Z"/><path d="M245,64.7h-.8V55h.8Z"/><path d="M257.3,64.7h-.8l-5.3-7.9v7.9h-.8V55.5h.8l5.3,7.9V55.5h.8Z"/><path d="M262.1,64.9a2.4,2.4,0,0,1-1.2-.3l-1-.7a2,2,0,0,1-.6-1.1,2.8,2.8,0,0,1-.3-1.3v-.3a3.2,3.2,0,0,1,.3-1.4,2.4,2.4,0,0,1,.6-1.1l.9-.7a2.7,2.7,0,0,1,1.2-.3,2,2,0,0,1,1.1.3,1.5,1.5,0,0,1,.9.6,3.1,3.1,0,0,1,.5,1,5.1,5.1,0,0,1,.2,1.3v.5h-4.9a2.2,2.2,0,0,0,.2,1.1,2,2,0,0,0,.4.8,1.6,1.6,0,0,0,.8.6l.9.2,1.1-.2.9-.7.4.3a2.9,2.9,0,0,1-.9.9l-.7.3Zm-.1-6.5a1.1,1.1,0,0,0-.8.2l-.7.4a2,2,0,0,0-.4.8c-.2.2-.2.6-.3.9h4.1a2.2,2.2,0,0,0-.1-.8,1.6,1.6,0,0,0-.4-.7,1,1,0,0,0-.6-.5A1.1,1.1,0,0,0,262,58.4Z"/><path d="M267.3,56.1v1.8h1.5v.6h-1.5v4.6a4.3,4.3,0,0,0,.1.5c.1.2.1.3.2.4l.3.2h1v.7h-1.4l-.5-.3-.3-.6a1.9,1.9,0,0,1-.1-.8V58.5h-1.3v-.6h1.3V56.1Z"/><path d="M272,63.2v.5l.2-.6,1.6-5.2h.6l1.7,5.2.2.7v-.7l1.4-5.2h.8l-2,6.8h-.6l-1.8-5.4v0l-1.7,5.4h-.7l-1.9-6.8h.7Z"/><path d="M279.7,61.2a5.9,5.9,0,0,1,.2-1.4,4.1,4.1,0,0,1,.7-1.1,2.2,2.2,0,0,1,.9-.7,3,3,0,0,1,2.6,0,3.1,3.1,0,0,1,.9.7,2.4,2.4,0,0,1,.6,1.1,3.2,3.2,0,0,1,.3,1.4v.2a3.2,3.2,0,0,1-.3,1.4,2.4,2.4,0,0,1-.6,1.1,3.1,3.1,0,0,1-.9.7,3,3,0,0,1-2.6,0,3.1,3.1,0,0,1-.9-.7,4.1,4.1,0,0,1-.7-1.1,5.9,5.9,0,0,1-.2-1.4Zm.8.2a4.1,4.1,0,0,0,.1,1.1,4.1,4.1,0,0,0,.5.9l.7.6,1,.2,1-.2.7-.6a3.6,3.6,0,0,0,.4-.9,4.3,4.3,0,0,0,.2-1.1v-.2a4.3,4.3,0,0,0-.2-1.1,3.6,3.6,0,0,0-.4-.9l-.7-.6-1-.2-1,.2-.7.6a4.1,4.1,0,0,0-.5.9,4.1,4.1,0,0,0-.1,1.1Z"/><path d="M290.6,58.5h-1.2l-.6.3-.4.5a1.4,1.4,0,0,0-.2.6v4.7h-.8V57.9h.8V59a2.2,2.2,0,0,1,.7-.9,1.7,1.7,0,0,1,1.2-.4h.5Z"/><path d="M293.4,61.3l-.8.8v2.6h-.8V55h.8v6.2l.7-.8,2.6-2.5h1l-3,2.9,3.2,3.9h-.9Z"/><path d="M302.3,63c0-.2,0-.3-.1-.4s-.1-.3-.3-.4a1,1,0,0,0-.5-.4l-1-.3-1-.2-.7-.4-.5-.6a1.4,1.4,0,0,1-.2-.7,1.9,1.9,0,0,1,.2-.7l.5-.6a2,2,0,0,1,.8-.4l1-.2,1,.2a2,2,0,0,1,.8.4,1.8,1.8,0,0,1,.5.7,1.9,1.9,0,0,1,.2.8h-.8a.7.7,0,0,0-.1-.5l-.3-.5-.6-.3h-1.5l-.5.3-.3.4c-.1.1-.1.2-.1.4a.6.6,0,0,0,.1.4c0,.1.1.2.2.4l.6.2.9.3,1.1.3.8.5a1,1,0,0,1,.4.5,1.9,1.9,0,0,1,.1.8,1.7,1.7,0,0,1-.1.7c-.2.3-.3.5-.5.6l-.8.4-1.1.2-1.1-.2a1.9,1.9,0,0,1-.9-.5l-.5-.6a2.4,2.4,0,0,1-.2-.8h.8a1.4,1.4,0,0,0,.2.7c.1.2.3.3.4.4l.6.3h1.5a.5.5,0,0,0,.5-.3l.4-.3A4.3,4.3,0,0,1,302.3,63Z"/><rect class="cls-2" x="0.5" y="0.5" width="81.4" height="80.85"/><ellipse class="cls-3" cx="41.2" cy="40.9" rx="39.7" ry="39.4"/><path class="cls-4" d="M44.6,35.6,14.8,65.3a1.4,1.4,0,0,0,0,1.9,1.5,1.5,0,0,0,.9.4,1.8,1.8,0,0,0,1-.4L46.5,37.5Z"/><path class="cls-4" d="M48.8,59.5a20.7,20.7,0,0,0-14.7-6,20.7,20.7,0,0,0-6.6,1A20.2,20.2,0,0,0,28.6,48a20.6,20.6,0,0,0-6.1-14.6,2.3,2.3,0,0,0-3.1,0,20.6,20.6,0,0,0,0,29.2h0a21.2,21.2,0,0,0,14.7,6h0a21.2,21.2,0,0,0,14.7-6,2.5,2.5,0,0,0,.6-1.6A2.2,2.2,0,0,0,48.8,59.5Z"/><path class="cls-5" d="M58.6,49.8a20.6,20.6,0,0,0-21.3-5,20.8,20.8,0,0,0-5-21.2,2.2,2.2,0,0,0-1.5-.6,2.3,2.3,0,0,0-1.6.6,20.8,20.8,0,0,0,0,29.2h0a20.9,20.9,0,0,0,14.7,6,20.6,20.6,0,0,0,14.7-6,2.2,2.2,0,0,0,.6-1.5A2,2,0,0,0,58.6,49.8Z"/><path class="cls-4" d="M43.9,43.7a20.8,20.8,0,0,0-6.6,1.1l-8.1,8a20.9,20.9,0,0,0,14.7,6,20.6,20.6,0,0,0,14.7-6,2.2,2.2,0,0,0,.6-1.5,2,2,0,0,0-.6-1.5A20.6,20.6,0,0,0,43.9,43.7Z"/><path class="cls-4" d="M68.4,40a20.6,20.6,0,0,0-14.7-6,21.1,21.1,0,0,0-6.6,1,20.3,20.3,0,0,0-5-21.1,2.2,2.2,0,0,0-3,0A20.2,20.2,0,0,0,33,28.5,19.8,19.8,0,0,0,39.1,43h0a20.6,20.6,0,0,0,14.6,6.1,21,21,0,0,0,14.7-6,2.2,2.2,0,0,0,0-3.1Z"/><path class="cls-5" d="M68.4,40a20.6,20.6,0,0,0-14.7-6,21.1,21.1,0,0,0-6.6,1l-8,8a20.6,20.6,0,0,0,14.6,6.1,21,21,0,0,0,14.7-6,2.2,2.2,0,0,0,0-3.1Z"/><path class="cls-5" d="M63.6,16.5A20.8,20.8,0,0,0,42.8,37.1,2.2,2.2,0,0,0,45,39.3h0a20.6,20.6,0,0,0,14.7-6.1,20.2,20.2,0,0,0,6.1-14.5A2.2,2.2,0,0,0,63.6,16.5Z"/><path class="cls-4" d="M65.1,17.2,43.5,38.7a2.5,2.5,0,0,0,1.5.6h0a20.6,20.6,0,0,0,14.7-6.1,20.2,20.2,0,0,0,6.1-14.5A2,2,0,0,0,65.1,17.2Z"/><path class="cls-5" d="M34.1,53.5a20.7,20.7,0,0,0-6.6,1l-8.1,8.1a21.2,21.2,0,0,0,14.7,6h0a21.2,21.2,0,0,0,14.7-6,2.5,2.5,0,0,0,.6-1.6,2.2,2.2,0,0,0-.6-1.5A20.7,20.7,0,0,0,34.1,53.5Z"/><path class="cls-6" d="M44.3,45.6c-.2-2.9-1.4-7.1-3.7-9.1.5-.4.4-1.1.3-1.6S39.8,32,38.6,32s-2.2,1.6-2.5,2.7-.2,1.3.2,1.6c-2.4,1.8-3.9,6-4.3,8.9-.6,4.7.9,8,5.9,8.2S44.6,50.3,44.3,45.6Z"/><path class="cls-7" d="M42.5,45.2a.6.6,0,0,1-.6.6.6.6,0,1,1,.6-.6Z"/><path class="cls-7" d="M41.9,47a.5.5,0,0,0-.7.5c-.2,2.2-1.1,2.7-2.1,2.8s-.6.4-.5.7.4.6.7.5c1.9-.3,2.9-1.5,3.1-3.9A.5.5,0,0,0,41.9,47Z"/><path class="cls-7" d="M45.8,39l2,2a.6.6,0,0,0,.9.1.6.6,0,0,0,0-.9l-2.4-2.4a.5.5,0,0,0-.8-.1l-2.2,1.5a9.8,9.8,0,0,0-1.9-2.8,1.9,1.9,0,0,0,.2-.7,50.5,50.5,0,0,0,6.8.8.7.7,0,0,0,.7-.6.6.6,0,0,0-.6-.6,45,45,0,0,1-6.3-.7l1.6-.7a.7.7,0,0,0,.4-.5V29.7l2.4-2.1a.6.6,0,1,0-.9-.9L43.3,29c-.2.1-.2.2-.2.4L42.9,33l-1.7.7c-.5-1.2-1.4-2.3-2.6-2.3a3.5,3.5,0,0,0-2.7,2.1l-1.7-.8.2-3.6a.8.8,0,0,0-.2-.4l-2.4-2.5a.7.7,0,0,0-.9,0,.5.5,0,0,0,0,.8l2.2,2.3V33a.5.5,0,0,0,.3.5l1.5.8a31.8,31.8,0,0,1-6.2.3.7.7,0,0,0-.7.6.6.6,0,0,0,.6.6,39.9,39.9,0,0,0,6.9-.3,1.7,1.7,0,0,0,.1.7,12,12,0,0,0-2.1,2.7l-2.1-1.7a.6.6,0,0,0-.8,0L28,39.5a.6.6,0,0,0-.1.9.7.7,0,0,0,.9,0L31,38.5,32.9,40a15.9,15.9,0,0,0-1.4,4.7l-2.8.6c-.2.1-.4.2-.4.3a1.1,1.1,0,0,0-.1.5,9.5,9.5,0,0,1,.6,4.1,10.7,10.7,0,0,1-1.5,5.3c-.2.3,0,.6.3.8a.7.7,0,0,0,.8-.3,12,12,0,0,0,1.7-5.8,15.8,15.8,0,0,0-.5-3.8l1.7-.4v.6c-.2,4.8,2.3,7.2,6.6,7.4s6.9-2.1,7.1-6.9v-.7l1.6.5a15.9,15.9,0,0,0-.7,3.8,12.6,12.6,0,0,0,1.2,5.8v.2a.6.6,0,0,0,.8.3c.3-.2.5-.5.3-.8a12.4,12.4,0,0,1-1.1-5.4,10.6,10.6,0,0,1,.8-4,.4.4,0,0,0,0-.5c-.1-.2-.2-.3-.4-.3l-2.7-.8a18.7,18.7,0,0,0-1.1-4.8Zm-7.2-6.4c.9,0,1.8,1.9,1.8,3s-.1.4-.2.4-.8.2-1.4.2h-.7c-.5,0-1.2,0-1.4-.2a.6.6,0,0,1-.1-.4C36.7,34.4,37.7,32.5,38.6,32.6Zm-.7,20.2c-3.9-.2-5.5-2.4-5.4-6.2a17.9,17.9,0,0,1,1.7-6.5,10.5,10.5,0,0,1,2.1-3,3.9,3.9,0,0,0,1.5.2h1a3.2,3.2,0,0,0,1.7-.1,9.8,9.8,0,0,1,2,3.2h0A17.1,17.1,0,0,1,43.7,47C43.6,50.8,41.8,52.9,37.9,52.8Z"/></g></g></svg>