<?xml version="1.0" encoding="utf-8"?>
<!-- Generator: Adobe Illustrator 22.0.1, SVG Export Plug-In . SVG Version: 6.00 Build 0)  -->
<svg version="1.1" id="Layer_1" xmlns="http://www.w3.org/2000/svg" xmlns:xlink="http://www.w3.org/1999/xlink" x="0px" y="0px"
	 viewBox="0 0 475 276.8" style="enable-background:new 0 0 475 276.8;" xml:space="preserve">
<style type="text/css">
	.st0{fill:#FFFFFF;stroke:#000000;stroke-width:2;stroke-miterlimit:10;}
</style>
<rect x="1" y="1" class="st0" width="473" height="274.8"/>
<title>Grass</title>
<image style="overflow:visible;enable-background:new    ;" width="501" height="501" xlink:href="AB9ADB41.png"  transform="matrix(0.4691 0 0 0.4691 204 22)">
</image>
<path d="M19.4,18.4L19.4,18.4l2.4-7.5h3.3v10.7h-2.5v-6.9l0,0l-2.4,6.9h-1.7l-2.3-6.8l0,0v6.8h-2.5V10.9H17L19.4,18.4z"/>
<path d="M26.3,17.6c0-1.1,0.3-2.2,1-3c0.7-0.7,1.8-1.1,2.8-1.1c1.1,0,2.1,0.4,2.9,1.1c0.7,0.9,1,1.9,1,3l0,0c0,1.1-0.3,2.1-1,2.9
	c-0.8,0.8-1.8,1.2-2.9,1.1c-1.1,0.1-2.1-0.3-2.8-1.1C26.6,19.7,26.2,18.7,26.3,17.6z M28.8,17.7c0,0.5,0.1,1.1,0.3,1.6
	c0.2,0.4,0.6,0.6,1,0.5c0.5,0,0.9-0.1,1.1-0.5c0.2-0.5,0.3-1.1,0.3-1.6l0,0c0-0.5-0.1-1.1-0.3-1.6c-0.2-0.4-0.6-0.6-1.1-0.6
	c-0.4,0-0.8,0.2-1,0.6C28.9,16.6,28.8,17.2,28.8,17.7z"/>
<path d="M34.7,17.6c0-1,0.2-2,0.8-2.9c0.5-0.8,1.4-1.2,2.3-1.2c0.4,0,0.7,0.1,1,0.3c0.3,0.1,0.6,0.4,0.8,0.7v-4.3h2.5v11.4h-2.2v-1
	c-0.2,0.3-0.6,0.7-0.9,0.9c-0.3,0.2-0.7,0.2-1.1,0.2c-0.9,0-1.7-0.3-2.3-1c-0.5-0.9-0.8-1.9-0.8-2.9L34.7,17.6z M37.2,17.8
	c0,0.5,0.1,1,0.3,1.5c0.2,0.3,0.5,0.5,0.9,0.5h0.7c0.2-0.1,0.4-0.2,0.5-0.4v-3.3l-0.5-0.5l-0.6-0.2c-0.4,0-0.8,0.2-1,0.6
	c-0.2,0.5-0.3,1.1-0.3,1.6L37.2,17.8z"/>
<path d="M47,21.7c-1,0.1-2-0.3-2.8-1c-0.7-0.8-1-1.8-1-2.8v-0.3c-0.1-1,0.3-2.1,0.9-2.9c0.7-0.8,1.7-1.2,2.8-1.2
	c0.9-0.1,1.9,0.3,2.5,1c0.6,0.7,1,1.6,0.9,2.6v1.3h-4.6c0.1,0.4,0.2,0.7,0.5,1c0.3,0.2,0.7,0.3,1.1,0.3h1.2l1.1-0.3l0.6,1.5
	l-1.4,0.6C48.2,21.7,47.6,21.7,47,21.7z M46.9,15.4c-0.3,0-0.7,0.2-0.9,0.4c-0.2,0.3-0.3,0.6-0.3,1h2.2v-0.2c0-0.4-0.1-0.7-0.3-1
	C47.5,15.5,47.3,15.4,46.9,15.4z"/>
<path d="M53.9,21.6h-2.5V10.2h2.5V21.6z"/>
<path d="M58.2,15.2h-2.5v-2.1h2.5V15.2z M58.2,21.6h-2.5v-2.1h2.5V21.6z"/>
<path d="M69.5,19.1L69.5,19.1l3.1-8.2h2.3v10.7h-1.8v-7.7l0,0l-3,7.7h-1.2l-3-7.8l0,0v7.8h-1.8V10.9h2.3L69.5,19.1z"/>
<path d="M76.6,17.6c-0.1-1.1,0.3-2.1,1-2.9c0.6-0.8,1.6-1.2,2.6-1.2c1-0.1,2,0.4,2.7,1.2c0.7,0.8,1.1,1.8,1,2.9l0,0
	c0.1,1.1-0.3,2.1-1,2.9c-0.6,0.8-1.6,1.2-2.6,1.1c-1,0.1-2-0.3-2.7-1.1C76.9,19.7,76.5,18.7,76.6,17.6z M78.4,17.7
	c0,0.7,0.1,1.3,0.4,1.9c0.3,0.5,0.9,0.8,1.5,0.7c0.5,0,1-0.2,1.3-0.7c0.4-0.6,0.6-1.2,0.5-1.9l0,0c0.1-0.7-0.1-1.3-0.5-1.9
	c-0.3-0.5-0.8-0.8-1.4-0.7c-0.6,0-1.1,0.2-1.4,0.7C78.5,16.4,78.4,17,78.4,17.7z"/>
<path d="M92.4,17.9c0,1-0.2,2-0.8,2.8c-0.9,1-2.4,1.3-3.6,0.7c-0.4-0.2-0.7-0.5-0.9-0.9l-0.2,1.1h-1.5V10.2h1.8v4.4
	c0.2-0.3,0.6-0.6,0.9-0.8c0.4-0.2,0.8-0.3,1.2-0.3c0.9,0,1.8,0.4,2.3,1.2c0.5,0.9,0.8,1.9,0.8,3L92.4,17.9z M90.6,17.7
	c0-0.7-0.1-1.4-0.4-2c-0.3-0.5-0.8-0.8-1.4-0.7l-0.9,0.2c-0.3,0.2-0.5,0.5-0.7,0.8v3.3c0.1,0.3,0.4,0.5,0.6,0.7
	c0.3,0.2,0.7,0.3,1.1,0.3c0.5,0,1-0.2,1.3-0.7c0.3-0.5,0.4-1.1,0.4-1.7V17.7z"/>
<path d="M95.8,11.7h-1.7v-1.5h1.7L95.8,11.7z M95.8,21.6h-1.7v-7.9h1.7L95.8,21.6z"/>
<path d="M99.7,21.6h-1.8V10.2h1.8L99.7,21.6z"/>
<path d="M105.1,21.7c-1,0.1-2-0.3-2.7-1c-0.7-0.8-1.1-1.8-1-2.9v-0.3c0-1.1,0.3-2.1,1-2.9c0.6-0.7,1.5-1.1,2.5-1.1
	c0.9,0,1.8,0.3,2.4,1c0.5,0.8,0.8,1.7,0.8,2.6v1h-4.9c0,0.6,0.2,1.1,0.5,1.6c0.4,0.4,0.9,0.6,1.5,0.6h1.2c0.4-0.1,0.7-0.3,1-0.6
	l0.6,1.2c-0.3,0.3-0.8,0.5-1.2,0.7C106.2,21.7,105.7,21.8,105.1,21.7z M104.9,15c-0.5,0-0.9,0.1-1.1,0.5c-0.3,0.4-0.5,0.8-0.6,1.3
	h3.2c0-0.5-0.1-0.9-0.4-1.3C105.8,15.1,105.3,15,104.9,15z"/>
<path d="M118.1,21.6h-1.8l-4.7-7.7h-0.1v7.7h-1.8V10.9h1.8l4.8,7.7l0,0v-7.7h1.8L118.1,21.6z"/>
<path d="M123.5,21.7c-1,0.1-2-0.3-2.7-1c-0.7-0.8-1.1-1.8-1-2.9v-0.3c0-1.1,0.3-2.1,1-2.9c0.6-0.7,1.5-1.1,2.5-1.1
	c0.9,0,1.8,0.3,2.4,1c0.6,0.7,0.9,1.7,0.8,2.6v1h-4.9c0,0.6,0.2,1.1,0.5,1.6c0.4,0.4,0.9,0.6,1.5,0.6h1.3l0.9-0.6l0.6,1.2
	c-0.3,0.3-0.8,0.5-1.2,0.7C124.6,21.7,124.1,21.8,123.5,21.7z M123.3,15c-0.4,0-0.9,0.1-1.1,0.5c-0.3,0.3-0.5,0.8-0.5,1.3h3.1
	c0.1-0.5-0.1-0.9-0.4-1.3C124.2,15.1,123.7,15,123.3,15z"/>
<path d="M130.3,11.7v2h1.4V15h-1.4v4.4c0,0.3,0,0.5,0.2,0.7l0.5,0.2h0.6l0.2,1.3l-0.6,0.2h-0.6c-0.6,0.1-1.2-0.1-1.6-0.5
	c-0.4-0.5-0.5-1.2-0.5-1.8V15h-1.2v-1.3h1.2v-2H130.3z"/>
<path d="M135.9,18.9v0.7l0,0l0.2-0.7l1.6-5.2h1.8l-2.8,7.9h-1.6l-2.8-7.9h1.9L135.9,18.9z"/>
<path d="M147.6,21.6h-6.8v-1.2l3.3-3.9c0.4-0.5,0.8-1,1.1-1.6c0.2-0.4,0.3-0.8,0.3-1.2c0-0.4-0.1-0.8-0.3-1.1
	c-0.3-0.3-0.7-0.4-1.1-0.4c-0.5,0-1,0.2-1.3,0.5c-0.3,0.4-0.4,0.9-0.4,1.4h-1.8c0-0.9,0.3-1.7,0.9-2.3c0.7-0.6,1.6-0.9,2.6-0.9
	c0.9-0.1,1.7,0.2,2.4,0.8c0.5,0.6,0.8,1.4,0.8,2.2c0,0.6-0.1,1.1-0.5,1.6c-0.4,0.8-0.9,1.5-1.5,2.2l-2.3,2.4h4.6V21.6z"/>
<path d="M19.3,37.5h-3.2l-0.6,2.1h-2.6l3.5-10.7H19l3.5,10.7h-2.6L19.3,37.5z M16.7,35.6h2l-1-3.3l0,0L16.7,35.6z"/>
<path d="M26.5,37.8c0.4,0,0.6,0,0.8-0.2c0.2-0.2,0.2-0.5,0.2-0.8h2.3c0,0.8-0.3,1.6-0.9,2.1c-0.7,0.6-1.5,0.9-2.4,0.8
	c-1,0.1-2-0.3-2.7-1.1c-0.7-0.8-1.1-1.8-1-2.9l0,0c0-1.1,0.3-2.1,0.9-3c0.7-0.7,1.8-1.1,2.8-1.1c0.9,0,1.8,0.3,2.4,0.9
	c0.6,0.6,1,1.4,0.9,2.3h-2.3c0-0.4,0-0.7-0.2-0.9c-0.2-0.3-0.5-0.4-0.8-0.4c-0.4,0-0.8,0.2-1,0.6c-0.2,0.5-0.3,1.1-0.3,1.6l0,0
	c0,0.5,0.1,1.1,0.3,1.6C25.7,37.7,26,37.8,26.5,37.8z"/>
<path d="M33.7,29.7v2h1.2v1.7h-1.2V37c0,0.3,0,0.5,0.1,0.6c0.1,0.1,0.3,0.2,0.5,0.2h0.6l0.2,1.9h-1.4c-0.7,0-1.4-0.2-1.9-0.6
	c-0.5-0.6-0.7-1.3-0.6-2.1v-3.6h-1.1v-1.7h1.1v-2H33.7z"/>
<path d="M40.9,38.4c-0.2,0.4-0.5,0.8-0.9,1c-0.4,0.2-0.8,0.3-1.3,0.3c-0.7,0.1-1.5-0.2-1.9-0.8c-0.5-0.8-0.8-1.7-0.7-2.7v-4.5h2.4
	v4.5c0,0.5,0.1,0.9,0.3,1.3c0.2,0.2,0.4,0.3,0.7,0.3h0.7c0.2,0,0.4-0.1,0.5-0.3v-5.8h2.5v7.9h-2L40.9,38.4z"/>
<path d="M49.1,39.6C49,39.4,49,39.2,48.9,39s-0.1-0.4-0.2-0.6c-0.2,0.4-0.5,0.7-0.8,1c-0.4,0.2-0.8,0.3-1.2,0.3
	c-0.7,0-1.4-0.2-1.9-0.6c-0.5-0.4-0.7-1.1-0.7-1.7c0-0.7,0.3-1.4,0.9-1.9c0.8-0.5,1.8-0.7,2.7-0.6h1v-0.6c0-0.6-0.4-1-1-1L47,33.5
	c-0.1,0.2-0.2,0.4-0.2,0.6h-2.4c0-0.7,0.3-1.4,0.9-1.8c0.7-0.5,1.6-0.8,2.5-0.8c0.9,0,1.7,0.3,2.4,0.8c0.7,0.5,1,1.3,0.9,2.1v2.9
	c0,0.4,0.1,0.8,0.2,1.2c0,0.4,0.1,0.8,0.3,1.1L49.1,39.6z M47.4,38l0.8-0.2c0.2-0.2,0.4-0.3,0.5-0.5v-1.1h-1c-0.3,0-0.7,0.1-0.9,0.3
	c-0.2,0.2-0.2,0.4-0.2,0.7c0,0.3,0,0.4,0.2,0.6C47,37.9,47.2,38,47.4,38z"/>
<path d="M55.1,39.6h-2.5V28.2h2.5V39.6z"/>
<path d="M68.7,36L68.7,36c0.1,1-0.3,2.1-1,2.8c-0.9,0.6-1.9,1-3,0.9c-1.2,0.1-2.4-0.4-3.2-1.2c-0.8-0.8-1.3-1.9-1.2-3.1v-2.3
	c0-1.1,0.4-2.2,1.1-3.1c0.8-0.8,1.9-1.3,3.1-1.2c1.1-0.1,2.2,0.3,3.1,0.9c0.8,0.7,1.2,1.7,1.1,2.8h-2.4c0-0.5-0.1-1-0.4-1.4
	c-0.4-0.3-0.9-0.4-1.4-0.4c-0.5,0-1,0.2-1.3,0.7c-0.3,0.5-0.4,1.1-0.4,1.7v2.3c-0.1,0.6,0.1,1.3,0.5,1.8c0.3,0.4,0.9,0.6,1.4,0.6
	c0.4,0,0.9-0.1,1.2-0.4c0.3-0.4,0.4-0.9,0.4-1.4L68.7,36z"/>
<path d="M72.5,39.6H70V28.2h2.5V39.6z"/>
<path d="M78.6,39.6c-0.1-0.2-0.2-0.4-0.2-0.6c-0.1-0.2-0.1-0.4-0.2-0.6c-0.2,0.4-0.5,0.7-0.8,1c-0.4,0.2-0.8,0.3-1.2,0.3
	c-0.7,0-1.4-0.2-1.9-0.6c-0.5-0.4-0.7-1.1-0.7-1.7c0-0.7,0.3-1.4,0.8-1.9c0.8-0.5,1.8-0.7,2.7-0.6h1.1v-0.6c0-0.3-0.1-0.5-0.3-0.7
	c-0.2-0.2-0.4-0.3-0.7-0.3l-0.7,0.2c-0.1,0.2-0.2,0.4-0.2,0.6h-2.4c0-0.7,0.3-1.4,0.9-1.8c0.7-0.5,1.6-0.8,2.5-0.8
	c0.9,0,1.7,0.3,2.4,0.8c0.7,0.5,1,1.3,0.9,2.1v2.9c0,0.5,0.1,0.8,0.1,1.2c0.1,0.4,0.2,0.8,0.4,1.1L78.6,39.6z M76.9,38l0.8-0.2
	l0.5-0.5v-1.1h-1c-0.3,0-0.7,0.1-0.9,0.3c-0.2,0.2-0.3,0.4-0.3,0.7c0,0.2,0.1,0.5,0.3,0.6C76.5,37.9,76.7,38,76.9,38z"/>
<path d="M86.1,37.4c0-0.2-0.1-0.4-0.3-0.6l-1.2-0.4c-0.8-0.1-1.5-0.3-2.1-0.8c-0.5-0.4-0.7-1-0.7-1.6c0-0.7,0.3-1.3,0.9-1.7
	c0.6-0.6,1.5-0.8,2.3-0.8c0.9,0,1.8,0.2,2.6,0.7c0.6,0.4,0.9,1.2,0.8,1.9H86c0-0.3,0-0.5-0.2-0.7c-0.2-0.2-0.5-0.3-0.8-0.3
	c-0.2,0-0.4,0.1-0.6,0.3c-0.3,0.2-0.4,0.6-0.2,0.8c0,0.1,0.1,0.1,0.2,0.2c0.4,0.2,0.8,0.4,1.2,0.4c0.8,0.1,1.5,0.4,2.2,0.9
	c0.5,0.4,0.7,1,0.7,1.6c0,0.7-0.4,1.4-1,1.8c-0.8,0.4-1.6,0.7-2.5,0.6c-0.9,0.1-1.8-0.2-2.5-0.8c-0.6-0.4-1-1.1-0.9-1.8h2.2
	c0,0.3,0.2,0.6,0.4,0.8l0.9,0.2c0.3,0,0.6,0,0.8-0.2C86,37.8,86.1,37.6,86.1,37.4z"/>
<path d="M93.8,37.4c0-0.2-0.1-0.4-0.3-0.6l-1.3-0.4c-0.7-0.1-1.4-0.4-2-0.8c-0.9-0.8-0.9-2.2-0.1-3.1c0.1-0.1,0.1-0.1,0.2-0.2
	c0.7-0.5,1.5-0.8,2.4-0.8c0.9,0,1.8,0.2,2.5,0.7c0.7,0.4,1,1.1,0.9,1.9h-2.4c0-0.2-0.1-0.5-0.2-0.7c-0.2-0.2-0.5-0.3-0.8-0.3
	c-0.2,0-0.5,0.1-0.6,0.3c-0.3,0.2-0.4,0.6-0.2,0.8c0,0.1,0.1,0.1,0.2,0.2c0.4,0.2,0.8,0.4,1.2,0.4c0.8,0.1,1.5,0.4,2.2,0.9
	c0.4,0.4,0.7,1,0.7,1.6c0,0.7-0.4,1.4-1,1.8c-0.8,0.4-1.6,0.7-2.5,0.6c-0.9,0.1-1.8-0.2-2.5-0.8c-0.6-0.4-1-1.1-0.9-1.8h2.2
	c0,0.3,0.1,0.6,0.4,0.8l0.9,0.2c0.3,0,0.6,0,0.7-0.2C93.7,37.8,93.8,37.6,93.8,37.4z"/>
<path d="M100.1,33.2h-2.5v-2.1h2.5V33.2z M100.1,39.6h-2.5v-2.1h2.5V39.6z"/>
<path d="M113.9,38.2c-0.4,0.4-0.9,0.8-1.4,1.1c-0.8,0.3-1.6,0.4-2.5,0.4c-2.3,0.1-4.2-1.6-4.3-3.9c0-0.1,0-0.3,0-0.4v-2.3
	c0-1.1,0.4-2.2,1.1-3.1c0.8-0.8,1.9-1.3,3.1-1.2c1-0.1,2.1,0.3,2.9,0.9c0.7,0.6,1.1,1.6,1,2.5h-1.7c0-0.5-0.2-1.1-0.6-1.4
	c-0.4-0.4-1-0.6-1.6-0.6c-0.7,0-1.3,0.3-1.8,0.8c-0.4,0.6-0.7,1.3-0.7,2.1v2.3c0,0.8,0.3,1.5,0.7,2.1c0.5,0.6,1.2,0.9,1.9,0.8
	c0.4,0.1,0.9,0,1.3-0.2c0.3-0.1,0.6-0.2,0.8-0.4v-2.2h-2.2v-1.4h4L113.9,38.2z"/>
<path d="M119.8,33.3h-0.7c-0.3,0-0.7,0.1-0.9,0.3c-0.2,0.1-0.5,0.4-0.6,0.6v5.5h-1.7v-8h1.6v1.1c0.2-0.4,0.5-0.7,0.8-0.9
	c0.3-0.3,0.7-0.4,1.1-0.4h0.5L119.8,33.3z"/>
<path d="M125.9,39.6c-0.1-0.2-0.1-0.4-0.1-0.6c-0.1-0.2-0.1-0.4-0.1-0.6c-0.3,0.4-0.6,0.7-1,1c-0.4,0.2-0.8,0.3-1.3,0.3
	c-0.7,0.1-1.4-0.1-1.9-0.6c-0.5-0.4-0.7-1.1-0.7-1.7c0-0.7,0.3-1.4,0.9-1.8c0.8-0.5,1.7-0.8,2.6-0.7h1.4v-0.7c0-0.3-0.2-0.7-0.4-0.9
	c-0.3-0.3-0.7-0.5-1.1-0.4c-0.3,0-0.7,0.1-0.9,0.3c-0.2,0.1-0.4,0.4-0.4,0.7h-1.7c0-0.7,0.3-1.3,0.8-1.7c0.7-0.5,1.5-0.7,2.4-0.7
	c0.8,0,1.6,0.2,2.2,0.7c0.6,0.5,0.9,1.2,0.8,2v3.6c0,0.3,0.1,0.6,0.1,0.9c0,0.3,0.1,0.6,0.2,0.9H125.9z M123.7,38.3
	c0.4,0,0.8-0.1,1.2-0.3c0.3-0.2,0.6-0.5,0.8-0.8V36h-1.5c-0.4,0-0.9,0.1-1.2,0.4c-0.3,0.2-0.4,0.6-0.4,0.9c0,0.3,0.1,0.6,0.3,0.8
	L123.7,38.3z"/>
<path d="M133.7,37.4c0-0.3-0.1-0.5-0.3-0.7l-1.3-0.4c-0.8-0.1-1.5-0.4-2.2-0.9c-0.5-0.4-0.7-0.9-0.7-1.5c0-0.6,0.3-1.3,0.8-1.7
	c0.7-0.5,1.5-0.7,2.3-0.7c0.8,0,1.6,0.3,2.3,0.8c0.5,0.4,0.8,1,0.8,1.7h-1.7c0-0.3-0.2-0.6-0.4-0.8c-0.3-0.2-0.6-0.3-1-0.3
	c-0.3,0-0.7,0.1-1,0.2c-0.2,0.2-0.3,0.5-0.3,0.8c0,0.2,0.1,0.5,0.3,0.6c0.4,0.3,0.8,0.4,1.3,0.4c0.8,0.1,1.5,0.4,2.2,0.9
	c0.5,0.4,0.7,0.9,0.7,1.5c0,0.7-0.3,1.4-0.9,1.8c-0.7,0.4-1.5,0.6-2.3,0.6c-0.9,0.1-1.7-0.2-2.4-0.7c-0.6-0.5-0.9-1.2-0.9-1.9h1.7
	c0,0.4,0.2,0.8,0.5,1c0.3,0.2,0.7,0.3,1.1,0.3c0.4,0,0.8-0.1,1.1-0.3C133.6,37.9,133.7,37.7,133.7,37.4z"/>
<path d="M141.5,37.4c0-0.3-0.1-0.5-0.3-0.7l-1.3-0.4c-0.8-0.1-1.5-0.4-2.2-0.9c-0.5-0.4-0.7-0.9-0.7-1.5c0-0.6,0.3-1.3,0.8-1.7
	c0.7-0.5,1.5-0.7,2.3-0.7c0.8,0,1.6,0.3,2.3,0.8c0.5,0.4,0.8,1,0.8,1.7h-1.7c0-0.3-0.2-0.6-0.4-0.8c-0.3-0.2-0.6-0.3-1-0.3
	c-0.3,0-0.7,0.1-1,0.2c-0.2,0.2-0.3,0.5-0.3,0.8c0,0.2,0.1,0.5,0.3,0.6c0.4,0.3,0.8,0.4,1.3,0.4c0.8,0.1,1.5,0.4,2.2,0.9
	c0.5,0.4,0.7,0.9,0.7,1.5c0,0.7-0.3,1.4-0.9,1.8c-0.7,0.4-1.5,0.6-2.3,0.6c-0.9,0.1-1.7-0.2-2.4-0.7c-0.6-0.5-0.9-1.2-0.9-1.9h1.7
	c0,0.4,0.2,0.8,0.5,1c0.3,0.2,0.7,0.3,1.1,0.3c0.4,0,0.8-0.1,1.1-0.3C141.4,37.9,141.5,37.7,141.5,37.4z"/>
<path d="M155.6,37.2h0.1l1.1-5.5h1.8l-2.2,7.9H155l-1.7-5.2h-0.1l-1.6,5.2h-1.5l-2.1-7.9h1.7l1.2,5.5h0.1l1.6-5.5h1.3L155.6,37.2z"
	/>
<path d="M161.7,29.7H160v-1.5h1.7V29.7z M161.7,39.6H160v-7.9h1.7V39.6z"/>
<path d="M166,29.7v2h1.4V33H166v4.4c0,0.2,0.1,0.5,0.2,0.7l0.6,0.2h0.5l0.2,1.3l-0.5,0.2h-0.7c-0.5,0-1.1-0.1-1.5-0.5
	c-0.4-0.5-0.7-1.1-0.6-1.8V33H163v-1.3h1.2v-2H166z"/>
<path d="M170.6,32.7c0.3-0.4,0.6-0.7,1-0.9c0.4-0.2,0.8-0.3,1.2-0.3c0.8,0,1.5,0.3,2,0.8c0.5,0.7,0.8,1.6,0.7,2.5v4.8h-1.8v-4.8
	c0-0.5-0.1-1-0.3-1.4c-0.3-0.3-0.7-0.4-1.1-0.4c-0.3,0-0.7,0-1,0.2c-0.3,0.1-0.5,0.3-0.7,0.5v5.9h-1.8V28.2h1.8L170.6,32.7z"/>
<path d="M188.1,37.2L188.1,37.2l1.2-5.5h1.8l-2.2,7.9h-1.5l-1.6-5.2h-0.1l-1.6,5.2h-1.5l-2.2-7.9h1.8l1.2,5.5l0,0l1.7-5.5h1.3
	L188.1,37.2z"/>
<path d="M194.1,32.7c0.2-0.4,0.5-0.7,0.9-0.9c0.4-0.2,0.8-0.3,1.3-0.3c0.7,0,1.4,0.3,1.9,0.8c0.5,0.7,0.8,1.6,0.7,2.5v4.8h-1.7v-4.8
	c0-0.5-0.1-1-0.4-1.4c-0.3-0.3-0.7-0.5-1.1-0.4c-0.3,0-0.7,0-1,0.2c-0.2,0.1-0.4,0.3-0.6,0.5v5.9h-1.8V28.2h1.8L194.1,32.7z"/>
<path d="M202.7,29.7h-1.8v-1.5h1.8V29.7z M202.7,39.6h-1.8v-7.9h1.8V39.6z"/>
<path d="M207,29.7v2h1.4V33H207v4.4c0,0.3,0,0.5,0.2,0.7l0.5,0.2h0.6l0.2,1.3l-0.6,0.2h-0.6c-0.6,0.1-1.2-0.1-1.6-0.5
	c-0.4-0.5-0.5-1.2-0.5-1.8V33H204v-1.3h1.2v-2H207z"/>
<path d="M213.2,39.7c-1,0.1-2-0.3-2.7-1c-0.7-0.8-1.1-1.8-1-2.9v-0.3c0-1.1,0.3-2.1,1-2.9c0.6-0.7,1.5-1.1,2.5-1.1
	c0.9,0,1.8,0.3,2.4,1c0.6,0.7,0.9,1.7,0.8,2.6v1h-4.9c0,0.6,0.2,1.1,0.5,1.6c0.4,0.4,0.9,0.6,1.5,0.6h1.2c0.4-0.1,0.7-0.3,1-0.6
	l0.6,1.2c-0.3,0.3-0.8,0.5-1.2,0.7C214.3,39.7,213.8,39.8,213.2,39.7z M213,33c-0.4,0-0.9,0.1-1.1,0.5c-0.3,0.3-0.5,0.8-0.5,1.3h3.1
	c0.1-0.5-0.1-0.9-0.4-1.3C213.9,33.1,213.4,33,213,33z"/>
<path d="M228.4,35.9c0,1-0.2,2-0.8,2.8c-0.6,0.7-1.4,1-2.3,1c-0.5,0-0.9-0.1-1.3-0.3c-0.4-0.2-0.7-0.5-0.9-0.9l-0.3,1.1h-1.4V28.2
	h1.8v4.4c0.2-0.4,0.5-0.6,0.9-0.8c0.4-0.2,0.8-0.3,1.2-0.3c0.9,0,1.8,0.4,2.3,1.2c0.5,0.9,0.8,1.9,0.8,3V35.9z M226.6,35.7
	c0-0.7-0.2-1.4-0.4-2c-0.3-0.5-0.8-0.7-1.4-0.7l-1,0.2c-0.3,0.2-0.5,0.5-0.6,0.8v3.3c0.1,0.3,0.3,0.6,0.6,0.7c0.3,0.2,0.6,0.3,1,0.3
	c0.6,0,1.1-0.2,1.4-0.7c0.3-0.5,0.4-1.1,0.4-1.7V35.7z"/>
<path d="M234.7,39.6c-0.1-0.2-0.1-0.4-0.2-0.6c0-0.2,0-0.4-0.1-0.6c-0.2,0.4-0.5,0.7-0.9,1c-0.4,0.2-0.9,0.3-1.4,0.3
	c-0.7,0-1.4-0.2-1.9-0.6c-0.4-0.5-0.6-1.1-0.6-1.7c0-0.7,0.3-1.4,0.9-1.8c0.7-0.5,1.6-0.8,2.5-0.7h1.4v-0.7c0-0.3-0.1-0.7-0.3-0.9
	c-0.3-0.3-0.7-0.4-1.1-0.4c-0.4,0-0.7,0.1-1,0.3c-0.2,0.2-0.3,0.4-0.3,0.7H230c-0.1-0.7,0.3-1.3,0.8-1.7c1.4-0.9,3.2-0.9,4.6,0
	c0.5,0.5,0.8,1.3,0.8,2v3.6c0,0.3,0,0.6,0.1,0.9c0,0.3,0.1,0.6,0.2,0.9H234.7z M232.5,38.3c0.4,0,0.8-0.1,1.2-0.3
	c0.3-0.2,0.6-0.4,0.7-0.8V36H233c-0.4,0-0.9,0.1-1.2,0.4c-0.3,0.2-0.4,0.6-0.4,0.9c0,0.3,0.1,0.6,0.2,0.8L232.5,38.3z"/>
<path d="M241.3,38.3c0.4,0,0.7-0.1,1-0.4c0.3-0.2,0.4-0.6,0.4-0.9h1.7c0,0.7-0.3,1.4-0.9,1.9c-0.6,0.6-1.4,0.8-2.2,0.8
	c-1,0.1-2-0.3-2.7-1.1c-0.6-0.8-0.9-1.8-0.9-2.8v-0.3c0-1,0.3-2,0.9-2.8c0.7-0.8,1.7-1.2,2.7-1.2c0.8,0,1.6,0.3,2.2,0.9
	c0.6,0.5,0.9,1.3,0.9,2.1h-1.7c0-0.4-0.1-0.8-0.4-1.1c-0.3-0.3-0.6-0.4-1-0.4c-0.6-0.1-1.1,0.2-1.4,0.7c-0.3,0.6-0.4,1.2-0.4,1.8
	v0.3c0,0.6,0.1,1.2,0.4,1.8C240.2,38.1,240.7,38.4,241.3,38.3z"/>
<path d="M248.3,36.1h-0.7v3.5h-1.7V28.2h1.7v6.5h0.6l2.2-3h2.1l-2.7,3.6l3,4.3h-2.1L248.3,36.1z"/>
<path d="M253.3,35.7c0-1.1,0.3-2.1,0.8-3c0.5-0.8,1.4-1.2,2.3-1.2c0.4,0,0.8,0.1,1.2,0.3c0.4,0.2,0.7,0.5,0.9,0.9l0.2-1h1.5v7.9
	c0,0.9-0.3,1.8-0.9,2.4c-0.8,0.5-1.7,0.8-2.7,0.8l-1.3-0.2l-1.2-0.4l0.3-1.4l1,0.4h1.2c0.5,0,1-0.1,1.4-0.4c0.3-0.4,0.5-0.8,0.4-1.3
	v-0.8c-0.2,0.3-0.5,0.5-0.9,0.7c-0.3,0.2-0.7,0.2-1.1,0.2c-0.9,0.1-1.8-0.3-2.3-1c-0.5-0.8-0.8-1.8-0.8-2.8L253.3,35.7z M255.1,35.9
	c0,0.6,0.1,1.2,0.4,1.7c0.3,0.5,0.8,0.7,1.3,0.7l1-0.2c0.2-0.2,0.5-0.4,0.6-0.7v-3.5c-0.1-0.3-0.4-0.5-0.6-0.7l-1-0.2
	c-0.5,0-1,0.2-1.3,0.7c-0.3,0.6-0.4,1.3-0.4,2L255.1,35.9z"/>
<path d="M266,33.3h-0.8c-0.3,0-0.6,0.1-0.8,0.3c-0.3,0.1-0.4,0.3-0.6,0.6v5.5h-1.7v-8h1.6v1.1c0.2-0.4,0.5-0.7,0.8-0.9
	c0.3-0.3,0.7-0.4,1.1-0.4h0.5L266,33.3z"/>
<path d="M266.9,35.6c-0.1-1,0.3-2.1,0.9-2.9c1.3-1.5,3.6-1.6,5.1-0.3c0.1,0.1,0.2,0.2,0.3,0.3c0.6,0.8,1,1.9,0.9,2.9l0,0
	c0.1,1-0.3,2.1-0.9,2.9c-1.5,1.4-3.9,1.4-5.4,0C267.2,37.7,266.8,36.6,266.9,35.6z M268.6,35.7c0,0.7,0.2,1.3,0.5,1.9
	c0.5,0.8,1.6,1,2.4,0.4c0.2-0.1,0.3-0.3,0.4-0.4c0.3-0.6,0.5-1.2,0.5-1.9l0,0c0-0.7-0.2-1.3-0.5-1.9c-0.5-0.8-1.6-1-2.4-0.4
	c-0.2,0.1-0.3,0.3-0.4,0.4C268.8,34.4,268.6,35,268.6,35.7z"/>
<path d="M280.6,38.4c-0.2,0.4-0.5,0.8-0.9,1c-0.4,0.2-0.8,0.3-1.3,0.3c-0.8,0.1-1.5-0.2-2-0.8c-0.6-0.7-0.9-1.7-0.8-2.6v-4.6h1.8
	v4.6c0,0.6,0.1,1.1,0.3,1.6c0.3,0.3,0.7,0.4,1.1,0.4l1-0.2c0.3-0.2,0.5-0.4,0.7-0.7v-5.7h1.8v7.9h-1.5L280.6,38.4z"/>
<path d="M285.8,31.7v1.1c0.2-0.4,0.6-0.7,1-0.9c0.4-0.3,0.8-0.4,1.3-0.4c0.7,0,1.4,0.3,1.9,0.8c0.5,0.7,0.8,1.5,0.7,2.4v4.9H289
	v-4.9c0-0.5-0.1-0.9-0.3-1.3c-0.3-0.3-0.7-0.4-1.1-0.4l-1,0.2c-0.3,0.1-0.5,0.3-0.7,0.6v5.8h-1.7v-7.9H285.8z"/>
<path d="M292.3,35.7c0-1.1,0.3-2.1,0.9-3c0.5-0.8,1.3-1.2,2.2-1.2c0.4,0,0.8,0.1,1.2,0.3l0.9,0.7v-4.3h1.8v11.4h-1.5l-0.2-1
	c-0.2,0.3-0.6,0.7-0.9,0.9l-1.3,0.2c-0.9,0-1.7-0.3-2.2-1c-0.6-0.8-0.9-1.8-0.9-2.8V35.7z M294.1,35.9c0,0.6,0.1,1.2,0.4,1.7
	c0.3,0.5,0.8,0.7,1.4,0.7l0.9-0.2c0.3-0.2,0.5-0.4,0.7-0.7v-3.5c-0.2-0.3-0.4-0.5-0.7-0.7l-0.9-0.2c-0.5-0.1-1.1,0.2-1.3,0.7
	c-0.3,0.6-0.5,1.3-0.5,2V35.9z"/>
<path d="M16.2,53.9v3.7h-2.5V46.9h4.1c1.1,0,2.2,0.3,3,1c0.7,0.6,1.1,1.5,1.1,2.5c0,1-0.4,1.9-1.1,2.6c-0.9,0.6-1.9,1-3,0.9H16.2z
	 M16.2,52h1.6c0.4,0,0.9-0.1,1.2-0.4c0.3-0.3,0.4-0.7,0.4-1.1c0-0.4-0.1-0.9-0.4-1.2c-0.3-0.3-0.7-0.5-1.2-0.5h-1.6V52z"/>
<path d="M27.5,51.8H26c-0.2,0.1-0.3,0.3-0.4,0.5v5.2h-2.5v-7.8h2.4v1.1c0.1-0.4,0.3-0.7,0.6-0.9c0.3-0.3,0.6-0.4,1-0.4h0.6
	L27.5,51.8z"/>
<path d="M31.8,57.7c-1,0.1-2-0.3-2.8-1c-0.7-0.8-1-1.8-1-2.8v-0.3c-0.1-1,0.3-2.1,0.9-2.9c0.7-0.8,1.7-1.2,2.8-1.2
	c0.9-0.1,1.9,0.3,2.5,1c0.6,0.7,1,1.6,0.9,2.6v1.3h-4.6c0.1,0.4,0.2,0.7,0.5,1c0.3,0.2,0.7,0.3,1.1,0.3h1.2l1.1-0.3l0.6,1.5
	l-1.4,0.6C33,57.7,32.4,57.7,31.8,57.7z M31.7,51.4c-0.3,0-0.7,0.2-0.9,0.4c-0.2,0.3-0.3,0.6-0.3,1h2.2v-0.2c0-0.4-0.1-0.7-0.3-1
	C32.3,51.5,32.1,51.4,31.7,51.4z"/>
<path d="M35.8,53.6c0-1,0.2-2,0.8-2.9c0.5-0.8,1.4-1.2,2.3-1.2c0.4,0,0.7,0.1,1,0.3c0.3,0.1,0.5,0.4,0.8,0.7v-4.3h2.4v11.4H41
	l-0.2-1c-0.2,0.4-0.5,0.7-0.8,0.9c-0.3,0.2-0.7,0.2-1.1,0.2c-0.9,0.1-1.8-0.3-2.3-1c-0.5-0.9-0.8-1.9-0.8-2.9L35.8,53.6z M38.3,53.8
	c0,0.5,0.1,1,0.3,1.5c0.1,0.4,0.5,0.5,0.9,0.5h0.7l0.5-0.4v-3.3l-0.5-0.5l-0.7-0.2c-0.4,0-0.7,0.2-0.9,0.6c-0.2,0.5-0.3,1.1-0.3,1.6
	V53.8z"/>
<path d="M47.1,47.8h-2.4v-1.6h2.4L47.1,47.8z M47.1,57.6h-2.4v-7.9h2.4L47.1,57.6z"/>
<path d="M52.1,55.8c0.3,0,0.5,0,0.7-0.2c0.2-0.2,0.3-0.5,0.3-0.8h2.2c0,0.8-0.3,1.6-0.9,2.1c-0.6,0.6-1.5,0.9-2.3,0.8
	c-1.1,0.1-2.1-0.3-2.8-1.1c-0.7-0.8-1.1-1.8-1-2.9l0,0c0-1.1,0.3-2.2,1-3c0.7-0.8,1.7-1.2,2.7-1.2c0.9,0,1.8,0.3,2.5,0.9
	c0.6,0.6,0.9,1.5,0.8,2.3h-2.2c0-0.3-0.1-0.7-0.3-0.9c-0.2-0.3-0.5-0.4-0.8-0.4c-0.4,0-0.8,0.2-1,0.6c-0.1,0.5-0.2,1.1-0.2,1.6l0,0
	c0,0.5,0.1,1.1,0.2,1.6C51.2,55.7,51.6,55.8,52.1,55.8z"/>
<path d="M59.2,47.7v2h1.2v1.7h-1.2V55c0,0.3,0,0.5,0.2,0.6s0.2,0.2,0.4,0.2h0.6l0.2,1.9h-1.4c-0.7,0-1.4-0.2-1.9-0.6
	c-0.5-0.6-0.7-1.3-0.6-2.1v-3.6h-1.1v-1.7h1.1v-2H59.2z"/>
<path d="M65.2,57.7c-1.1,0.1-2.1-0.3-2.9-1c-0.7-0.8-1-1.8-1-2.8v-0.3c-0.1-1.1,0.3-2.1,1-2.9c0.7-0.8,1.7-1.3,2.8-1.2
	c0.9-0.1,1.8,0.3,2.4,1c0.6,0.7,1,1.6,0.9,2.6v1.3h-4.5c0,0.4,0.2,0.7,0.4,1c0.4,0.2,0.8,0.3,1.2,0.3h1.2l1.1-0.3l0.5,1.5L67,57.5
	C66.4,57.7,65.8,57.7,65.2,57.7z M65.1,51.4c-0.3,0-0.7,0.2-0.9,0.4c-0.2,0.3-0.3,0.6-0.3,1H66v-0.2c0-0.3-0.1-0.7-0.2-1
	C65.6,51.4,65.4,51.4,65.1,51.4z"/>
<path d="M69.1,53.6c-0.1-1,0.3-2.1,0.9-2.9c0.5-0.8,1.3-1.2,2.2-1.2c0.4,0,0.7,0.1,1,0.3c0.3,0.1,0.6,0.4,0.8,0.7v-4.3h2.5v11.4
	h-2.2v-1c-0.2,0.3-0.6,0.7-0.9,0.9c-0.3,0.2-0.7,0.2-1.1,0.2c-0.9,0-1.7-0.3-2.3-1c-0.5-0.9-0.8-1.9-0.8-2.9L69.1,53.6z M71.6,53.8
	c0,0.5,0.1,1,0.3,1.5c0.2,0.3,0.5,0.5,0.9,0.5h0.7c0.2-0.1,0.4-0.2,0.5-0.4v-3.3c-0.1-0.2-0.3-0.4-0.5-0.5l-0.6-0.2
	c-0.4,0-0.8,0.2-1,0.6c-0.2,0.5-0.3,1.1-0.3,1.6V53.8z"/>
<path d="M90,54L90,54c0.1,1-0.3,2.1-1,2.8c-0.9,0.6-1.9,1-3,0.9c-1.2,0.1-2.4-0.4-3.2-1.2c-0.8-0.8-1.3-1.9-1.2-3.1v-2.3
	c0-1.1,0.4-2.2,1.1-3.1c0.8-0.8,1.9-1.3,3.1-1.2c1.1-0.1,2.2,0.3,3.1,0.9c0.8,0.7,1.2,1.7,1.1,2.8h-2.4c0-0.5-0.1-1-0.4-1.4
	c-0.4-0.3-0.9-0.4-1.4-0.4c-0.5,0-1,0.2-1.3,0.7c-0.3,0.5-0.4,1.1-0.4,1.7v2.3c-0.1,0.6,0.1,1.3,0.5,1.8c0.3,0.4,0.9,0.6,1.4,0.6
	c0.4,0,0.9-0.1,1.2-0.4c0.3-0.4,0.4-0.9,0.4-1.4L90,54z"/>
<path d="M93.8,57.6h-2.5V46.2h2.5V57.6z"/>
<path d="M99.9,57.6c-0.1-0.2-0.2-0.4-0.2-0.6c-0.1-0.2-0.2-0.4-0.2-0.6c-0.2,0.4-0.5,0.7-0.8,1c-0.4,0.2-0.8,0.3-1.2,0.3
	c-0.7,0-1.4-0.2-2-0.6c-0.4-0.5-0.6-1.1-0.6-1.7c-0.1-0.7,0.2-1.4,0.8-1.9c0.8-0.5,1.8-0.7,2.7-0.6h1v-0.6c0-0.3,0-0.6-0.2-0.7
	c-0.2-0.2-0.4-0.3-0.7-0.3l-0.7,0.2c-0.1,0.2-0.2,0.4-0.2,0.6h-2.4c0-0.7,0.3-1.4,0.9-1.8c0.7-0.5,1.6-0.8,2.5-0.8
	c0.9,0,1.7,0.3,2.4,0.8c0.7,0.5,1,1.3,0.9,2.1v2.9c0,0.5,0.1,0.8,0.1,1.2l0.3,1.1L99.9,57.6z M98.2,56l0.8-0.2
	c0.2-0.2,0.4-0.3,0.4-0.5v-1.1h-1c-0.3,0-0.6,0.1-0.8,0.3c-0.2,0.2-0.3,0.4-0.3,0.7c0,0.2,0.1,0.5,0.3,0.6C97.8,55.9,98,56,98.2,56z
	"/>
<path d="M107.4,55.4c0-0.2-0.1-0.4-0.3-0.6l-1.2-0.4c-0.8-0.1-1.5-0.3-2.1-0.8c-0.5-0.4-0.7-1-0.7-1.6c0-0.7,0.3-1.3,0.8-1.7
	c0.7-0.5,1.5-0.8,2.4-0.8c0.9,0,1.8,0.2,2.5,0.7c0.7,0.4,1,1.1,0.9,1.9h-2.4c0-0.2-0.1-0.5-0.2-0.7c-0.2-0.2-0.5-0.3-0.8-0.3
	c-0.2,0-0.5,0.1-0.6,0.3c-0.3,0.2-0.4,0.6-0.2,0.8c0,0.1,0.1,0.1,0.2,0.2c0.4,0.2,0.8,0.4,1.2,0.4c0.8,0.1,1.5,0.4,2.2,0.9
	c0.5,0.4,0.7,1,0.7,1.6c0,0.7-0.4,1.4-1,1.8c-0.8,0.4-1.6,0.7-2.5,0.6c-0.9,0.1-1.8-0.2-2.5-0.8c-0.6-0.4-1-1.1-0.9-1.8h2.2
	c0,0.3,0.2,0.6,0.4,0.8l0.9,0.2c0.3,0,0.6,0,0.7-0.2C107.3,55.8,107.4,55.6,107.4,55.4z"/>
<path d="M115.1,55.4c0-0.3-0.2-0.5-0.4-0.6l-1.2-0.4c-0.8-0.1-1.5-0.4-2.1-0.8c-0.4-0.4-0.7-1-0.7-1.6c0-0.7,0.3-1.3,0.9-1.7
	c0.7-0.5,1.5-0.8,2.4-0.8c0.9,0,1.8,0.2,2.5,0.7c0.6,0.5,0.9,1.2,0.9,1.9H115c0-0.2-0.1-0.5-0.2-0.7c-0.2-0.2-0.5-0.3-0.8-0.3
	c-0.3,0-0.5,0.1-0.7,0.3c-0.1,0.1-0.2,0.3-0.2,0.5c0,0.2,0.1,0.4,0.3,0.5c0.4,0.2,0.8,0.4,1.2,0.4c0.8,0.1,1.5,0.4,2.2,0.9
	c0.4,0.4,0.7,1,0.7,1.6c0,0.7-0.4,1.4-1,1.8c-0.8,0.4-1.6,0.6-2.5,0.6c-0.9,0.1-1.9-0.2-2.6-0.8c-0.6-0.4-0.9-1.1-0.9-1.8h2.3
	c0,0.3,0.1,0.6,0.3,0.8l1,0.2c0.3,0,0.6,0,0.7-0.2C115,55.8,115.1,55.6,115.1,55.4z"/>
<path d="M121.4,51.2h-2.5v-2.1h2.5V51.2z M121.4,57.6h-2.5v-2.1h2.5V57.6z"/>
<path d="M135.6,57.6h-1.8V53H129v4.6h-1.7V46.9h1.7v4.7h4.8v-4.7h1.8V57.6z"/>
<path d="M139.5,47.7h-1.7v-1.5h1.7V47.7z M139.5,57.6h-1.7v-7.9h1.7V57.6z"/>
<path d="M146,55.4c0-0.3-0.2-0.5-0.4-0.7c-0.4-0.2-0.8-0.3-1.3-0.4c-0.8-0.1-1.5-0.4-2.1-0.9c-0.5-0.3-0.8-0.9-0.7-1.5
	c0-0.7,0.3-1.3,0.8-1.7c0.6-0.5,1.4-0.7,2.2-0.7c0.8,0,1.7,0.3,2.3,0.8c0.6,0.4,0.9,1,0.8,1.7h-1.7c0-0.3-0.1-0.6-0.4-0.8
	c-0.3-0.2-0.6-0.3-1-0.3l-1,0.2c-0.2,0.2-0.3,0.5-0.3,0.8c0,0.2,0.1,0.5,0.3,0.6c0.4,0.2,0.8,0.4,1.3,0.4c0.8,0.1,1.5,0.4,2.2,0.9
	c0.5,0.4,0.7,0.9,0.7,1.5c0,0.7-0.3,1.4-0.8,1.8c-0.7,0.4-1.6,0.6-2.4,0.6c-0.9,0.1-1.7-0.2-2.4-0.7c-0.6-0.5-0.9-1.2-0.9-1.9h1.7
	c0,0.4,0.2,0.8,0.5,1c0.4,0.2,0.8,0.3,1.2,0.3c0.4,0,0.7-0.1,1-0.3C145.9,56,146,55.7,146,55.4z"/>
<path d="M156.3,53.9c0,1-0.3,2-0.8,2.8c-0.6,0.7-1.4,1-2.3,1c-0.4,0-0.8,0-1.2-0.2l-0.9-0.7v3.8h-1.8V49.7h1.5l0.2,1
	c0.2-0.3,0.6-0.7,0.9-0.9c0.4-0.2,0.8-0.3,1.3-0.3c0.9,0,1.8,0.4,2.3,1.2c0.5,0.9,0.8,1.9,0.8,3V53.9z M154.5,53.7
	c0-0.7-0.1-1.3-0.4-1.9c-0.3-0.5-0.8-0.9-1.4-0.8l-1,0.2l-0.6,0.7v3.6l0.6,0.6c0.3,0.2,0.7,0.2,1,0.2c0.5,0,1.1-0.2,1.4-0.6
	c0.3-0.6,0.4-1.2,0.4-1.8V53.7z"/>
<path d="M162.6,57.6c-0.1-0.2-0.1-0.4-0.1-0.6c-0.1-0.2-0.1-0.4-0.1-0.6c-0.3,0.4-0.6,0.7-1,1c-0.4,0.2-0.8,0.3-1.3,0.3
	c-0.7,0.1-1.4-0.1-1.9-0.6c-0.5-0.4-0.7-1.1-0.7-1.7c0-0.7,0.3-1.4,0.9-1.8c0.8-0.5,1.7-0.8,2.6-0.7h1.4v-0.7c0-0.3-0.2-0.7-0.4-0.9
	c-0.3-0.3-0.7-0.5-1.1-0.4c-0.3,0-0.7,0.1-0.9,0.3c-0.2,0.1-0.4,0.4-0.4,0.7h-1.7c0-0.7,0.3-1.3,0.8-1.7c0.7-0.5,1.5-0.7,2.4-0.7
	c0.8,0,1.6,0.2,2.2,0.7c0.6,0.5,0.9,1.2,0.8,2v3.6c0,0.3,0.1,0.6,0.1,0.9c0,0.3,0.1,0.6,0.2,0.9H162.6z M160.4,56.3
	c0.4,0,0.8-0.1,1.2-0.3c0.3-0.2,0.6-0.5,0.8-0.8V54h-1.5c-0.4,0-0.9,0.1-1.2,0.4c-0.3,0.2-0.4,0.6-0.4,0.9c0,0.3,0.1,0.6,0.3,0.8
	L160.4,56.3z"/>
<path d="M16.2,71.9v3.7h-2.5V64.9h4.1c1.1,0,2.2,0.3,3,1c0.7,0.6,1.1,1.5,1.1,2.5c0,1-0.4,1.9-1.1,2.6c-0.9,0.6-1.9,1-3,0.9H16.2z
	 M16.2,70h1.6c0.4,0,0.9-0.1,1.2-0.4c0.3-0.3,0.4-0.7,0.4-1.1c0-0.4-0.1-0.9-0.4-1.2c-0.3-0.3-0.7-0.5-1.2-0.5h-1.6V70z"/>
<path d="M27.5,69.8H26c-0.2,0.1-0.3,0.3-0.4,0.5v5.2h-2.5v-7.8h2.4v1.1c0.1-0.4,0.3-0.7,0.6-0.9c0.3-0.3,0.6-0.4,1-0.4h0.6
	L27.5,69.8z"/>
<path d="M31.8,75.7c-1,0.1-2-0.3-2.8-1c-0.7-0.8-1-1.8-1-2.8v-0.3c-0.1-1,0.3-2.1,0.9-2.9c0.7-0.8,1.7-1.2,2.8-1.2
	c0.9-0.1,1.9,0.3,2.5,1c0.6,0.7,1,1.6,0.9,2.6v1.3h-4.6c0.1,0.4,0.2,0.7,0.5,1c0.3,0.2,0.7,0.3,1.1,0.3h1.2l1.1-0.3l0.6,1.5
	l-1.4,0.6C33,75.7,32.4,75.7,31.8,75.7z M31.7,69.4c-0.3,0-0.7,0.2-0.9,0.4c-0.2,0.3-0.3,0.6-0.3,1h2.2v-0.2c0-0.4-0.1-0.7-0.3-1
	C32.3,69.5,32.1,69.4,31.7,69.4z"/>
<path d="M35.8,71.6c0-1,0.2-2,0.8-2.9c0.5-0.8,1.4-1.2,2.3-1.2c0.4,0,0.7,0.1,1,0.3c0.3,0.1,0.5,0.4,0.8,0.7v-4.3h2.4v11.4H41
	l-0.2-1c-0.2,0.4-0.5,0.7-0.8,0.9c-0.3,0.2-0.7,0.2-1.1,0.2c-0.9,0.1-1.8-0.3-2.3-1c-0.5-0.9-0.8-1.9-0.8-2.9L35.8,71.6z M38.3,71.8
	c0,0.5,0.1,1,0.3,1.5c0.1,0.4,0.5,0.5,0.9,0.5h0.7l0.5-0.4v-3.3l-0.5-0.5l-0.7-0.2c-0.4,0-0.7,0.2-0.9,0.6c-0.2,0.5-0.3,1.1-0.3,1.6
	V71.8z"/>
<path d="M47.1,65.8h-2.4v-1.6h2.4L47.1,65.8z M47.1,75.6h-2.4v-7.9h2.4L47.1,75.6z"/>
<path d="M52.1,73.8c0.3,0,0.5,0,0.7-0.2c0.2-0.2,0.3-0.5,0.3-0.8h2.2c0,0.8-0.3,1.6-0.9,2.1c-0.6,0.6-1.5,0.9-2.3,0.8
	c-1.1,0.1-2.1-0.3-2.8-1.1c-0.7-0.8-1.1-1.8-1-2.9l0,0c0-1.1,0.3-2.2,1-3c0.7-0.8,1.7-1.2,2.7-1.2c0.9,0,1.8,0.3,2.5,0.9
	c0.6,0.6,0.9,1.5,0.8,2.3h-2.2c0-0.3-0.1-0.7-0.3-0.9c-0.2-0.3-0.5-0.4-0.8-0.4c-0.4,0-0.8,0.2-1,0.6c-0.1,0.5-0.2,1.1-0.2,1.6l0,0
	c0,0.5,0.1,1.1,0.2,1.6C51.2,73.7,51.6,73.8,52.1,73.8z"/>
<path d="M59.2,65.7v2h1.2v1.7h-1.2V73c0,0.3,0,0.5,0.2,0.6s0.2,0.2,0.4,0.2h0.6l0.2,1.9h-1.4c-0.7,0-1.4-0.2-1.9-0.6
	c-0.5-0.6-0.7-1.3-0.6-2.1v-3.6h-1.1v-1.7h1.1v-2H59.2z"/>
<path d="M65.2,75.7c-1.1,0.1-2.1-0.3-2.9-1c-0.7-0.8-1-1.8-1-2.8v-0.3c-0.1-1.1,0.3-2.1,1-2.9c0.7-0.8,1.7-1.3,2.8-1.2
	c0.9-0.1,1.8,0.3,2.4,1c0.6,0.7,1,1.6,0.9,2.6v1.3h-4.5c0,0.4,0.2,0.7,0.4,1c0.4,0.2,0.8,0.3,1.2,0.3h1.2l1.1-0.3l0.5,1.5L67,75.5
	C66.4,75.7,65.8,75.7,65.2,75.7z M65.1,69.4c-0.3,0-0.7,0.2-0.9,0.4c-0.2,0.3-0.3,0.6-0.3,1H66v-0.2c0-0.3-0.1-0.7-0.2-1
	C65.6,69.4,65.4,69.4,65.1,69.4z"/>
<path d="M69.1,71.6c-0.1-1,0.3-2.1,0.9-2.9c0.5-0.8,1.3-1.2,2.2-1.2c0.4,0,0.7,0.1,1,0.3c0.3,0.1,0.6,0.4,0.8,0.7v-4.3h2.5v11.4
	h-2.2v-1c-0.2,0.3-0.6,0.7-0.9,0.9c-0.3,0.2-0.7,0.2-1.1,0.2c-0.9,0-1.7-0.3-2.3-1c-0.5-0.9-0.8-1.9-0.8-2.9L69.1,71.6z M71.6,71.8
	c0,0.5,0.1,1,0.3,1.5c0.2,0.3,0.5,0.5,0.9,0.5h0.7c0.2-0.1,0.4-0.2,0.5-0.4v-3.3l-0.5-0.5l-0.6-0.2c-0.4,0-0.8,0.2-1,0.6
	c-0.2,0.5-0.3,1.1-0.3,1.6V71.8z"/>
<path d="M90,72L90,72c0.1,1-0.3,2.1-1,2.8c-0.9,0.6-1.9,1-3,0.9c-1.2,0.1-2.4-0.4-3.2-1.2c-0.8-0.8-1.3-1.9-1.2-3.1v-2.3
	c0-1.1,0.4-2.2,1.1-3.1c0.8-0.8,1.9-1.3,3.1-1.2c1.1-0.1,2.2,0.3,3.1,0.9c0.8,0.7,1.2,1.7,1.1,2.8h-2.4c0-0.5-0.1-1-0.4-1.4
	c-0.4-0.3-0.9-0.4-1.4-0.4c-0.5,0-1,0.2-1.3,0.7c-0.3,0.5-0.4,1.1-0.4,1.7v2.3c-0.1,0.6,0.1,1.3,0.5,1.8c0.3,0.4,0.9,0.6,1.4,0.6
	c0.4,0,0.9-0.1,1.2-0.4c0.3-0.4,0.4-0.9,0.4-1.4L90,72z"/>
<path d="M93.8,75.6h-2.5V64.2h2.5V75.6z"/>
<path d="M99.9,75.6c-0.1-0.2-0.2-0.4-0.2-0.6c-0.1-0.2-0.2-0.4-0.2-0.6c-0.2,0.4-0.5,0.7-0.8,1c-0.4,0.2-0.8,0.3-1.2,0.3
	c-0.7,0-1.4-0.2-2-0.6c-0.4-0.5-0.6-1.1-0.6-1.7c-0.1-0.7,0.2-1.4,0.8-1.9c0.8-0.5,1.8-0.7,2.7-0.6h1v-0.6c0-0.3,0-0.6-0.2-0.7
	c-0.2-0.2-0.4-0.3-0.7-0.3l-0.7,0.2c-0.1,0.2-0.2,0.4-0.2,0.6h-2.4c0-0.7,0.3-1.4,0.9-1.8c0.7-0.5,1.6-0.8,2.5-0.8
	c0.9,0,1.7,0.3,2.4,0.8c0.7,0.5,1,1.3,0.9,2.1v2.9c0,0.5,0.1,0.8,0.1,1.2l0.3,1.1H99.9z M98.2,74l0.8-0.2c0.2-0.2,0.4-0.3,0.4-0.5
	v-1.1h-1c-0.3,0-0.6,0.1-0.8,0.3c-0.2,0.2-0.3,0.4-0.3,0.7c0,0.2,0.1,0.5,0.3,0.6L98.2,74z"/>
<path d="M107.4,73.4c0-0.2-0.1-0.4-0.3-0.6l-1.2-0.4c-0.8-0.1-1.5-0.3-2.1-0.8c-0.5-0.4-0.7-1-0.7-1.6c0-0.7,0.3-1.3,0.8-1.7
	c0.7-0.5,1.5-0.8,2.4-0.8c0.9,0,1.8,0.2,2.5,0.7c0.7,0.4,1,1.1,0.9,1.9h-2.4c0-0.2-0.1-0.5-0.2-0.7c-0.2-0.2-0.5-0.3-0.8-0.3
	c-0.2,0-0.5,0.1-0.6,0.3c-0.3,0.2-0.4,0.6-0.2,0.8c0,0.1,0.1,0.1,0.2,0.2c0.4,0.2,0.8,0.4,1.2,0.4c0.8,0.1,1.5,0.4,2.2,0.9
	c0.5,0.4,0.7,1,0.7,1.6c0,0.7-0.4,1.4-1,1.8c-0.8,0.4-1.6,0.7-2.5,0.6c-0.9,0.1-1.8-0.2-2.5-0.8c-0.6-0.4-1-1.1-0.9-1.8h2.2
	c0,0.3,0.2,0.6,0.4,0.8l0.9,0.2c0.3,0,0.6,0,0.7-0.2C107.3,73.8,107.4,73.6,107.4,73.4z"/>
<path d="M115.1,73.4c0-0.3-0.2-0.5-0.4-0.6l-1.2-0.4c-0.8-0.1-1.5-0.4-2.1-0.8c-0.4-0.4-0.7-1-0.7-1.6c0-0.7,0.3-1.3,0.9-1.7
	c0.7-0.5,1.5-0.8,2.4-0.8c0.9,0,1.8,0.2,2.5,0.7c0.6,0.5,0.9,1.2,0.9,1.9H115c0-0.2-0.1-0.5-0.2-0.7c-0.2-0.2-0.5-0.3-0.8-0.3
	c-0.3,0-0.5,0.1-0.7,0.3c-0.1,0.1-0.2,0.3-0.2,0.5c0,0.2,0.1,0.4,0.3,0.5c0.4,0.2,0.8,0.4,1.2,0.4c0.8,0.1,1.5,0.4,2.2,0.9
	c0.4,0.4,0.7,1,0.7,1.6c0,0.7-0.4,1.4-1,1.8c-0.8,0.4-1.6,0.6-2.5,0.6c-0.9,0.1-1.9-0.2-2.6-0.8c-0.6-0.4-0.9-1.1-0.9-1.8h2.3
	c0,0.3,0.1,0.6,0.3,0.8l1,0.2c0.3,0,0.6,0,0.7-0.2C115,73.8,115.1,73.6,115.1,73.4z"/>
<path d="M125,71.9v3.7h-2.5V64.9h4.1c1.1,0,2.1,0.3,3,1c0.7,0.6,1.1,1.5,1.1,2.5c0,1-0.4,1.9-1.1,2.6c-0.9,0.6-1.9,0.9-3,0.9H125z
	 M125,70h1.6c0.4,0,0.9-0.1,1.2-0.4c0.3-0.3,0.4-0.7,0.4-1.1c0-0.4-0.1-0.9-0.4-1.2c-0.3-0.3-0.7-0.5-1.2-0.5H125V70z"/>
<path d="M136.3,69.8h-1.5c-0.2,0.1-0.3,0.3-0.4,0.5v5.2h-2.5v-7.8h2.4v1.1c0.2-0.4,0.4-0.7,0.7-0.9c0.3-0.3,0.6-0.4,1-0.4h0.5
	L136.3,69.8z"/>
<path d="M136.7,71.6c0-1.1,0.4-2.2,1.1-3c0.7-0.8,1.8-1.2,2.8-1.1c1,0,2.1,0.4,2.8,1.1c0.7,0.8,1,1.9,1,3l0,0c0.1,1.1-0.3,2.1-1,2.9
	c-0.7,0.8-1.7,1.2-2.8,1.1c-1.1,0.1-2.1-0.3-2.8-1.1C137.1,73.7,136.7,72.7,136.7,71.6z M139.2,71.7c0,0.5,0.1,1.1,0.3,1.6
	c0.2,0.4,0.6,0.5,1.1,0.5s0.8-0.1,1-0.5c0.2-0.5,0.3-1.1,0.3-1.6l0,0c0-0.5-0.1-1.1-0.3-1.6c-0.2-0.4-0.6-0.6-1-0.6
	c-0.5,0-0.9,0.2-1.1,0.6C139.3,70.6,139.2,71.2,139.2,71.7z"/>
<path d="M152.8,71.8c0.1,1-0.2,2-0.7,2.9c-0.6,0.7-1.4,1-2.3,1c-0.4,0-0.8,0-1.2-0.2c-0.3-0.2-0.6-0.5-0.8-0.8v0.9h-2.2V64.2h2.4
	v4.2c0.2-0.3,0.4-0.5,0.7-0.6c0.3-0.2,0.6-0.3,1-0.3c0.9,0,1.8,0.4,2.4,1.1c0.5,0.9,0.8,2,0.7,3L152.8,71.8z M150.4,71.6
	c0-0.5-0.1-1.1-0.3-1.6c-0.2-0.4-0.6-0.6-1-0.6l-0.7,0.2c-0.2,0.1-0.3,0.2-0.4,0.4v3.3c0.1,0.2,0.2,0.3,0.4,0.4h0.7
	c0.5,0,0.9-0.1,1-0.5c0.2-0.5,0.3-1,0.3-1.5V71.6z"/>
<path d="M158.5,75.6c-0.1-0.2-0.2-0.4-0.2-0.6c-0.1-0.2-0.1-0.4-0.2-0.6c-0.2,0.4-0.5,0.7-0.8,1c-0.4,0.2-0.8,0.3-1.2,0.3
	c-0.7,0-1.4-0.2-1.9-0.6c-0.5-0.4-0.7-1.1-0.7-1.7c0-0.7,0.3-1.4,0.8-1.9c0.8-0.5,1.8-0.7,2.7-0.6h1.1v-0.6c0-0.3-0.1-0.5-0.3-0.7
	c-0.2-0.2-0.4-0.3-0.7-0.3l-0.7,0.2c-0.1,0.2-0.2,0.4-0.2,0.6h-2.4c0-0.7,0.3-1.4,0.9-1.8c0.7-0.5,1.6-0.8,2.5-0.8
	c0.9,0,1.7,0.3,2.4,0.8c0.7,0.5,1,1.3,0.9,2.1v2.9c0,0.5,0.1,0.8,0.1,1.2c0.1,0.4,0.2,0.8,0.4,1.1H158.5z M156.8,74l0.8-0.2
	c0.2-0.2,0.4-0.3,0.5-0.5v-1.1h-1c-0.3,0-0.7,0.1-0.9,0.3c-0.2,0.2-0.3,0.4-0.3,0.7c0,0.2,0.1,0.5,0.3,0.6L156.8,74z"/>
<path d="M169.2,71.8c0.1,1-0.2,2.1-0.8,2.9c-0.5,0.7-1.4,1.1-2.3,1c-0.4,0-0.8,0-1.1-0.2c-0.3-0.2-0.6-0.5-0.8-0.8l-0.2,0.9h-2.1
	V64.2h2.5v4.2c0.2-0.3,0.4-0.5,0.7-0.6c0.3-0.2,0.6-0.3,1-0.3c0.9,0,1.8,0.4,2.3,1.1c0.6,0.9,0.9,1.9,0.8,3L169.2,71.8z M166.8,71.6
	c0-0.5-0.1-1.1-0.3-1.6c-0.2-0.4-0.6-0.6-1-0.6l-0.7,0.2c-0.2,0.1-0.3,0.2-0.4,0.4v3.3c0.1,0.2,0.2,0.3,0.4,0.4h0.7
	c0.5,0,0.8-0.1,1-0.5c0.2-0.5,0.3-1,0.3-1.5V71.6z"/>
<path d="M172.9,65.8h-2.5v-1.6h2.5V65.8z M172.9,75.6h-2.5v-7.9h2.5V75.6z"/>
<path d="M177,75.6h-2.5V64.2h2.5V75.6z"/>
<path d="M181.1,65.8h-2.5v-1.6h2.5V65.8z M181.1,75.6h-2.5v-7.9h2.5V75.6z"/>
<path d="M185.5,65.7v2h1.2v1.7h-1.2V73c0,0.3,0,0.5,0.2,0.6s0.2,0.2,0.4,0.2h0.6l0.2,1.9h-1.4c-0.7,0-1.4-0.2-1.9-0.6
	c-0.5-0.6-0.7-1.3-0.6-2.1v-3.6h-1.1v-1.7h1.1v-2H185.5z"/>
<path d="M191,72.1h0.1l1.3-4.5h2.6l-3.2,9.1c-0.2,0.5-0.5,1-0.9,1.4c-0.5,0.4-1.1,0.7-1.8,0.6h-0.6l-0.6-0.2l0.3-1.8h0.3l0.8-0.2
	c0.2-0.1,0.3-0.3,0.4-0.5l0.2-0.5l-2.7-8h2.6L191,72.1z"/>
<path d="M197.2,69.2h-2.5v-2.1h2.5V69.2z M197.2,75.6h-2.5v-2.1h2.5V75.6z"/>
<path d="M209.8,66.4c-1,1.2-1.9,2.6-2.6,4c-0.4,1.3-0.6,2.6-0.6,3.9v1.3h-1.8v-1.3c0-1.4,0.3-2.8,0.8-4.1c0.6-1.4,1.5-2.7,2.5-3.8
	h-5.5v-1.5h7.2L209.8,66.4z"/>
<path d="M215.3,64.8h1.2l1,0.3l-0.3,1.4l-0.9-0.3h-1c-0.6,0-1.2,0.3-1.6,0.8c-0.4,0.6-0.6,1.4-0.6,2.1v0.5c0.3-0.3,0.6-0.5,1-0.6
	c0.4-0.2,0.9-0.3,1.3-0.3c0.9-0.1,1.7,0.3,2.2,1c1.1,1.5,1,3.7-0.2,5.1c-0.7,0.6-1.6,1-2.5,0.9c-1,0.1-1.9-0.4-2.5-1.1
	c-0.8-0.8-1.2-2-1.1-3.1v-2.3c0-1.2,0.4-2.3,1.2-3.2C213.2,65.2,214.2,64.8,215.3,64.8z M214.9,70.1l-1.1,0.2
	c-0.3,0.2-0.5,0.4-0.7,0.7v0.6c0,0.7,0.1,1.4,0.5,2c0.3,0.4,0.8,0.7,1.3,0.7c0.5,0,1-0.2,1.3-0.6c0.3-0.5,0.5-1,0.4-1.6
	c0-0.5-0.1-1-0.4-1.4C215.9,70.3,215.4,70.1,214.9,70.1L214.9,70.1z"/>
<path d="M221.9,75.6h-1.8v-1.7h1.8V75.6z"/>
<path d="M231.1,66.4c-1.1,1.2-2,2.5-2.6,4c-0.5,1.2-0.7,2.6-0.7,3.9v1.3H226v-1.3c0-1.4,0.3-2.8,0.9-4.1c0.6-1.4,1.4-2.7,2.5-3.8
	h-5.6v-1.5h7.3L231.1,66.4z"/>
<path d="M232.4,67c0-0.6,0.2-1.2,0.6-1.6c0.5-0.4,1.1-0.6,1.7-0.6c0.6,0,1.2,0.2,1.7,0.6c0.4,0.4,0.6,1,0.6,1.6v0.5
	c0,0.6-0.2,1.2-0.6,1.6c-0.5,0.4-1.1,0.6-1.7,0.6c-0.6,0-1.2-0.2-1.6-0.6c-0.5-0.4-0.7-1-0.7-1.6V67z M233.7,67.5
	c0,0.3,0.1,0.6,0.3,0.8c0.1,0.3,0.4,0.4,0.7,0.4c0.3,0,0.6-0.1,0.8-0.4c0.1-0.2,0.2-0.5,0.2-0.8V67c0-0.3-0.1-0.6-0.2-0.8
	c-0.3-0.4-1-0.5-1.4-0.2c-0.1,0.1-0.1,0.1-0.2,0.2c-0.1,0.2-0.2,0.5-0.2,0.8V67.5z M235.1,74.8l-0.9-0.5l5.2-8.4l0.9,0.6L235.1,74.8
	z M237.6,73c0-0.6,0.2-1.2,0.6-1.6c0.4-0.4,1-0.6,1.6-0.6c0.6,0,1.2,0.2,1.7,0.6c0.4,0.4,0.6,1,0.6,1.6v0.6c0,0.6-0.2,1.1-0.6,1.5
	c-0.5,0.4-1.1,0.6-1.7,0.6c-0.6,0-1.2-0.2-1.6-0.6c-0.4-0.4-0.6-0.9-0.6-1.5V73z M238.8,73.6c0,0.3,0.1,0.5,0.3,0.7
	c0.1,0.2,0.4,0.4,0.7,0.4c0.3,0,0.6-0.1,0.8-0.3c0.2-0.2,0.3-0.5,0.3-0.8V73c0-0.3-0.1-0.6-0.3-0.8c-0.2-0.2-0.5-0.3-0.8-0.3
	c-0.3,0-0.5,0.1-0.7,0.3c-0.2,0.2-0.3,0.5-0.3,0.8V73.6z"/>
</svg>
