<?xml version="1.0" encoding="utf-8"?>
<!-- Generator: Adobe Illustrator 22.0.1, SVG Export Plug-In . SVG Version: 6.00 Build 0)  -->
<svg version="1.1" id="Layer_1" xmlns="http://www.w3.org/2000/svg" xmlns:xlink="http://www.w3.org/1999/xlink" x="0px" y="0px"
	 viewBox="0 0 474.5 276.5" style="enable-background:new 0 0 474.5 276.5;" xml:space="preserve">
<style type="text/css">
	.st0{fill:#FFFFFF;stroke:#000000;stroke-width:2;stroke-miterlimit:10;}
	.st1{fill:#FFFFFF;}
</style>
<title>Hispa Cropped</title>
<rect x="1" y="1" class="st0" width="472.5" height="274.5"/>
<image style="overflow:visible;enable-background:new    ;" width="23" height="169" xlink:href="148E314D.png"  transform="matrix(0.97 0 0 0.97 343.6 72.7)">
</image>
<image style="overflow:visible;enable-background:new    ;" width="18" height="194" xlink:href="148E314F.png"  transform="matrix(0.84 0 0 -0.84 267.51 233.51)">
</image>
<image style="overflow:visible;enable-background:new    ;" width="15" height="80" xlink:href="148E314A.png"  transform="matrix(2.05 0 0 2.05 382.7 72.7)">
</image>
<image style="overflow:visible;enable-background:new    ;" width="124" height="628" xlink:href="148E314B.png"  transform="matrix(0.26 0 0 0.26 297 69.6)">
</image>
<rect x="255.2" y="64.4" class="st1" width="169.7" height="8.3"/>
<rect x="248.9" y="228.8" class="st1" width="175.9" height="13.6"/>
<path d="M273.9,248.6h-2.6v-9h-2.2v-1.9l4.8-0.4L273.9,248.6z"/>
<path d="M317.4,248.6h-7.8V247l3.5-3.8c0.4-0.4,0.7-0.9,1-1.4c0.2-0.3,0.3-0.7,0.3-1.1c0-0.4-0.1-0.7-0.3-1
	c-0.2-0.3-0.6-0.4-0.9-0.4c-0.4,0-0.8,0.2-1,0.5c-0.2,0.4-0.3,0.8-0.3,1.3h-2.5c-0.1-1,0.3-1.9,1-2.6c0.7-0.7,1.8-1.1,2.8-1.1
	c1-0.1,2,0.3,2.8,0.9c0.7,0.6,1.1,1.6,1,2.5c0,0.7-0.2,1.3-0.6,1.9c-0.6,0.9-1.3,1.7-2,2.4l-1.3,1.6h4.3V248.6z"/>
<path d="M353.5,242c0.4,0,0.8-0.1,1.1-0.4c0.2-0.3,0.3-0.7,0.3-1.1c0-0.3-0.1-0.6-0.3-0.8c-0.3-0.3-0.7-0.4-1.1-0.4
	c-0.3,0-0.6,0.1-0.8,0.3c-0.2,0.2-0.3,0.4-0.3,0.7h-2.6c0-0.9,0.4-1.7,1.1-2.2c0.8-0.5,1.7-0.8,2.6-0.8c1,0,2,0.2,2.9,0.8
	c0.7,0.6,1.2,1.5,1.1,2.4c0,0.5-0.1,1-0.4,1.4c-0.4,0.4-0.8,0.7-1.3,1c0.6,0.1,1.1,0.5,1.4,1c0.3,0.5,0.5,1,0.5,1.6
	c0,0.9-0.4,1.8-1.2,2.4c-0.9,0.6-1.9,0.9-3,0.9c-1,0-1.9-0.3-2.7-0.8c-0.8-0.5-1.2-1.5-1.1-2.4h2.5c0,0.7,0.6,1.3,1.3,1.3
	c0.4,0,0.9-0.1,1.2-0.4c0.3-0.3,0.4-0.6,0.4-1c0.1-0.4-0.1-0.8-0.4-1.1c-0.3-0.3-0.8-0.4-1.2-0.4h-1.2v-2H353.5z"/>
<path d="M398,244.3h1.1v2H398v2.4h-2.6v-2.4h-4.5v-1.6l4.6-7.2h2.5V244.3z M393,244.3h2.4v-3.5h-0.1l-0.2,0.6L393,244.3z"/>
<path d="M18.8,23h0.1l2.4-7.4h3.2v10.6h-2.4v-6.8H22l-2.3,6.9H18l-2.3-6.8l0,0v6.7h-2.5V15.6h3.2L18.8,23z"/>
<path d="M25.8,22.2c-0.1-1.1,0.3-2.1,1-2.9c0.7-0.8,1.7-1.2,2.8-1.1c1.1-0.1,2.1,0.3,2.8,1.1c0.7,0.8,1.1,1.8,1,2.9l0,0
	c0,1.1-0.3,2.2-1,3c-0.7,0.7-1.8,1.1-2.8,1.1c-1,0.1-2.1-0.3-2.8-1.1C26.1,24.4,25.8,23.3,25.8,22.2z M28.2,22.3
	c0,0.5,0.1,1.1,0.3,1.6c0.2,0.4,0.7,0.6,1.1,0.6c0.4,0,0.8-0.2,1-0.6c0.3-0.5,0.5-1,0.4-1.6l0,0c0.1-0.6-0.1-1.1-0.4-1.6
	c-0.2-0.3-0.6-0.5-1-0.5c-0.4,0-0.8,0.2-1.1,0.5C28.3,21.2,28.2,21.8,28.2,22.3z"/>
<path d="M34.2,22.3c-0.1-1.1,0.2-2.1,0.8-3c0.5-0.8,1.4-1.2,2.3-1.1c0.3,0,0.7,0,1,0.2l0.8,0.7v-4.3h2.4v11.4h-2.1l-0.2-0.9
	c-0.2,0.3-0.5,0.6-0.8,0.8c-0.3,0.2-0.7,0.3-1.1,0.3c-0.9,0-1.8-0.4-2.3-1.1c-0.6-0.9-0.8-1.9-0.8-2.9V22.3z M36.7,22.4
	c0,0.5,0.1,1,0.2,1.5c0.2,0.4,0.6,0.6,1,0.6l0.7-0.2l0.5-0.4v-3.2l-0.5-0.5h-0.7c-0.4,0-0.7,0.2-0.9,0.6
	C36.8,21.3,36.7,21.9,36.7,22.4z"/>
<path d="M46.5,26.4c-1.1,0-2.1-0.4-2.9-1.1c-0.7-0.8-1-1.8-1-2.8v-0.3c-0.1-1.1,0.3-2.1,1-2.9c0.7-0.8,1.7-1.3,2.8-1.1
	c0.9,0,1.8,0.3,2.5,0.9c0.5,0.8,0.8,1.7,0.8,2.6V23h-4.5c0,0.4,0.2,0.7,0.4,1c0.3,0.3,0.8,0.4,1.2,0.4H48l1.1-0.4l0.6,1.5l-1.4,0.6
	C47.7,26.3,47.1,26.4,46.5,26.4z M46.4,20.1c-0.3,0-0.7,0.1-0.9,0.3c-0.2,0.3-0.3,0.7-0.3,1.1h2.1v-0.2c0-0.4,0-0.7-0.2-0.9
	C46.9,20.2,46.7,20.1,46.4,20.1z"/>
<path d="M53.4,26.2h-2.5V14.8h2.5V26.2z"/>
<path d="M57.7,19.8h-2.5v-2.1h2.5V19.8z M57.7,26.2h-2.5v-2.1h2.5V26.2z"/>
<path d="M68.9,23.8L68.9,23.8l3.2-8.2h2.2v10.6h-1.7v-7.6h-0.1l-2.9,7.6h-1.3l-2.9-7.8h-0.1v7.8h-1.8V15.6h2.4L68.9,23.8z"/>
<path d="M76.1,22.2c-0.1-1,0.3-2.1,0.9-2.9c1.5-1.4,3.9-1.4,5.4,0c0.6,0.8,1,1.9,0.9,2.9l0,0c0,1.1-0.3,2.1-0.9,3
	c-0.7,0.7-1.7,1.1-2.7,1.1c-1,0.1-2-0.3-2.7-1.1c-0.6-0.8-1-1.9-0.9-2.9V22.2z M77.8,22.3c0,0.7,0.2,1.3,0.5,1.9
	c0.4,0.8,1.4,1.1,2.2,0.6c0.3-0.1,0.5-0.4,0.6-0.6c0.3-0.6,0.5-1.2,0.5-1.9l0,0c0-0.7-0.2-1.3-0.5-1.9c-0.5-0.8-1.6-1-2.4-0.4
	c-0.2,0.1-0.3,0.3-0.4,0.4C78,21,77.8,21.6,77.8,22.3z"/>
<path d="M91.9,22.5c0.1,1-0.3,2-0.9,2.8c-0.5,0.7-1.3,1.1-2.2,1.1c-0.5,0-0.9-0.1-1.3-0.3c-0.4-0.2-0.7-0.5-1-0.9l-0.2,1h-1.4V14.8
	h1.8v4.4c0.2-0.3,0.5-0.6,0.9-0.8c0.3-0.2,0.7-0.2,1.1-0.2c0.9-0.1,1.8,0.3,2.3,1.1c0.6,0.9,1,2,0.9,3.1V22.5z M90.1,22.4
	c0-0.7-0.1-1.4-0.5-2c-0.2-0.5-0.7-0.8-1.3-0.8c-0.4,0-0.7,0.1-1,0.3c-0.3,0.1-0.5,0.4-0.6,0.7v3.3c0.1,0.3,0.3,0.6,0.6,0.8l1,0.2
	c0.5,0,1.1-0.2,1.4-0.6c0.3-0.6,0.4-1.2,0.4-1.8V22.4z"/>
<path d="M95.3,16.4h-1.8v-1.6h1.8V16.4z M95.3,26.2h-1.8v-7.9h1.8V26.2z"/>
<path d="M99.2,26.2h-1.8V14.8h1.8L99.2,26.2z"/>
<path d="M104.5,26.4c-1,0-2-0.4-2.7-1.1c-0.7-0.8-1-1.8-1-2.9v-0.2c0-1.1,0.3-2.1,1-2.9c0.6-0.8,1.5-1.2,2.5-1.1
	c0.9-0.1,1.8,0.3,2.5,0.9c0.5,0.8,0.8,1.7,0.8,2.7v0.9h-4.9c0,0.5,0.2,1.1,0.5,1.5c0.3,0.5,0.8,0.7,1.4,0.7l1.3-0.2l1-0.5l0.6,1.1
	l-1.2,0.7C105.7,26.2,105.1,26.4,104.5,26.4z M104.3,19.6c-0.4,0-0.8,0.2-1.1,0.5c-0.3,0.4-0.5,0.8-0.5,1.3h3.1
	c0-0.4-0.1-0.8-0.3-1.2C105.3,19.8,104.8,19.5,104.3,19.6z"/>
<path d="M117.5,26.2h-1.7l-4.8-7.7l0,0v7.6h-1.8V15.6h1.8l4.7,7.6h0.1v-7.6h1.7L117.5,26.2z"/>
<path d="M122.9,26.4c-1,0-2-0.4-2.7-1.1c-0.6-0.8-1-1.9-0.9-2.9v-0.2c-0.1-1,0.3-2.1,0.9-2.9c0.6-0.8,1.6-1.2,2.6-1.1
	c0.9,0,1.8,0.3,2.4,0.9c0.5,0.8,0.8,1.7,0.8,2.7v0.9h-4.9c0,0.5,0.2,1.1,0.5,1.5c0.3,0.5,0.9,0.8,1.5,0.7l1.2-0.2
	c0.4-0.1,0.7-0.3,1-0.5l0.6,1.1c-0.3,0.3-0.8,0.5-1.2,0.7C124.1,26.2,123.5,26.4,122.9,26.4z M122.8,19.6c-0.5-0.1-0.9,0.1-1.2,0.5
	c-0.2,0.4-0.4,0.8-0.5,1.3h3.1c0-0.4-0.1-0.8-0.3-1.2C123.7,19.8,123.3,19.6,122.8,19.6z"/>
<path d="M129.7,16.4v1.9h1.4v1.3h-1.4V24c0,0.2,0.1,0.5,0.2,0.7l0.6,0.2h0.5l0.2,1.3l-0.5,0.2H130c-0.6,0-1.1-0.2-1.5-0.6
	c-0.4-0.5-0.7-1.1-0.6-1.8v-4.4h-1.2v-1.3h1.2v-1.9H129.7z"/>
<path d="M135.3,23.5l0.2,0.7l0,0v-0.7l1.6-5.2h1.9l-2.9,7.9h-1.5l-2.8-7.9h1.8L135.3,23.5z"/>
<path d="M147.1,26.2h-6.9V25l3.4-3.9c0.4-0.5,0.8-1,1.1-1.5c0.2-0.4,0.3-0.8,0.3-1.2c0.1-0.4-0.1-0.8-0.4-1.1
	c-0.3-0.3-0.7-0.5-1.1-0.5c-0.5,0-0.9,0.2-1.2,0.6c-0.3,0.4-0.5,0.8-0.5,1.3h-1.7c-0.1-1.8,1.3-3.2,3.1-3.3c0.1,0,0.2,0,0.3,0
	c0.9,0,1.7,0.3,2.4,0.8c0.6,0.6,0.9,1.4,0.9,2.2c0,0.6-0.2,1.2-0.5,1.7c-0.5,0.7-1,1.5-1.6,2.1l-2.2,2.6h4.6V26.2z"/>
<path d="M18.8,42.2h-3.2l-0.6,2h-2.6l3.4-10.6h2.7L22,44.2h-2.6L18.8,42.2z M16.2,40.2h2l-1-3.3h-0.1L16.2,40.2z"/>
<path d="M26,42.5c0.3,0,0.5-0.1,0.7-0.3c0.2-0.2,0.3-0.5,0.3-0.8h2.3c0,0.8-0.3,1.6-0.9,2.2c-0.7,0.5-1.5,0.8-2.4,0.8
	c-1,0-2.1-0.4-2.8-1.1c-0.7-0.9-1-1.9-1-3l0,0c0-1.1,0.3-2.1,1-2.9c0.7-0.8,1.7-1.3,2.8-1.2c0.9-0.1,1.7,0.2,2.4,0.8
	c0.6,0.6,1,1.4,0.9,2.3H27c0-0.3-0.1-0.6-0.3-0.9c-0.2-0.2-0.4-0.3-0.7-0.3c-0.5,0-0.8,0.1-1,0.5c-0.2,0.5-0.3,1.1-0.3,1.6l0,0
	c0,0.5,0.1,1.1,0.3,1.6C25.1,42.2,25.5,42.5,26,42.5z"/>
<path d="M33.1,34.3v2h1.3V38h-1.3v3.6c0,0.2,0.1,0.5,0.2,0.7h1.1v1.8h-1.3c-0.7,0.1-1.3-0.2-1.8-0.7c-0.5-0.5-0.7-1.3-0.7-2V38h-1.1
	v-1.7h1.1v-2H33.1z"/>
<path d="M40.3,43c-0.2,0.4-0.5,0.8-0.9,1c-0.4,0.3-0.8,0.4-1.3,0.4c-0.7,0-1.4-0.3-1.9-0.9c-0.5-0.8-0.8-1.7-0.7-2.7v-4.5H38v4.6
	c0,0.4,0,0.8,0.2,1.2c0.2,0.3,0.5,0.4,0.8,0.4h0.7l0.5-0.4v-5.8h2.4v7.9h-1.9L40.3,43z"/>
<path d="M48.6,44.2l-0.3-0.5c0-0.3-0.1-0.5-0.1-0.7c-0.2,0.4-0.5,0.7-0.8,1c-0.3,0.3-0.8,0.4-1.2,0.4c-0.7,0.1-1.5-0.2-2-0.7
	c-0.4-0.5-0.7-1.1-0.7-1.7c0-0.7,0.3-1.4,0.9-1.8c0.8-0.5,1.7-0.8,2.7-0.7h1V39c0-0.3-0.1-0.6-0.2-0.8c-0.2-0.2-0.5-0.3-0.8-0.3
	l-0.6,0.2c-0.1,0.2-0.2,0.4-0.2,0.6h-2.4c-0.1-0.7,0.3-1.4,0.9-1.8c0.7-0.5,1.6-0.8,2.5-0.7c0.9-0.1,1.7,0.2,2.4,0.7
	c0.6,0.5,0.9,1.3,0.9,2.1v3c0,0.4,0,0.7,0.1,1.1l0.3,1.1L48.6,44.2z M46.8,42.6l0.8-0.2c0.2-0.1,0.4-0.3,0.5-0.5v-1.1h-1
	c-0.3,0-0.6,0.1-0.8,0.3c-0.2,0.2-0.3,0.5-0.3,0.8c0,0.2,0.1,0.4,0.2,0.5L46.8,42.6z"/>
<path d="M54.6,44.2h-2.5V32.8h2.5V44.2z"/>
<path d="M68.1,40.6L68.1,40.6c0.2,1-0.2,2-1,2.7c-0.8,0.7-1.9,1.1-3,1c-1.2,0-2.3-0.4-3.2-1.2c-0.8-0.8-1.2-2-1.1-3.1v-2.2
	c-0.1-1.2,0.3-2.3,1.1-3.2c0.8-0.8,1.9-1.3,3.1-1.2c1.1-0.1,2.2,0.3,3.1,1c0.8,0.7,1.2,1.7,1.1,2.7h-2.5c0-0.5-0.1-1-0.4-1.4
	c-0.4-0.3-0.8-0.4-1.3-0.4c-0.5,0-1,0.2-1.3,0.7c-0.4,0.5-0.5,1.2-0.5,1.8V40c0,0.6,0.2,1.3,0.5,1.8c0.3,0.4,0.8,0.7,1.4,0.7
	c0.5,0,0.9-0.1,1.2-0.5c0.3-0.2,0.4-0.7,0.4-1.4H68.1z"/>
<path d="M72,44.2h-2.5V32.8H72V44.2z"/>
<path d="M78.1,44.2l-0.3-0.5c0-0.3-0.1-0.5-0.1-0.7c-0.2,0.4-0.5,0.7-0.8,1c-0.4,0.3-0.8,0.5-1.3,0.4c-0.7,0-1.4-0.2-1.9-0.7
	C73.2,43.3,73,42.6,73,42c0-0.7,0.3-1.4,0.9-1.8c0.8-0.5,1.7-0.8,2.7-0.7h1V39c0-0.3-0.1-0.6-0.2-0.8c-0.2-0.2-0.5-0.3-0.8-0.3
	c-0.2,0-0.4,0.1-0.6,0.2c-0.2,0.2-0.2,0.4-0.2,0.6h-2.4c-0.1-0.7,0.3-1.4,0.9-1.8c0.7-0.5,1.6-0.8,2.5-0.7c0.9-0.1,1.7,0.2,2.4,0.7
	c0.6,0.5,0.9,1.3,0.9,2.1v3c0,0.4,0,0.7,0.1,1.1l0.3,1.1L78.1,44.2z M76.3,42.6l0.8-0.2c0.2-0.1,0.4-0.3,0.5-0.5v-1.1h-1
	c-0.4,0-0.7,0.1-0.8,0.3c-0.2,0.2-0.3,0.5-0.3,0.8c0,0.2,0.1,0.4,0.2,0.5L76.3,42.6z"/>
<path d="M85.6,42c0-0.2-0.2-0.5-0.4-0.5c-0.4-0.2-0.8-0.4-1.2-0.4c-0.8-0.1-1.5-0.4-2.1-0.9c-0.4-0.4-0.7-0.9-0.7-1.5
	c0-0.7,0.3-1.4,0.9-1.8c0.7-0.5,1.5-0.8,2.4-0.7c0.9-0.1,1.8,0.2,2.5,0.7c0.6,0.4,0.9,1.1,0.9,1.8h-2.4c0-0.2-0.1-0.5-0.2-0.7
	l-0.8-0.2c-0.3,0-0.5,0-0.7,0.2c-0.1,0.1-0.2,0.3-0.2,0.5c0,0.2,0.1,0.4,0.3,0.6l1.2,0.4c0.8,0.1,1.5,0.4,2.2,0.8
	c0.4,0.4,0.7,1,0.7,1.6c0,0.7-0.4,1.4-1,1.8c-0.7,0.5-1.6,0.7-2.5,0.7c-0.9,0-1.8-0.3-2.6-0.8c-0.6-0.5-0.9-1.2-0.9-1.9h2.3
	c0,0.3,0.1,0.6,0.3,0.8c0.3,0.2,0.7,0.3,1,0.2c0.3,0,0.5,0,0.7-0.2C85.5,42.4,85.6,42.2,85.6,42z"/>
<path d="M93.2,42c0-0.2-0.1-0.4-0.3-0.5c-0.4-0.2-0.8-0.4-1.2-0.4c-0.8-0.1-1.5-0.4-2.1-0.9c-0.5-0.4-0.7-0.9-0.7-1.5
	c0-0.7,0.3-1.4,0.9-1.8c0.7-0.5,1.5-0.8,2.4-0.7c0.9-0.1,1.8,0.2,2.5,0.7c0.6,0.4,0.9,1.1,0.9,1.8h-2.4c0-0.3-0.1-0.5-0.3-0.7
	l-0.7-0.2c-0.3,0-0.5,0-0.7,0.2c-0.2,0.1-0.3,0.3-0.3,0.5c0,0.2,0.1,0.4,0.3,0.6l1.3,0.4c0.8,0.1,1.5,0.4,2.1,0.8
	c0.5,0.4,0.7,1,0.7,1.6c0,0.7-0.3,1.4-0.9,1.8c-0.8,0.5-1.6,0.7-2.5,0.7c-0.9,0-1.9-0.2-2.6-0.8c-0.6-0.5-0.9-1.2-0.9-1.9H91
	c0,0.3,0.1,0.6,0.3,0.8c0.2,0.2,0.5,0.2,0.9,0.2s0.6,0,0.8-0.2S93.2,42.2,93.2,42z"/>
<path d="M99.6,37.8h-2.5v-2.1h2.5V37.8z M99.6,44.2h-2.5v-2.1h2.5V44.2z"/>
<path d="M113.8,44.2H112v-4.5h-4.8v4.5h-1.8V33.6h1.8v4.6h4.8v-4.6h1.8V44.2z"/>
<path d="M117.7,34.4h-1.8v-1.6h1.8V34.4z M117.7,44.2h-1.8v-7.9h1.8V44.2z"/>
<path d="M124.2,42.1c0-0.3-0.2-0.5-0.4-0.7c-0.4-0.3-0.8-0.4-1.3-0.5c-0.7-0.2-1.4-0.4-2.1-0.8c-0.5-0.3-0.8-0.9-0.8-1.5
	c0-0.7,0.3-1.3,0.9-1.7c0.6-0.5,1.4-0.8,2.2-0.7c0.8,0,1.6,0.2,2.3,0.7c0.5,0.4,0.8,1.1,0.8,1.7h-1.7c0-0.3-0.1-0.7-0.4-0.9
	c-0.3-0.2-0.6-0.3-1-0.3c-0.4,0-0.7,0.1-1,0.3c-0.2,0.2-0.3,0.4-0.3,0.7c0,0.2,0.1,0.5,0.3,0.6c0.4,0.3,0.8,0.4,1.3,0.5
	c0.8,0.2,1.5,0.4,2.2,0.8c0.5,0.4,0.7,1,0.7,1.6c0,0.7-0.3,1.3-0.9,1.7c-0.7,0.5-1.5,0.8-2.3,0.7c-0.9,0-1.7-0.3-2.4-0.8
	c-0.6-0.4-0.9-1.1-0.9-1.8h1.7c0,0.4,0.2,0.8,0.5,1c0.3,0.2,0.7,0.3,1.1,0.3c0.4,0.1,0.8,0,1.1-0.2C124,42.6,124.2,42.4,124.2,42.1z
	"/>
<path d="M134.5,40.5c0.1,1-0.3,2-0.9,2.8c-0.5,0.7-1.3,1.1-2.2,1.1c-0.4,0-0.8-0.1-1.2-0.3c-0.4-0.1-0.7-0.4-0.9-0.7v3.9h-1.8v-11
	h1.5l0.2,1c0.2-0.4,0.5-0.7,0.9-0.9c0.4-0.2,0.9-0.2,1.3-0.2c0.9-0.1,1.7,0.4,2.2,1.1c0.6,0.9,1,2,0.9,3.1L134.5,40.5z M132.7,40.4
	c0-0.7-0.2-1.4-0.5-2c-0.2-0.5-0.7-0.8-1.3-0.8l-1,0.2c-0.2,0.2-0.5,0.4-0.6,0.7v3.6c0.1,0.3,0.3,0.5,0.6,0.6c0.3,0.2,0.6,0.3,1,0.3
	c0.5,0,1-0.3,1.3-0.7C132.5,41.8,132.7,41.1,132.7,40.4L132.7,40.4z"/>
<path d="M140.8,44.2c-0.1-0.2-0.1-0.4-0.2-0.6c0-0.2,0-0.3-0.1-0.5c-0.2,0.3-0.6,0.7-0.9,0.9c-0.4,0.3-0.9,0.4-1.4,0.4
	c-0.7,0-1.4-0.2-1.9-0.7c-0.4-0.5-0.6-1.1-0.6-1.7c0-0.7,0.3-1.4,0.9-1.8c0.8-0.4,1.6-0.7,2.5-0.6h1.4v-0.7c0-0.4-0.1-0.7-0.3-1
	c-0.3-0.3-0.7-0.4-1.1-0.4c-0.4,0-0.7,0.1-1,0.3c-0.2,0.2-0.3,0.5-0.3,0.8h-1.7c-0.1-0.6,0.3-1.3,0.8-1.6c1.4-0.9,3.2-0.9,4.6,0
	c0.6,0.5,0.8,1.2,0.8,2v3.5c0,0.3,0,0.6,0.1,0.9c0,0.3,0.1,0.6,0.2,0.9L140.8,44.2z M138.6,42.9c0.4,0,0.8-0.1,1.2-0.3
	c0.3-0.2,0.6-0.4,0.7-0.8v-1.1h-1.4c-0.4,0-0.9,0.1-1.2,0.4c-0.3,0.2-0.4,0.6-0.4,0.9c0,0.3,0.1,0.5,0.3,0.7
	C137.9,42.9,138.2,42.9,138.6,42.9z"/>
<path d="M149.8,34.4H148v-1.6h1.8V34.4z M149.8,44.2H148v-7.9h1.8V44.2z"/>
<path d="M153.4,36.3v1c0.3-0.3,0.6-0.6,1-0.8c0.4-0.2,0.8-0.3,1.3-0.3c0.5,0,1,0.1,1.4,0.3c0.4,0.3,0.6,0.7,0.8,1.1
	c0.2-0.5,0.6-0.8,1-1.1c0.4-0.2,0.9-0.3,1.4-0.3c0.7-0.1,1.4,0.2,1.9,0.8c0.5,0.7,0.7,1.6,0.7,2.5v4.7h-1.8v-4.7
	c0.1-0.5-0.1-1.1-0.4-1.5c-0.3-0.3-0.6-0.4-1-0.4c-0.4,0-0.7,0.1-1,0.3l-0.6,0.8c0,0.1,0,0.2,0.1,0.2v5.3h-1.8v-4.7
	c0.1-0.5-0.1-1.1-0.4-1.5c-0.3-0.3-0.6-0.4-1-0.4l-0.9,0.2c-0.2,0.1-0.5,0.4-0.6,0.6v5.8h-1.8v-7.9H153.4z"/>
<path d="M169.6,44.2c-0.1-0.2-0.1-0.4-0.1-0.6c-0.1-0.2-0.1-0.3-0.1-0.5l-1,0.9c-0.4,0.3-0.8,0.4-1.3,0.4c-0.7,0.1-1.4-0.2-1.9-0.7
	c-0.5-0.4-0.7-1.1-0.7-1.7c0-0.7,0.3-1.4,0.9-1.8c0.8-0.4,1.7-0.6,2.6-0.6h1.4v-0.7c0-0.4-0.1-0.7-0.4-1c-0.3-0.3-0.7-0.4-1.1-0.4
	c-0.3,0-0.7,0.1-0.9,0.3c-0.3,0.2-0.4,0.5-0.4,0.8h-1.7c0-0.6,0.3-1.2,0.8-1.6c0.7-0.5,1.5-0.7,2.3-0.7c0.8-0.1,1.6,0.2,2.3,0.7
	c0.6,0.5,0.8,1.2,0.8,2v3.5c0,0.3,0.1,0.6,0.1,0.9c0,0.3,0.1,0.6,0.2,0.9L169.6,44.2z M167.4,42.9c0.4,0,0.8-0.1,1.2-0.3
	c0.3-0.2,0.6-0.5,0.8-0.8v-1.1h-1.5c-0.4,0-0.9,0.1-1.2,0.4c-0.3,0.2-0.4,0.6-0.4,0.9c0,0.3,0.1,0.5,0.3,0.7
	C166.8,42.9,167.1,42.9,167.4,42.9L167.4,42.9z"/>
<path d="M172.7,40.4c0-1.1,0.2-2.2,0.8-3.1c0.5-0.7,1.4-1.2,2.3-1.1c0.5,0,0.9,0.1,1.3,0.3l0.9,0.8v-1h1.5v7.9
	c0,0.9-0.3,1.8-0.9,2.4c-0.8,0.6-1.7,0.9-2.7,0.8h-1.2l-1.3-0.5l0.3-1.4l1,0.4h1.3c0.5,0,1-0.1,1.4-0.4c0.3-0.4,0.5-0.8,0.4-1.3
	v-0.8c-0.2,0.3-0.5,0.6-0.8,0.7l-1.2,0.3c-0.9,0-1.8-0.4-2.3-1.1c-0.6-0.8-0.8-1.8-0.8-2.8L172.7,40.4z M174.5,40.5
	c0,0.6,0.1,1.3,0.4,1.8c0.3,0.4,0.9,0.6,1.4,0.6l0.9-0.2c0.3-0.2,0.5-0.4,0.6-0.7v-3.5c-0.1-0.3-0.3-0.5-0.6-0.6
	c-0.3-0.2-0.6-0.3-0.9-0.3c-0.6,0-1.1,0.3-1.4,0.8C174.6,39,174.5,39.7,174.5,40.5L174.5,40.5z"/>
<path d="M184.8,44.4c-1,0-2-0.4-2.7-1.1c-0.6-0.8-1-1.9-0.9-2.9v-0.2c-0.1-1,0.3-2.1,0.9-2.9c0.6-0.8,1.6-1.2,2.6-1.1
	c0.9,0,1.8,0.3,2.4,0.9c0.5,0.8,0.8,1.7,0.8,2.7v0.9H183c0,0.5,0.2,1.1,0.5,1.5c0.3,0.5,0.9,0.8,1.5,0.7l1.2-0.2
	c0.4-0.1,0.7-0.3,1-0.5l0.6,1.1c-0.3,0.3-0.8,0.5-1.2,0.7C186,44.2,185.4,44.4,184.8,44.4z M184.7,37.6c-0.5-0.1-0.9,0.1-1.2,0.5
	c-0.2,0.4-0.4,0.8-0.5,1.3h3.1c0-0.4-0.1-0.8-0.3-1.2C185.6,37.8,185.2,37.6,184.7,37.6z"/>
<path d="M193.8,42.1c0-0.3-0.2-0.6-0.4-0.7c-0.4-0.3-0.8-0.5-1.3-0.5c-0.7-0.2-1.4-0.4-2.1-0.8c-0.5-0.4-0.7-0.9-0.7-1.5
	c-0.1-0.7,0.3-1.3,0.8-1.7c0.6-0.5,1.4-0.7,2.2-0.7c0.8-0.1,1.6,0.2,2.3,0.7c0.5,0.4,0.9,1,0.8,1.7h-1.7c0-0.3-0.1-0.7-0.4-0.9
	c-0.3-0.2-0.6-0.3-1-0.3c-0.4,0-0.7,0.1-1,0.3c-0.2,0.2-0.3,0.4-0.3,0.7c0,0.2,0.1,0.5,0.3,0.6c0.4,0.2,0.8,0.4,1.3,0.5
	c0.8,0.1,1.5,0.4,2.2,0.8c0.5,0.4,0.7,1,0.7,1.6c0,0.7-0.3,1.3-0.8,1.7c-0.7,0.5-1.5,0.8-2.4,0.7c-0.9,0-1.7-0.3-2.4-0.8
	c-0.6-0.4-0.9-1.1-0.9-1.8h1.7c0,0.4,0.2,0.8,0.5,1c0.4,0.2,0.8,0.3,1.2,0.3c0.3,0.1,0.7,0,1-0.2C193.6,42.7,193.8,42.4,193.8,42.1z
	"/>
<path d="M207.9,41.9L207.9,41.9l1.2-5.6h1.7l-2.1,7.9h-1.5l-1.7-5.2l0,0l-1.7,5.2h-1.4l-2.2-7.9h1.8l1.2,5.5l0,0l1.7-5.5h1.3
	L207.9,41.9z"/>
<path d="M214,34.4h-1.8v-1.6h1.8V34.4z M214,44.2h-1.8v-7.9h1.8V44.2z"/>
<path d="M218.2,34.4v1.9h1.5v1.3h-1.5V42c0,0.3,0.1,0.5,0.3,0.7l0.5,0.2h0.6l0.2,1.3l-0.6,0.2h-0.6c-0.6,0-1.2-0.2-1.6-0.6
	c-0.4-0.5-0.5-1.2-0.5-1.8v-4.4h-1.2v-1.3h1.2v-1.9H218.2z"/>
<path d="M222.9,37.3c0.2-0.3,0.5-0.6,0.9-0.8c0.4-0.2,0.8-0.3,1.3-0.3c0.7-0.1,1.4,0.2,1.9,0.7c0.6,0.7,0.8,1.6,0.8,2.5v4.8H226
	v-4.8c0-0.5-0.1-1-0.4-1.4c-0.3-0.3-0.7-0.4-1.1-0.4l-1,0.2c-0.3,0.1-0.5,0.3-0.6,0.6v5.8h-1.8V32.8h1.8V37.3z"/>
<path d="M229.3,40.2c-0.1-1,0.3-2.1,0.9-2.9c1.5-1.4,3.9-1.4,5.4,0c0.6,0.8,1,1.9,0.9,2.9l0,0c0,1.1-0.3,2.1-0.9,3
	c-0.7,0.7-1.7,1.1-2.7,1.1c-1,0-2-0.4-2.7-1.2C229.6,42.3,229.2,41.2,229.3,40.2z M231,40.3c0,0.7,0.2,1.3,0.5,1.9
	c0.4,0.8,1.4,1.1,2.2,0.6c0.3-0.1,0.5-0.4,0.6-0.6c0.3-0.6,0.5-1.2,0.5-1.9l0,0c0-0.7-0.2-1.3-0.5-1.9c-0.5-0.8-1.6-1-2.4-0.4
	c-0.2,0.1-0.3,0.3-0.4,0.4C231.2,39,231,39.6,231,40.3z"/>
<path d="M243,43.1c-0.2,0.4-0.5,0.7-0.9,0.9c-0.4,0.3-0.8,0.4-1.3,0.4c-0.8,0-1.5-0.3-2-0.9c-0.6-0.7-0.8-1.7-0.7-2.6v-4.6h1.7v4.6
	c-0.1,0.6,0.1,1.1,0.4,1.6c0.2,0.3,0.6,0.5,1,0.4c0.4,0,0.8,0,1.1-0.2c0.3-0.2,0.5-0.4,0.7-0.7v-5.7h1.7v7.9h-1.5L243,43.1z"/>
<path d="M248.9,34.4v1.9h1.4v1.3h-1.4V42c0,0.3,0,0.6,0.2,0.7l0.5,0.2h0.6l0.2,1.3l-0.6,0.2h-0.6c-0.6,0-1.1-0.2-1.5-0.6
	c-0.4-0.5-0.7-1.1-0.6-1.8v-4.4h-1.2v-1.3h1.2v-1.9H248.9z"/>
<path d="M262.4,41.9h0.1l1.1-5.6h1.8l-2.1,7.9h-1.5l-1.7-5.2l0,0l-1.7,5.2H257l-2.2-7.9h1.8l1.2,5.5l0,0l1.7-5.5h1.3L262.4,41.9z"/>
<path d="M268.4,37.3c0.3-0.3,0.6-0.6,1-0.8c0.4-0.2,0.8-0.3,1.2-0.3c0.7-0.1,1.5,0.2,2,0.7c0.5,0.7,0.8,1.6,0.7,2.5v4.8h-1.8v-4.8
	c0-0.5-0.1-1-0.3-1.4c-0.3-0.3-0.7-0.4-1.1-0.4l-1,0.2c-0.3,0.1-0.5,0.3-0.7,0.6v5.8h-1.8V32.8h1.8L268.4,37.3z"/>
<path d="M277.1,34.4h-1.8v-1.6h1.8V34.4z M277.1,44.2h-1.8v-7.9h1.8V44.2z"/>
<path d="M281.3,34.4v1.9h1.5v1.3h-1.5V42c0,0.2,0.1,0.5,0.2,0.7l0.6,0.2h0.6v1.3l-0.5,0.2h-0.6c-0.6,0-1.2-0.2-1.6-0.6
	c-0.4-0.5-0.6-1.2-0.5-1.8v-4.4h-1.3v-1.3h1.3v-1.9H281.3z"/>
<path d="M287.5,44.4c-1,0-2-0.4-2.7-1.1c-0.6-0.8-1-1.9-0.9-2.9v-0.2c-0.1-1,0.3-2.1,0.9-2.9c0.6-0.8,1.6-1.2,2.6-1.1
	c0.9,0,1.8,0.3,2.4,0.9c0.5,0.8,0.8,1.7,0.8,2.7v0.9h-4.9c0,0.5,0.2,1.1,0.5,1.5c0.3,0.5,0.9,0.8,1.5,0.7l1.2-0.2
	c0.4-0.1,0.7-0.3,1-0.5l0.6,1.1c-0.3,0.3-0.8,0.5-1.2,0.7C288.7,44.2,288.1,44.4,287.5,44.4z M287.4,37.6c-0.5-0.1-0.9,0.1-1.2,0.5
	c-0.2,0.4-0.4,0.8-0.5,1.3h3.1c0-0.4-0.1-0.8-0.3-1.2C288.3,37.8,287.9,37.6,287.4,37.6z"/>
<path d="M302.7,40.5c0.1,1-0.2,2-0.8,2.8c-0.5,0.7-1.4,1.1-2.3,1.1c-0.5,0-0.9-0.1-1.3-0.3c-0.3-0.2-0.7-0.6-0.9-0.9l-0.2,1h-1.4
	V32.8h1.8v4.4c0.2-0.3,0.5-0.6,0.8-0.8c0.4-0.2,0.8-0.2,1.2-0.2c0.9-0.1,1.8,0.3,2.3,1.1c0.6,0.9,0.9,2,0.8,3.1V40.5z M301,40.4
	c0-0.7-0.1-1.4-0.5-2c-0.2-0.5-0.7-0.8-1.3-0.8c-0.4,0-0.7,0.1-1,0.3c-0.3,0.1-0.5,0.4-0.6,0.7v3.3c0.1,0.3,0.3,0.6,0.6,0.8l1,0.2
	c0.5,0.1,1-0.2,1.3-0.6c0.3-0.5,0.5-1.2,0.5-1.8V40.4z"/>
<path d="M309,44.2c0-0.2-0.1-0.4-0.1-0.6c-0.1-0.2-0.1-0.3-0.1-0.5c-0.3,0.3-0.6,0.7-1,0.9c-0.4,0.3-0.8,0.4-1.3,0.4
	c-0.7,0.1-1.4-0.2-1.9-0.7c-0.4-0.5-0.7-1.1-0.7-1.7c0-0.7,0.3-1.4,0.9-1.8c0.8-0.4,1.7-0.6,2.6-0.6h1.4v-0.7c0.1-0.4-0.1-0.8-0.4-1
	c-0.3-0.3-0.6-0.4-1-0.4c-0.4,0-0.7,0.1-1,0.3c-0.2,0.2-0.4,0.5-0.4,0.8h-1.7c0-0.6,0.4-1.2,0.9-1.6c0.7-0.5,1.5-0.8,2.3-0.7
	c0.8-0.1,1.6,0.2,2.2,0.7c0.6,0.5,1,1.2,0.9,2v4.4c0.1,0.3,0.2,0.6,0.2,0.9L309,44.2z M306.9,42.9c0.4,0,0.8-0.1,1.2-0.3
	c0.3-0.2,0.6-0.5,0.7-0.8v-1.1h-1.4c-0.4,0-0.9,0.1-1.2,0.4c-0.3,0.2-0.5,0.5-0.5,0.9c0,0.3,0.1,0.5,0.3,0.7
	C306.2,42.9,306.5,42.9,306.9,42.9z"/>
<path d="M315.7,43c0.4,0,0.7-0.2,1-0.4c0.3-0.3,0.4-0.6,0.4-1h1.6c0.1,0.7-0.2,1.4-0.8,1.9c-0.6,0.5-1.4,0.8-2.2,0.8
	c-1,0.1-2-0.4-2.7-1.2c-0.6-0.8-0.9-1.8-0.9-2.8V40c0-1,0.3-2,0.9-2.8c0.7-0.8,1.7-1.2,2.7-1.1c0.8-0.1,1.6,0.2,2.2,0.8
	c0.6,0.5,0.9,1.3,0.8,2.1h-1.6c0-0.4-0.1-0.8-0.4-1.1c-0.3-0.3-0.6-0.4-1-0.4c-0.6-0.1-1.1,0.2-1.4,0.7c-0.3,0.6-0.4,1.2-0.4,1.8
	v0.3c0,0.6,0.1,1.2,0.4,1.8C314.5,42.7,315.1,43,315.7,43z"/>
<path d="M322.7,40.8H322v3.4h-1.8V32.8h1.8v6.5h0.6l2.2-3h2.1l-2.8,3.6l3.1,4.3h-2.1L322.7,40.8z"/>
<path d="M327.7,40.4c-0.1-1.1,0.2-2.2,0.8-3.1c0.5-0.8,1.4-1.2,2.3-1.1c0.4,0,0.8,0.1,1.2,0.3c0.4,0.2,0.7,0.5,0.9,0.8l0.2-1h1.5
	v7.9c0,0.9-0.3,1.8-1,2.4c-0.8,0.6-1.7,0.9-2.7,0.8h-1.2l-1.2-0.5l0.3-1.4l1,0.4h1.1c0.5,0.1,1-0.1,1.4-0.4c0.3-0.3,0.5-0.8,0.5-1.3
	v-0.8c-0.2,0.3-0.6,0.5-0.9,0.7c-0.4,0.2-0.8,0.3-1.2,0.3c-0.9,0-1.7-0.4-2.2-1.1c-0.6-0.8-0.9-1.8-0.8-2.8L327.7,40.4z M329.4,40.5
	c0,0.6,0.2,1.3,0.5,1.8c0.3,0.4,0.8,0.7,1.3,0.6l1-0.2l0.6-0.7v-3.5c-0.3-0.6-0.9-0.9-1.6-0.9c-0.6,0-1.1,0.3-1.3,0.8
	c-0.3,0.6-0.5,1.3-0.5,2V40.5z"/>
<path d="M340.4,37.9h-0.8c-0.3,0-0.6,0-0.8,0.2c-0.3,0.1-0.5,0.3-0.6,0.6v5.5h-1.8v-7.9h1.7v1.1c0.2-0.4,0.4-0.7,0.7-0.9
	c0.3-0.2,0.7-0.3,1.1-0.3h0.6L340.4,37.9z"/>
<path d="M341.2,40.2c-0.1-1.1,0.3-2.1,1-2.9c0.6-0.8,1.6-1.2,2.6-1.1c1-0.1,2,0.3,2.7,1.1c0.7,0.8,1.1,1.8,1,2.9l0,0
	c0,1.1-0.3,2.2-1,3c-0.7,0.7-1.6,1.1-2.6,1.1c-1,0.1-2-0.4-2.7-1.2C341.5,42.3,341.1,41.3,341.2,40.2z M343,40.3
	c0,0.7,0.2,1.3,0.5,1.9c0.3,0.5,0.8,0.8,1.4,0.8c0.6,0,1.1-0.3,1.4-0.8c0.3-0.6,0.4-1.2,0.4-1.9l0,0c0-0.7-0.1-1.3-0.4-1.9
	c-0.3-0.5-0.9-0.7-1.5-0.7c-0.5,0-1,0.2-1.3,0.7C343.2,39,343,39.6,343,40.3z"/>
<path d="M355,43.1c-0.3,0.4-0.6,0.7-1,0.9c-0.4,0.3-0.8,0.4-1.3,0.4c-0.8,0-1.5-0.3-2-0.9c-0.6-0.7-0.8-1.7-0.7-2.6v-4.6h1.8v4.6
	c0,0.6,0.1,1.1,0.3,1.6c0.3,0.3,0.6,0.4,1,0.4c0.4,0.1,0.8,0,1.1-0.2c0.3-0.2,0.5-0.4,0.7-0.7v-5.7h1.8v7.9h-1.5L355,43.1z"/>
<path d="M360.2,36.3v1.1c0.2-0.4,0.5-0.7,0.9-0.9c0.4-0.2,0.9-0.3,1.4-0.3c0.7,0,1.4,0.2,1.9,0.7c0.5,0.7,0.8,1.5,0.7,2.4v4.9h-1.8
	v-4.9c0.1-0.5,0-0.9-0.3-1.3c-0.3-0.3-0.6-0.4-1-0.4l-1,0.2l-0.7,0.6v5.8h-1.8v-7.9H360.2z"/>
<path d="M366.7,40.4c0-1.1,0.2-2.2,0.8-3.1c0.5-0.7,1.4-1.2,2.3-1.1c0.4,0,0.8,0,1.2,0.2c0.3,0.2,0.6,0.5,0.8,0.8v-4.4h1.8v11.4
	h-1.4l-0.2-1c-0.3,0.4-0.6,0.7-1,0.9c-0.4,0.2-0.8,0.3-1.2,0.3c-0.9,0-1.8-0.4-2.3-1.1c-0.6-0.8-0.8-1.8-0.8-2.8L366.7,40.4z
	 M368.5,40.5c0,0.6,0.1,1.3,0.4,1.8c0.3,0.4,0.8,0.6,1.3,0.6l1-0.2c0.3-0.2,0.5-0.4,0.6-0.7v-3.5c-0.1-0.3-0.3-0.5-0.6-0.6
	c-0.3-0.2-0.6-0.3-0.9-0.3c-0.6,0-1.1,0.3-1.4,0.8C368.6,39,368.5,39.7,368.5,40.5L368.5,40.5z"/>
<path d="M379.3,39.9c0-1.7,0.3-3.4,1.1-4.9c0.5-1.1,1.4-2.1,2.5-2.7l0,0l0.4,1c-0.8,0.6-1.4,1.5-1.7,2.4c-0.5,1.3-0.8,2.8-0.7,4.2
	l0,0c-0.1,1.4,0.2,2.9,0.7,4.2c0.3,1,0.9,1.8,1.7,2.4l-0.4,1l0,0c-1.1-0.6-1.9-1.6-2.5-2.7C379.6,43.3,379.3,41.6,379.3,39.9z"/>
<path d="M387.6,43c0.4,0,0.7-0.2,1-0.4c0.3-0.3,0.4-0.6,0.4-1h1.7c0,0.7-0.3,1.4-0.9,1.9c-0.6,0.5-1.4,0.8-2.2,0.8
	c-1,0-2-0.4-2.7-1.2c-0.6-0.8-0.9-1.8-0.9-2.8V40c0-1,0.3-2,0.9-2.8c0.7-0.8,1.7-1.2,2.7-1.1c0.8-0.1,1.6,0.2,2.2,0.8
	c0.6,0.5,0.9,1.3,0.9,2.1H389c0-0.4-0.1-0.8-0.4-1.1c-0.3-0.3-0.6-0.4-1-0.4c-0.6-0.1-1.1,0.2-1.4,0.7c-0.3,0.6-0.4,1.2-0.4,1.8v0.3
	c0,0.6,0.1,1.2,0.4,1.8C386.4,42.7,387,43,387.6,43z"/>
<path d="M396.1,37.9h-0.8c-0.3,0-0.6,0-0.8,0.2c-0.3,0.1-0.4,0.3-0.6,0.6v5.5h-1.7v-7.9h1.6v1.1c0.2-0.4,0.5-0.7,0.8-0.9
	c0.3-0.2,0.7-0.3,1.1-0.3h0.5L396.1,37.9z"/>
<path d="M397,40.2c-0.1-1,0.3-2.1,0.9-2.9c1.5-1.4,3.9-1.4,5.4,0c0.6,0.8,1,1.9,0.9,2.9l0,0c0,1.1-0.3,2.1-0.9,3
	c-0.7,0.7-1.7,1.1-2.7,1.1c-1,0-2-0.4-2.7-1.2C397.3,42.3,396.9,41.2,397,40.2L397,40.2z M398.7,40.3c0,0.7,0.2,1.3,0.5,1.9
	c0.4,0.8,1.4,1.1,2.2,0.6c0.3-0.1,0.5-0.4,0.6-0.6c0.3-0.6,0.5-1.2,0.5-1.9l0,0c0-0.7-0.2-1.3-0.5-1.9c-0.6-0.8-1.8-0.9-2.5-0.3
	c-0.1,0.1-0.2,0.2-0.3,0.3C398.9,39,398.7,39.6,398.7,40.3z"/>
<path d="M412.7,40.5c0,1-0.2,2-0.8,2.8c-0.5,0.7-1.4,1.1-2.3,1.1c-0.4,0-0.8-0.1-1.1-0.3c-0.4-0.1-0.7-0.4-0.9-0.7v3.9h-1.8v-11h1.5
	l0.2,1c0.2-0.4,0.5-0.7,0.9-0.9c0.4-0.2,0.8-0.2,1.2-0.2c0.9-0.1,1.8,0.3,2.3,1.1c0.6,0.9,0.8,2,0.8,3.1L412.7,40.5z M410.9,40.4
	c0-0.7-0.1-1.4-0.4-2c-0.3-0.5-0.8-0.8-1.4-0.8l-0.9,0.2c-0.3,0.2-0.5,0.4-0.6,0.7v3.6c0.1,0.3,0.3,0.5,0.6,0.6
	c0.3,0.2,0.6,0.3,0.9,0.3c0.6,0,1.1-0.3,1.4-0.7C410.8,41.8,410.9,41.1,410.9,40.4L410.9,40.4z"/>
<path d="M421.2,40.5c0,1-0.2,2-0.8,2.8c-0.5,0.7-1.4,1.1-2.3,1.1c-0.4,0-0.8-0.1-1.2-0.3c-0.3-0.1-0.6-0.4-0.8-0.7v3.9h-1.8v-11h1.5
	l0.2,1c0.2-0.4,0.5-0.7,0.9-0.9c0.4-0.2,0.8-0.2,1.2-0.2c0.9-0.1,1.8,0.3,2.3,1.1c0.6,0.9,0.8,2,0.8,3.1L421.2,40.5z M419.4,40.4
	c0-0.7-0.1-1.4-0.4-2c-0.3-0.5-0.8-0.8-1.4-0.8l-0.9,0.2c-0.3,0.2-0.5,0.4-0.6,0.7v3.6c0.1,0.3,0.3,0.5,0.6,0.6
	c0.3,0.2,0.6,0.3,0.9,0.3c0.6,0,1.1-0.3,1.4-0.7C419.3,41.8,419.4,41.1,419.4,40.4L419.4,40.4z"/>
<path d="M426.1,44.4c-1,0-2-0.4-2.7-1.1c-0.7-0.8-1-1.8-1-2.9v-0.2c0-1.1,0.3-2.1,1-2.9c0.6-0.8,1.5-1.2,2.5-1.1
	c0.9-0.1,1.8,0.3,2.5,0.9c0.5,0.8,0.8,1.7,0.8,2.7v0.9h-4.9c0,0.5,0.2,1.1,0.5,1.5c0.3,0.5,0.8,0.7,1.4,0.7l1.3-0.2l1-0.5l0.6,1.1
	c-0.3,0.3-0.8,0.5-1.2,0.7C427.3,44.2,426.7,44.4,426.1,44.4z M425.9,37.6c-0.4,0-0.8,0.2-1.1,0.5c-0.3,0.4-0.5,0.8-0.5,1.3h3.1
	c0-0.4-0.1-0.8-0.3-1.2C426.9,37.8,426.4,37.5,425.9,37.6z"/>
<path d="M430.3,40.4c0-1.1,0.2-2.2,0.8-3.1c0.5-0.8,1.4-1.2,2.3-1.1c0.4,0,0.8,0,1.1,0.2c0.4,0.2,0.7,0.4,0.9,0.8v-4.4h1.8v11.4
	h-1.4l-0.2-1c-0.3,0.4-0.6,0.7-1,0.9c-0.4,0.2-0.8,0.3-1.2,0.3c-0.9,0-1.8-0.4-2.3-1.1c-0.6-0.8-0.8-1.8-0.8-2.8L430.3,40.4z
	 M432.1,40.5c0,0.6,0.1,1.3,0.4,1.8c0.3,0.4,0.8,0.6,1.3,0.6l1-0.2c0.2-0.2,0.5-0.4,0.6-0.7v-3.5c-0.1-0.3-0.3-0.5-0.6-0.6
	c-0.3-0.2-0.6-0.3-1-0.3c-0.6,0-1.1,0.3-1.3,0.8C432.2,39,432.1,39.7,432.1,40.5L432.1,40.5z"/>
<path d="M442.4,40c0,1.7-0.4,3.4-1.2,4.9c-0.6,1.1-1.4,2.1-2.5,2.7h-0.1l-0.3-1c0.8-0.6,1.4-1.5,1.7-2.4c0.5-1.3,0.8-2.8,0.7-4.2
	l0,0c0-1.4-0.2-2.9-0.7-4.2c-0.4-0.9-1-1.7-1.7-2.4l0.3-1h0.1c1.1,0.6,2,1.6,2.5,2.7C442,36.6,442.4,38.3,442.4,40z"/>
<path d="M15.7,76.6v3.6h-2.5V69.6h4c1.1-0.1,2.2,0.3,3.1,0.9c0.7,0.7,1.1,1.6,1.1,2.6c0,1-0.4,1.9-1.1,2.5c-0.9,0.7-2,1-3.1,1H15.7z
	 M15.7,74.7h1.5c0.5,0,1-0.2,1.3-0.5c0.3-0.3,0.4-0.7,0.4-1.1c0-0.4-0.1-0.9-0.4-1.2c-0.4-0.3-0.8-0.5-1.3-0.4h-1.5V74.7z"/>
<path d="M27,74.4h-0.8l-0.7,0.2c-0.2,0.1-0.3,0.2-0.4,0.4v5.2h-2.5v-7.9h2.3v1.2c0.1-0.4,0.4-0.7,0.7-1c0.3-0.2,0.6-0.3,0.9-0.3h0.6
	L27,74.4z"/>
<path d="M31.3,80.4c-1.1,0-2.1-0.4-2.9-1.1c-0.7-0.8-1-1.8-1-2.8v-0.3c-0.1-1.1,0.3-2.1,1-2.9c0.7-0.9,1.7-1.3,2.8-1.1
	c0.9,0,1.8,0.3,2.5,0.9c0.5,0.8,0.8,1.7,0.8,2.6V77H30c0,0.4,0.2,0.7,0.4,1c0.3,0.3,0.8,0.4,1.2,0.4h1.2l1.1-0.4l0.6,1.5l-1.4,0.6
	C32.5,80.3,31.9,80.4,31.3,80.4z M31.2,74.1c-0.3,0-0.7,0.1-0.9,0.3c-0.2,0.3-0.3,0.7-0.3,1.1h2.1v-0.2c0-0.3-0.1-0.6-0.2-0.9
	C31.7,74.2,31.5,74.1,31.2,74.1z"/>
<path d="M35.3,76.3c-0.1-1.1,0.2-2.1,0.8-3c0.5-0.7,1.3-1.2,2.2-1.1c0.3,0,0.7,0,1,0.2c0.3,0.2,0.6,0.4,0.8,0.7v-4.3h2.5v11.4h-2.2
	v-0.9c-0.3,0.3-0.6,0.6-0.9,0.8c-0.3,0.2-0.7,0.3-1.1,0.3c-0.9,0-1.7-0.4-2.2-1.1c-0.6-0.8-0.9-1.9-0.8-2.9L35.3,76.3z M37.7,76.4
	c0,0.5,0.1,1,0.3,1.5c0.2,0.4,0.6,0.6,1,0.6l0.6-0.2c0.2-0.1,0.4-0.2,0.5-0.4v-3.2c-0.1-0.2-0.3-0.4-0.5-0.5H39
	c-0.4,0-0.8,0.2-1,0.6C37.8,75.3,37.7,75.9,37.7,76.4z"/>
<path d="M46.6,70.5h-2.5v-1.7h2.5V70.5z M46.6,80.2h-2.5v-7.9h2.5V80.2z"/>
<path d="M51.5,78.5c0.3,0,0.6-0.1,0.8-0.3c0.1-0.2,0.2-0.5,0.2-0.8h2.3c0,0.8-0.3,1.6-0.9,2.2c-0.7,0.5-1.5,0.8-2.4,0.8
	c-1,0-2.1-0.4-2.8-1.1c-0.7-0.9-1-1.9-1-3l0,0c0-1.1,0.3-2.1,1-2.9c0.7-0.8,1.7-1.2,2.8-1.1c0.9-0.1,1.7,0.2,2.4,0.8
	c0.6,0.6,1,1.4,0.9,2.3h-2.3c0-0.3-0.1-0.6-0.2-0.9c-0.2-0.2-0.5-0.3-0.8-0.3c-0.5,0-0.8,0.1-1,0.5c-0.2,0.5-0.3,1.1-0.3,1.6l0,0
	c0,0.5,0.1,1.1,0.3,1.6C50.7,78.3,51.1,78.5,51.5,78.5z"/>
<path d="M58.6,70.3v2h1.3V74h-1.3v3.6c0,0.2,0.1,0.5,0.2,0.7h1.1v1.8h-1.2c-0.7,0.1-1.4-0.2-1.9-0.7c-0.5-0.6-0.7-1.3-0.6-2V74h-1.1
	v-1.7h1.1v-2H58.6z"/>
<path d="M64.6,80.4c-1,0-2.1-0.4-2.8-1.1c-0.7-0.8-1-1.8-1-2.8v-0.3c-0.1-1,0.3-2.1,0.9-2.9c0.7-0.8,1.7-1.2,2.8-1.1
	c0.9-0.1,1.8,0.3,2.5,0.9c0.6,0.7,0.9,1.6,0.9,2.6V77h-4.6c0.1,0.4,0.2,0.7,0.5,1c0.3,0.3,0.7,0.4,1.1,0.4h1.2l1.1-0.4l0.6,1.5
	l-1.4,0.6C65.8,80.3,65.2,80.4,64.6,80.4z M64.5,74.1c-0.3,0-0.7,0.1-0.9,0.3c-0.2,0.3-0.3,0.7-0.3,1.1h2.2v-0.2
	c0-0.3-0.1-0.7-0.3-0.9C65.1,74.2,64.9,74.1,64.5,74.1z"/>
<path d="M68.6,76.3c-0.1-1.1,0.2-2.1,0.8-3c0.5-0.8,1.4-1.2,2.3-1.1c0.3,0,0.7,0,1,0.2l0.8,0.7v-4.3H76v11.4h-2.2l-0.2-0.9
	c-0.2,0.3-0.5,0.6-0.8,0.8c-0.3,0.2-0.7,0.3-1.1,0.3c-0.9,0-1.8-0.4-2.3-1.1C68.8,78.4,68.6,77.4,68.6,76.3L68.6,76.3z M71.1,76.4
	c0,0.5,0.1,1,0.3,1.5c0.1,0.4,0.5,0.6,0.9,0.6l0.7-0.2l0.5-0.4v-3.2c-0.2-0.2-0.3-0.4-0.5-0.5h-0.7c-0.4,0-0.7,0.2-0.9,0.6
	C71.2,75.3,71.1,75.9,71.1,76.4z"/>
<path d="M89.4,76.6L89.4,76.6c0.1,1-0.2,2-1,2.7c-0.8,0.7-1.9,1.1-3,1c-2.3,0.2-4.2-1.5-4.4-3.8c0-0.2,0-0.3,0-0.5v-2.2
	c0-1.2,0.4-2.3,1.2-3.2c0.8-0.8,1.9-1.2,3-1.2c1.2-0.1,2.3,0.3,3.2,1c0.8,0.7,1.2,1.7,1.1,2.7H87c0-0.5-0.1-1-0.4-1.4
	c-0.4-0.3-0.9-0.4-1.4-0.4c-0.5,0-1,0.3-1.2,0.7c-0.4,0.5-0.5,1.2-0.5,1.8V76c0,0.6,0.2,1.3,0.5,1.8c0.3,0.4,0.8,0.7,1.4,0.7
	c0.5,0,0.9-0.1,1.2-0.5c0.3-0.2,0.4-0.7,0.4-1.4H89.4z"/>
<path d="M93.3,80.2h-2.5V68.8h2.5V80.2z"/>
<path d="M99.4,80.2l-0.3-0.5c0-0.3-0.1-0.5-0.1-0.7c-0.2,0.4-0.5,0.7-0.8,1c-0.4,0.3-0.8,0.4-1.3,0.4c-0.7,0-1.4-0.2-1.9-0.7
	c-0.5-0.4-0.7-1.1-0.7-1.7c0-0.7,0.3-1.4,0.9-1.8c0.8-0.5,1.7-0.8,2.7-0.7h1V75c0-0.3-0.1-0.6-0.2-0.8c-0.2-0.2-0.5-0.3-0.8-0.3
	l-0.6,0.2c-0.2,0.2-0.2,0.4-0.2,0.6h-2.4c-0.1-0.7,0.3-1.4,0.9-1.8c0.7-0.5,1.6-0.8,2.5-0.7c0.9-0.1,1.7,0.2,2.4,0.7
	c0.6,0.5,0.9,1.3,0.9,2.1v3c0,0.4,0,0.7,0.1,1.1l0.3,1.1L99.4,80.2z M97.6,78.6l0.8-0.2l0.5-0.5v-1.1h-1c-0.3,0-0.7,0.1-0.9,0.3
	c-0.1,0.2-0.2,0.5-0.2,0.8c0,0.2,0.1,0.4,0.2,0.5L97.6,78.6z"/>
<path d="M106.9,78c0-0.2-0.2-0.5-0.4-0.5c-0.4-0.2-0.8-0.4-1.2-0.4c-0.8-0.1-1.5-0.4-2.1-0.9c-0.4-0.4-0.7-0.9-0.7-1.5
	c0-0.7,0.3-1.4,0.9-1.8c0.7-0.5,1.5-0.8,2.4-0.7c0.9-0.1,1.8,0.2,2.5,0.7c0.6,0.4,0.9,1.1,0.9,1.8h-2.4c0-0.3-0.1-0.5-0.3-0.7
	l-0.7-0.2c-0.3,0-0.5,0-0.7,0.2c-0.2,0.1-0.2,0.3-0.2,0.5c0,0.2,0.1,0.4,0.3,0.6l1.2,0.4c0.8,0.1,1.5,0.3,2.1,0.8
	c0.5,0.4,0.7,1,0.7,1.6c0,0.7-0.3,1.4-0.9,1.8c-0.7,0.5-1.6,0.7-2.5,0.7c-0.9,0-1.8-0.3-2.6-0.8c-0.6-0.5-0.9-1.2-0.9-1.9h2.3
	c0,0.3,0.1,0.6,0.3,0.8c0.3,0.2,0.7,0.3,1,0.2c0.3,0,0.5,0,0.7-0.2C106.8,78.4,106.9,78.2,106.9,78z"/>
<path d="M114.5,78c0-0.2-0.1-0.4-0.3-0.5c-0.4-0.2-0.8-0.4-1.2-0.4c-0.8-0.1-1.5-0.4-2.1-0.9c-0.5-0.4-0.7-0.9-0.7-1.5
	c0-0.7,0.3-1.4,0.9-1.8c0.7-0.5,1.5-0.8,2.4-0.7c0.9-0.1,1.8,0.2,2.5,0.7c0.6,0.4,0.9,1.1,0.9,1.8h-2.4c0-0.3-0.1-0.5-0.3-0.7
	l-0.7-0.2c-0.3,0-0.5,0-0.7,0.2c-0.2,0.1-0.3,0.3-0.3,0.5c0,0.2,0.1,0.4,0.3,0.6l1.3,0.4c0.8,0.1,1.5,0.4,2.1,0.8
	c0.5,0.4,0.7,1,0.7,1.6c0,0.7-0.3,1.4-0.9,1.8c-0.8,0.5-1.6,0.7-2.5,0.7c-0.9,0-1.9-0.2-2.6-0.8c-0.6-0.5-0.9-1.2-0.9-1.9h2.3
	c0,0.3,0.1,0.6,0.3,0.8c0.2,0.2,0.5,0.2,0.9,0.2s0.6,0,0.8-0.2S114.5,78.2,114.5,78z"/>
<path d="M123.4,81.1h-2.5l3.6-11.5h2.5L123.4,81.1z"/>
<path d="M134.1,76.6v3.6h-2.5V69.6h4.1c1.1-0.1,2.1,0.3,3,0.9c0.8,0.6,1.2,1.6,1.1,2.6c0.1,1-0.4,1.9-1.1,2.5c-0.8,0.7-1.9,1-3,1
	H134.1z M134.1,74.7h1.6c0.5,0,0.9-0.2,1.2-0.5c0.3-0.3,0.5-0.7,0.5-1.1c0-0.5-0.2-0.9-0.5-1.2c-0.2-0.3-0.6-0.4-1.2-0.4h-1.6V74.7z
	"/>
<path d="M145.4,74.4h-0.8l-0.7,0.2c-0.1,0.1-0.3,0.2-0.4,0.4v5.2h-2.4v-7.9h2.3v1.2c0.1-0.4,0.3-0.7,0.6-1c0.3-0.2,0.6-0.3,1-0.3
	h0.6L145.4,74.4z"/>
<path d="M145.9,76.2c-0.1-1.1,0.3-2.1,1-2.9c0.7-0.8,1.7-1.2,2.8-1.1c1.1-0.1,2.1,0.3,2.8,1.1c0.7,0.8,1.1,1.8,1,2.9l0,0
	c0,1.1-0.3,2.2-1,3c-0.7,0.8-1.8,1.2-2.8,1.1c-1,0-2.1-0.4-2.8-1.1C146.2,78.4,145.9,77.3,145.9,76.2z M148.3,76.3
	c-0.1,0.6,0.1,1.1,0.4,1.6c0.2,0.4,0.6,0.6,1,0.6c0.4,0,0.9-0.2,1.1-0.6c0.2-0.5,0.3-1.1,0.3-1.6l0,0c0-0.5-0.1-1.1-0.3-1.6
	c-0.3-0.3-0.7-0.5-1.1-0.5c-0.4,0-0.8,0.2-1,0.5C148.4,75.2,148.2,75.7,148.3,76.3z"/>
<path d="M162,76.4c0,1-0.2,2-0.8,2.9c-0.5,0.7-1.4,1.1-2.3,1.1c-0.4,0-0.8-0.1-1.1-0.3c-0.3-0.2-0.6-0.5-0.9-0.8v0.9h-2.2V68.8h2.5
	v4.3c0.2-0.3,0.5-0.6,0.8-0.7c0.3-0.2,0.7-0.2,1-0.2c0.9-0.1,1.8,0.3,2.3,1.1c0.6,0.9,0.9,1.9,0.8,3L162,76.4z M159.5,76.3
	c0-0.6-0.1-1.2-0.3-1.7c-0.2-0.3-0.5-0.5-0.9-0.5h-0.7l-0.5,0.4V78c0.1,0.2,0.3,0.3,0.5,0.3l0.7,0.2c0.4,0,0.8-0.2,1-0.5
	C159.4,77.5,159.5,76.9,159.5,76.3L159.5,76.3z"/>
<path d="M167.6,80.2l-0.2-0.5c-0.1-0.2-0.1-0.5-0.1-0.7l-0.8,1c-0.4,0.3-0.8,0.4-1.3,0.4c-0.7,0.1-1.4-0.2-1.9-0.7
	c-0.5-0.4-0.7-1.1-0.7-1.7c0-0.7,0.3-1.4,0.9-1.8c0.8-0.5,1.7-0.8,2.7-0.7h1V75c0-0.3-0.1-0.6-0.3-0.8c-0.2-0.2-0.4-0.3-0.7-0.3
	l-0.6,0.2c-0.2,0.2-0.2,0.4-0.2,0.6h-2.5c0-0.7,0.3-1.4,0.9-1.8c0.8-0.5,1.7-0.8,2.6-0.7c0.8,0,1.6,0.2,2.3,0.7
	c0.7,0.5,1.1,1.3,1,2.1v3c0,0.4,0,0.7,0.1,1.1c0,0.4,0.1,0.8,0.3,1.1L167.6,80.2z M165.9,78.6l0.8-0.2c0.2-0.1,0.4-0.3,0.5-0.5v-1.1
	h-1c-0.3,0-0.7,0.1-0.9,0.3c-0.1,0.2-0.2,0.5-0.2,0.8c0,0.2,0,0.4,0.2,0.5L165.9,78.6z"/>
<path d="M178.4,76.4c0,1-0.2,2-0.8,2.9c-0.5,0.7-1.4,1.1-2.3,1.1c-0.4,0-0.8-0.1-1.2-0.3c-0.3-0.2-0.6-0.5-0.8-0.8v0.9H171V68.8h2.5
	v4.3c0.2-0.3,0.5-0.6,0.8-0.7c0.3-0.2,0.7-0.3,1-0.2c0.9-0.1,1.8,0.3,2.3,1.1C178.2,74.2,178.5,75.2,178.4,76.4L178.4,76.4z
	 M175.9,76.3c0-0.6-0.1-1.2-0.3-1.7c-0.2-0.3-0.6-0.5-1-0.5h-0.7l-0.4,0.4V78c0.1,0.2,0.3,0.3,0.5,0.3l0.7,0.2
	c0.4,0,0.7-0.2,0.9-0.5C175.8,77.5,175.9,76.9,175.9,76.3L175.9,76.3z"/>
<path d="M182,70.5h-2.4v-1.7h2.4V70.5z M182,80.2h-2.4v-7.9h2.4V80.2z"/>
<path d="M186.1,80.2h-2.4V68.8h2.4V80.2z"/>
<path d="M190.3,70.5h-2.5v-1.7h2.5V70.5z M190.3,80.2h-2.5v-7.9h2.5V80.2z"/>
<path d="M194.6,70.3v2h1.3V74h-1.3v3.6c0,0.2,0.1,0.5,0.2,0.7h1l0.2,1.8h-1.4c-0.7,0.1-1.3-0.2-1.8-0.7c-0.5-0.5-0.7-1.3-0.7-2V74
	H191v-1.7h1.1v-2H194.6z"/>
<path d="M200.1,76.7h0.1l1.3-4.5h2.6l-3.1,9.2c-0.3,0.6-0.6,1.1-1,1.5c-0.5,0.4-1.2,0.5-1.8,0.5h-0.5l-0.7-0.2l0.3-1.7h0.3
	c0.4,0,0.7,0,0.9-0.2c0.2-0.1,0.3-0.3,0.4-0.5l0.2-0.5l-2.8-8h2.7L200.1,76.7z"/>
<path d="M206.3,73.8h-2.4v-2.1h2.4V73.8z M206.3,80.2h-2.4v-2.1h2.4V80.2z"/>
<path d="M17.5,98.2h-1.4v-9.3h-2.3v-1.1l3.7-0.4V98.2z"/>
<path d="M23.4,98.2H22v-1.5h1.4V98.2z"/>
<path d="M37.8,98.2h-1.4v-4.7h-5.2v4.7h-1.4V87.6h1.4v4.8h5.2v-4.8h1.4V98.2z"/>
<path d="M41.7,88.3h-1.5v-1.5h1.5V88.3z M41.7,98.2h-1.5v-7.9h1.5V98.2z"/>
<path d="M48.5,96.1c0-0.3-0.1-0.6-0.4-0.8c-0.4-0.3-0.8-0.4-1.3-0.5c-0.8-0.1-1.5-0.4-2.2-0.9c-0.5-0.3-0.7-0.8-0.7-1.4
	c0-0.7,0.3-1.3,0.8-1.7c0.6-0.4,1.4-0.6,2.1-0.6c0.8-0.1,1.6,0.2,2.2,0.7c0.5,0.4,0.8,1,0.8,1.7h-1.4c0-0.3-0.1-0.7-0.4-0.9
	c-0.7-0.5-1.6-0.5-2.3-0.1c-0.3,0.2-0.4,0.6-0.4,0.9c0,0.3,0.1,0.5,0.3,0.7c0.4,0.2,0.9,0.3,1.4,0.4c0.8,0.2,1.5,0.5,2.2,0.9
	c0.5,0.4,0.7,0.9,0.7,1.5c0.1,0.7-0.3,1.3-0.8,1.7c-0.6,0.5-1.4,0.7-2.2,0.7c-0.9,0-1.7-0.3-2.4-0.8c-0.6-0.4-0.9-1.1-0.9-1.8H45
	c0.1,0.4,0.3,0.8,0.6,1.1c0.4,0.2,0.8,0.3,1.3,0.3c0.4,0,0.8-0.1,1.2-0.3C48.4,96.7,48.5,96.4,48.5,96.1z"/>
<path d="M58.5,94.6c0,1-0.3,1.9-0.8,2.7c-0.5,0.7-1.4,1.1-2.3,1.1c-0.5,0-0.9-0.1-1.3-0.3c-0.4-0.1-0.7-0.4-0.9-0.7v3.9h-1.5v-11
	h1.1l0.3,1c0.2-0.3,0.5-0.6,0.9-0.8c0.4-0.2,0.9-0.3,1.4-0.3c0.9-0.1,1.8,0.4,2.3,1.1c0.6,0.9,0.8,2,0.8,3.1V94.6z M57,94.4
	c0.1-0.8-0.1-1.5-0.5-2.2c-0.3-0.6-0.9-0.9-1.5-0.9c-0.4,0-0.8,0.1-1.1,0.3c-0.3,0.2-0.5,0.5-0.7,0.8v3.8c0.2,0.3,0.4,0.6,0.7,0.8
	c0.3,0.2,0.7,0.3,1.1,0.2c0.6,0.1,1.2-0.2,1.5-0.7c0.4-0.6,0.6-1.2,0.5-1.9V94.4z"/>
<path d="M66.6,98.2l-1.5,0c0-0.2-0.1-0.4-0.1-0.6V97c-0.3,0.4-0.7,0.7-1.1,1c-0.4,0.2-0.9,0.4-1.4,0.4c-0.7,0-1.4-0.2-1.9-0.7
	C60.2,97.2,60,96.6,60,96c0-0.7,0.3-1.4,0.9-1.8c0.8-0.4,1.6-0.6,2.5-0.6H65v-0.8c0-0.4-0.2-0.8-0.5-1.1c-0.2-0.3-0.6-0.4-1.2-0.4
	c-0.4,0-0.8,0.1-1.1,0.3c-0.3,0.2-0.4,0.6-0.4,0.9h-1.4c0-0.6,0.3-1.2,0.8-1.6c0.6-0.5,1.4-0.7,2.2-0.7c0.8,0,1.5,0.2,2.2,0.6
	c0.5,0.5,0.8,1.3,0.8,2v3.8 M62.7,97.2c0.5,0,1-0.2,1.5-0.4c0.3-0.3,0.6-0.6,0.8-1v-1.2h-1.6c-0.5,0-1,0.1-1.4,0.4
	c-0.4,0.2-0.6,0.6-0.6,1c0,0.3,0.1,0.7,0.4,0.9C62,97.1,62.4,97.2,62.7,97.2z"/>
<path d="M72.5,99.1h-1.2l4.5-11.5H77L72.5,99.1z"/>
<path d="M84.8,97.2c0.6,0,1.3-0.2,1.7-0.7c0.5-0.6,0.7-1.3,0.6-2v-0.9c-0.2,0.3-0.5,0.6-0.8,0.8c-0.4,0.2-0.8,0.2-1.2,0.2
	c-0.9,0-1.8-0.3-2.4-0.9c-0.6-0.7-1-1.6-0.9-2.6c-0.1-1,0.3-2,1-2.7c0.6-0.7,1.4-1,2.3-1c0.9-0.1,1.9,0.3,2.5,1
	c0.7,0.8,1.1,1.8,1,2.8v3.3c0.1,1-0.3,2.1-1.1,2.8c-0.7,0.7-1.7,1.1-2.7,1.1h-1.1L82.6,98l0.2-1.1c0.3,0.2,0.6,0.3,0.9,0.3
	L84.8,97.2z M85.1,93.5c0.9,0.1,1.7-0.4,2-1.2V91c0.1-0.6-0.1-1.3-0.5-1.8c-0.4-0.4-0.9-0.7-1.5-0.7c-0.5,0-1,0.3-1.3,0.7
	c-0.4,0.6-0.6,1.2-0.5,1.9c-0.1,0.6,0.1,1.2,0.5,1.7C84.1,93.3,84.6,93.5,85.1,93.5z"/>
<path d="M93.8,92.2c0.5,0,1-0.1,1.4-0.5c0.3-0.4,0.4-0.9,0.4-1.4c0-0.5-0.1-0.9-0.4-1.3c-0.4-0.3-0.8-0.5-1.3-0.5
	c-0.5,0-1,0.2-1.4,0.6c-0.4,0.3-0.6,0.7-0.6,1.2h-1.4c0-0.8,0.3-1.6,1-2c0.6-0.6,1.5-0.9,2.4-0.9c0.8,0,1.7,0.3,2.3,0.8
	c0.6,0.6,0.9,1.4,0.8,2.2c0,0.5-0.1,0.9-0.4,1.3c-0.2,0.4-0.6,0.8-1,1c0.5,0.2,0.9,0.5,1.2,1c0.3,0.4,0.4,1,0.4,1.5
	c0.1,0.9-0.3,1.7-0.9,2.3c-0.6,0.6-1.5,0.9-2.4,0.9c-0.9,0-1.7-0.3-2.4-0.8c-0.7-0.5-1.1-1.3-1-2.1h1.4c-0.1,0.5,0.1,1,0.5,1.3
	c0.4,0.4,1,0.5,1.5,0.5c0.5,0.1,1-0.1,1.4-0.5c0.3-0.4,0.5-0.9,0.5-1.4c0-0.5-0.1-1.1-0.5-1.5c-0.4-0.4-0.9-0.6-1.5-0.5h-1.2v-1.2
	H93.8z"/>
<path d="M100.7,98.2h-1.5v-1.5h1.5V98.2z"/>
<path d="M109.4,90.3c0,0.5-0.1,1-0.4,1.5c-0.3,0.4-0.8,0.7-1.3,0.9c0.6,0.2,1.1,0.5,1.5,1c0.4,0.5,0.5,1,0.5,1.6
	c0,0.9-0.3,1.7-0.9,2.3c-1.5,1.1-3.5,1.1-5,0c-0.7-0.6-1-1.4-1-2.3c0-0.6,0.2-1.2,0.6-1.6c0.4-0.5,0.9-0.9,1.5-1
	c-0.5-0.2-1-0.5-1.3-0.9c-0.3-0.4-0.5-1-0.5-1.5c0-0.8,0.3-1.6,0.9-2.2c1.4-0.9,3.2-0.9,4.6,0C109.2,88.7,109.5,89.5,109.4,90.3z
	 M108.3,95.3c0-0.6-0.2-1.1-0.6-1.5c-0.4-0.3-0.9-0.5-1.4-0.5c-0.5,0-1.1,0.2-1.5,0.5c-0.4,0.4-0.6,0.9-0.6,1.5c0,0.5,0.2,1,0.6,1.4
	c0.4,0.4,1,0.5,1.5,0.5c0.5,0.1,1-0.1,1.4-0.5C108.1,96.3,108.3,95.8,108.3,95.3z M108,90.3c0-0.5-0.2-0.9-0.5-1.3
	c-0.3-0.3-0.7-0.5-1.2-0.5c-0.5,0-0.9,0.2-1.3,0.5c-0.3,0.4-0.5,0.8-0.5,1.3c0,0.5,0.2,1,0.6,1.3c0.7,0.7,1.7,0.7,2.4,0
	C107.8,91.2,108,90.8,108,90.3z"/>
<path d="M114.7,92.2c0.5,0,1-0.1,1.4-0.5c0.3-0.4,0.4-0.9,0.4-1.4c0-0.5-0.1-0.9-0.4-1.3c-0.4-0.3-0.8-0.5-1.3-0.5
	c-0.5,0-1,0.2-1.4,0.6c-0.4,0.3-0.6,0.7-0.6,1.2h-1.4c0-0.8,0.3-1.6,1-2c0.6-0.6,1.5-0.9,2.4-0.9c0.8,0,1.7,0.3,2.3,0.8
	c0.6,0.6,0.9,1.4,0.8,2.2c0,0.5-0.1,0.9-0.3,1.3c-0.3,0.4-0.7,0.7-1.1,1c0.5,0.2,0.9,0.5,1.2,1c0.3,0.4,0.4,1,0.4,1.5
	c0.1,0.9-0.3,1.7-0.9,2.3c-0.6,0.6-1.5,0.9-2.4,0.9c-0.9,0-1.7-0.3-2.4-0.8c-0.7-0.5-1.1-1.3-1-2.1h1.4c0,0.5,0.2,0.9,0.5,1.3
	c0.4,0.4,1,0.5,1.5,0.5c0.5,0.1,1-0.1,1.4-0.5c0.3-0.4,0.5-0.9,0.5-1.4c0-0.5-0.1-1.1-0.5-1.5c-0.4-0.4-0.9-0.6-1.5-0.5h-1.2v-1.2
	H114.7z"/>
<path d="M119.7,89.6c0-0.6,0.2-1.2,0.6-1.6c0.9-0.8,2.3-0.8,3.2,0c0.4,0.4,0.6,1,0.6,1.6v0.6c0,0.6-0.2,1.1-0.6,1.5
	c-0.8,0.9-2.2,0.9-3.1,0.1c0,0-0.1-0.1-0.1-0.1c-0.4-0.4-0.6-0.9-0.6-1.5V89.6z M120.8,90.2c0,0.3,0.1,0.6,0.3,0.9
	c0.2,0.3,0.5,0.4,0.8,0.4c0.3,0,0.6-0.1,0.8-0.4c0.2-0.3,0.3-0.6,0.3-0.9v-0.6c0-0.3-0.1-0.7-0.3-0.9c-0.3-0.4-1-0.5-1.4-0.2
	c-0.1,0.1-0.1,0.1-0.2,0.2c-0.2,0.2-0.3,0.6-0.3,0.9L120.8,90.2z M122.3,97.4l-0.8-0.5l5.2-8.3l0.8,0.5L122.3,97.4z M124.9,95.6
	c0-0.6,0.2-1.2,0.6-1.6c0.4-0.4,1-0.6,1.6-0.6c0.6,0,1.2,0.2,1.6,0.6c0.4,0.4,0.6,1,0.6,1.6v0.6c0,0.6-0.2,1.1-0.6,1.5
	c-0.4,0.5-1,0.7-1.6,0.7c-0.6,0-1.2-0.2-1.6-0.7c-0.4-0.4-0.6-0.9-0.6-1.5L124.9,95.6z M125.9,96.2c0,0.3,0.1,0.6,0.3,0.9
	c0.2,0.3,0.6,0.4,0.9,0.4c0.3,0,0.6-0.1,0.8-0.4c0.2-0.3,0.3-0.6,0.3-0.9v-0.6c0-0.3-0.1-0.7-0.3-0.9c-0.2-0.3-0.5-0.4-0.8-0.4
	c-0.3,0-0.7,0.1-0.9,0.4c-0.2,0.2-0.3,0.6-0.3,0.9L125.9,96.2z"/>
<path d="M20,116.2h-6.6v-1l3.4-4c0.5-0.5,0.9-1.1,1.2-1.7c0.2-0.4,0.3-0.8,0.3-1.3c0-0.4-0.1-0.9-0.4-1.2c-0.3-0.3-0.7-0.5-1.2-0.5
	c-0.6,0-1.1,0.2-1.5,0.6c-0.3,0.4-0.5,1-0.5,1.5h-1.4c0-0.8,0.3-1.6,0.9-2.2c0.7-0.6,1.6-1,2.5-0.9c0.8,0,1.6,0.3,2.2,0.8
	c0.6,0.5,0.9,1.2,0.8,2c0,0.6-0.1,1.2-0.4,1.7l-1.4,2l-2.7,3.2H20V116.2z"/>
<path d="M23.4,116.2H22v-1.5h1.4V116.2z"/>
<path d="M37.8,116.2h-1.4v-4.7h-5.2v4.7h-1.4v-10.6h1.4v4.8h5.2v-4.8h1.4V116.2z"/>
<path d="M41.7,106.3h-1.5v-1.5h1.5V106.3z M41.7,116.2h-1.5v-7.9h1.5V116.2z"/>
<path d="M48.5,114.1c0-0.3-0.1-0.6-0.4-0.8c-0.4-0.3-0.8-0.4-1.3-0.5c-0.8-0.1-1.5-0.4-2.2-0.9c-0.5-0.3-0.7-0.8-0.7-1.4
	c0-0.7,0.3-1.3,0.8-1.7c0.6-0.4,1.4-0.6,2.1-0.6c0.8-0.1,1.6,0.2,2.2,0.7c0.5,0.4,0.8,1,0.8,1.7h-1.4c0-0.3-0.1-0.7-0.4-0.9
	c-0.7-0.5-1.6-0.5-2.3-0.1c-0.3,0.2-0.4,0.6-0.4,0.9c0,0.3,0.1,0.5,0.3,0.7c0.4,0.2,0.9,0.3,1.4,0.4c0.8,0.2,1.5,0.5,2.2,0.9
	c0.5,0.4,0.7,0.9,0.7,1.5c0.1,0.7-0.3,1.3-0.8,1.7c-0.6,0.5-1.4,0.7-2.2,0.7c-0.9,0-1.7-0.3-2.4-0.8c-0.6-0.4-0.9-1.1-0.9-1.8H45
	c0.1,0.4,0.3,0.8,0.6,1.1c0.4,0.2,0.8,0.3,1.3,0.3c0.4,0,0.8-0.1,1.2-0.3C48.4,114.7,48.5,114.4,48.5,114.1z"/>
<path d="M58.5,112.6c0,1-0.3,1.9-0.8,2.7c-0.5,0.7-1.4,1.1-2.3,1.1c-0.5,0-0.9-0.1-1.3-0.3c-0.4-0.1-0.7-0.4-0.9-0.7v3.9h-1.5v-11
	h1.1l0.3,1c0.2-0.3,0.5-0.6,0.9-0.8c0.4-0.2,0.9-0.3,1.4-0.3c0.9-0.1,1.8,0.4,2.3,1.1c0.6,0.9,0.8,2,0.8,3.1V112.6z M57,112.4
	c0.1-0.8-0.1-1.5-0.5-2.2c-0.3-0.6-0.9-0.9-1.5-0.9c-0.4,0-0.8,0.1-1.1,0.3c-0.3,0.2-0.5,0.5-0.7,0.8v3.8c0.2,0.3,0.4,0.6,0.7,0.8
	c0.3,0.2,0.7,0.3,1.1,0.2c0.6,0.1,1.2-0.2,1.5-0.7c0.4-0.6,0.6-1.2,0.5-1.9V112.4z"/>
<path d="M66.6,116.2l-1.5,0c0-0.2-0.1-0.4-0.1-0.6V115c-0.3,0.4-0.7,0.7-1.1,1c-0.4,0.2-0.9,0.4-1.4,0.4c-0.7,0-1.4-0.2-1.9-0.7
	c-0.4-0.5-0.6-1.1-0.6-1.7c0-0.7,0.3-1.4,0.9-1.8c0.8-0.4,1.6-0.6,2.5-0.6H65v-0.8c0-0.4-0.2-0.8-0.5-1.1c-0.2-0.3-0.6-0.4-1.2-0.4
	c-0.4,0-0.8,0.1-1.1,0.3c-0.3,0.2-0.4,0.6-0.4,0.9h-1.4c0-0.6,0.3-1.2,0.8-1.6c0.6-0.5,1.4-0.7,2.2-0.7c0.8,0,1.5,0.2,2.2,0.6
	c0.5,0.5,0.8,1.3,0.8,2v3.8 M62.7,115.2c0.5,0,1-0.2,1.5-0.4c0.3-0.3,0.6-0.6,0.8-1v-1.2h-1.6c-0.5,0-1,0.1-1.4,0.4
	c-0.4,0.2-0.6,0.6-0.6,1c0,0.3,0.1,0.7,0.4,0.9C62,115.1,62.4,115.2,62.7,115.2z"/>
<path d="M72.5,117.1h-1.2l4.5-11.5H77L72.5,117.1z"/>
<path d="M84.8,115.2c0.6,0,1.3-0.2,1.7-0.7c0.5-0.6,0.7-1.3,0.6-2v-0.9c-0.2,0.3-0.5,0.6-0.8,0.8c-0.4,0.2-0.8,0.2-1.2,0.2
	c-0.9,0-1.8-0.3-2.4-0.9c-0.6-0.7-1-1.6-0.9-2.6c-0.1-1,0.3-2,1-2.7c0.6-0.7,1.4-1,2.3-1c0.9-0.1,1.9,0.3,2.5,1
	c0.7,0.8,1.1,1.8,1,2.8v3.3c0.1,1-0.3,2.1-1.1,2.8c-0.7,0.7-1.7,1.1-2.7,1.1h-1.1l-1.1-0.4l0.2-1.1c0.3,0.2,0.6,0.3,0.9,0.3
	L84.8,115.2z M85.1,111.5c0.9,0.1,1.7-0.4,2-1.2V109c0.1-0.6-0.1-1.3-0.5-1.8c-0.4-0.4-0.9-0.7-1.5-0.7c-0.5,0-1,0.3-1.3,0.7
	c-0.4,0.6-0.6,1.2-0.5,1.9c-0.1,0.6,0.1,1.2,0.5,1.7C84.1,111.3,84.6,111.5,85.1,111.5z"/>
<path d="M90.9,111.5l0.6-5.9h5.3v1.2h-4.1l-0.3,3.1l0.7-0.4l1-0.2c0.9,0,1.7,0.3,2.3,0.9c0.5,0.8,0.8,1.7,0.8,2.6
	c0,0.9-0.2,1.9-0.8,2.6c-0.6,0.7-1.6,1.1-2.5,1c-0.8,0-1.6-0.3-2.3-0.8c-0.6-0.5-0.9-1.3-0.9-2.1h1.4c-0.1,0.5,0.1,1,0.5,1.4
	c0.4,0.3,0.8,0.5,1.3,0.4c0.5,0,1-0.2,1.4-0.6c0.4-0.5,0.5-1.2,0.5-1.8c0-0.6-0.2-1.1-0.5-1.6c-0.4-0.4-0.9-0.6-1.4-0.6
	c-0.4-0.1-0.9,0-1.3,0.2c-0.2,0.2-0.4,0.5-0.5,0.8L90.9,111.5z"/>
<path d="M100.7,116.2h-1.5v-1.5h1.5V116.2z"/>
<path d="M106.3,110.2c0.5,0,1-0.2,1.4-0.5c0.3-0.4,0.4-0.9,0.4-1.4c0-0.5-0.2-0.9-0.5-1.3c-0.3-0.3-0.8-0.5-1.3-0.5
	c-0.5,0-1,0.2-1.4,0.6c-0.3,0.3-0.5,0.7-0.5,1.2H103c0-0.8,0.3-1.5,0.9-2c0.6-0.6,1.5-0.9,2.4-0.9c0.9,0,1.7,0.3,2.4,0.8
	c0.6,0.6,0.9,1.4,0.8,2.2c0,0.5-0.1,0.9-0.4,1.3c-0.3,0.4-0.6,0.8-1.1,1c0.5,0.2,1,0.5,1.2,1c0.3,0.4,0.5,1,0.5,1.5
	c0,0.9-0.3,1.7-1,2.3c-0.6,0.6-1.5,0.9-2.4,0.9c-0.9,0-1.7-0.3-2.4-0.8c-0.6-0.5-1-1.3-1-2.1h1.4c0,0.5,0.2,1,0.6,1.3
	c0.4,0.4,0.9,0.6,1.4,0.5c0.5,0.1,1-0.1,1.4-0.5c0.3-0.4,0.5-0.9,0.5-1.4c0.1-0.5-0.1-1.1-0.4-1.5c-0.4-0.4-0.9-0.6-1.5-0.5h-1.2
	v-1.1L106.3,110.2z"/>
<path d="M115.7,116.2h-1.5v-9.3h-2.3v-1.1l3.8-0.4V116.2z"/>
<path d="M119.7,107.6c0-0.6,0.2-1.2,0.6-1.6c0.9-0.8,2.3-0.8,3.2,0c0.4,0.4,0.6,1,0.6,1.6v0.6c0,0.6-0.2,1.1-0.6,1.5
	c-0.8,0.9-2.2,0.9-3.1,0.1c0,0-0.1-0.1-0.1-0.1c-0.4-0.4-0.6-0.9-0.6-1.5V107.6z M120.8,108.2c0,0.3,0.1,0.6,0.3,0.9
	c0.2,0.3,0.5,0.4,0.8,0.4c0.3,0,0.6-0.1,0.8-0.4c0.2-0.3,0.3-0.6,0.3-0.9v-0.6c0-0.3-0.1-0.7-0.3-0.9c-0.3-0.4-1-0.5-1.4-0.2
	c-0.1,0.1-0.1,0.1-0.2,0.2c-0.2,0.2-0.3,0.6-0.3,0.9L120.8,108.2z M122.3,115.4l-0.8-0.5l5.2-8.3l0.8,0.5L122.3,115.4z M124.9,113.6
	c0-0.6,0.2-1.2,0.6-1.6c0.4-0.4,1-0.6,1.6-0.6c0.6,0,1.2,0.2,1.6,0.6c0.4,0.4,0.6,1,0.6,1.6v0.6c0,0.6-0.2,1.1-0.6,1.5
	c-0.4,0.5-1,0.7-1.6,0.7c-0.6,0-1.2-0.2-1.6-0.7c-0.4-0.4-0.6-0.9-0.6-1.5L124.9,113.6z M125.9,114.2c0,0.3,0.1,0.6,0.3,0.9
	c0.2,0.3,0.6,0.4,0.9,0.4c0.3,0,0.6-0.1,0.8-0.4c0.2-0.3,0.3-0.6,0.3-0.9v-0.6c0-0.3-0.1-0.7-0.3-0.9c-0.2-0.3-0.5-0.4-0.8-0.4
	c-0.3,0-0.7,0.1-0.9,0.4c-0.2,0.2-0.3,0.6-0.3,0.9L125.9,114.2z"/>
<path d="M16.6,128.2c0.5,0,1-0.1,1.3-0.5c0.3-0.4,0.4-0.9,0.4-1.4c0-0.5-0.1-0.9-0.4-1.3c-0.3-0.3-0.8-0.5-1.3-0.5
	c-0.5,0-1,0.2-1.4,0.6c-0.3,0.3-0.5,0.7-0.5,1.2h-1.4c0-0.8,0.3-1.5,0.9-2c0.6-0.6,1.5-0.9,2.4-0.9c0.8,0,1.7,0.2,2.3,0.8
	c0.6,0.6,1,1.4,0.9,2.2c0,0.5-0.2,0.9-0.4,1.3c-0.3,0.4-0.6,0.8-1.1,1c0.5,0.2,0.9,0.5,1.2,1c0.3,0.4,0.4,1,0.4,1.5
	c0.1,0.9-0.3,1.7-0.9,2.3c-0.6,0.6-1.5,0.9-2.4,0.9c-0.9,0-1.7-0.3-2.4-0.8c-0.6-0.5-1-1.3-1-2.1h1.4c0,0.5,0.2,1,0.6,1.3
	c0.4,0.4,0.9,0.6,1.4,0.5c0.5,0.1,1-0.1,1.4-0.5c0.3-0.4,0.5-0.9,0.5-1.4c0-0.5-0.1-1.1-0.5-1.5c-0.4-0.4-0.9-0.6-1.4-0.5h-1.2v-1.1
	L16.6,128.2z"/>
<path d="M23.4,134.2H22v-1.5h1.4V134.2z"/>
<path d="M37.8,134.2h-1.4v-4.7h-5.2v4.7h-1.4v-10.6h1.4v4.8h5.2v-4.8h1.4V134.2z"/>
<path d="M41.7,124.3h-1.5v-1.5h1.5V124.3z M41.7,134.2h-1.5v-7.9h1.5V134.2z"/>
<path d="M48.5,132.1c0-0.3-0.1-0.6-0.4-0.8c-0.4-0.3-0.8-0.4-1.3-0.5c-0.8-0.1-1.5-0.4-2.2-0.9c-0.5-0.3-0.7-0.8-0.7-1.4
	c0-0.7,0.3-1.3,0.8-1.7c0.6-0.4,1.4-0.6,2.1-0.6c0.8-0.1,1.6,0.2,2.2,0.7c0.5,0.4,0.8,1,0.8,1.7h-1.4c0-0.3-0.1-0.7-0.4-0.9
	c-0.7-0.5-1.6-0.5-2.3-0.1c-0.3,0.2-0.4,0.6-0.4,0.9c0,0.3,0.1,0.5,0.3,0.7c0.4,0.2,0.9,0.3,1.4,0.4c0.8,0.2,1.5,0.5,2.2,0.9
	c0.5,0.4,0.7,0.9,0.7,1.5c0.1,0.7-0.3,1.3-0.8,1.7c-0.6,0.5-1.4,0.7-2.2,0.7c-0.9,0-1.7-0.3-2.4-0.8c-0.6-0.4-0.9-1.1-0.9-1.8H45
	c0.1,0.4,0.3,0.8,0.6,1.1c0.4,0.2,0.8,0.3,1.3,0.3c0.4,0,0.8-0.1,1.2-0.3C48.4,132.7,48.5,132.4,48.5,132.1z"/>
<path d="M58.5,130.6c0,1-0.3,1.9-0.8,2.7c-0.5,0.7-1.4,1.1-2.3,1.1c-0.5,0-0.9-0.1-1.3-0.3c-0.4-0.1-0.7-0.4-0.9-0.7v3.9h-1.5v-11
	h1.1l0.3,1c0.2-0.3,0.5-0.6,0.9-0.8c0.4-0.2,0.9-0.3,1.4-0.3c0.9-0.1,1.8,0.4,2.3,1.1c0.6,0.9,0.8,2,0.8,3.1V130.6z M57,130.4
	c0.1-0.8-0.1-1.5-0.5-2.2c-0.3-0.6-0.9-0.9-1.5-0.9c-0.4,0-0.8,0.1-1.1,0.3c-0.3,0.2-0.5,0.5-0.7,0.8v3.8c0.2,0.3,0.4,0.6,0.7,0.8
	c0.3,0.2,0.7,0.3,1.1,0.2c0.6,0.1,1.2-0.2,1.5-0.7c0.4-0.6,0.6-1.2,0.5-1.9V130.4z"/>
<path d="M65.1,134.2c0-0.2-0.1-0.4-0.1-0.6V133c-0.3,0.4-0.7,0.7-1.1,1c-0.4,0.2-0.9,0.4-1.4,0.4c-0.7,0-1.4-0.2-1.9-0.7
	c-0.4-0.5-0.6-1.1-0.6-1.7c0-0.7,0.3-1.4,0.9-1.8c0.8-0.4,1.6-0.6,2.5-0.6H65v-0.8c0-0.4-0.2-0.8-0.5-1.1c-0.2-0.3-0.6-0.4-1.2-0.4
	c-0.4,0-0.8,0.1-1.1,0.3c-0.3,0.2-0.4,0.6-0.4,0.9h-1.4c0-0.6,0.3-1.2,0.8-1.6c0.6-0.5,1.4-0.7,2.2-0.7c0.8,0,1.5,0.2,2.2,0.6
	c0.5,0.5,0.8,1.3,0.8,2v3.8c0,0.3,0,0.5,0.1,0.8c0,0.3,0,0.5,0.1,0.8H65.1z M62.7,133.2c0.5,0,1-0.2,1.5-0.4c0.3-0.3,0.6-0.6,0.8-1
	v-1.2h-1.6c-0.5,0-1,0.1-1.4,0.4c-0.4,0.2-0.6,0.6-0.6,1c0,0.3,0.1,0.7,0.4,0.9C62,133.1,62.4,133.2,62.7,133.2z"/>
<path d="M72.5,135.1h-1.2l4.5-11.5H77L72.5,135.1z"/>
<path d="M84.8,133.2c0.6,0,1.3-0.2,1.7-0.7c0.5-0.6,0.7-1.3,0.6-2v-0.9c-0.2,0.3-0.5,0.6-0.8,0.8c-0.4,0.2-0.8,0.2-1.2,0.2
	c-0.9,0-1.8-0.3-2.4-0.9c-0.6-0.7-1-1.6-0.9-2.6c-0.1-1,0.3-2,1-2.7c0.6-0.7,1.4-1,2.3-1c0.9-0.1,1.9,0.3,2.5,1
	c0.7,0.8,1.1,1.8,1,2.8v3.3c0.1,1-0.3,2.1-1.1,2.8c-0.7,0.7-1.7,1.1-2.7,1.1h-1.1l-1.1-0.4l0.2-1.1l0.9,0.3L84.8,133.2z M85.1,129.5
	c0.9,0.1,1.7-0.4,2-1.2V127c0.1-0.6-0.1-1.3-0.5-1.8c-0.4-0.4-0.9-0.7-1.5-0.7c-0.5,0-1,0.3-1.3,0.7c-0.4,0.6-0.6,1.2-0.5,1.9
	c-0.1,0.6,0.1,1.2,0.5,1.7C84.1,129.3,84.6,129.5,85.1,129.5z"/>
<path d="M94.8,134.2h-1.5v-9.3H91v-1.1l3.8-0.4V134.2z"/>
<path d="M100.7,134.2h-1.5v-1.5h1.5V134.2z"/>
<path d="M109.7,130.5c0.1,1-0.3,2-1,2.8c-0.6,0.7-1.5,1.1-2.4,1.1c-1,0-1.9-0.4-2.5-1.1c-0.6-0.8-1-1.8-0.9-2.8v-3.2
	c-0.1-1,0.3-2,0.9-2.8c0.6-0.7,1.5-1.1,2.5-1.1c0.9,0,1.8,0.4,2.4,1.1c0.7,0.8,1.1,1.8,1,2.8V130.5z M108.2,127
	c0.1-0.6-0.1-1.3-0.5-1.8c-0.3-0.4-0.8-0.7-1.4-0.7c-0.6,0-1.1,0.3-1.5,0.7c-0.3,0.5-0.5,1.2-0.5,1.8v3.8c0,0.6,0.2,1.3,0.5,1.8
	c0.4,0.4,0.9,0.6,1.5,0.6c0.5,0,1.1-0.2,1.4-0.6c0.4-0.5,0.6-1.2,0.5-1.8V127z"/>
<path d="M114.7,128.2c0.5,0,1-0.1,1.4-0.5c0.3-0.4,0.4-0.9,0.4-1.4c0-0.5-0.1-0.9-0.4-1.3c-0.4-0.3-0.8-0.5-1.3-0.5
	c-0.5,0-1,0.2-1.4,0.6c-0.4,0.3-0.6,0.7-0.6,1.2h-1.4c0-0.8,0.3-1.6,1-2c0.6-0.6,1.5-0.9,2.4-0.9c0.8,0,1.7,0.3,2.3,0.8
	c0.6,0.6,0.9,1.4,0.8,2.2c0,0.5-0.1,0.9-0.3,1.3c-0.3,0.4-0.7,0.7-1.1,1c0.5,0.2,0.9,0.5,1.2,1c0.3,0.4,0.4,1,0.4,1.5
	c0.1,0.9-0.3,1.7-0.9,2.3c-0.6,0.6-1.5,0.9-2.4,0.9c-0.9,0-1.7-0.3-2.4-0.8c-0.7-0.5-1.1-1.3-1-2.1h1.4c0,0.5,0.2,0.9,0.5,1.3
	c0.4,0.4,1,0.5,1.5,0.5c0.5,0.1,1-0.1,1.4-0.5c0.3-0.4,0.5-0.9,0.5-1.4c0-0.5-0.1-1.1-0.5-1.5c-0.4-0.4-0.9-0.6-1.5-0.5h-1.2v-1.1
	L114.7,128.2z"/>
<path d="M119.7,125.6c0-0.6,0.2-1.2,0.6-1.6c0.9-0.8,2.3-0.8,3.2,0c0.4,0.4,0.6,1,0.6,1.6v0.6c0,0.6-0.2,1.1-0.6,1.5
	c-0.8,0.9-2.2,0.9-3.1,0.1c0,0-0.1-0.1-0.1-0.1c-0.4-0.4-0.6-0.9-0.6-1.5V125.6z M120.8,126.2c0,0.3,0.1,0.6,0.3,0.9
	c0.2,0.3,0.5,0.4,0.8,0.4c0.3,0,0.6-0.1,0.8-0.4c0.2-0.3,0.3-0.6,0.3-0.9v-0.6c0-0.3-0.1-0.7-0.3-0.9c-0.3-0.4-1-0.5-1.4-0.2
	c-0.1,0.1-0.1,0.1-0.2,0.2c-0.2,0.2-0.3,0.6-0.3,0.9L120.8,126.2z M122.3,133.4l-0.8-0.5l5.2-8.3l0.8,0.5L122.3,133.4z M124.9,131.6
	c0-0.6,0.2-1.2,0.6-1.6c0.4-0.4,1-0.6,1.6-0.6c0.6,0,1.2,0.2,1.6,0.6c0.4,0.4,0.6,1,0.6,1.6v0.6c0,0.6-0.2,1.1-0.6,1.5
	c-0.4,0.5-1,0.7-1.6,0.7c-0.6,0-1.2-0.2-1.6-0.7c-0.4-0.4-0.6-0.9-0.6-1.5L124.9,131.6z M125.9,132.2c0,0.3,0.1,0.6,0.3,0.9
	c0.2,0.3,0.6,0.4,0.9,0.4c0.3,0,0.6-0.1,0.8-0.4c0.2-0.3,0.3-0.6,0.3-0.9v-0.6c0-0.3-0.1-0.7-0.3-0.9c-0.2-0.3-0.5-0.4-0.8-0.4
	c-0.3,0-0.7,0.1-0.9,0.4c-0.2,0.2-0.3,0.6-0.3,0.9L125.9,132.2z"/>
<path d="M18.9,148.6h1.4v1.2h-1.4v2.4h-1.5v-2.4h-4.5v-0.9l4.4-7.3h1.6V148.6z M14.4,148.6h3v-5l0,0l-0.2,0.4L14.4,148.6z"/>
<path d="M23.4,152.2H22v-1.5h1.4V152.2z"/>
<path d="M37.8,152.2h-1.4v-4.7h-5.2v4.7h-1.4v-10.6h1.4v4.8h5.2v-4.8h1.4V152.2z"/>
<path d="M41.7,142.3h-1.5v-1.5h1.5V142.3z M41.7,152.2h-1.5v-7.9h1.5V152.2z"/>
<path d="M48.5,150.1c0-0.3-0.1-0.6-0.4-0.8c-0.4-0.3-0.8-0.4-1.3-0.5c-0.8-0.1-1.5-0.4-2.2-0.9c-0.5-0.3-0.7-0.8-0.7-1.4
	c0-0.7,0.3-1.3,0.8-1.7c0.6-0.4,1.4-0.6,2.1-0.6c0.8-0.1,1.6,0.2,2.2,0.7c0.5,0.4,0.8,1,0.8,1.7h-1.4c0-0.3-0.1-0.7-0.4-0.9
	c-0.7-0.5-1.6-0.5-2.3-0.1c-0.3,0.2-0.4,0.6-0.4,0.9c0,0.3,0.1,0.5,0.3,0.7c0.4,0.2,0.9,0.3,1.4,0.4c0.8,0.2,1.5,0.5,2.2,0.9
	c0.5,0.4,0.7,0.9,0.7,1.5c0.1,0.7-0.3,1.3-0.8,1.7c-0.6,0.5-1.4,0.7-2.2,0.7c-0.9,0-1.7-0.3-2.4-0.8c-0.6-0.4-0.9-1.1-0.9-1.8H45
	c0.1,0.4,0.3,0.8,0.6,1.1c0.4,0.2,0.8,0.3,1.3,0.3c0.4,0,0.8-0.1,1.2-0.3C48.4,150.7,48.5,150.4,48.5,150.1z"/>
<path d="M58.5,148.6c0,1-0.3,1.9-0.8,2.7c-0.5,0.7-1.4,1.1-2.3,1.1c-0.5,0-0.9-0.1-1.3-0.3c-0.4-0.1-0.7-0.4-0.9-0.7v3.9h-1.5v-11
	h1.1l0.3,1c0.2-0.3,0.5-0.6,0.9-0.8c0.4-0.2,0.9-0.3,1.4-0.3c0.9-0.1,1.8,0.4,2.3,1.1c0.6,0.9,0.8,2,0.8,3.1V148.6z M57,148.4
	c0.1-0.8-0.1-1.5-0.5-2.2c-0.3-0.6-0.9-0.9-1.5-0.9c-0.4,0-0.8,0.1-1.1,0.3c-0.3,0.2-0.5,0.5-0.7,0.8v3.8c0.2,0.3,0.4,0.6,0.7,0.8
	c0.3,0.2,0.7,0.3,1.1,0.2c0.6,0.1,1.2-0.2,1.5-0.7c0.4-0.6,0.6-1.2,0.5-1.9V148.4z"/>
<path d="M65.1,152.2c0-0.2-0.1-0.4-0.1-0.6V151c-0.3,0.4-0.7,0.7-1.1,1c-0.4,0.2-0.9,0.4-1.4,0.4c-0.7,0-1.4-0.2-1.9-0.7
	c-0.4-0.5-0.6-1.1-0.6-1.7c0-0.7,0.3-1.4,0.9-1.8c0.8-0.4,1.6-0.6,2.5-0.6H65v-0.8c0-0.4-0.2-0.8-0.5-1.1c-0.2-0.3-0.6-0.4-1.2-0.4
	c-0.4,0-0.8,0.1-1.1,0.3c-0.3,0.2-0.4,0.6-0.4,0.9h-1.4c0-0.6,0.3-1.2,0.8-1.6c0.6-0.5,1.4-0.7,2.2-0.7c0.8,0,1.5,0.2,2.2,0.6
	c0.5,0.5,0.8,1.3,0.8,2v3.8c0,0.3,0,0.5,0.1,0.8c0,0.3,0,0.5,0.1,0.8H65.1z M62.7,151.2c0.5,0,1-0.2,1.5-0.4c0.3-0.3,0.6-0.6,0.8-1
	v-1.2h-1.6c-0.5,0-1,0.1-1.4,0.4c-0.4,0.2-0.6,0.6-0.6,1c0,0.3,0.1,0.7,0.4,0.9C62,151.1,62.4,151.2,62.7,151.2z"/>
<path d="M72.5,153.1h-1.2l4.5-11.5H77L72.5,153.1z"/>
<path d="M87.7,148.6h1.5v1.2h-1.5v2.4h-1.4v-2.4h-4.6v-0.9l4.5-7.3h1.5V148.6z M83.2,148.6h3.1v-5h-0.1v0.4L83.2,148.6z"/>
<path d="M93.8,146.2c0.5,0,1-0.1,1.4-0.5c0.3-0.4,0.4-0.9,0.4-1.4c0-0.5-0.1-0.9-0.4-1.3c-0.4-0.3-0.8-0.5-1.3-0.5
	c-0.5,0-1,0.2-1.4,0.6c-0.4,0.3-0.6,0.7-0.6,1.2h-1.4c0-0.8,0.3-1.6,1-2c0.6-0.6,1.5-0.9,2.4-0.9c0.8,0,1.7,0.3,2.3,0.8
	c0.6,0.6,0.9,1.4,0.8,2.2c0,0.5-0.1,0.9-0.4,1.3c-0.2,0.4-0.6,0.8-1,1c0.5,0.2,0.9,0.5,1.2,1c0.3,0.5,0.5,1,0.4,1.6
	c0,0.8-0.3,1.6-0.9,2.2c-0.6,0.6-1.5,0.9-2.4,0.9c-0.9,0-1.7-0.3-2.4-0.8c-0.7-0.5-1.1-1.3-1-2.1h1.4c-0.1,0.5,0.1,1,0.5,1.3
	c0.4,0.4,1,0.5,1.5,0.5c0.5,0.1,1-0.1,1.4-0.5c0.3-0.4,0.5-0.9,0.5-1.4c0-0.5-0.1-1.1-0.5-1.5c-0.4-0.4-0.9-0.6-1.5-0.5h-1.2v-1.1
	L93.8,146.2z"/>
<path d="M100.7,152.2h-1.5v-1.5h1.5V152.2z"/>
<path d="M107.2,152.2h-1.4v-9.3h-2.3v-1.1l3.7-0.4L107.2,152.2z"/>
<path d="M111.3,143.6c0-0.6,0.2-1.2,0.6-1.6c0.4-0.4,1-0.6,1.6-0.6c0.6,0,1.2,0.2,1.6,0.6c0.4,0.4,0.6,1,0.6,1.6v0.6
	c0,0.6-0.2,1.1-0.6,1.5c-0.4,0.5-1,0.7-1.6,0.7c-0.6,0-1.2-0.2-1.6-0.7c-0.4-0.4-0.6-0.9-0.6-1.5V143.6z M112.3,144.2
	c0,0.3,0.1,0.6,0.3,0.9c0.2,0.2,0.6,0.4,0.9,0.4c0.3,0,0.6-0.2,0.8-0.4c0.2-0.3,0.3-0.6,0.3-0.9v-0.6c0-0.3-0.1-0.7-0.3-0.9
	c-0.2-0.3-0.5-0.4-0.8-0.4c-0.3,0-0.7,0.1-0.9,0.4c-0.2,0.2-0.3,0.6-0.3,0.9V144.2z M113.8,151.4l-0.7-0.5l5.2-8.3l0.8,0.5
	L113.8,151.4z M116.4,149.6c0-0.6,0.2-1.2,0.6-1.6c0.4-0.4,1-0.6,1.6-0.6c0.6,0,1.2,0.2,1.6,0.6c0.4,0.4,0.6,1,0.6,1.6v0.6
	c0,0.6-0.2,1.1-0.6,1.5c-0.4,0.5-1,0.7-1.6,0.7c-0.6,0-1.2-0.2-1.6-0.7c-0.4-0.4-0.6-0.9-0.6-1.5V149.6z M117.5,150.2
	c0,0.3,0.1,0.6,0.3,0.9c0.2,0.3,0.5,0.4,0.8,0.4c0.3,0,0.7-0.1,0.9-0.4c0.2-0.3,0.3-0.6,0.3-0.9v-0.6c0-0.3-0.1-0.7-0.3-0.9
	c-0.2-0.3-0.6-0.4-0.9-0.4c-0.3,0-0.6,0.1-0.8,0.4c-0.2,0.2-0.3,0.6-0.3,0.9V150.2z"/>
</svg>
