<svg xmlns="http://www.w3.org/2000/svg" viewBox="0 0 373.5 300.9"><defs><style>.cls-1,.cls-15,.cls-3{fill:#fff;}.cls-1,.cls-10,.cls-11,.cls-12,.cls-13,.cls-2,.cls-3,.cls-4,.cls-5,.cls-6,.cls-7,.cls-8,.cls-9{stroke:#000;stroke-miterlimit:10;}.cls-2{fill:#0072bd;}.cls-10,.cls-11,.cls-12,.cls-13,.cls-2,.cls-3,.cls-4,.cls-5,.cls-6,.cls-7,.cls-8,.cls-9{stroke-width:2px;}.cls-4{fill:#fcf3ef;}.cls-5{fill:#fbebe5;}.cls-6{fill:#f1bfa9;}.cls-7{fill:#117bc1;}.cls-8{fill:#fbefea;}.cls-9{fill:#69acd8;}.cls-10{fill:#f8e0d6;}.cls-11{fill:#f9e4db;}.cls-12{fill:#f6d5c7;}.cls-13{fill:#f3cab8;}.cls-14{fill:#262626;}</style></defs><title>Inception CM</title><g id="Layer_2" data-name="Layer 2"><g id="Layer_1-2" data-name="Layer 1"><rect class="cls-1" x="0.5" y="0.5" width="372.5" height="299.91"/><g id="Layer_2-2" data-name="Layer 2"><g id="Layer_1-2-2" data-name="Layer 1-2"><rect class="cls-2" x="76.3" y="30.4" width="70" height="57.96"/><rect class="cls-3" x="76.3" y="146.4" width="70" height="57.96"/><rect class="cls-3" x="76.3" y="88.4" width="70" height="57.96"/><rect class="cls-4" x="76.3" y="204.3" width="70" height="57.96"/><rect class="cls-5" x="146.4" y="30.4" width="70" height="57.96"/><rect class="cls-6" x="146.4" y="146.4" width="70" height="57.96"/><rect class="cls-7" x="146.4" y="88.4" width="70" height="57.96"/><rect class="cls-8" x="146.4" y="204.3" width="70" height="57.96"/><rect class="cls-3" x="216.2" y="30.4" width="70" height="57.96"/><rect class="cls-9" x="216.2" y="146.4" width="70" height="57.96"/><rect class="cls-10" x="216.2" y="88.4" width="70" height="57.96"/><rect class="cls-11" x="216.2" y="204.3" width="70" height="57.96"/><rect class="cls-12" x="286.2" y="30.4" width="70" height="57.96"/><rect class="cls-13" x="286.2" y="146.4" width="70" height="57.96"/><rect class="cls-11" x="286.2" y="88.4" width="70" height="57.96"/><rect class="cls-2" x="286.2" y="204.3" width="70" height="57.96"/><path class="cls-14" d="M90.8,275.1v-6.7H93a4.1,4.1,0,0,1,1.9.5,2,2,0,0,1,.6,1.4,1.9,1.9,0,0,1-.2.8,1.2,1.2,0,0,1-.7.5,1.8,1.8,0,0,1,.9.6,2,2,0,0,1-.3,2.4,2,2,0,0,1-1.8.5Zm1.4-3.9h.9a.8.8,0,0,0,.8-.2.6.6,0,0,0,.3-.6c0-.4-.1-.6-.3-.7a1.6,1.6,0,0,0-.9-.3h-.8Zm0,1v1.9h1.2a.8.8,0,0,0,.8-.2.8.8,0,0,0,.3-.7,1.6,1.6,0,0,0-.3-.8c-.2-.2-.4-.2-.8-.2Z"/><path class="cls-14" d="M99.4,271.3h-1c-.2.1-.3.2-.3.4V275H96.7v-5H98v.8c.2-.3.3-.5.5-.6l.6-.3h.4Z"/><path class="cls-14" d="M99.8,272.6a2.1,2.1,0,0,1,.6-1.8,2.1,2.1,0,0,1,1.7-.8,2.5,2.5,0,0,1,1.8.8,3,3,0,0,1,.6,1.8h0a2.8,2.8,0,0,1-.6,1.8,2.1,2.1,0,0,1-1.8.7,1.8,1.8,0,0,1-1.7-.7A2.3,2.3,0,0,1,99.8,272.6Zm1.3.1a3.6,3.6,0,0,0,.2,1.1,1,1,0,0,0,1.6,0,3.6,3.6,0,0,0,.2-1.1h0a5.2,5.2,0,0,0-.2-1.1,1,1,0,0,0-1.6,0A5.2,5.2,0,0,0,101.1,272.7Z"/><path class="cls-14" d="M109.7,273.3h0l.6-3.2h1.3l-1.3,5h-1.1l-.9-2.8h-.1l-.9,2.8h-1.1l-1.3-5h1.3l.7,3.2h0l.9-3.2h.9Z"/><path class="cls-14" d="M113.5,270.1v.8a1.2,1.2,0,0,1,.6-.6,1.1,1.1,0,0,1,.8-.3,2.6,2.6,0,0,1,1.2.5,3.2,3.2,0,0,1,.4,1.6v3h-1.2v-3a3.1,3.1,0,0,0-.2-.8l-.6-.2H114l-.4.3V275h-1.3v-5Z"/><path class="cls-14" d="M121.2,273.4a1.4,1.4,0,0,0-.2-.6l-1-.5a3.7,3.7,0,0,1-1.8-.8,1.5,1.5,0,0,1-.6-1.3,2.1,2.1,0,0,1,.7-1.4,3.4,3.4,0,0,1,1.7-.5,3,3,0,0,1,1.8.6,1.9,1.9,0,0,1,.7,1.5h-1.3a1.6,1.6,0,0,0-.3-.8,1.6,1.6,0,0,0-.9-.3.9.9,0,0,0-.7.3.9.9,0,0,0-.3.6.6.6,0,0,0,.3.6l1,.4,1.7.8a2,2,0,0,1,.6,1.4,1.6,1.6,0,0,1-.7,1.3,2.4,2.4,0,0,1-1.8.5,2.3,2.3,0,0,1-1.8-.5,1.5,1.5,0,0,1-.8-1.6h1.3a.6.6,0,0,0,.4.8.8.8,0,0,0,.9.3l.8-.2A.6.6,0,0,0,121.2,273.4Z"/><path class="cls-14" d="M128,272.8a3.5,3.5,0,0,1-.5,1.8,1.6,1.6,0,0,1-1.5.6h-.7l-.5-.4v2.4h-1.3v-7h1.2v.6c.1-.2.3-.3.5-.5l.7-.2a2.8,2.8,0,0,1,1.5.8,4.5,4.5,0,0,1,.5,1.9Zm-1.4-.1a5,5,0,0,0-.2-1.2,1,1,0,0,0-.7-.4h-.5c-.2.1-.3.3-.4.4v2.2l.4.3h.5c.3.1.5-.1.7-.4a1.6,1.6,0,0,0,.2-1Z"/><path class="cls-14" d="M128.6,272.6a2.1,2.1,0,0,1,.6-1.8,2.3,2.3,0,0,1,1.8-.8,2.3,2.3,0,0,1,1.7.8,3,3,0,0,1,.6,1.8h0a2.8,2.8,0,0,1-.6,1.8,1.9,1.9,0,0,1-1.7.7,1.8,1.8,0,0,1-1.8-.7A2.3,2.3,0,0,1,128.6,272.6Zm1.3.1a2,2,0,0,0,.3,1.1c.1.3.4.4.8.4a.6.6,0,0,0,.7-.4,2,2,0,0,0,.3-1.1h0a2.6,2.6,0,0,0-.3-1.1.8.8,0,0,0-.7-.4c-.4,0-.7.1-.8.4A2.6,2.6,0,0,0,129.9,272.7Z"/><path class="cls-14" d="M135.8,268.9v1.2h.8v1h-.8v2.5c0,.2,0,.4.1.4l.3.2h.4v1h-.8a1.1,1.1,0,0,1-1.1-.3,1.5,1.5,0,0,1-.4-1.3v-2.5h-.7v-1h.7v-1.2Z"/><path class="cls-14" d="M173,275.1h-1.4v-2.8h-2.7v2.8h-1.4v-6.7h1.4v2.9h2.7v-2.9H173Z"/><path class="cls-14" d="M176.3,275.2a1.8,1.8,0,0,1-1.8-.7,2.4,2.4,0,0,1-.6-1.7v-.2a2.1,2.1,0,0,1,.6-1.8,2.1,2.1,0,0,1,1.7-.8,2.6,2.6,0,0,1,1.5.7,2.7,2.7,0,0,1,.6,1.6v.7h-3a1.2,1.2,0,0,0,.3.9.7.7,0,0,0,.8.3h.8c.2-.1.4-.1.6-.3l.4.9-.8.4Zm-.1-4.1a.6.6,0,0,0-.6.3,1.1,1.1,0,0,0-.3.7h1.6a2,2,0,0,0-.1-.7Z"/><path class="cls-14" d="M182,275.1c-.1,0-.1-.1-.1-.3s-.1-.2-.1-.4l-.6.6a.8.8,0,0,1-.8.2,1.3,1.3,0,0,1-1.2-.4,1.5,1.5,0,0,1,.1-2.1h.1a2.9,2.9,0,0,1,1.6-.4h.8v-.4a1.4,1.4,0,0,0-.2-.6l-.6-.2-.5.2a.8.8,0,0,0-.2.4H179a1.4,1.4,0,0,1,.6-1.1,2.7,2.7,0,0,1,3,0,2.4,2.4,0,0,1,.5,1.3v2.1c0,.3,0,.5.1.6s.1.4.1.6Zm-1.2-.9h.6l.4-.4v-.9H181a.6.6,0,0,0-.6.3.5.5,0,0,0-.3.5c0,.2.1.4.2.4Z"/><path class="cls-14" d="M185.5,275.1h-1.3v-7.2h1.3Z"/><path class="cls-14" d="M188.3,268.9v1.2h.8v1h-.8v2.5c0,.2,0,.4.1.4l.3.2h.4v1h-.7a1.1,1.1,0,0,1-1.1-.3,1.8,1.8,0,0,1-.4-1.3v-2.5h-.7v-1h.7v-1.2Z"/><path class="cls-14" d="M191.3,270.8c.1-.3.3-.4.5-.6l.8-.2a1.7,1.7,0,0,1,1.2.6,2.5,2.5,0,0,1,.5,1.6v2.9h-1.4v-2.9c0-.4,0-.7-.2-.9l-.5-.2h-.6l-.3.3V275h-1.4v-7.1h1.4Z"/><path class="cls-14" d="M197.1,273v.3h0l.9-3.2h1.5l-2,5.8-.6.9a1.5,1.5,0,0,1-1.1.4h-.7l.2-1h.2l.5-.2c.2-.1.3-.2.3-.4l.2-.4-1.8-5h1.5Z"/><path class="cls-14" d="M246.6,275.1h-1.3v-2.8h-2.7v2.8h-1.4v-6.7h1.4v2.9h2.7v-2.9h1.3Z"/><path class="cls-14" d="M249.2,268.9h-1.4v-1h1.4Zm0,6.2h-1.4v-5h1.4Z"/><path class="cls-14" d="M253,273.8a.8.8,0,0,0-.2-.4l-.8-.3a2.1,2.1,0,0,1-1.3-.5,1.2,1.2,0,0,1-.2-1.8l.3-.3a2.4,2.4,0,0,1,1.4-.5,2.7,2.7,0,0,1,1.5.5,1.7,1.7,0,0,1,.6,1.1H253a1.7,1.7,0,0,0-.2-.5l-.6-.2h-.5c-.1.2-.2.3-.2.4s.1.4.2.4l.8.3,1.4.5a1.4,1.4,0,0,1,.4,1,1.1,1.1,0,0,1-.6,1.1,1.7,1.7,0,0,1-1.5.4,1.8,1.8,0,0,1-1.6-.5,1.3,1.3,0,0,1-.5-1.1h1.2a.6.6,0,0,0,.3.6.5.5,0,0,0,.6.2h.6A.5.5,0,0,0,253,273.8Z"/><path class="cls-14" d="M259.7,272.8a3.5,3.5,0,0,1-.5,1.8,1.6,1.6,0,0,1-1.4.6h-.7l-.6-.4v2.4h-1.3v-7h1.2v.6l.5-.5.7-.2a1.9,1.9,0,0,1,1.5.8,4.5,4.5,0,0,1,.5,1.9Zm-1.4-.1a2.5,2.5,0,0,0-.2-1.2.8.8,0,0,0-.7-.4h-.5c-.2.1-.3.3-.4.4v2.2l.4.3h.5a.6.6,0,0,0,.7-.4,1.6,1.6,0,0,0,.2-1Z"/><path class="cls-14" d="M263.5,275.1c-.1,0-.1-.1-.1-.3s-.1-.2-.1-.4l-.6.6a.8.8,0,0,1-.8.2,1.3,1.3,0,0,1-1.2-.4,1,1,0,0,1-.4-1.1,1.6,1.6,0,0,1,.5-1.1,3.3,3.3,0,0,1,1.7-.4h.8v-.4a1.4,1.4,0,0,0-.2-.6l-.6-.2-.5.2a.8.8,0,0,0-.2.4h-1.3a1.4,1.4,0,0,1,.6-1.1,2.5,2.5,0,0,1,1.5-.5,2.4,2.4,0,0,1,1.4.5,1.8,1.8,0,0,1,.6,1.3v2.1c0,.3,0,.5.1.6s0,.5.1.6Zm-1.3-.9h.7l.4-.4v-.9h-.8a1.5,1.5,0,0,0-.7.3l-.2.5c0,.2.1.4.2.4Z"/><path class="cls-14" d="M305.4,274.1h3v1h-4.3v-6.7h1.3Z"/><path class="cls-14" d="M311.4,275.2a2.1,2.1,0,0,1-1.8-.7,2.4,2.4,0,0,1-.6-1.7v-.2a2.1,2.1,0,0,1,.6-1.8,2.1,2.1,0,0,1,1.7-.8,2.9,2.9,0,0,1,1.6.7,3.3,3.3,0,0,1,.5,1.6v.7h-3a1.2,1.2,0,0,0,.3.9.7.7,0,0,0,.8.3h.8l.7-.3.3.9c-.3.2-.5.4-.8.4Zm-.1-4.1a.6.6,0,0,0-.6.3,1.1,1.1,0,0,0-.3.7h1.7a2.5,2.5,0,0,0-.2-.7l-.6-.3Z"/><path class="cls-14" d="M317.1,275.1c0-.1-.1-.2-.1-.3s-.1-.3-.1-.4l-.5.6a.8.8,0,0,1-.8.2,1.2,1.2,0,0,1-1.3-.4,1.4,1.4,0,0,1-.4-1.1,1.4,1.4,0,0,1,.6-1.1,2.9,2.9,0,0,1,1.6-.4h.8v-.4a1.4,1.4,0,0,0-.2-.6l-.6-.2-.5.2c-.1.1-.1.2-.1.4h-1.3a1.1,1.1,0,0,1,.5-1.1,2.7,2.7,0,0,1,3,0,1.5,1.5,0,0,1,.5,1.3v2.1c0,.2.1.4.1.6a.8.8,0,0,0,.2.6Zm-1.2-.9h.6l.4-.4v-.9h-.8a.9.9,0,0,0-.6.3c-.2.1-.2.3-.2.5s0,.3.1.4Z"/><path class="cls-14" d="M319.6,275.1v-4h-.7v-1h.7v-.5a1.8,1.8,0,0,1,.5-1.3,2.4,2.4,0,0,1,1.4-.5h.7v1h-.5c-.2,0-.4,0-.5.2a1.1,1.1,0,0,0-.1.5v.5h.9v1h-.9v4Z"/><path class="cls-14" d="M322.7,275.1v-6.7h2.2a3.7,3.7,0,0,1,1.8.5,1.4,1.4,0,0,1,.7,1.4,1.1,1.1,0,0,1-.3.8c-.2.3-.4.5-.7.5a1.7,1.7,0,0,1,1,.6,2,2,0,0,1-.3,2.4,2.4,2.4,0,0,1-1.8.5Zm1.3-3.9h.9c.4,0,.6,0,.8-.2a.6.6,0,0,0,.3-.6c0-.4-.1-.6-.3-.7a1.1,1.1,0,0,0-.8-.3H324Zm0,1v1.9h1.3l.8-.2a.8.8,0,0,0,.3-.7,1.6,1.6,0,0,0-.3-.8c-.2-.2-.5-.2-.9-.2Z"/><path class="cls-14" d="M330,275.1h-1.3v-7.2H330Z"/><path class="cls-14" d="M334.1,275.1l-.2-.3v-.4l-.6.6a.8.8,0,0,1-.8.2,1.3,1.3,0,0,1-1.2-.4,1,1,0,0,1-.4-1.1,1.1,1.1,0,0,1,.5-1.1,3.3,3.3,0,0,1,1.7-.4h.7v-.4c0-.3,0-.4-.2-.6l-.5-.2-.5.2a.8.8,0,0,0-.2.4h-1.3a1.6,1.6,0,0,1,.5-1.1,2.8,2.8,0,0,1,1.6-.5,2.4,2.4,0,0,1,1.4.5,1.8,1.8,0,0,1,.6,1.3v2.7c.1.2.1.4.2.6Zm-1.3-.9h.7l.3-.4v-.9h-.7a1.5,1.5,0,0,0-.7.3l-.2.5c0,.2.1.4.2.4Z"/><path class="cls-14" d="M338.9,273.8a.8.8,0,0,0-.2-.4l-.8-.3a2.1,2.1,0,0,1-1.3-.5,1.2,1.2,0,0,1-.5-1,1.6,1.6,0,0,1,.5-1.1,2.7,2.7,0,0,1,3,0,1.7,1.7,0,0,1,.6,1.1h-1.4a1.1,1.1,0,0,0-.1-.5l-.6-.2h-.5c-.1.2-.2.3-.2.4s.1.4.2.4l.8.3,1.4.5a1.4,1.4,0,0,1,.4,1,1.1,1.1,0,0,1-.6,1.1,2.1,2.1,0,0,1-1.5.4,1.8,1.8,0,0,1-1.6-.5c-.4-.2-.5-.6-.5-1.1h1.2a.6.6,0,0,0,.3.6c.1.2.4.2.6.2h.6A.5.5,0,0,0,338.9,273.8Z"/><path class="cls-14" d="M342.7,268.9v1.2h.8v1h-.8v2.5c0,.2,0,.4.1.4l.3.2h.4v1h-.8a1.1,1.1,0,0,1-1.1-.3,1.8,1.8,0,0,1-.4-1.3v-2.5h-.7v-1h.7v-1.2Z"/><path class="cls-14" d="M184.8,285.1v2.4h-1.6v-7h2.7a3.6,3.6,0,0,1,2,.6,2.5,2.5,0,0,1,0,3.4h0a2.5,2.5,0,0,1-2,.6Zm0-1.2h1.1a1,1,0,0,0,1.1-1.1,1.1,1.1,0,0,0-1.1-1.1h-1.1Z"/><path class="cls-14" d="M192.3,283.7h-1l-.3.3v3.4h-1.6v-5.2h1.5v.8l.4-.7.7-.2h.4Z"/><path class="cls-14" d="M195.1,287.6a1.8,1.8,0,0,1-1.8-.7,2.3,2.3,0,0,1-.7-1.8v-.2a3.6,3.6,0,0,1,.6-2,3.2,3.2,0,0,1,1.9-.7,2.3,2.3,0,0,1,1.6.6,3.2,3.2,0,0,1,.6,1.8v.8h-3a.6.6,0,0,0,.3.6.7.7,0,0,0,.8.3h.7l.8-.3.3,1-.9.5Zm0-4.1c-.3,0-.5,0-.6.2a2.5,2.5,0,0,0-.2.7h1.4c0-.3,0-.5-.1-.6A.9.9,0,0,0,195.1,283.5Z"/><path class="cls-14" d="M197.8,284.9a3.7,3.7,0,0,1,.5-2,2,2,0,0,1,1.5-.7l.7.2.5.4V280h1.6v7.5h-1.4v-.6l-.6.5a.7.7,0,0,1-.7.2,1.5,1.5,0,0,1-1.5-.7,3,3,0,0,1-.5-1.9Zm1.6.1a1.6,1.6,0,0,0,.2,1,.6.6,0,0,0,.6.5h.5l.3-.3v-2.2q-.1-.3-.3-.3h-.5c-.3,0-.6.2-.6.4h0A2,2,0,0,0,199.4,285Z"/><path class="cls-14" d="M205.3,281.1h-1.7V280h1.7Zm0,6.4h-1.7v-5.2h1.7Z"/><path class="cls-14" d="M208.5,286.4l.5-.2a.8.8,0,0,0,.2-.5h1.5a1.7,1.7,0,0,1-.6,1.4,1.9,1.9,0,0,1-1.6.5,1.8,1.8,0,0,1-1.8-.7,2.2,2.2,0,0,1-.7-1.9h0a2.6,2.6,0,0,1,.7-2,2.3,2.3,0,0,1,1.8-.7,3,3,0,0,1,1.6.5,2.7,2.7,0,0,1,.6,1.6h-1.5a1.4,1.4,0,0,0-.2-.6c-.1-.2-.3-.2-.5-.2a.6.6,0,0,0-.6.3,1.5,1.5,0,0,0-.2,1.1h0a1.2,1.2,0,0,0,.2,1A.5.5,0,0,0,208.5,286.4Z"/><path class="cls-14" d="M213.2,281v1.3h.9v1.1h-.9v2.4c0,.2.1.3.1.4s.2.2.4.2h.3l.2,1.2h-1a1.3,1.3,0,0,1-1.2-.4,1.6,1.6,0,0,1-.4-1.4v-2.4h-.7v-1.1h.7V281Z"/><path class="cls-14" d="M217.2,287.6a2.3,2.3,0,0,1-1.9-.7,2.9,2.9,0,0,1-.7-1.8v-.2a2.6,2.6,0,0,1,.7-2,2.3,2.3,0,0,1,1.8-.7,2.7,2.7,0,0,1,1.7.6,4.1,4.1,0,0,1,.5,1.8v.8h-3l.3.6a.7.7,0,0,0,.8.3h.8l.7-.3.4,1-.9.5Zm-.1-4.1-.6.2a2.5,2.5,0,0,0-.2.7h1.4c0-.3,0-.5-.1-.6A.9.9,0,0,0,217.1,283.5Z"/><path class="cls-14" d="M219.8,284.9a3.7,3.7,0,0,1,.5-2,2.4,2.4,0,0,1,1.6-.7l.6.2.5.4V280h1.7v7.5h-1.5v-.6a.8.8,0,0,1-.5.5.8.8,0,0,1-.8.2,1.5,1.5,0,0,1-1.5-.7,3,3,0,0,1-.5-1.9Zm1.7.1a3.1,3.1,0,0,0,.1,1,.6.6,0,0,0,.7.4h.4l.3-.3v-2.2a.5.5,0,0,0-.3-.3h-.4a.8.8,0,0,0-.7.4A3.8,3.8,0,0,0,221.5,285Z"/><path class="cls-14" d="M233.6,285.2h0a2,2,0,0,1-.7,1.8,2.5,2.5,0,0,1-2,.6,2.4,2.4,0,0,1-2.1-.8,2.6,2.6,0,0,1-.8-2.1v-1.4a2.9,2.9,0,0,1,.8-2.1,2.8,2.8,0,0,1,2-.8,3.9,3.9,0,0,1,2.1.6,2.2,2.2,0,0,1,.7,1.8H232a1.2,1.2,0,0,0-1-1.2h-.2c-.4.1-.7.2-.8.5a2.7,2.7,0,0,0-.3,1.2v1.4a2.1,2.1,0,0,0,.3,1.2.9.9,0,0,0,.9.5c.4,0,.7-.1.8-.3a1.2,1.2,0,0,0,.3-.9Z"/><path class="cls-14" d="M236.1,287.5h-1.6V280h1.6Z"/><path class="cls-14" d="M240.1,287.5c0-.1-.1-.2-.1-.3a.7.7,0,0,1-.1-.5l-.5.7-.9.2a1.4,1.4,0,0,1-1.7-1.2v-.3a1.3,1.3,0,0,1,.6-1.2,3.5,3.5,0,0,1,1.8-.5h.6v-.3a1.3,1.3,0,0,0-.1-.6h-.9a.8.8,0,0,0-.2.4H237a1.6,1.6,0,0,1,.6-1.2,3.4,3.4,0,0,1,1.7-.5,3,3,0,0,1,1.6.5,2,2,0,0,1,.6,1.4v2.7l.3.7Zm-1.1-1,.5-.2a.3.3,0,0,0,.3-.3v-.7h-.6l-.6.2a1.7,1.7,0,0,0-.2.5l.2.3c.1.2.2.2.4.2Z"/><path class="cls-14" d="M245.1,286.1a.8.8,0,0,0-.2-.4l-.8-.3a2.4,2.4,0,0,1-1.4-.5,1.2,1.2,0,0,1-.5-1,1.6,1.6,0,0,1,.6-1.2,2.8,2.8,0,0,1,1.6-.5,3.4,3.4,0,0,1,1.7.5,1.2,1.2,0,0,1,.5,1.2H245a1.1,1.1,0,0,0-.1-.5H244c-.2.1-.2.2-.2.4s0,.2.2.3l.8.3,1.4.5a1.6,1.6,0,0,1,.5,1.1,1.3,1.3,0,0,1-.7,1.2,2,2,0,0,1-1.6.4,2.2,2.2,0,0,1-1.7-.5,1.4,1.4,0,0,1-.6-1.2h1.5a.8.8,0,0,0,.2.5l.6.2a.4.4,0,0,0,.5-.2Z"/><path class="cls-14" d="M250.2,286.1a.8.8,0,0,0-.2-.4l-.8-.3a2.4,2.4,0,0,1-1.4-.5,1.2,1.2,0,0,1-.5-1,1.6,1.6,0,0,1,.6-1.2,3.1,3.1,0,0,1,3.2,0,1.6,1.6,0,0,1,.6,1.2h-1.6a1.1,1.1,0,0,0-.1-.5h-1c-.1.1-.1.2-.1.4s0,.2.2.3l.8.3,1.4.5a1.5,1.5,0,0,1,.4,1.1,1.3,1.3,0,0,1-.6,1.2,2,2,0,0,1-1.6.4,2.2,2.2,0,0,1-1.7-.5,1.4,1.4,0,0,1-.6-1.2h1.5a.8.8,0,0,0,.2.5l.6.2.5-.2Z"/><path class="cls-14" d="M28.3,63.2V56.5h2.2a4.1,4.1,0,0,1,1.9.5,2.1,2.1,0,0,1,.7,1.4,1.1,1.1,0,0,1-.3.8c-.2.3-.4.5-.7.5a1.7,1.7,0,0,1,1.3,1.6,2,2,0,0,1-.7,1.5,2.4,2.4,0,0,1-1.8.4Zm1.4-3.9h.9a.8.8,0,0,0,.8-.2.6.6,0,0,0,.3-.6,1.1,1.1,0,0,0-.3-.7c-.2-.2-.5-.2-.9-.2h-.8Zm0,1v1.9h1.2l.9-.2a1.4,1.4,0,0,0,.2-.7,3.1,3.1,0,0,0-.2-.8l-.9-.2Z"/><path class="cls-14" d="M36.9,59.4h-1l-.3.4v3.3H34.3v-5h1.2v.8c0-.2.2-.4.4-.6l.7-.2h.3Z"/><path class="cls-14" d="M37.3,60.7a2.6,2.6,0,0,1,.6-1.8,2.5,2.5,0,0,1,3.5,0,3.2,3.2,0,0,1,.6,1.8h0a2.6,2.6,0,0,1-.6,1.8,1.9,1.9,0,0,1-1.7.7,1.8,1.8,0,0,1-1.8-.7A1.9,1.9,0,0,1,37.3,60.7Zm1.3.1a2,2,0,0,0,.3,1.1c.1.3.4.4.8.4a.6.6,0,0,0,.7-.4,2,2,0,0,0,.3-1.1h0a2.6,2.6,0,0,0-.3-1.1c-.1-.3-.4-.4-.8-.4a.8.8,0,0,0-.7.4A2.6,2.6,0,0,0,38.6,60.8Z"/><path class="cls-14" d="M47.2,61.4h0l.6-3.2h1.3l-1.2,5H46.7l-.9-2.8h0l-.9,2.8H43.7l-1.2-5h1.3l.6,3.2h0l1-3.2h.9Z"/><path class="cls-14" d="M51,58.2V59a1.7,1.7,0,0,1,.6-.6l.8-.2a2.5,2.5,0,0,1,1.2.4,3.2,3.2,0,0,1,.4,1.6v3H52.8v-3a3.1,3.1,0,0,0-.2-.8l-.6-.2h-.5l-.4.3v3.6H49.8v-5Z"/><path class="cls-14" d="M58.8,61.5a.9.9,0,0,0-.3-.6l-1-.5a3.8,3.8,0,0,1-1.7-.8,1.5,1.5,0,0,1-.6-1.3,2,2,0,0,1,.6-1.4,3.5,3.5,0,0,1,1.8-.5,3,3,0,0,1,1.8.6,2.2,2.2,0,0,1,.6,1.5H58.7a1.6,1.6,0,0,0-.3-.8l-.8-.2c-.4,0-.6,0-.8.2a.8.8,0,0,0-.3,1l.3.2,1,.4a5.6,5.6,0,0,1,1.7.9,1.8,1.8,0,0,1,.6,1.3,1.4,1.4,0,0,1-.7,1.3,2.2,2.2,0,0,1-1.7.5,2.5,2.5,0,0,1-1.9-.5,1.8,1.8,0,0,1-.8-1.6h1.3c0,.4.1.7.4.8a1,1,0,0,0,1,.3.8.8,0,0,0,.8-.2A.6.6,0,0,0,58.8,61.5Z"/><path class="cls-14" d="M65.5,60.9a3.5,3.5,0,0,1-.5,1.8,1.4,1.4,0,0,1-1.4.6h-.7l-.6-.4v2.4H61v-7h1.2v.6l.5-.5h.8a1.9,1.9,0,0,1,1.4.7,4.5,4.5,0,0,1,.5,1.9Zm-1.3-.1a2.7,2.7,0,0,0-.3-1.2,1,1,0,0,0-.7-.4h-.5l-.4.4v2.3l.4.3h.5a.6.6,0,0,0,.7-.4A1.5,1.5,0,0,0,64.2,60.8Z"/><path class="cls-14" d="M66.1,60.7a2.2,2.2,0,0,1,.7-1.8,2.5,2.5,0,0,1,3.4,0h0a3.1,3.1,0,0,1,.7,1.8h0a2.7,2.7,0,0,1-.7,1.8,2.4,2.4,0,0,1-3.4.1h0A2,2,0,0,1,66.1,60.7Zm1.4.1a3.6,3.6,0,0,0,.2,1.1.7.7,0,0,0,.8.4.7.7,0,0,0,.8-.4,3.6,3.6,0,0,0,.2-1.1h0a5.2,5.2,0,0,0-.2-1.1,1.2,1.2,0,0,0-.8-.4,1,1,0,0,0-.8.4A5.2,5.2,0,0,0,67.5,60.8Z"/><path class="cls-14" d="M73.3,57v1.2h.8v1h-.8v2.5a.7.7,0,0,0,.1.5h.7v1h-.7a1.1,1.1,0,0,1-1.1-.3,2.5,2.5,0,0,1-.3-1.3V59.2h-.8v-1H72V57Z"/><path class="cls-14" d="M47.3,121.2H45.9v-2.8H43.2v2.8H41.9v-6.7h1.3v2.9h2.7v-2.9h1.4Z"/><path class="cls-14" d="M50.6,121.3a2.4,2.4,0,0,1-2.4-2.4h0v-.2a3.5,3.5,0,0,1,.6-1.9,2.4,2.4,0,0,1,1.7-.7,2.3,2.3,0,0,1,1.6.6,3.7,3.7,0,0,1,.5,1.7v.7h-3a1.2,1.2,0,0,0,.3.9.7.7,0,0,0,.8.3h.8l.7-.3.3.8-.8.4A1.4,1.4,0,0,1,50.6,121.3Zm-.1-4.1-.6.2a1.6,1.6,0,0,0-.3.8h1.7a2.5,2.5,0,0,0-.2-.7C51,117.2,50.8,117.2,50.5,117.2Z"/><path class="cls-14" d="M56.3,121.2v-.3c0-.2-.1-.3-.1-.4l-.5.6-.8.2c-.6,0-1-.1-1.2-.4a1.3,1.3,0,0,1-.5-1.1c-.1-.4.2-.8.6-1.1a2.9,2.9,0,0,1,1.6-.4h.8v-.4a.8.8,0,0,0-.6-.8h-.2l-.5.2c-.1.1-.1.2-.1.4H53.4a1.1,1.1,0,0,1,.5-1.1,2.7,2.7,0,0,1,3,0,1.8,1.8,0,0,1,.6,1.3v2.7a.8.8,0,0,0,.2.6Zm-1.2-.9c.2.1.4,0,.6-.2l.4-.4V119h-.8l-.6.2a.7.7,0,0,0-.2.6c0,.2,0,.3.1.4Z"/><path class="cls-14" d="M59.9,121.2H58.5V114h1.4Z"/><path class="cls-14" d="M62.6,115v1.2h.9v1h-.9v2.5c0,.2,0,.3.1.4h.7v1h-.8a1.2,1.2,0,0,1-1.1-.4,1.2,1.2,0,0,1-.3-1.2V117h-.8v-1h.8v-1.2Z"/><path class="cls-14" d="M65.6,116.8l.6-.5.7-.2a2.1,2.1,0,0,1,1.3.5,3.2,3.2,0,0,1,.4,1.6v3H67.3v-3a3.1,3.1,0,0,0-.2-.8l-.6-.2H66c-.2,0-.3.1-.4.3v3.6H64.3v-7.2h1.3Z"/><path class="cls-14" d="M71.4,119.1v.3h0l1-3.2h1.4l-2,5.8a3.5,3.5,0,0,1-.6.9,1.1,1.1,0,0,1-1.1.3h-.7l.2-1h.3l.5-.2c.1,0,.2-.2.2-.4l.2-.4-1.8-5h1.5Z"/><path class="cls-14" d="M54.7,179.2H53.4v-2.8H50.6v2.8H49.3v-6.7h1.3v2.8h2.8v-2.8h1.3Z"/><path class="cls-14" d="M57.3,173H55.9v-1h1.4Zm0,6.2H55.9v-5h1.4Z"/><path class="cls-14" d="M61.1,177.8a.8.8,0,0,0-.2-.4l-.8-.3a2.1,2.1,0,0,1-1.3-.5.8.8,0,0,1-.5-1,1.6,1.6,0,0,1,.5-1.1,3.2,3.2,0,0,1,3,0,1.6,1.6,0,0,1,.6,1.2H61a1.1,1.1,0,0,0-.1-.5l-.6-.2-.5.2-.2.4a.5.5,0,0,0,.2.4l.8.2a3.5,3.5,0,0,1,1.4.6,1.2,1.2,0,0,1,.4.9,1.1,1.1,0,0,1-.6,1.1,2.1,2.1,0,0,1-1.5.5,1.8,1.8,0,0,1-1.6-.5,1.7,1.7,0,0,1-.5-1.2h1.2a.6.6,0,0,0,.3.6l.6.2.6-.2C61,178.2,61.1,178,61.1,177.8Z"/><path class="cls-14" d="M67.8,176.8a3.5,3.5,0,0,1-.5,1.8,1.6,1.6,0,0,1-1.5.7l-.7-.2-.5-.4v2.4H63.3v-6.9h1.2v.6c.1-.2.3-.3.5-.5l.7-.2a2.1,2.1,0,0,1,1.5.7,4.5,4.5,0,0,1,.5,1.9Zm-1.4-.1a2.3,2.3,0,0,0-.2-1.1c-.2-.3-.4-.5-.7-.5l-.5.2c-.2,0-.3.2-.4.3v2.2c.1.1.2.3.4.3h.5c.3.1.5,0,.7-.3a2,2,0,0,0,.2-1.1Z"/><path class="cls-14" d="M71.6,179.2l-.2-.4v-.4l-.6.6a.7.7,0,0,1-.8.3,1.7,1.7,0,0,1-1.2-.4,1.2,1.2,0,0,1-.4-1.1,2.1,2.1,0,0,1,.5-1.2l1.7-.4h.7v-.4c0-.2,0-.4-.2-.5l-.5-.2h-.5l-.2.5H68.6a1.6,1.6,0,0,1,.5-1.1,2.9,2.9,0,0,1,1.6-.4,2.3,2.3,0,0,1,1.4.4,1.8,1.8,0,0,1,.6,1.3v2.8l.2.6Zm-1.3-.9.7-.2.3-.4V177h-.7l-.7.2-.2.5c0,.2.1.4.2.4Z"/><path class="cls-14" d="M34,236.1h3v1H32.6v-6.7H34Z"/><path class="cls-14" d="M39.9,237.2a1.9,1.9,0,0,1-1.7-.6,2.8,2.8,0,0,1-.6-1.8v-.2a2.6,2.6,0,0,1,.6-1.8,1.6,1.6,0,0,1,1.6-.7,2.3,2.3,0,0,1,1.6.6,2.5,2.5,0,0,1,.5,1.6v.7h-3l.3.8a.8.8,0,0,0,.9.3h.7c.2.1.5-.1.7-.3l.4.9-.8.4Zm-.1-4.1-.6.3a2.5,2.5,0,0,0-.2.7h1.6a.7.7,0,0,0-.5-.8h-.3Z"/><path class="cls-14" d="M45.7,237.1l-.2-.3v-.4l-.6.6a.8.8,0,0,1-.8.2,1.3,1.3,0,0,1-1.2-.4,1,1,0,0,1-.4-1.1,1.6,1.6,0,0,1,.5-1.1,3.3,3.3,0,0,1,1.7-.4h.7v-.4a1.3,1.3,0,0,0-.1-.6l-.6-.2-.5.2-.2.4H42.7a1.6,1.6,0,0,1,.5-1.1,2.9,2.9,0,0,1,1.6-.4,2.3,2.3,0,0,1,1.4.4,1.8,1.8,0,0,1,.6,1.3v2.7c.1.2.1.4.2.6Zm-1.3-.9h.7l.3-.4v-.7h-.7l-.7.2a1.7,1.7,0,0,0-.2.5c0,.2.1.4.2.4Z"/><path class="cls-14" d="M48.2,237.1v-4h-.8v-1h.8v-.5a1.7,1.7,0,0,1,.4-1.3,2.4,2.4,0,0,1,1.4-.5h.7v1h-.4l-.5.2-.2.5v.5h1v1h-1v4Z"/><path class="cls-14" d="M51.2,237.1v-6.7h2.2a4.1,4.1,0,0,1,1.9.5,2,2,0,0,1,.6,1.4,1.9,1.9,0,0,1-.2.8,1.2,1.2,0,0,1-.7.5,1.8,1.8,0,0,1,.9.6,2,2,0,0,1-.3,2.4,2,2,0,0,1-1.8.5Zm1.4-3.9h.9a.8.8,0,0,0,.8-.2.6.6,0,0,0,.3-.6,1.1,1.1,0,0,0-.3-.7c-.2-.2-.5-.2-.9-.2h-.8Zm0,1v1.9h1.2l.8-.2a.8.8,0,0,0,.3-.7,1.6,1.6,0,0,0-.3-.8l-.8-.2Z"/><path class="cls-14" d="M58.5,237.1H57.2v-7.2h1.3Z"/><path class="cls-14" d="M62.6,237.1v-.3c-.1-.1-.1-.2-.1-.4l-.5.6a1,1,0,0,1-.9.2,1.3,1.3,0,0,1-1.2-.4,1.5,1.5,0,0,1,.1-2.1h.1a2.9,2.9,0,0,1,1.6-.4h.7v-.4a1.4,1.4,0,0,0-.2-.6l-.6-.2-.5.2-.2.4H59.6a1.4,1.4,0,0,1,.6-1.1,3.2,3.2,0,0,1,3,0,2.4,2.4,0,0,1,.5,1.3v2.1c0,.3,0,.5.1.6a.8.8,0,0,0,.2.6Zm-1.2-.9H62l.4-.4v-.7h-.8c-.3,0-.5,0-.6.2s-.2.3-.2.5,0,.3.1.4Z"/><path class="cls-14" d="M67.4,235.8c0-.2,0-.3-.2-.4l-.8-.3a2.1,2.1,0,0,1-1.3-.5,1.2,1.2,0,0,1-.2-1.8l.3-.3a3.3,3.3,0,0,1,1.4-.4,3.2,3.2,0,0,1,1.6.4,1.6,1.6,0,0,1,.5,1.1H67.4l-.2-.5c-.1-.2-.3-.2-.6-.2h-.5l-.2.4c0,.2.1.4.2.4l.8.3,1.4.5a1.6,1.6,0,0,1,.5,1,1.1,1.1,0,0,1-.6,1.1,2,2,0,0,1-1.6.4,1.7,1.7,0,0,1-1.5-.5,1.1,1.1,0,0,1-.6-1.1h1.3a.8.8,0,0,0,.2.5.6.6,0,0,0,.7.2h.5C67.3,236.1,67.4,236,67.4,235.8Z"/><path class="cls-14" d="M71.2,230.9v1.2h.9v1h-.9v2.5a.8.8,0,0,0,.2.5H72l.2,1h-.9a1,1,0,0,1-1-.3,1.5,1.5,0,0,1-.4-1.3V233h-.7v-1h.7v-1.1Z"/><path class="cls-14" d="M18.1,165.3v1.9h5.8v1.6H18.1v1.9H16.8v-5.4Z"/><path class="cls-14" d="M20,162.2v.5a.7.7,0,0,0,.1.5l.3.3h3.5v1.6H18.6v-1.5h.8l-.6-.4a.8.8,0,0,1-.3-.7v-.4Z"/><path class="cls-14" d="M23.1,158.4l.7.6a2.9,2.9,0,0,1,.2.9,1.5,1.5,0,0,1-.6,1.3,2.4,2.4,0,0,1-1.8.4h-3V160h3.9c.1-.2.2-.3.2-.5v-.6l-.3-.3H18.6v-1.7h5.3v1.3Z"/><path class="cls-14" d="M24,153.7a3.2,3.2,0,0,1-.7,1.9,2.3,2.3,0,0,1-1.9.6h-.1a2.5,2.5,0,0,1-2-.6,2.1,2.1,0,0,1-.8-1.8,2.3,2.3,0,0,1,.7-1.7,2.7,2.7,0,0,1,1.7-.6h.9v3h0l.7-.4a1.4,1.4,0,0,0,.2-.7,2.5,2.5,0,0,0-.1-.8,2.5,2.5,0,0,0-.2-.7l1-.4a3.6,3.6,0,0,1,.4.9A6.9,6.9,0,0,1,24,153.7Zm-4.2.1c0,.3.1.5.3.5s.3.2.6.3h.1v-1.5h-.2l-.6.2a.6.6,0,0,0-.2.5Z"/><path class="cls-14" d="M21.5,142.9h0a3.1,3.1,0,0,1,1.9.6,3.6,3.6,0,0,1,.6,2,3,3,0,0,1-.8,2.1,2.5,2.5,0,0,1-2.1.8H19.6a2.7,2.7,0,0,1-2.1-.7,3,3,0,0,1-.8-2.1,2.6,2.6,0,0,1,.7-2,2.3,2.3,0,0,1,1.8-.8h0v1.6c-.4,0-.7,0-.9.2a1.6,1.6,0,0,0-.3.9.8.8,0,0,0,.4.9,1.3,1.3,0,0,0,1.2.3h1.5a1.4,1.4,0,0,0,1.2-.3,1.2,1.2,0,0,0,.4-1,1.6,1.6,0,0,0-.3-.8c-.1-.2-.5-.2-.9-.2Z"/><path class="cls-14" d="M23.9,140.3V142H16.3v-1.7Z"/><path class="cls-14" d="M23.9,136.3l-.4.2h-.4l.6.5a1.6,1.6,0,0,1,.3.8,1.8,1.8,0,0,1-.4,1.3,1.4,1.4,0,0,1-1.2.4,1.1,1.1,0,0,1-1.2-.5,2.7,2.7,0,0,1-.4-1.8v-.7h-.4l-.5.2a.6.6,0,0,0-.2.5c0,.2.1.3.1.4h.5v1.6h-.1a1.2,1.2,0,0,1-1.2-.6,2.8,2.8,0,0,1-.5-1.6,2.5,2.5,0,0,1,.5-1.6,2.2,2.2,0,0,1,1.4-.6h2.8l.7-.2Zm-1.1,1.2a1.3,1.3,0,0,0-.1-.6l-.4-.3h-.6v.7a.7.7,0,0,0,.1.5.4.4,0,0,0,.5.2h.4A.7.7,0,0,0,22.8,137.5Z"/><path class="cls-14" d="M22.4,131.3l-.3.3a1.6,1.6,0,0,0-.3.8,3,3,0,0,1-.6,1.4,1,1,0,0,1-1,.4,1.2,1.2,0,0,1-1.2-.6,2.5,2.5,0,0,1-.5-1.5,2.6,2.6,0,0,1,.5-1.7,1.7,1.7,0,0,1,1.2-.6h.1v1.6l-.5.2a.6.6,0,0,0-.2.5.5.5,0,0,0,.2.4l.3.2a.4.4,0,0,0,.4-.2,1.9,1.9,0,0,0,.2-.8,4.7,4.7,0,0,1,.6-1.5,1.5,1.5,0,0,1,1.1-.4,2.4,2.4,0,0,1,1.1.6,3.4,3.4,0,0,1,.5,1.7,2.4,2.4,0,0,1-.6,1.7.9.9,0,0,1-1.2.5h0v-1.4c.3-.1.4-.1.5-.3a.8.8,0,0,0,.2-.6,1.1,1.1,0,0,0-.1-.5Z"/><path class="cls-14" d="M22.4,126.3c-.1,0-.2,0-.3.2a1.6,1.6,0,0,0-.3.8,2.6,2.6,0,0,1-.6,1.4,1,1,0,0,1-1,.4,1.3,1.3,0,0,1-1.2-.5,2.8,2.8,0,0,1-.5-1.6,2.6,2.6,0,0,1,.5-1.7,1.7,1.7,0,0,1,1.2-.6h.1v1.6l-.5.2-.2.5c0,.2.1.4.2.4l.3.2a.4.4,0,0,0,.4-.2,1.9,1.9,0,0,0,.2-.8,4.2,4.2,0,0,1,.6-1.4,1.4,1.4,0,0,1,1.1-.5,2.4,2.4,0,0,1,1.1.6A3.4,3.4,0,0,1,24,127a2.4,2.4,0,0,1-.6,1.7,1.2,1.2,0,0,1-1.2.6h0v-1.5a.4.4,0,0,0,.5-.2,1.4,1.4,0,0,0,.2-.7,1.1,1.1,0,0,0-.1-.5Z"/><path class="cls-15" d="M106.9,61.9h2v2.7h-2v3.8h-3.4V64.6H96.4V62.5l7-11.4h3.5Zm-7.5,0h4.1V55.6h-.1l-.4.8Z"/><path class="cls-15" d="M122.4,62.1a7.3,7.3,0,0,1-1.6,4.8,5.5,5.5,0,0,1-4.3,1.7,5.2,5.2,0,0,1-4.2-1.7,6.8,6.8,0,0,1-1.6-4.8V57.3a6.3,6.3,0,0,1,1.6-4.7,5.4,5.4,0,0,1,4.2-1.8,5.8,5.8,0,0,1,4.3,1.8,6.9,6.9,0,0,1,1.6,4.7ZM118.9,57a5.8,5.8,0,0,0-.6-2.6,2.1,2.1,0,0,0-1.8-.9,2.2,2.2,0,0,0-1.7.9,4.1,4.1,0,0,0-.7,2.6v5.4a3.3,3.3,0,0,0,.7,2.6,1.6,1.6,0,0,0,1.7,1,1.8,1.8,0,0,0,1.8-1,4.4,4.4,0,0,0,.6-2.6Z"/><path d="M181.2,58.2a2.1,2.1,0,0,0,1.8-.6,3.1,3.1,0,0,0,.6-1.9,2.1,2.1,0,0,0-2-2.2h-.4a2.8,2.8,0,0,0-1.6.6,2.2,2.2,0,0,0-.6,1.5h-3.4a3.9,3.9,0,0,1,1.6-3.4,6.8,6.8,0,0,1,4-1.3,7.3,7.3,0,0,1,4.3,1.3,4.5,4.5,0,0,1,.9,5.7,4.8,4.8,0,0,1-1.9,1.6,4.1,4.1,0,0,1,2.8,4,4.6,4.6,0,0,1-1.7,3.8,6.4,6.4,0,0,1-4.4,1.3,6.1,6.1,0,0,1-4.1-1.3,3.6,3.6,0,0,1-1.7-3.6h3.4a1.8,1.8,0,0,0,.7,1.6,1.8,1.8,0,0,0,1.7.7,2.3,2.3,0,0,0,1.9-.7,2.3,2.3,0,0,0,.8-1.8,2.4,2.4,0,0,0-2.7-2.7h-1.9V58.2Z"/><path class="cls-15" d="M177.9,119.9h2v2.7h-2v3.7h-3.5v-3.7h-7l-.2-2.1,7.2-11.5h3.5Zm-7.5,0h4v-6.3h0l-.4.8Z"/><path class="cls-15" d="M190,126.3h-3.5V112H183v-2.6l7-.6Z"/><path d="M252.2,108.8l1.9.2,1.7.5-.6,2.5-1.5-.4h-1.5a3,3,0,0,0-2.4,1.2,4.2,4.2,0,0,0-1,3.2v.6a7.1,7.1,0,0,1,1.7-1.1l2.1-.4a4.8,4.8,0,0,1,3.5,1.6,7.5,7.5,0,0,1,1.2,4.1,5.6,5.6,0,0,1-1.6,4.3,5.7,5.7,0,0,1-4.2,1.6,5.3,5.3,0,0,1-4.4-1.9,6.8,6.8,0,0,1-1.7-5v-3.7a7.2,7.2,0,0,1,1.9-5.2A6.7,6.7,0,0,1,252.2,108.8Zm-.7,8.9a4.1,4.1,0,0,0-1.6.3l-1.1.8v.9a4.8,4.8,0,0,0,.8,3.1,2,2,0,0,0,1.9,1.1,1.8,1.8,0,0,0,1.7-.9,4.2,4.2,0,0,0,.7-2.3,3.8,3.8,0,0,0-.7-2.2A2.1,2.1,0,0,0,251.5,117.7Z"/><path d="M250.4,184.3H238.7V182l5.4-6a14.6,14.6,0,0,0,1.7-2.4,4.8,4.8,0,0,0,.5-1.8,3.4,3.4,0,0,0-.5-1.7,2.3,2.3,0,0,0-3.4.1,4.2,4.2,0,0,0-.6,2.1h-3.4a5.8,5.8,0,0,1,1.5-3.9,6.6,6.6,0,0,1,8.4-.2,4.9,4.9,0,0,1,1.5,3.7,5.4,5.4,0,0,1-.8,2.8,35.1,35.1,0,0,1-2.9,3.6l-2.8,3.4h7.1Z"/><path d="M253,176.7l1-9.7h9.6v2.8h-6.8l-.5,4,1.3-.6,1.6-.2a4.3,4.3,0,0,1,3.7,1.5,6.4,6.4,0,0,1,1.3,4.2,6.6,6.6,0,0,1-1.4,4.2,5.3,5.3,0,0,1-4.4,1.6,6,6,0,0,1-4.1-1.2,3.9,3.9,0,0,1-1.6-3.5H256a1.8,1.8,0,0,0,.7,1.7,2.6,2.6,0,0,0,3.5-.2,4.1,4.1,0,0,0,.6-2.3,5.5,5.5,0,0,0-.7-2.4,2.1,2.1,0,0,0-1.8-.9,2.6,2.6,0,0,0-1.5.4,1.9,1.9,0,0,0-.8,1Z"/><path class="cls-15" d="M317.7,238.2h1.9v2.7h-1.9v3.7h-3.5v-3.7h-7l-.2-2.1,7.2-11.5h3.5Zm-7.6,0h4.1v-6.3h-.1l-.3.7Z"/><path class="cls-15" d="M331.6,238.2h2v2.7h-2v3.7h-3.4v-3.7h-7.1l-.2-2.1,7.2-11.5h3.5Zm-7.5,0h4.1v-6.3h-.1l-.4.7Z"/><path d="M116.1,120.1a6.6,6.6,0,0,1-1.6,4.7,5.2,5.2,0,0,1-4.3,1.8,4.9,4.9,0,0,1-4.2-1.8,6.1,6.1,0,0,1-1.7-4.7v-4.8a7.1,7.1,0,0,1,1.6-4.8,6.1,6.1,0,0,1,4.3-1.7,5.9,5.9,0,0,1,4.2,1.7,7.8,7.8,0,0,1,1.7,4.8Zm-3.5-5.2a5.7,5.7,0,0,0-.6-2.5,2.8,2.8,0,0,0-1.8-.9,2.1,2.1,0,0,0-1.8.9,3.9,3.9,0,0,0-.6,2.5v5.5a3.8,3.8,0,0,0,.6,2.6,1.9,1.9,0,0,0,1.8.9,1.7,1.7,0,0,0,1.8-.9,5.3,5.3,0,0,0,.6-2.6Z"/><path d="M117.2,178a6.8,6.8,0,0,1-1.6,4.8,5.1,5.1,0,0,1-4.3,1.7,4.8,4.8,0,0,1-4.2-1.7,6,6,0,0,1-1.6-4.8v-4.7a6.7,6.7,0,0,1,1.6-4.8,5.8,5.8,0,0,1,8.2-.2l.2.2a6.8,6.8,0,0,1,1.7,4.8Zm-3.5-5.1a5.8,5.8,0,0,0-.6-2.6,2.3,2.3,0,0,0-3.1-.5c-.2.2-.4.3-.5.5a4,4,0,0,0-.6,2.6v5.5a3.8,3.8,0,0,0,.6,2.6,2.1,2.1,0,0,0,1.8.9,1.7,1.7,0,0,0,1.8-.9,5.3,5.3,0,0,0,.6-2.6Z"/><path d="M112.9,244.5h-3.4V230.3h-3.6v-2.7l7-.6Z"/><path d="M175.9,184.3h-3.5V170h-3.6v-2.6l7.1-.7Z"/><path d="M182,176.7l1-9.7h9.7v2.8h-6.9l-.4,4,1.2-.6,1.6-.2a4.3,4.3,0,0,1,3.7,1.5,6,6,0,0,1,1.4,4.2,6.2,6.2,0,0,1-1.5,4.2c-.9,1.1-2.4,1.6-4.4,1.6a6,6,0,0,1-4.1-1.2,3.9,3.9,0,0,1-1.6-3.5h3.4a2.4,2.4,0,0,0,.6,1.7,1.9,1.9,0,0,0,1.7.6,1.8,1.8,0,0,0,1.8-.8,4.1,4.1,0,0,0,.6-2.3,5.3,5.3,0,0,0-.6-2.4,2.3,2.3,0,0,0-1.9-.9,3.7,3.7,0,0,0-1.5.4,1.7,1.7,0,0,0-.7,1Z"/><path d="M187.5,244.5H175.8v-2.2l5.4-6.1a10.4,10.4,0,0,0,1.7-2.4,3.5,3.5,0,0,0,.5-1.8,3.4,3.4,0,0,0-.5-1.7,2.3,2.3,0,0,0-1.6-.6,2.3,2.3,0,0,0-1.8.8,3.4,3.4,0,0,0-.6,2.1h-3.4a5.8,5.8,0,0,1,1.5-3.9,6.9,6.9,0,0,1,8.4-.3,5.3,5.3,0,0,1,1.5,3.7,5.4,5.4,0,0,1-.8,2.8,35.1,35.1,0,0,1-2.9,3.6l-2.8,3.4h7.1Z"/><path d="M257.2,62.1a7.3,7.3,0,0,1-1.6,4.8,5.5,5.5,0,0,1-4.3,1.7,5.2,5.2,0,0,1-4.2-1.7,6.8,6.8,0,0,1-1.6-4.8V57.3a6.3,6.3,0,0,1,1.6-4.7,5.4,5.4,0,0,1,4.2-1.8,5.8,5.8,0,0,1,4.3,1.8,6.9,6.9,0,0,1,1.6,4.7ZM253.7,57a5.8,5.8,0,0,0-.6-2.6,2.1,2.1,0,0,0-1.8-.9,2.4,2.4,0,0,0-1.8.9,4,4,0,0,0-.6,2.6v5.4a3.3,3.3,0,0,0,.7,2.6,1.6,1.6,0,0,0,1.7,1,1.8,1.8,0,0,0,1.8-1,4.4,4.4,0,0,0,.6-2.6Z"/><path d="M246,237l1-9.7h9.6v2.8h-6.8l-.5,4,1.3-.6,1.6-.2a5.1,5.1,0,0,1,3.7,1.5,6.8,6.8,0,0,1,1.3,4.3,5.6,5.6,0,0,1-1.4,4.1,5.4,5.4,0,0,1-4.4,1.7,6.1,6.1,0,0,1-4.1-1.3,3.6,3.6,0,0,1-1.6-3.5h0l3.3-.2a2.1,2.1,0,0,0,.7,1.7,2.6,2.6,0,0,0,3.5-.2,4.1,4.1,0,0,0,.6-2.3,5.3,5.3,0,0,0-.6-2.4,2.8,2.8,0,0,0-1.9-.9,2.6,2.6,0,0,0-1.5.4,1.9,1.9,0,0,0-.8,1Z"/><path d="M316.7,186.6h-3.5V172.4h-3.5v-2.7l7-.6Z"/><path d="M334.2,186.6H322.6v-2.2l5.3-6.1a10.4,10.4,0,0,0,1.7-2.4,2.8,2.8,0,0,0,.6-1.8,2.7,2.7,0,0,0-.6-1.7,2.3,2.3,0,0,0-1.6-.6,2.1,2.1,0,0,0-1.7.8,3.3,3.3,0,0,0-.7,2.1h-3.3a5,5,0,0,1,1.5-3.9,5.4,5.4,0,0,1,4.2-1.6,5.6,5.6,0,0,1,4.1,1.4,5.1,5.1,0,0,1,1.5,3.6,5.5,5.5,0,0,1-.8,2.9,33.7,33.7,0,0,1-2.9,3.5l-2.8,3.4h7.1Z"/><path d="M315.9,118.7l1-9.7h9.6v2.8h-6.8l-.5,4,1.3-.5a4.1,4.1,0,0,1,1.6-.3,5.1,5.1,0,0,1,3.7,1.5,6.8,6.8,0,0,1,1.3,4.3,6.6,6.6,0,0,1-1.4,4.2,7,7,0,0,1-8.5.3,3.6,3.6,0,0,1-1.6-3.5h0l3.3-.2a1.8,1.8,0,0,0,.7,1.7,2.6,2.6,0,0,0,3.5-.2,3.6,3.6,0,0,0,.5-2.3,5.3,5.3,0,0,0-.6-2.4,2.1,2.1,0,0,0-1.8-.9,3.7,3.7,0,0,0-1.5.4,3.5,3.5,0,0,0-.8,1Z"/><path d="M320.5,66a2.5,2.5,0,0,0,2.1-1,4.2,4.2,0,0,0,.9-2.7V61.2a3.6,3.6,0,0,1-1.4,1.1,3.5,3.5,0,0,1-1.7.4,4.2,4.2,0,0,1-3.8-1.6,6,6,0,0,1-1.4-4.3,6.4,6.4,0,0,1,1.6-4.3,5.9,5.9,0,0,1,4.2-1.7,6.2,6.2,0,0,1,4.3,1.8,7.1,7.1,0,0,1,1.6,4.8v4.7a5.9,5.9,0,0,1-5.5,6.5,1.4,1.4,0,0,1-.9,0l-1.8-.2-1.8-.5.6-2.5,1.4.4Zm.4-5.9a3,3,0,0,0,2.6-1.2V56.8a4.4,4.4,0,0,0-.7-2.4,2.4,2.4,0,0,0-1.8-.9,1.9,1.9,0,0,0-1.7,1,4.6,4.6,0,0,0-.6,2.3,3.9,3.9,0,0,0,.6,2.4A1.5,1.5,0,0,0,320.9,60.1Z"/><path class="cls-14" d="M185.9,24h-2.3V14h2.3Z"/><path class="cls-14" d="M189.7,16.5v1.1a2.6,2.6,0,0,1,.9-.9,2.4,2.4,0,0,1,2.9.5,3.8,3.8,0,0,1,.6,2.3V24h-2.3V19.5a4.4,4.4,0,0,0-.2-1l-.7-.3h-.7l-.5.4v5.3h-2.3V16.5Z"/><path class="cls-14" d="M198.7,22.4c.3.1.5,0,.7-.3a.8.8,0,0,0,.3-.7h2.1a2.8,2.8,0,0,1-.8,2,3,3,0,0,1-2.3.8,2.9,2.9,0,0,1-2.6-1.1,3.8,3.8,0,0,1-1-2.7v-.2a4.1,4.1,0,0,1,1-2.7,3.5,3.5,0,0,1,2.6-1.1,4,4,0,0,1,2.3.8,3.5,3.5,0,0,1,.8,2.2h-2.1a1.6,1.6,0,0,0-.3-.9.9.9,0,0,0-.7-.3,1.3,1.3,0,0,0-1,.6,3.6,3.6,0,0,0-.2,1.4v.2a6.1,6.1,0,0,0,.2,1.5A.9.9,0,0,0,198.7,22.4Z"/><path class="cls-14" d="M206.1,24.2a3.4,3.4,0,0,1-2.7-1,3.7,3.7,0,0,1-.9-2.7v-.2a3.7,3.7,0,0,1,.9-2.8,3.5,3.5,0,0,1,2.6-1.1,3.6,3.6,0,0,1,2.4.9,4.6,4.6,0,0,1,.8,2.5V21h-4.3a1,1,0,0,0,.4.9,1.2,1.2,0,0,0,1.1.4h1.1l1.1-.4.5,1.5a2.4,2.4,0,0,1-1.3.5A2.6,2.6,0,0,1,206.1,24.2Zm-.1-6c-.4,0-.7.1-.8.4a1.6,1.6,0,0,0-.3.9h2a2.9,2.9,0,0,0-.2-.9.9.9,0,0,0-.7-.3Z"/><path class="cls-14" d="M217.1,20.5a5,5,0,0,1-.7,2.7,2.5,2.5,0,0,1-2.2,1l-.9-.2-.8-.6v3.5h-2.3V16.5h2.2v.9a1.6,1.6,0,0,1,.7-.7,1.7,1.7,0,0,1,1-.3,3,3,0,0,1,2.3,1.1,5.8,5.8,0,0,1,.7,2.8Zm-2.3-.2a4,4,0,0,0-.3-1.5,1.5,1.5,0,0,0-.9-.6l-.6.2a1,1,0,0,0-.5.4v3.1a.7.7,0,0,0,.5.4h.6a1,1,0,0,0,.9-.5,3.2,3.2,0,0,0,.3-1.4Z"/><path class="cls-14" d="M220.8,14.7v1.8H222v1.7h-1.2v3.4c0,.3,0,.5.2.6l.5.2h.5l.2,1.7-.7.2h-.6a2,2,0,0,1-1.8-.6,2.3,2.3,0,0,1-.6-2V18.2h-1V16.5h1V14.7Z"/><path class="cls-14" d="M225.6,14.8h-2.3V13.2h2.3Zm0,9.2h-2.3V16.5h2.3Z"/><path class="cls-14" d="M226.7,20.2a4.1,4.1,0,0,1,1-2.7,3.9,3.9,0,0,1,2.7-1.1,3.6,3.6,0,0,1,2.6,1.1,3.9,3.9,0,0,1,1,2.7v.2a3.8,3.8,0,0,1-1,2.7,3,3,0,0,1-2.6,1.1,3.2,3.2,0,0,1-2.7-1.1,3.8,3.8,0,0,1-1-2.7Zm2.4.2a3.2,3.2,0,0,0,.3,1.4,1.1,1.1,0,0,0,2,0,3.2,3.2,0,0,0,.3-1.4v-.2a3.9,3.9,0,0,0-.3-1.4,1.1,1.1,0,0,0-2,0,3.9,3.9,0,0,0-.3,1.4Z"/><path class="cls-14" d="M237.2,16.5v1.1a2.6,2.6,0,0,1,.9-.9,2.7,2.7,0,0,1,1.2-.3,2.3,2.3,0,0,1,1.7.8,3.8,3.8,0,0,1,.6,2.3V24h-2.2V19.5a4.4,4.4,0,0,0-.2-1l-.7-.3h-.7l-.5.4v5.3H235V16.5Z"/><path class="cls-14" d="M245.8,21l.2.7h0l.2-.8.9-4.5h2.5l-2.4,7.5h-2.4l-2.5-7.5h2.5Z"/><path class="cls-14" d="M253.7,18a.9.9,0,0,0,.9-.3,1.5,1.5,0,0,0,.4-1c0-.3-.2-.5-.4-.8a1.6,1.6,0,0,0-.9-.3,1.1,1.1,0,0,0-.8.3,1.1,1.1,0,0,0-.3.7h-2.3a2.3,2.3,0,0,1,1-1.9,4.1,4.1,0,0,1,2.4-.8,5,5,0,0,1,2.6.8,2.5,2.5,0,0,1,1,2.1,1.8,1.8,0,0,1-.4,1.3l-1.1.9a2.7,2.7,0,0,1,1.2.9,2.4,2.4,0,0,1,.5,1.4,2.7,2.7,0,0,1-1.1,2.2,3.9,3.9,0,0,1-2.7.8,3.3,3.3,0,0,1-2.5-.8,2.1,2.1,0,0,1-1-2.1h2.3a1.2,1.2,0,0,0,.3.9.8.8,0,0,0,.9.3,1,1,0,0,0,1-.4.9.9,0,0,0,.4-.8,1.5,1.5,0,0,0-.4-1.1,1.9,1.9,0,0,0-1-.3h-1.2V18Z"/></g></g></g></g></svg>