<svg xmlns="http://www.w3.org/2000/svg" xmlns:xlink="http://www.w3.org/1999/xlink" viewBox="0 0 592.5 320.9"><defs><style>.cls-1,.cls-3,.cls-6{fill:none;}.cls-2{fill:#fff;}.cls-3{stroke:#c1bfbf;stroke-width:1.32px;}.cls-3,.cls-6{stroke-linejoin:round;}.cls-4{fill:#4472c4;}.cls-5{clip-path:url(#clip-path);}.cls-6{stroke:#d9d9d9;stroke-width:1.44px;}.cls-7{fill:#87d6f9;}.cls-8{fill:#00b1ff;}.cls-9{fill:#007da8;}.cls-10{fill:#004c60;}.cls-11{fill:#e84c3d;}.cls-12{fill:#bf0900;}</style><clipPath id="clip-path"><rect class="cls-1" width="592.3" height="320.68"/></clipPath></defs><title>Memory Size</title><g id="Layer_2" data-name="Layer 2"><g id="Layer_1-2" data-name="Layer 1"><rect class="cls-2" x="0.7" y="0.7" width="591" height="319.43"/><path class="cls-3" d="M76.7,57.4H575M76.7,96.3H575M76.7,135.4H575M76.7,174.3H575m-498.3,39H575"/><path class="cls-4" d="M516.7,242.3h33.4v10.1H516.7Zm-82.9,5.1h33.1v5H433.8Zm-83.1-158h33.2v163H350.7Zm-83,88h33.2v75H267.7Zm-83,53.9h33.1v21.1H184.7Zm-83-156h33.2V252.4H101.7Z"/><line class="cls-3" x1="76.7" y1="252.4" x2="575" y2="252.4"/><path d="M64.1,252.6a4.6,4.6,0,0,1-.8,2.7,3.2,3.2,0,0,1-2.4.9,3.2,3.2,0,0,1-2.3-.9,4,4,0,0,1-.9-2.7v-2.8a4,4,0,0,1,.9-2.7,3,3,0,0,1,2.3-.9,3.2,3.2,0,0,1,2.4.9,4.6,4.6,0,0,1,.8,2.7Zm-1.6-3a2.5,2.5,0,0,0-.4-1.6,1.7,1.7,0,0,0-1.2-.5,1.3,1.3,0,0,0-1.1.5,2.5,2.5,0,0,0-.5,1.6v3.2a2.5,2.5,0,0,0,.5,1.6,1.3,1.3,0,0,0,1.1.5,1.7,1.7,0,0,0,1.2-.5,2.5,2.5,0,0,0,.4-1.6Z"/><path d="M51.1,212.8l.5-5.4h5.2v1.4H53l-.3,2.5.7-.4h.9a2.9,2.9,0,0,1,2.1.8,4,4,0,0,1,0,4.8,3.7,3.7,0,0,1-4.6.2,2.4,2.4,0,0,1-.9-2h1.6a1.2,1.2,0,0,0,.4,1.1,1.4,1.4,0,0,0,1.1.4,1.3,1.3,0,0,0,1.1-.5,2.2,2.2,0,0,0,.4-1.5,2.3,2.3,0,0,0-.4-1.4,1.5,1.5,0,0,0-1.2-.5l-1,.2-.4.6Z"/><path d="M65,213.7a3.6,3.6,0,0,1-.9,2.6,2.9,2.9,0,0,1-2.3,1,3,3,0,0,1-2.4-1,3.6,3.6,0,0,1-.9-2.6v-2.8a4,4,0,0,1,.9-2.7,3.3,3.3,0,0,1,2.3-1,3.3,3.3,0,0,1,2.4,1,4,4,0,0,1,.9,2.7Zm-1.7-3.1a2.4,2.4,0,0,0-.4-1.5,1.4,1.4,0,0,0-1.2-.6,1.3,1.3,0,0,0-1.1.6,2.4,2.4,0,0,0-.4,1.5v3.3a2.1,2.1,0,0,0,.4,1.5,1.4,1.4,0,0,0,1.2.6,1.1,1.1,0,0,0,1.1-.6,2.1,2.1,0,0,0,.4-1.5Z"/><path d="M48.2,178.1H46.5v-8.3H44.4v-1.3l3.8-.3Z"/><path d="M58.1,174.6a3.8,3.8,0,0,1-.9,2.7,3.3,3.3,0,0,1-2.3,1,3.3,3.3,0,0,1-2.4-1,4,4,0,0,1-.9-2.7v-2.8a3.6,3.6,0,0,1,.9-2.6,2.9,2.9,0,0,1,2.3-1,3,3,0,0,1,2.4,1,3.6,3.6,0,0,1,.9,2.6Zm-1.7-3a2.1,2.1,0,0,0-.4-1.5,1.4,1.4,0,0,0-1.2-.6,1.3,1.3,0,0,0-1.1.6,2.1,2.1,0,0,0-.4,1.5v3.3a2.4,2.4,0,0,0,.4,1.5,1.4,1.4,0,0,0,1.2.6,1.3,1.3,0,0,0,1.1-.6,2.4,2.4,0,0,0,.4-1.5Z"/><path d="M65.9,174.6a3.8,3.8,0,0,1-.9,2.7,3.1,3.1,0,0,1-2.3,1,3.3,3.3,0,0,1-2.4-1,4.6,4.6,0,0,1-.8-2.7v-2.8a4,4,0,0,1,.8-2.6,3,3,0,0,1,2.4-1,2.9,2.9,0,0,1,2.3,1,3.6,3.6,0,0,1,.9,2.6Zm-1.6-3a2.1,2.1,0,0,0-.5-1.5,1.1,1.1,0,0,0-1.1-.6,1.4,1.4,0,0,0-1.2.6,2.1,2.1,0,0,0-.4,1.5v3.3a2.4,2.4,0,0,0,.4,1.5,1.4,1.4,0,0,0,1.2.6,1.1,1.1,0,0,0,1.1-.6,2.5,2.5,0,0,0,.5-1.5Z"/><path d="M48.2,139.2H46.5v-8.3H44.4v-1.3l3.8-.3Z"/><path d="M52,134.9l.6-5.5h5.1v1.4H53.9l-.3,2.5.7-.3.9-.2a2.6,2.6,0,0,1,2.1.9,3.3,3.3,0,0,1,.8,2.4,3.6,3.6,0,0,1-.8,2.3,3.1,3.1,0,0,1-2.4.9,3.2,3.2,0,0,1-2.2-.7,2.2,2.2,0,0,1-.9-1.9h1.6a1.2,1.2,0,0,0,.4,1,1.4,1.4,0,0,0,1.1.4,1.3,1.3,0,0,0,1.2-.5,2.6,2.6,0,0,0,.3-1.4,2,2,0,0,0-.4-1.4,1.1,1.1,0,0,0-1.1-.6l-1,.2a1.8,1.8,0,0,0-.5.7Z"/><path d="M65.9,135.7a4,4,0,0,1-.9,2.7,3,3,0,0,1-2.3.9,3.2,3.2,0,0,1-2.4-.9,4.6,4.6,0,0,1-.8-2.7v-2.8a4.6,4.6,0,0,1,.8-2.7,3.2,3.2,0,0,1,2.4-.9,3.2,3.2,0,0,1,2.3.9,4,4,0,0,1,.9,2.7Zm-1.6-3a2.5,2.5,0,0,0-.5-1.6,1.3,1.3,0,0,0-1.1-.5,1.7,1.7,0,0,0-1.2.5,2.5,2.5,0,0,0-.4,1.6v3.2a2.5,2.5,0,0,0,.4,1.6,1.7,1.7,0,0,0,1.2.5,1.3,1.3,0,0,0,1.1-.5,2.5,2.5,0,0,0,.5-1.6Z"/><path d="M50.3,100.2H44V99l3.1-3.5a7.7,7.7,0,0,0,1-1.5,1.9,1.9,0,0,0,.3-1,1.4,1.4,0,0,0-.4-1.1,1.3,1.3,0,0,0-1-.4,1.3,1.3,0,0,0-1.1.5,2,2,0,0,0-.4,1.3H43.9a2.8,2.8,0,0,1,.8-2.1,3.2,3.2,0,0,1,2.3-.9,2.9,2.9,0,0,1,2.2.8,2.3,2.3,0,0,1,.8,2,2.8,2.8,0,0,1-.4,1.5l-1.5,2-2,2.3h4.2Z"/><path d="M58.1,96.7a3.6,3.6,0,0,1-.9,2.6,2.9,2.9,0,0,1-2.3,1,3,3,0,0,1-2.4-1,3.6,3.6,0,0,1-.9-2.6V93.9a4,4,0,0,1,.9-2.7,3.3,3.3,0,0,1,2.3-1,3.3,3.3,0,0,1,2.4,1,4,4,0,0,1,.9,2.7Zm-1.7-3.1a2.4,2.4,0,0,0-.4-1.5,1.4,1.4,0,0,0-1.2-.6,1.3,1.3,0,0,0-1.1.6,2.4,2.4,0,0,0-.4,1.5v3.3a2.1,2.1,0,0,0,.4,1.5,1.4,1.4,0,0,0,1.2.6,1.3,1.3,0,0,0,1.1-.6,2.1,2.1,0,0,0,.4-1.5Z"/><path d="M65.9,96.7a3.6,3.6,0,0,1-.9,2.6,2.8,2.8,0,0,1-2.3,1,3,3,0,0,1-2.4-1,4,4,0,0,1-.8-2.6V93.9a4.6,4.6,0,0,1,.8-2.7,3.3,3.3,0,0,1,2.4-1,3.3,3.3,0,0,1,2.3,1,4,4,0,0,1,.9,2.7Zm-1.6-3.1a2.5,2.5,0,0,0-.5-1.5,1.1,1.1,0,0,0-1.1-.6,1.4,1.4,0,0,0-1.2.6,2.4,2.4,0,0,0-.4,1.5v3.3a2.1,2.1,0,0,0,.4,1.5,1.4,1.4,0,0,0,1.2.6,1.1,1.1,0,0,0,1.1-.6,2.1,2.1,0,0,0,.5-1.5Z"/><path d="M50.3,61.1H44V60l3.1-3.5a7.7,7.7,0,0,0,1-1.5,2.3,2.3,0,0,0,.3-1.1,1.3,1.3,0,0,0-.4-1,1.1,1.1,0,0,0-1-.4,1.3,1.3,0,0,0-1.1.5,1.6,1.6,0,0,0-.4,1.2H43.9a2.8,2.8,0,0,1,.8-2.1,3.2,3.2,0,0,1,2.3-.9,2.9,2.9,0,0,1,2.2.8,2.2,2.2,0,0,1,.8,1.9,2.9,2.9,0,0,1-.4,1.6,14.9,14.9,0,0,1-1.5,1.9l-2,2.4h4.2Z"/><path d="M52,56.8l.6-5.5h5.1v1.5H53.9l-.3,2.4.7-.3h.9a2.3,2.3,0,0,1,2.1.8,4,4,0,0,1,0,4.8,3.1,3.1,0,0,1-2.4.9,3.8,3.8,0,0,1-2.2-.7,2.4,2.4,0,0,1-.9-2h1.6a1.4,1.4,0,0,0,.4,1.1,1.8,1.8,0,0,0,1.1.4,1.7,1.7,0,0,0,1.2-.5,3.3,3.3,0,0,0,.3-1.5,2.1,2.1,0,0,0-.4-1.4c-.2-.4-.6-.5-1.1-.5s-.8,0-1,.2a1,1,0,0,0-.5.6Z"/><path d="M65.9,57.6a3.8,3.8,0,0,1-.9,2.7,3.1,3.1,0,0,1-2.3,1,3.3,3.3,0,0,1-2.4-1,4.3,4.3,0,0,1-.8-2.7V54.9a4.1,4.1,0,0,1,.8-2.7,3,3,0,0,1,2.4-1,2.9,2.9,0,0,1,2.3,1,3.7,3.7,0,0,1,.9,2.7Zm-1.6-3a2.1,2.1,0,0,0-.5-1.5,1.1,1.1,0,0,0-1.1-.6,1.4,1.4,0,0,0-1.2.6,2.1,2.1,0,0,0-.4,1.5v3.3a2.4,2.4,0,0,0,.4,1.5,1.4,1.4,0,0,0,1.2.6,1.1,1.1,0,0,0,1.1-.6,2.5,2.5,0,0,0,.5-1.5Z"/><path d="M31.5,177.5a1.3,1.3,0,0,0-.9.4,4.8,4.8,0,0,0-.6,1.4,14.2,14.2,0,0,1-1.4,3,2.7,2.7,0,0,1-2.2,1,2.6,2.6,0,0,1-2.2-1.2,5,5,0,0,1-.8-2.9,4.9,4.9,0,0,1,.9-3,2.8,2.8,0,0,1,2.4-1.1h0v2.4a1.4,1.4,0,0,0-1.1.4,2.3,2.3,0,0,0-.3,1.3,2,2,0,0,0,.3,1.1,1.1,1.1,0,0,0,.8.3.8.8,0,0,0,.8-.4,5.2,5.2,0,0,0,.7-1.5,9.1,9.1,0,0,1,1.4-2.8,2.6,2.6,0,0,1,2.2-1,2.7,2.7,0,0,1,2.2,1.1,4.8,4.8,0,0,1,.8,3,5.9,5.9,0,0,1-.8,3.1,2.8,2.8,0,0,1-2.8,1.2h0V181a1.6,1.6,0,0,0,1.3-.5,2,2,0,0,0,.4-1.4,2.1,2.1,0,0,0-.3-1.2A1.2,1.2,0,0,0,31.5,177.5Z"/><path d="M24.5,171.1v2.5H22.8v-2.5Zm9.9,0v2.5H26.3v-2.5Z"/><path d="M32.4,166.5v-3.6h2v6.8H33l-4.7-3.6v3.5h-2V163h1.4Z"/><path d="M34.5,158a3.6,3.6,0,0,1-1.1,2.9,3.7,3.7,0,0,1-2.8,1h-.3a4.9,4.9,0,0,1-3-.9,3.8,3.8,0,0,1-1.1-2.9,3,3,0,0,1,1-2.5,3.6,3.6,0,0,1,2.6-.9h1.3v4.6h.1a1.8,1.8,0,0,0,1-.4,1.6,1.6,0,0,0,.4-1.2,4.1,4.1,0,0,0-.1-1.2,7.6,7.6,0,0,0-.4-1.1l1.5-.6a3.7,3.7,0,0,1,.7,1.4A11,11,0,0,1,34.5,158Zm-6.4.1a1,1,0,0,0,.4.9,1.7,1.7,0,0,0,1,.3h.1v-2.1h-.2a1.5,1.5,0,0,0-1,.2A.8.8,0,0,0,28.1,158.1Z"/><path d="M30,149.5a9.1,9.1,0,0,1-4.9-1.1,5,5,0,0,1-2.6-2.6h0l1.2-.5a4.2,4.2,0,0,0,2.2,1.6,11.8,11.8,0,0,0,4.1.6h.2a11.2,11.2,0,0,0,4-.6,4.5,4.5,0,0,0,2.3-1.6l1.2.5h0a5.4,5.4,0,0,1-2.6,2.6,9.4,9.4,0,0,1-4.9,1.1Z"/><path d="M31.1,138.4h0l-7.6-2.4v-3.3H34.4v2.5h-7l7,2.4v1.7l-6.9,2.3h6.9v2.5H23.5v-3.3Z"/><path d="M34.4,130.8H23.5v-3.6a5.4,5.4,0,0,1,.8-3.1,2.4,2.4,0,0,1,2.2-1.2,3.3,3.3,0,0,1,1.4.4,2,2,0,0,1,.9,1.1,1.9,1.9,0,0,1,.9-1.4,2.5,2.5,0,0,1,1.5-.5,3,3,0,0,1,2.4,1.1,5.1,5.1,0,0,1,.8,3Zm-6.3-2.6v-.9a2,2,0,0,0-.4-1.4,1,1,0,0,0-.9-.4,1.1,1.1,0,0,0-1,.4,2.3,2.3,0,0,0-.3,1.3v1Zm1.6,0h2.7v-1.6a2.1,2.1,0,0,0-.3-1.2,1.3,1.3,0,0,0-.9-.4,1.2,1.2,0,0,0-1.1.4,1.6,1.6,0,0,0-.4,1.1h0Z"/><path d="M30.2,117.2a9.2,9.2,0,0,1,4.8,1.1,5.8,5.8,0,0,1,2.7,2.7h0l-1.2.4a5.1,5.1,0,0,0-2.3-1.5,9.3,9.3,0,0,0-4-.7H30a9.7,9.7,0,0,0-4.1.7,4.7,4.7,0,0,0-2.2,1.5l-1.2-.4h0a5.6,5.6,0,0,1,2.6-2.7,9.6,9.6,0,0,1,4.9-1.1Z"/><path d="M274.6,293.1v3.7h-2.5V286h4.1a4.5,4.5,0,0,1,3.1,1,3,3,0,0,1,1.1,2.6,3.3,3.3,0,0,1-1.1,2.6,5,5,0,0,1-3.1.9Zm0-1.9h1.6a1.7,1.7,0,0,0,1.3-.5,1.4,1.4,0,0,0,.4-1.1,1.6,1.6,0,0,0-.4-1.2,1.7,1.7,0,0,0-1.3-.5h-1.6Z"/><path d="M286.2,290.9h-.8l-.7.2c-.2.1-.4.2-.4.4v5.3h-2.6v-8h2.4V290a2.6,2.6,0,0,1,.7-1,1.5,1.5,0,0,1,.9-.4h.6Z"/><path d="M290.7,297a3.8,3.8,0,0,1-2.8-1.1,3.9,3.9,0,0,1-1.1-2.8v-.3a4.9,4.9,0,0,1,1-3,3.5,3.5,0,0,1,2.8-1.2,3.6,3.6,0,0,1,2.6,1,4,4,0,0,1,.9,2.7v1.3h-4.7a1.9,1.9,0,0,0,.5,1,2.1,2.1,0,0,0,1.2.4h1.2l1.1-.4.6,1.5a3,3,0,0,1-1.4.6A5.8,5.8,0,0,1,290.7,297Zm-.1-6.4c-.4,0-.7.1-.8.4a2.3,2.3,0,0,0-.4,1h2.2v-.2a2,2,0,0,0-.2-.9A1,1,0,0,0,290.6,290.6Z"/><path d="M298.1,286.8v2h1.3v1.7h-1.3v3.7a.8.8,0,0,0,.2.7h1l.2,1.8-.7.2h-.7a2.4,2.4,0,0,1-1.9-.7,2.9,2.9,0,0,1-.6-2.1v-3.7h-1.2v-1.7h1.2v-2Z"/><path d="M305.1,290.9h-.8l-.7.2c-.2.1-.4.2-.4.4v5.3h-2.6v-8H303V290a2.6,2.6,0,0,1,.7-1,1.5,1.5,0,0,1,.9-.4h.6Z"/><path d="M310.7,296.8a.8.8,0,0,1-.2-.5c-.1-.2-.1-.5-.2-.7a2.7,2.7,0,0,1-.8,1,1.6,1.6,0,0,1-1.2.4,3,3,0,0,1-2-.6,2.4,2.4,0,0,1-.7-1.8,2.3,2.3,0,0,1,.9-1.9,4.9,4.9,0,0,1,2.7-.6h1.1v-.6a1.1,1.1,0,0,0-.3-.8.8.8,0,0,0-.7-.3l-.7.2a1.4,1.4,0,0,0-.2.7h-2.5a2.1,2.1,0,0,1,1-1.8,3.9,3.9,0,0,1,2.5-.8,4.1,4.1,0,0,1,2.5.8,2.6,2.6,0,0,1,.9,2.1v3.1a3.7,3.7,0,0,0,.1,1.1l.3,1.1Zm-1.7-1.6.8-.2.5-.5v-1.1h-1a1.1,1.1,0,0,0-.9.3.9.9,0,0,0-.3.7.8.8,0,0,0,.2.6Z"/><path d="M316.9,286.9h-2.6v-1.7h2.6Zm0,9.9h-2.6v-8h2.6Z"/><path d="M320.8,288.8v1.1a2.6,2.6,0,0,1,.9-.9,3.3,3.3,0,0,1,1.3-.4,2.3,2.3,0,0,1,1.9.9,3.9,3.9,0,0,1,.7,2.5v4.8h-2.6V292c0-.5,0-.9-.2-1.1a.9.9,0,0,0-.7-.3h-.7l-.6.4v5.7h-2.5v-8Z"/><path d="M330.7,297a3.8,3.8,0,0,1-2.9-1.1,3.9,3.9,0,0,1-1.1-2.8v-.3a4.9,4.9,0,0,1,1-3,3.9,3.9,0,0,1,5.4-.2,4,4,0,0,1,.9,2.7v1.3h-4.7a1.9,1.9,0,0,0,.5,1,2.1,2.1,0,0,0,1.2.4h1.2l1.1-.4.6,1.5a3,3,0,0,1-1.4.6A5.7,5.7,0,0,1,330.7,297Zm-.1-6.4a1,1,0,0,0-.9.4,2.3,2.3,0,0,0-.4,1h2.2v-.2a2,2,0,0,0-.2-.9A.8.8,0,0,0,330.6,290.6Z"/><path d="M334.8,292.8a4.8,4.8,0,0,1,.8-3,2.6,2.6,0,0,1,2.3-1.2,1.7,1.7,0,0,1,1,.3,2.7,2.7,0,0,1,.8.7v-4.4h2.5v11.6H340v-.9l-.9.8a2,2,0,0,1-1.1.3,2.7,2.7,0,0,1-2.3-1.1,4.3,4.3,0,0,1-.8-2.9Zm2.5.2a3.1,3.1,0,0,0,.3,1.5,1,1,0,0,0,.9.6l.7-.2a1,1,0,0,0,.5-.4v-3.3a1,1,0,0,0-.5-.4.8.8,0,0,0-.7-.2,1,1,0,0,0-.9.6,3.8,3.8,0,0,0-.3,1.6Z"/><path d="M353.5,293.6h0L356,286h3.3v10.8h-2.5v-6.9h-.1l-2.4,6.9h-1.7l-2.3-6.8h0v6.8h-2.6V286H351Z"/><path d="M360.6,292.7a4.1,4.1,0,0,1,1-2.9,3.7,3.7,0,0,1,2.9-1.2,3.4,3.4,0,0,1,2.8,1.2,4.2,4.2,0,0,1,1.1,2.9v.2a4.4,4.4,0,0,1-1.1,3,3.6,3.6,0,0,1-2.8,1.1,4,4,0,0,1-2.9-1.1,4.4,4.4,0,0,1-1-3Zm2.5.2a3.5,3.5,0,0,0,.3,1.6,1.1,1.1,0,0,0,1.1.6,1,1,0,0,0,1-.6,2.5,2.5,0,0,0,.4-1.6v-.2a2.4,2.4,0,0,0-.4-1.5,1,1,0,0,0-1-.6,1.1,1.1,0,0,0-1.1.6,3.3,3.3,0,0,0-.3,1.5Z"/><path d="M369.2,292.8a5.6,5.6,0,0,1,.8-3,2.9,2.9,0,0,1,2.4-1.2,1.9,1.9,0,0,1,1,.3l.8.7v-4.4h2.5v11.6h-2.2l-.2-.9a3,3,0,0,1-.8.8,2.4,2.4,0,0,1-1.2.3,2.8,2.8,0,0,1-2.3-1.1,5,5,0,0,1-.8-2.9Zm2.5.2a3.1,3.1,0,0,0,.3,1.5,1,1,0,0,0,1,.6l.7-.2.5-.4v-3.3l-.5-.4a.8.8,0,0,0-.7-.2,1,1,0,0,0-1,.6,3.8,3.8,0,0,0-.3,1.6Z"/><path d="M381.7,297a3.8,3.8,0,0,1-2.8-1.1,3.9,3.9,0,0,1-1.1-2.8v-.3a4.9,4.9,0,0,1,1-3,3.5,3.5,0,0,1,2.8-1.2,3.6,3.6,0,0,1,2.6,1,4,4,0,0,1,.9,2.7v1.3h-4.7a1.9,1.9,0,0,0,.5,1,2.1,2.1,0,0,0,1.2.4h1.2l1.1-.4.6,1.5a3,3,0,0,1-1.4.6A5.8,5.8,0,0,1,381.7,297Zm-.1-6.4a.8.8,0,0,0-.8.4,2.3,2.3,0,0,0-.4,1h2.2v-.2a2,2,0,0,0-.2-.9C382.3,290.7,382,290.6,381.6,290.6Z"/><path d="M388.8,296.8h-2.5V285.2h2.5Z"/><path d="M249.1,27.9h0l3.5-10.7h4.7V32.5h-3.6V22.6h0l-3.4,9.9h-2.4l-3.3-9.7h0v9.7H241V17.2h4.7Z"/><path d="M264.6,32.7a5.1,5.1,0,0,1-4.1-1.6,5.2,5.2,0,0,1-1.4-3.9v-.4a6.5,6.5,0,0,1,1.3-4.3,5.1,5.1,0,0,1,4-1.6,4.7,4.7,0,0,1,3.6,1.4,5.4,5.4,0,0,1,1.3,3.7v1.9h-6.6a2.3,2.3,0,0,0,.7,1.4,2.1,2.1,0,0,0,1.6.6l1.7-.2,1.6-.5.8,2.1a4.8,4.8,0,0,1-1.9.9A7.8,7.8,0,0,1,264.6,32.7Zm-.2-9.1a1.3,1.3,0,0,0-1.2.6,2,2,0,0,0-.5,1.4h3.1v-.3a2.3,2.3,0,0,0-.3-1.3A1.3,1.3,0,0,0,264.4,23.6Z"/><path d="M274.1,21.1v1.5a4.4,4.4,0,0,1,1.4-1.3,4.8,4.8,0,0,1,1.8-.4,3.6,3.6,0,0,1,1.9.5,2.3,2.3,0,0,1,1.1,1.4,3.8,3.8,0,0,1,1.4-1.4,3.8,3.8,0,0,1,1.9-.5,3.1,3.1,0,0,1,2.6,1.2,6.1,6.1,0,0,1,1,3.7v6.7h-3.6V25.8a3.2,3.2,0,0,0-.3-1.7,1.4,1.4,0,0,0-1.1-.5l-.9.2a1.5,1.5,0,0,0-.6.5v8.2h-3.6V25.8a3.2,3.2,0,0,0-.3-1.7,1.2,1.2,0,0,0-1-.5l-.9.2a1.8,1.8,0,0,0-.7.5v8.2h-3.5V21.1Z"/><path d="M288.8,26.7a6,6,0,0,1,1.5-4.2,4.9,4.9,0,0,1,4-1.6,5.1,5.1,0,0,1,4.1,1.6,6.4,6.4,0,0,1,1.4,4.2v.2a6.4,6.4,0,0,1-1.4,4.2,5.5,5.5,0,0,1-4.1,1.6,5.3,5.3,0,0,1-4-1.6,6,6,0,0,1-1.5-4.2Zm3.6.2a4.3,4.3,0,0,0,.4,2.2,1.7,1.7,0,0,0,3,0,4.5,4.5,0,0,0,.5-2.2v-.2a4.5,4.5,0,0,0-.5-2.2,1.7,1.7,0,0,0-3,0,4.6,4.6,0,0,0-.4,2.2Z"/><path d="M307.7,24.1h-1.2l-1,.2-.6.7v7.5h-3.5V21.1h3.3l.2,1.7a2.8,2.8,0,0,1,.9-1.4,2.4,2.4,0,0,1,1.4-.5h.8Z"/><path d="M313.4,27.5h.1l1.8-6.4h3.8l-4.5,13.1a6,6,0,0,1-1.4,2,3.3,3.3,0,0,1-2.6.8h-.7l-1-.2.5-2.6h.4l1.2-.2a1.7,1.7,0,0,0,.6-.8l.3-.7-4-11.5h3.8Z"/><path d="M333.5,28.4a1.7,1.7,0,0,0-.5-1.2,9,9,0,0,0-2-1,15.2,15.2,0,0,1-4.2-1.9,3.6,3.6,0,0,1-1.4-3,3.6,3.6,0,0,1,1.7-3.1,6.3,6.3,0,0,1,4-1.2,6.6,6.6,0,0,1,4.2,1.2,4,4,0,0,1,1.6,3.4h-3.5a2.1,2.1,0,0,0-.6-1.6,2.9,2.9,0,0,0-1.7-.5,2.5,2.5,0,0,0-1.6.5,1.7,1.7,0,0,0-.5,1.2,1.4,1.4,0,0,0,.6,1.1,10.3,10.3,0,0,0,2.1,1,9.9,9.9,0,0,1,4,1.9,3.8,3.8,0,0,1,1.4,3.1,3.7,3.7,0,0,1-1.6,3.1,6.8,6.8,0,0,1-4.2,1.2,7.8,7.8,0,0,1-4.4-1.2,4.2,4.2,0,0,1-1.7-3.9h3.5a2.3,2.3,0,0,0,.6,1.8,2.8,2.8,0,0,0,2,.6,2.7,2.7,0,0,0,1.7-.4A1.7,1.7,0,0,0,333.5,28.4Z"/><path d="M342.5,18.5H339V16.1h3.5Zm0,14H339V21.1h3.5Z"/><path d="M348.9,29.7H354v2.8h-9.6v-2l5-6.7h-4.8V21.1h9.3V23Z"/><path d="M360.8,32.7a5.1,5.1,0,0,1-4-1.6,5.3,5.3,0,0,1-1.5-3.9v-.4a6.5,6.5,0,0,1,1.4-4.3,4.8,4.8,0,0,1,4-1.6,4.5,4.5,0,0,1,3.5,1.4,4.9,4.9,0,0,1,1.3,3.7v1.9H359a2.2,2.2,0,0,0,.6,1.4,2.4,2.4,0,0,0,1.7.6l1.7-.2,1.5-.5.9,2.1a4.6,4.6,0,0,1-2,.9A7.5,7.5,0,0,1,360.8,32.7Zm-.1-9.1a1.5,1.5,0,0,0-1.3.6,2.6,2.6,0,0,0-.4,1.4h3.1v-.3a2.2,2.2,0,0,0-.4-1.3A1.1,1.1,0,0,0,360.7,23.6Z"/><g class="cls-5"><rect class="cls-6" x="0.7" y="0.7" width="591" height="319.43"/></g><path d="M85.4,270.4H81.9l-.8,2.3H79.5l3.4-9.8h1.5l3.4,9.8H86.1Zm-3-1.3h2.5l-1.2-3.9h-.1Z"/><path d="M90.5,272.7H88.8V262.2h1.7Z"/><path d="M95.5,272.9a3.6,3.6,0,0,1-2.5-1,3.9,3.9,0,0,1-.9-2.6V269a3.6,3.6,0,0,1,.9-2.6,3,3,0,0,1,2.4-1.1,2.8,2.8,0,0,1,2.2.9,3.6,3.6,0,0,1,.7,2.4v.9H93.8a2.2,2.2,0,0,0,.5,1.4,1.5,1.5,0,0,0,1.3.6l1.2-.2.9-.5.5,1.1a2,2,0,0,1-1.1.6A3.8,3.8,0,0,1,95.5,272.9Zm-.1-6.3a1.4,1.4,0,0,0-1.1.5,2.1,2.1,0,0,0-.4,1.2h2.8a1.8,1.8,0,0,0-.3-1.1A1.2,1.2,0,0,0,95.4,266.6Z"/><path d="M102.2,268l1.3-2.5h1.9l-2.3,3.6,2.4,3.6h-1.9l-1.4-2.5-1.4,2.5H98.9l2.4-3.6L99,265.5h1.8Z"/><path d="M114.3,272.7h-1.6l-4.4-7h0v7h-1.6v-9.8h1.6l4.3,7.1h.1v-7.1h1.6Z"/><path d="M119.3,272.9a3.3,3.3,0,0,1-2.4-1,3.9,3.9,0,0,1-.9-2.6V269a3.6,3.6,0,0,1,.9-2.6,2.8,2.8,0,0,1,2.3-1.1,2.8,2.8,0,0,1,2.2.9,3.6,3.6,0,0,1,.7,2.4v.9h-4.5a2.2,2.2,0,0,0,.5,1.4,1.5,1.5,0,0,0,1.3.6l1.2-.2.9-.5.5,1.1a1.7,1.7,0,0,1-1.1.6A3.8,3.8,0,0,1,119.3,272.9Zm-.1-6.3a1.4,1.4,0,0,0-1.1.5,2.1,2.1,0,0,0-.4,1.2h2.8a1.8,1.8,0,0,0-.3-1.1A1.2,1.2,0,0,0,119.2,266.6Z"/><path d="M125.6,263.7v1.8h1.3v1.2h-1.3v4a.8.8,0,0,0,.2.6c.1.2.3.2.5.2h.5l.2,1.2-.5.2h-.6a1.7,1.7,0,0,1-1.4-.6,1.9,1.9,0,0,1-.5-1.6v-4h-1.2v-1.2H124v-1.8Z"/><path d="M165.5,271.4a3.4,3.4,0,0,1-1.3,1,5.2,5.2,0,0,1-2.3.5,4.2,4.2,0,0,1-2.9-1.1,4.4,4.4,0,0,1-1.1-2.9v-2.1a4.2,4.2,0,0,1,1.1-2.9,3.8,3.8,0,0,1,2.8-1.1,3.6,3.6,0,0,1,2.6.9,2.6,2.6,0,0,1,1,2.2h-1.6a2.1,2.1,0,0,0-.5-1.3,2.5,2.5,0,0,0-1.5-.5,1.9,1.9,0,0,0-1.6.8,2.5,2.5,0,0,0-.7,1.9v2.1a2.9,2.9,0,0,0,.7,1.9,2.1,2.1,0,0,0,1.7.8l1.2-.2.7-.4v-2.1h-2v-1.2h3.7Z"/><path d="M167,269a3.7,3.7,0,0,1,.9-2.6,3,3,0,0,1,2.4-1.1,3.1,3.1,0,0,1,2.5,1.1,3.7,3.7,0,0,1,.9,2.6v.2a3.6,3.6,0,0,1-.9,2.6,3.1,3.1,0,0,1-2.5,1.1,3,3,0,0,1-2.4-1.1,3.6,3.6,0,0,1-.9-2.6Zm1.6.2a3.9,3.9,0,0,0,.4,1.7,1.6,1.6,0,0,0,2.6,0,2.9,2.9,0,0,0,.4-1.7V269a3.1,3.1,0,0,0-.4-1.7,1.6,1.6,0,0,0-2.6,0,4.3,4.3,0,0,0-.4,1.7Z"/><path d="M174.8,269a3.7,3.7,0,0,1,.9-2.6,3,3,0,0,1,2.4-1.1,3.1,3.1,0,0,1,2.5,1.1,3.7,3.7,0,0,1,.9,2.6v.2a3.6,3.6,0,0,1-.9,2.6,3,3,0,0,1-2.4,1.1,3.1,3.1,0,0,1-2.5-1.1,3.6,3.6,0,0,1-.9-2.6Zm1.6.2a2.9,2.9,0,0,0,.5,1.7,1.4,1.4,0,0,0,1.3.7,1.5,1.5,0,0,0,1.2-.7,2.9,2.9,0,0,0,.5-1.7V269a3.1,3.1,0,0,0-.5-1.7,1.6,1.6,0,0,0-1.3-.7,1.4,1.4,0,0,0-1.2.7,3.1,3.1,0,0,0-.5,1.7Z"/><path d="M182.6,269.2a4.7,4.7,0,0,1,.7-2.8,2.5,2.5,0,0,1,2.1-1.1,2.7,2.7,0,0,1,1.2.3,3,3,0,0,1,.8.8l.2-.9h1.3v7.2a2.7,2.7,0,0,1-.9,2.2,3.5,3.5,0,0,1-2.4.8l-1.2-.2-1.1-.4.3-1.3.9.4h1.1a1.7,1.7,0,0,0,1.3-.4,1.9,1.9,0,0,0,.4-1.2V272l-.8.7-1.1.2a2.4,2.4,0,0,1-2.1-1,4,4,0,0,1-.7-2.6Zm1.6.1a2.5,2.5,0,0,0,.4,1.6,1.2,1.2,0,0,0,1.2.6c.4,0,.7,0,.9-.2a1.7,1.7,0,0,0,.6-.6v-3.2a1.7,1.7,0,0,0-.6-.6,1.3,1.3,0,0,0-.9-.2,1.2,1.2,0,0,0-1.2.7,3,3,0,0,0-.4,1.8Z"/><path d="M192.5,271.4h4.6v1.3h-6.2v-9.8h1.6Z"/><path d="M201.4,272.9a3.6,3.6,0,0,1-2.5-1,3.9,3.9,0,0,1-.9-2.6V269a3.6,3.6,0,0,1,.9-2.6,3,3,0,0,1,2.4-1.1,2.8,2.8,0,0,1,2.2.9,3.6,3.6,0,0,1,.7,2.4v.9h-4.5a2.2,2.2,0,0,0,.5,1.4,1.5,1.5,0,0,0,1.3.6l1.2-.2.9-.5.5,1.1a2,2,0,0,1-1.1.6A3.8,3.8,0,0,1,201.4,272.9Zm-.1-6.3a1.4,1.4,0,0,0-1.1.5,2.1,2.1,0,0,0-.4,1.2h2.8a1.8,1.8,0,0,0-.3-1.1A1.2,1.2,0,0,0,201.3,266.6Z"/><path d="M213.4,272.7h-1.6l-4.4-7h0v7h-1.6v-9.8h1.6l4.3,7.1h.1v-7.1h1.6Z"/><path d="M218.3,272.9a3.4,3.4,0,0,1-2.5-1,3.9,3.9,0,0,1-.9-2.6V269a3.6,3.6,0,0,1,.9-2.6,3.2,3.2,0,0,1,4.6-.2,3.6,3.6,0,0,1,.7,2.4v.9h-4.5a2.2,2.2,0,0,0,.5,1.4,1.5,1.5,0,0,0,1.3.6l1.2-.2.9-.5.5,1.1a2.4,2.4,0,0,1-1.1.6A4.1,4.1,0,0,1,218.3,272.9Zm-.2-6.3a1.4,1.4,0,0,0-1,.5,3.3,3.3,0,0,0-.5,1.2h2.9a1.8,1.8,0,0,0-.3-1.1A1.4,1.4,0,0,0,218.1,266.6Z"/><path d="M224.5,263.7v1.8h1.4v1.2h-1.4v4a.8.8,0,0,0,.2.6c.2.2.3.2.6.2h.5v1.2l-.5.2h-.5a2,2,0,0,1-1.5-.6,2.3,2.3,0,0,1-.5-1.6v-4h-1.1v-1.2h1.1v-1.8Z"/><path d="M254,268.7v4h-1.7v-9.8h3.4a3.7,3.7,0,0,1,2.5.8,2.6,2.6,0,0,1,.9,2.1,2.4,2.4,0,0,1-1.5,2.2,2.5,2.5,0,0,1,1.2.8,3.3,3.3,0,0,1,.4,1.5v.8a2.8,2.8,0,0,0,.1.9.9.9,0,0,0,.3.6h-1.7a.9.9,0,0,1-.3-.7,2.8,2.8,0,0,1-.1-.9v-.8a1.4,1.4,0,0,0-1.6-1.6Zm0-1.3h1.6a2.7,2.7,0,0,0,1.5-.4,1.5,1.5,0,0,0,.4-1.2,1.4,1.4,0,0,0-.4-1.1,2,2,0,0,0-1.4-.4H254Z"/><path d="M264.1,272.9a3.6,3.6,0,0,1-2.5-1,3.9,3.9,0,0,1-.9-2.6V269a3.6,3.6,0,0,1,.9-2.6,3,3,0,0,1,2.3-1.1,2.9,2.9,0,0,1,2.3.9,3.6,3.6,0,0,1,.7,2.4v.9h-4.5a2.2,2.2,0,0,0,.5,1.4,1.5,1.5,0,0,0,1.3.6l1.2-.2.9-.5.5,1.1a2,2,0,0,1-1.1.6A4.1,4.1,0,0,1,264.1,272.9Zm-.2-6.3a1.4,1.4,0,0,0-1,.5,3.3,3.3,0,0,0-.5,1.2h2.9a1.8,1.8,0,0,0-.3-1.1A1.3,1.3,0,0,0,263.9,266.6Z"/><path d="M272.2,270.7a.9.9,0,0,0-.3-.6,4,4,0,0,0-1.2-.4,6.4,6.4,0,0,1-2-.8,1.7,1.7,0,0,1-.6-1.4,1.8,1.8,0,0,1,.7-1.5,3,3,0,0,1,2.1-.7,3.1,3.1,0,0,1,2.1.7,1.7,1.7,0,0,1,.7,1.6h-1.5a1,1,0,0,0-.4-.7,1.3,1.3,0,0,0-.9-.4,1.2,1.2,0,0,0-.9.3.9.9,0,0,0-.3.7.9.9,0,0,0,.3.6l1.1.4a4,4,0,0,1,2.1.8,1.7,1.7,0,0,1,.6,1.4,1.9,1.9,0,0,1-.8,1.6,3.3,3.3,0,0,1-2.1.6,3.4,3.4,0,0,1-2.2-.7,1.9,1.9,0,0,1-.8-1.7h1.5a1.1,1.1,0,0,0,.5,1,1.7,1.7,0,0,0,1,.3,1.5,1.5,0,0,0,1-.3A.9.9,0,0,0,272.2,270.7Z"/><path d="M283.1,272.7h-1.6l-4.4-7h0v7h-1.6v-9.8h1.6l4.3,7.1h.1v-7.1h1.6Z"/><path d="M288.1,272.9a3.6,3.6,0,0,1-2.5-1,3.9,3.9,0,0,1-.9-2.6V269a3.6,3.6,0,0,1,.9-2.6,3,3,0,0,1,2.4-1.1,2.8,2.8,0,0,1,2.2.9,3.6,3.6,0,0,1,.7,2.4v.9h-4.5a2.2,2.2,0,0,0,.5,1.4,1.5,1.5,0,0,0,1.3.6l1.2-.2.9-.5.5,1.1a2,2,0,0,1-1.1.6A3.8,3.8,0,0,1,288.1,272.9Zm-.1-6.3a1.4,1.4,0,0,0-1.1.5,2.1,2.1,0,0,0-.4,1.2h2.8a1.8,1.8,0,0,0-.3-1.1A1.2,1.2,0,0,0,288,266.6Z"/><path d="M294.3,263.7v1.8h1.3v1.2h-1.3v4c0,.3,0,.5.2.6s.3.2.5.2h.5v1.2l-.4.2h-.6a2,2,0,0,1-1.5-.6,2.3,2.3,0,0,1-.5-1.6v-4h-1.1v-1.2h1.1v-1.8Z"/><path d="M297.1,268.4l.6-5.5h5.2v1.5h-3.8l-.3,2.5.7-.4h.8a2.3,2.3,0,0,1,2.2.8,3.6,3.6,0,0,1,.7,2.4,3.2,3.2,0,0,1-.8,2.4,3,3,0,0,1-2.4.9,3.8,3.8,0,0,1-2.1-.7,2.4,2.4,0,0,1-.9-2h1.5a1.4,1.4,0,0,0,.5,1.1,1.5,1.5,0,0,0,1,.4,1.5,1.5,0,0,0,1.2-.5,2.4,2.4,0,0,0,.4-1.5,2.1,2.1,0,0,0-.4-1.4,1.3,1.3,0,0,0-1.2-.5,1.5,1.5,0,0,0-1,.2,1,1,0,0,0-.5.6Z"/><path d="M311.1,269.2a3.7,3.7,0,0,1-.9,2.7,2.9,2.9,0,0,1-2.3,1,3,3,0,0,1-2.4-1,3.8,3.8,0,0,1-.8-2.7v-2.7a3.6,3.6,0,0,1,.8-2.7,3,3,0,0,1,2.4-1,2.9,2.9,0,0,1,2.3,1,3.7,3.7,0,0,1,.9,2.7Zm-1.7-3a2.2,2.2,0,0,0-.4-1.5,1.3,1.3,0,0,0-1.1-.6,1.4,1.4,0,0,0-1.2.6,2.2,2.2,0,0,0-.4,1.5v3.3a2.4,2.4,0,0,0,.4,1.5,1.4,1.4,0,0,0,1.2.6,1.1,1.1,0,0,0,1.1-.6,2.2,2.2,0,0,0,.4-1.5Z"/><path d="M337.8,272.7h-1.7v-9.8h1.7Z"/><path d="M341.4,265.5v1a2,2,0,0,1,.9-.9,2.1,2.1,0,0,1,1.2-.3,2.9,2.9,0,0,1,1.8.7,3.4,3.4,0,0,1,.6,2.2v4.5h-1.6v-4.5a1.6,1.6,0,0,0-.4-1.2,1.3,1.3,0,0,0-1-.3,1.5,1.5,0,0,0-.9.2l-.6.5v5.3h-1.6v-7.2Z"/><path d="M350.6,271.6a1.4,1.4,0,0,0,1.3-1.3h1.5a2,2,0,0,1-.8,1.7,3,3,0,0,1-4.4-.3,3.7,3.7,0,0,1-.9-2.6V269a3.7,3.7,0,0,1,.9-2.6,2.8,2.8,0,0,1,2.4-1.1,3.2,3.2,0,0,1,2.1.8,2.5,2.5,0,0,1,.7,1.9h-1.5a1.5,1.5,0,0,0-.3-1,1.4,1.4,0,0,0-1-.5,1.6,1.6,0,0,0-1.3.7,4.3,4.3,0,0,0-.4,1.7v.2a3.9,3.9,0,0,0,.4,1.7A1.6,1.6,0,0,0,350.6,271.6Z"/><path d="M358,272.9a3.4,3.4,0,0,1-2.5-1,3.9,3.9,0,0,1-.9-2.6V269a3.6,3.6,0,0,1,.9-2.6,3,3,0,0,1,2.3-1.1,2.7,2.7,0,0,1,2.2.9,3.6,3.6,0,0,1,.8,2.4v.9h-4.5a2.1,2.1,0,0,0,.4,1.4,1.7,1.7,0,0,0,1.4.6l1.1-.2.9-.5.6,1.1a2.4,2.4,0,0,1-1.1.6A4.1,4.1,0,0,1,358,272.9Zm-.2-6.3a1.2,1.2,0,0,0-1,.5,2.2,2.2,0,0,0-.5,1.2h2.9a1.8,1.8,0,0,0-.4-1.1A1.1,1.1,0,0,0,357.8,266.6Z"/><path d="M368.4,269.3a4,4,0,0,1-.8,2.6,2.3,2.3,0,0,1-2,1l-1.1-.2a3.1,3.1,0,0,1-.9-.7v3.5H362v-10h1.4v.9a3.2,3.2,0,0,1,.9-.8,2,2,0,0,1,1.1-.3,2.5,2.5,0,0,1,2.1,1.1,4.7,4.7,0,0,1,.8,2.8Zm-1.7-.1a3.2,3.2,0,0,0-.4-1.8,1.3,1.3,0,0,0-1.2-.7c-.4,0-.7,0-.9.2a1.7,1.7,0,0,0-.6.6v3.3l.6.6.9.2a1.3,1.3,0,0,0,1.2-.6,3.1,3.1,0,0,0,.4-1.7Z"/><path d="M371.9,263.7v1.8h1.4v1.2h-1.4v4a.8.8,0,0,0,.2.6c.2.2.3.2.6.2h.5v1.2l-.5.2h-.5a2,2,0,0,1-1.5-.6,2.3,2.3,0,0,1-.5-1.6v-4h-1.1v-1.2h1.1v-1.8Z"/><path d="M376.4,263.7h-1.7v-1.5h1.7Zm0,9h-1.7v-7.2h1.7Z"/><path d="M377.8,269a3.7,3.7,0,0,1,.9-2.6,3,3,0,0,1,2.4-1.1,3.1,3.1,0,0,1,2.5,1.1,3.7,3.7,0,0,1,.9,2.6v.2a3.6,3.6,0,0,1-.9,2.6,3.1,3.1,0,0,1-2.5,1.1,3,3,0,0,1-2.4-1.1,3.6,3.6,0,0,1-.9-2.6Zm1.6.2a3.9,3.9,0,0,0,.4,1.7,1.6,1.6,0,0,0,2.6,0,2.9,2.9,0,0,0,.4-1.7V269a3.1,3.1,0,0,0-.4-1.7,1.6,1.6,0,0,0-2.6,0,4.3,4.3,0,0,0-.4,1.7Z"/><path d="M387.4,265.5v1a2,2,0,0,1,.9-.9,2.4,2.4,0,0,1,1.2-.3,2.5,2.5,0,0,1,1.8.7,3.4,3.4,0,0,1,.6,2.2v4.5h-1.6v-4.5a2.1,2.1,0,0,0-.3-1.2,1.7,1.7,0,0,0-1-.3,1.6,1.6,0,0,0-1,.2l-.6.5v5.3h-1.6v-7.2Z"/><path d="M396.3,270.3v.6h.1v-.6l1.4-4.8h1.7l-2.6,7.2h-1.4l-2.6-7.2h1.7Z"/><path d="M403.8,267.1a1.6,1.6,0,0,0,1.1-.4,1.5,1.5,0,0,0,.4-1.1,1.8,1.8,0,0,0-.4-1.1,1.4,1.4,0,0,0-1.1-.4,1.5,1.5,0,0,0-1.1.4,1.3,1.3,0,0,0-.4,1h-1.6a2.6,2.6,0,0,1,.8-1.9,3.6,3.6,0,0,1,2.3-.8,3.3,3.3,0,0,1,2.3.7,2.9,2.9,0,0,1,.8,2.1,1.9,1.9,0,0,1-.4,1.2,2.2,2.2,0,0,1-1,.9,2.7,2.7,0,0,1,1.2.9,2.9,2.9,0,0,1,.4,1.4,2.4,2.4,0,0,1-1,2.1,3.4,3.4,0,0,1-2.3.8,3.8,3.8,0,0,1-2.3-.8,2.2,2.2,0,0,1-.9-1.9h1.6a1.5,1.5,0,0,0,.4,1.1,2.1,2.1,0,0,0,1.2.4,1.7,1.7,0,0,0,1.2-.5,1.4,1.4,0,0,0,.4-1.1c0-.6-.1-1-.4-1.2a1.7,1.7,0,0,0-1.2-.5h-1.1v-1.2Z"/><path d="M434.5,270.2a1.4,1.4,0,0,0-.5-1,5.3,5.3,0,0,0-1.5-.7,8.4,8.4,0,0,1-2.5-1.1,2.6,2.6,0,0,1-.8-1.9,2.3,2.3,0,0,1,.9-1.9,4.1,4.1,0,0,1,2.5-.8,3.5,3.5,0,0,1,2.5.9,2.6,2.6,0,0,1,.9,2.1h-1.6a1.3,1.3,0,0,0-.5-1.2,2,2,0,0,0-1.4-.5,1.6,1.6,0,0,0-1.2.4,1.4,1.4,0,0,0-.5,1,1.1,1.1,0,0,0,.5.9,4,4,0,0,0,1.6.7,6,6,0,0,1,2.4,1.2,2.6,2.6,0,0,1,.8,1.9,2.3,2.3,0,0,1-1,2,4.4,4.4,0,0,1-2.5.7,4.7,4.7,0,0,1-2.6-.8,2.7,2.7,0,0,1-1.1-2.3h1.6a1.5,1.5,0,0,0,.6,1.3,2.7,2.7,0,0,0,1.5.5,2,2,0,0,0,1.4-.4A1.2,1.2,0,0,0,434.5,270.2Z"/><path d="M439.1,266.4a2.4,2.4,0,0,1,.9-.8,2,2,0,0,1,1.1-.3,2.2,2.2,0,0,1,1.8.8,2.8,2.8,0,0,1,.7,2.2v4.4h-1.7v-4.4a2.3,2.3,0,0,0-.3-1.3,1.3,1.3,0,0,0-1-.3h-.9c-.2.2-.5.3-.6.6v5.3h-1.6V262.2h1.6Z"/><path d="M449.9,271.7l-.9.9a2.4,2.4,0,0,1-1.2.3,2.2,2.2,0,0,1-1.8-.8,3.3,3.3,0,0,1-.7-2.4v-4.2h1.6v4.2a2.8,2.8,0,0,0,.3,1.5,1.3,1.3,0,0,0,1,.3,1.6,1.6,0,0,0,1-.2,1.7,1.7,0,0,0,.6-.6v-5.2h1.6v7.2H450Z"/><path d="M453.7,272.7v-6h-1.1v-1.2h1.1v-.9a2.4,2.4,0,0,1,2.5-2.5h1v1.3h-.7a1.1,1.1,0,0,0-.8.3c-.2.2-.2.5-.2.9v.9h1.3v1.2h-1.3v6Z"/><path d="M458.3,272.7v-6h-1.1v-1.2h1.1v-.9a2.4,2.4,0,0,1,2.5-2.5h1v1.3H461a1.1,1.1,0,0,0-.8.3,1.2,1.2,0,0,0-.3.9v.9h1.4v1.2h-1.4v6Z"/><path d="M464.2,272.7h-1.6V262.2h1.6Z"/><path d="M469,272.9a3.6,3.6,0,0,1-2.5-1,3.9,3.9,0,0,1-.9-2.6V269a3.6,3.6,0,0,1,.9-2.6,3,3,0,0,1,2.4-1.1,2.8,2.8,0,0,1,2.2.9,3.6,3.6,0,0,1,.7,2.4v.9h-4.5a2.2,2.2,0,0,0,.5,1.4,1.5,1.5,0,0,0,1.3.6l1.2-.2.9-.5.5,1.1a2,2,0,0,1-1.1.6A3.8,3.8,0,0,1,469,272.9Zm-.1-6.3a1.4,1.4,0,0,0-1.1.5,2.1,2.1,0,0,0-.4,1.2h2.8a1.8,1.8,0,0,0-.3-1.1A1.2,1.2,0,0,0,468.9,266.6Z"/><path d="M481.1,272.7h-1.6l-4.3-7h-.1v7h-1.6v-9.8h1.6l4.4,7.1h0v-7.1h1.6Z"/><path d="M486,272.9a3.6,3.6,0,0,1-2.5-1,3.9,3.9,0,0,1-.9-2.6V269a3.6,3.6,0,0,1,.9-2.6,3,3,0,0,1,2.4-1.1,2.8,2.8,0,0,1,2.2.9,3.6,3.6,0,0,1,.7,2.4v.9h-4.5a2.2,2.2,0,0,0,.5,1.4,1.5,1.5,0,0,0,1.3.6l1.2-.2.9-.5.5,1.1a2,2,0,0,1-1.1.6A3.8,3.8,0,0,1,486,272.9Zm-.1-6.3a1.4,1.4,0,0,0-1.1.5,2.1,2.1,0,0,0-.4,1.2h2.8a1.8,1.8,0,0,0-.3-1.1A1.2,1.2,0,0,0,485.9,266.6Z"/><path d="M492.2,263.7v1.8h1.3v1.2h-1.3v4c0,.3,0,.5.2.6s.3.2.5.2h.5v1.2l-.4.2h-.6a2,2,0,0,1-1.5-.6,2.3,2.3,0,0,1-.5-1.6v-4h-1.1v-1.2h1.1v-1.8Z"/><path d="M517.2,270.5h0l2.9-7.6h2v9.8h-1.6v-7h0l-2.7,7h-1.1l-2.8-7.1h0v7.1h-1.7v-9.8h2.2Z"/><path d="M523.7,269a3.7,3.7,0,0,1,.9-2.6,3,3,0,0,1,2.4-1.1,3.1,3.1,0,0,1,2.5,1.1,3.7,3.7,0,0,1,.9,2.6v.2a3.6,3.6,0,0,1-.9,2.6,3.1,3.1,0,0,1-2.5,1.1,3,3,0,0,1-2.4-1.1,3.6,3.6,0,0,1-.9-2.6Zm1.6.2a3.9,3.9,0,0,0,.4,1.7,1.6,1.6,0,0,0,2.6,0,2.9,2.9,0,0,0,.4-1.7V269a3.1,3.1,0,0,0-.4-1.7,1.6,1.6,0,0,0-2.6,0,4.3,4.3,0,0,0-.4,1.7Z"/><path d="M538.2,269.3a4,4,0,0,1-.7,2.6,2.4,2.4,0,0,1-2.1,1,2.1,2.1,0,0,1-1.2-.3,3.4,3.4,0,0,1-.9-.8l-.2.9h-1.3V262.2h1.7v4.1a1.4,1.4,0,0,1,.8-.7,1.8,1.8,0,0,1,1.1-.3,2.5,2.5,0,0,1,2.1,1.1,4.7,4.7,0,0,1,.7,2.8Zm-1.6-.1a4,4,0,0,0-.4-1.8,1.4,1.4,0,0,0-1.3-.7,1.5,1.5,0,0,0-.9.2,1.8,1.8,0,0,0-.5.7v3a1.8,1.8,0,0,0,.5.7,2,2,0,0,0,2.2-.3,3.9,3.9,0,0,0,.4-1.7Z"/><path d="M541.3,263.7h-1.6v-1.5h1.6Zm0,9h-1.6v-7.2h1.6Z"/><path d="M544.9,272.7h-1.7V262.2h1.7Z"/><path d="M549.8,272.9a3.4,3.4,0,0,1-2.5-1,3.9,3.9,0,0,1-.9-2.6V269a3.6,3.6,0,0,1,.9-2.6,3,3,0,0,1,2.3-1.1,2.7,2.7,0,0,1,2.2.9,3.6,3.6,0,0,1,.8,2.4v.9h-4.5a2.1,2.1,0,0,0,.4,1.4,1.7,1.7,0,0,0,1.4.6l1.1-.2a1.9,1.9,0,0,0,.9-.5l.6,1.1a2.4,2.4,0,0,1-1.1.6A4.1,4.1,0,0,1,549.8,272.9Zm-.2-6.3a1.2,1.2,0,0,0-1,.5,2.2,2.2,0,0,0-.5,1.2H551a1.4,1.4,0,0,0-.4-1.1A1.1,1.1,0,0,0,549.6,266.6Z"/><path d="M561.7,272.7h-1.6l-4.3-7h-.1v7h-1.6v-9.8h1.6l4.4,7.1h0v-7.1h1.6Z"/><path d="M566.7,272.9a3.4,3.4,0,0,1-2.5-1,3.9,3.9,0,0,1-.9-2.6V269a3.6,3.6,0,0,1,.9-2.6,2.8,2.8,0,0,1,2.3-1.1,2.7,2.7,0,0,1,2.2.9,3.6,3.6,0,0,1,.7,2.4v.9h-4.5a2.9,2.9,0,0,0,.5,1.4,1.5,1.5,0,0,0,1.3.6l1.2-.2.9-.5.5,1.1a1.7,1.7,0,0,1-1.1.6A3.7,3.7,0,0,1,566.7,272.9Zm-.2-6.3a1.1,1.1,0,0,0-1,.5,1.7,1.7,0,0,0-.5,1.2h2.8a1.8,1.8,0,0,0-.3-1.1A1.2,1.2,0,0,0,566.5,266.6Z"/><path d="M572.9,263.7v1.8h1.3v1.2h-1.3v4a.8.8,0,0,0,.2.6c.1.2.3.2.5.2h.5l.2,1.2-.5.2h-.6a1.7,1.7,0,0,1-1.4-.6,1.9,1.9,0,0,1-.5-1.6v-4h-1.1v-1.2h1.1v-1.8Z"/><path d="M578.1,270.3v.6h.1v-.6l1.4-4.8h1.7l-2.5,7.2h-1.5l-2.6-7.2h1.7Z"/><path d="M589,272.7h-6.3v-1.1l3.1-3.5a7.7,7.7,0,0,0,1-1.5,2.3,2.3,0,0,0,.3-1.1,1.7,1.7,0,0,0-.3-1,1.4,1.4,0,0,0-1.1-.4,1.4,1.4,0,0,0-1.1.5,1.6,1.6,0,0,0-.4,1.2h-1.6a2.8,2.8,0,0,1,.8-2.1,3.2,3.2,0,0,1,2.3-.9,2.9,2.9,0,0,1,2.2.8,2.2,2.2,0,0,1,.8,1.9,2.9,2.9,0,0,1-.4,1.6,14.9,14.9,0,0,1-1.5,1.9l-2,2.4H589Z"/><rect class="cls-7" x="101.7" y="75.3" width="33.4" height="176.19"/><rect class="cls-8" x="184.7" y="231.3" width="32.4" height="20.82"/><rect class="cls-9" x="267.7" y="177.4" width="33.2" height="74.15"/><rect class="cls-10" x="350.7" y="89.4" width="33.2" height="162.09"/><rect class="cls-11" x="433.8" y="247.4" width="33.1" height="4.71"/><rect class="cls-12" x="516.7" y="242.3" width="33.1" height="10.07"/><path d="M110.9,71.2h-8.4V69.4l3.8-4.1c.4-.6.8-1.1,1-1.5a2.1,2.1,0,0,0,.4-1.2,2,2,0,0,0-.3-1.1,1.2,1.2,0,0,0-1-.4,1.1,1.1,0,0,0-1,.5A2.3,2.3,0,0,0,105,63h-2.8a4.2,4.2,0,0,1,1.1-2.9,4.1,4.1,0,0,1,3.1-1.1,4.5,4.5,0,0,1,3,.9,3.7,3.7,0,0,1,1.1,2.7,3.4,3.4,0,0,1-.6,2,17.7,17.7,0,0,1-2.2,2.6L106.3,69h4.6Z"/><path d="M120.8,71.2h-8.4V69.4l3.7-4.1,1.1-1.5a3,3,0,0,0,.3-1.2,2,2,0,0,0-.3-1.1,1.1,1.1,0,0,0-1-.4,1.2,1.2,0,0,0-1,.5,2.3,2.3,0,0,0-.4,1.4h-2.7a3.4,3.4,0,0,1,1.1-2.9,3.7,3.7,0,0,1,3-1.1,5,5,0,0,1,3.1.9,3.6,3.6,0,0,1,1,2.7,3.4,3.4,0,0,1-.6,2,17.7,17.7,0,0,1-2.2,2.6L116.1,69h4.7Z"/><path d="M130.6,61.3a14.1,14.1,0,0,0-2.7,4,13.8,13.8,0,0,0-.7,4.3v1.6h-2.8V69.6a10.5,10.5,0,0,1,.9-4.4,14,14,0,0,1,2.6-3.9h-6.1V59.1h8.8Z"/><path d="M198.8,227.4h-8.4v-1.9l3.8-4c.4-.6.8-1.1,1-1.5a2.4,2.4,0,0,0,.4-1.2,1.8,1.8,0,0,0-.3-1.1,1.2,1.2,0,0,0-1-.4,1.1,1.1,0,0,0-1,.5,2.1,2.1,0,0,0-.4,1.4h-2.8a3.9,3.9,0,0,1,4.2-4,4.5,4.5,0,0,1,3,1,3.5,3.5,0,0,1,1.1,2.7,3.6,3.6,0,0,1-.6,2,17.7,17.7,0,0,1-2.2,2.6l-1.4,1.8h4.6Z"/><path d="M208.6,217.5a15.8,15.8,0,0,0-2.6,4,11.4,11.4,0,0,0-.7,4.3v1.6h-2.8v-1.6a11.3,11.3,0,0,1,.9-4.5,12.9,12.9,0,0,1,2.6-3.8h-6.1v-2.2h8.7Z"/><path d="M277.5,171.3a1.8,1.8,0,0,0,1.3-.6,2.5,2.5,0,0,0,.4-1.6v-.7a1.6,1.6,0,0,1-.9.7,2.4,2.4,0,0,1-1.2.3,3.3,3.3,0,0,1-2.5-1.1,4.4,4.4,0,0,1-1-3,4.1,4.1,0,0,1,4.2-4.2,4.1,4.1,0,0,1,3.1,1.2,5.7,5.7,0,0,1,1.1,3.6v3a4.2,4.2,0,0,1-1.3,3.3,4.1,4.1,0,0,1-3.2,1.3h-1.3l-1.3-.4.5-2,1,.3Zm.3-3.9.8-.2a1,1,0,0,0,.6-.5v-1.4a2.2,2.2,0,0,0-.4-1.5,1.1,1.1,0,0,0-1-.6c-.4,0-.7.2-1,.7a2.3,2.3,0,0,0-.4,1.4,2.4,2.4,0,0,0,.4,1.5A1,1,0,0,0,277.8,167.4Z"/><path d="M288.5,161.1h1.2l1.2.4-.5,2-1-.2h-.9a2.1,2.1,0,0,0-1.7.7,3.4,3.4,0,0,0-.6,2.2h0a4.1,4.1,0,0,1,1.1-.7l1.5-.3a2.9,2.9,0,0,1,2.4,1.2,4.4,4.4,0,0,1,.9,2.9,3.7,3.7,0,0,1-1.2,2.9,4.1,4.1,0,0,1-3.1,1.2,4.1,4.1,0,0,1-3.2-1.3,5.2,5.2,0,0,1-1.2-3.6v-2.4a5.4,5.4,0,0,1,1.4-3.8A5.2,5.2,0,0,1,288.5,161.1Zm-.6,6.4h-1a1.8,1.8,0,0,0-.7.5v.5a3.5,3.5,0,0,0,.4,2,1.3,1.3,0,0,0,1.2.7,1.2,1.2,0,0,0,1.1-.5,3.3,3.3,0,0,0,.4-1.4,2.6,2.6,0,0,0-.4-1.4A1.4,1.4,0,0,0,287.9,167.5Z"/><path d="M360,85.1h-8.4V83.3l3.7-4.1a4.8,4.8,0,0,0,1.1-1.5,2.6,2.6,0,0,0,.3-1.1,1.6,1.6,0,0,0-.3-1.1,1.1,1.1,0,0,0-1-.4,1,1,0,0,0-1,.5A2.6,2.6,0,0,0,354,77h-2.7a3.3,3.3,0,0,1,1.1-2.8,3.9,3.9,0,0,1,3-1.2,4.3,4.3,0,0,1,3.1,1,3.3,3.3,0,0,1,1,2.7,4.6,4.6,0,0,1-.5,2c-.4.6-1.2,1.4-2.2,2.6l-1.5,1.7H360Z"/><path d="M369.7,80.7a4.7,4.7,0,0,1-1.2,3.4,3.8,3.8,0,0,1-3,1.2,4.1,4.1,0,0,1-3.1-1.2,5.1,5.1,0,0,1-1.1-3.4V77.5a5.1,5.1,0,0,1,1.1-3.4,4.1,4.1,0,0,1,3.1-1.2,3.9,3.9,0,0,1,3,1.2,4.7,4.7,0,0,1,1.2,3.4Zm-2.8-3.4a2.9,2.9,0,0,0-.4-1.7,1,1,0,0,0-1-.5,1.2,1.2,0,0,0-1.1.5,4,4,0,0,0-.3,1.7v3.6a2.9,2.9,0,0,0,.4,1.7,1,1,0,0,0,1,.6,1.1,1.1,0,0,0,1-.6,2.9,2.9,0,0,0,.4-1.7Z"/><path d="M374.9,83.2a1.5,1.5,0,0,0,1.3-.6,2.9,2.9,0,0,0,.5-1.7v-.7a3.9,3.9,0,0,1-1,.8l-1.1.2a3.3,3.3,0,0,1-2.6-1.1,4.5,4.5,0,0,1-.9-3,4.4,4.4,0,0,1,1.1-3,4.1,4.1,0,0,1,3.1-1.2,3.8,3.8,0,0,1,3,1.3,4.8,4.8,0,0,1,1.2,3.5v3a4.5,4.5,0,0,1-1.3,3.4,4.6,4.6,0,0,1-3.3,1.2h-1.2l-1.3-.4.5-2,1,.3Zm.3-4,.9-.2.6-.5V77.2a2.5,2.5,0,0,0-.4-1.6,1.1,1.1,0,0,0-1-.5,1.3,1.3,0,0,0-1.1.6,3.2,3.2,0,0,0-.3,1.4,3.3,3.3,0,0,0,.3,1.5A1.1,1.1,0,0,0,375.2,79.2Z"/><path d="M444.5,231.9l1.3.2a2.8,2.8,0,0,1,1.2.4l-.5,2-1-.3h-.9a2.1,2.1,0,0,0-1.7.8,3.4,3.4,0,0,0-.6,2.2h0a2.6,2.6,0,0,1,1.1-.7l1.5-.3a3,3,0,0,1,2.4,1.1,4.9,4.9,0,0,1,.9,3,3.8,3.8,0,0,1-1.2,2.9,4.1,4.1,0,0,1-3.1,1.2,4.4,4.4,0,0,1-3.2-1.3,5.2,5.2,0,0,1-1.2-3.6v-2.4a4.8,4.8,0,0,1,5-5.2Zm-.5,6.5h-1a1.8,1.8,0,0,0-.7.5v.5a3.7,3.7,0,0,0,.4,2,1.3,1.3,0,0,0,1.2.7,1.3,1.3,0,0,0,1.1-.6,2.5,2.5,0,0,0,.4-1.3,2.6,2.6,0,0,0-.4-1.4A1.1,1.1,0,0,0,444,238.4Z"/><path d="M452.6,244.2h-2.8v-2.4h2.8Z"/><path d="M458.6,237a2.1,2.1,0,0,0,1.2-.4,1.5,1.5,0,0,0,.4-1.1,1.3,1.3,0,0,0-.4-1,1.5,1.5,0,0,0-1.1-.4,1.2,1.2,0,0,0-.9.3.9.9,0,0,0-.4.8h-2.7a2.5,2.5,0,0,1,1.1-2.4,4.6,4.6,0,0,1,2.9-.9,5,5,0,0,1,3.1.9,3.1,3.1,0,0,1,1.2,2.6,3,3,0,0,1-.5,1.5,3.1,3.1,0,0,1-1.4,1.1,3.1,3.1,0,0,1,1.6,1.1,2.9,2.9,0,0,1,.5,1.7,2.9,2.9,0,0,1-1.3,2.6,5.3,5.3,0,0,1-3.2,1,4.9,4.9,0,0,1-3-.9,3.1,3.1,0,0,1-1.2-2.6h2.7a1.5,1.5,0,0,0,.4,1,1.4,1.4,0,0,0,1.1.4,1.6,1.6,0,0,0,1.2-.4,1.4,1.4,0,0,0,.5-1.1,1.5,1.5,0,0,0-.5-1.2,1.7,1.7,0,0,0-1.3-.4h-1.3V237Z"/><path d="M528.9,237.2h-2.8v-9.7h-2.4v-2.1l5.2-.4Z"/><path d="M536.6,230a1.2,1.2,0,0,0,1.1-.4,1.4,1.4,0,0,0,.5-1.1,1.4,1.4,0,0,0-.5-1,1.6,1.6,0,0,0-2-.1,1.2,1.2,0,0,0-.3.9h-2.8a2.8,2.8,0,0,1,1.1-2.3,4.8,4.8,0,0,1,2.9-.9,5.3,5.3,0,0,1,3.2.9,2.8,2.8,0,0,1,1.1,2.5,2,2,0,0,1-.5,1.5,2.8,2.8,0,0,1-1.3,1.1,3.5,3.5,0,0,1,1.5,1.1,2.5,2.5,0,0,1,.5,1.7,3.1,3.1,0,0,1-1.2,2.6,5.2,5.2,0,0,1-3.3,1,4.8,4.8,0,0,1-2.9-.9,2.9,2.9,0,0,1-1.3-2.6h2.8a1,1,0,0,0,.4.9,1.3,1.3,0,0,0,1,.4,2,2,0,0,0,1.3-.4,1.3,1.3,0,0,0,.4-1,1.7,1.7,0,0,0-.4-1.3,1.8,1.8,0,0,0-1.3-.4h-1.3V230Z"/></g></g></svg>