<svg xmlns="http://www.w3.org/2000/svg" viewBox="0 0 340.8 274.4"><defs><style>.cls-1{fill:#0072bd;}.cls-1,.cls-10,.cls-11,.cls-12,.cls-13,.cls-14,.cls-15,.cls-2,.cls-3,.cls-4,.cls-5,.cls-6,.cls-7,.cls-8,.cls-9{stroke:#000;stroke-miterlimit:10;stroke-width:2px;}.cls-1,.cls-16,.cls-2,.cls-3{isolation:isolate;}.cls-18,.cls-2{fill:#fff;}.cls-3,.cls-5{fill:#fbeee9;}.cls-4{fill:#f9e6de;}.cls-6{fill:#eba586;}.cls-7{fill:#3790cb;}.cls-8{fill:#f8ded3;}.cls-9{fill:#fcf2ee;}.cls-10{fill:#61a8d6;}.cls-11{fill:#f4cebd;}.cls-12{fill:#f7dacd;}.cls-13{fill:#f5d2c2;}.cls-14{fill:#f6d6c8;}.cls-15{fill:#1e83c5;}.cls-17{fill:#262626;}</style></defs><title>MobileNet CM</title><g id="Layer_2" data-name="Layer 2"><g id="Layer_1-2" data-name="Layer 1"><rect class="cls-1" x="60" y="17.2" width="70" height="57.96"/><rect class="cls-2" x="60" y="133.2" width="70" height="57.96"/><rect class="cls-3" x="60" y="75.2" width="70" height="57.96"/><rect class="cls-4" x="60" y="191.1" width="70" height="57.96"/><rect class="cls-5" x="130.1" y="17.2" width="70" height="57.96"/><rect class="cls-6" x="130.1" y="133.2" width="70" height="57.96"/><rect class="cls-7" x="130.1" y="75.2" width="70" height="57.96"/><rect class="cls-8" x="130.1" y="191.1" width="70" height="57.96"/><rect class="cls-9" x="199.9" y="17.2" width="70" height="57.96"/><rect class="cls-10" x="199.9" y="133.2" width="70" height="57.96"/><rect class="cls-11" x="199.9" y="75.2" width="70" height="57.96"/><rect class="cls-12" x="199.9" y="191.1" width="70" height="57.96"/><rect class="cls-13" x="269.9" y="17.2" width="70" height="57.96"/><rect class="cls-14" x="269.9" y="133.2" width="70" height="57.96"/><rect class="cls-13" x="269.9" y="75.2" width="70" height="57.96"/><rect class="cls-15" x="269.9" y="191.1" width="70" height="57.96"/><g class="cls-16"><path class="cls-17" d="M75.4,263.2v-6.7h2.2a3.6,3.6,0,0,1,1.9.5,1.6,1.6,0,0,1,.6,1.4,2.4,2.4,0,0,1-.2.8,1.8,1.8,0,0,1-.7.5,1.5,1.5,0,0,1,.9.6,1.9,1.9,0,0,1-.3,2.4,2.4,2.4,0,0,1-1.8.5Zm1.4-3.9h.9a1.1,1.1,0,0,0,.8-.2.7.7,0,0,0,.3-.6c0-.4-.1-.6-.3-.7a1.2,1.2,0,0,0-.9-.3h-.8Zm0,1v1.9H78a1.5,1.5,0,0,0,.8-.2.9.9,0,0,0,.3-.7,1.1,1.1,0,0,0-.3-.8c-.2-.2-.4-.2-.8-.2Z" transform="translate(-0.9 -1.3)"/><path class="cls-17" d="M84,259.4H83c-.2.1-.3.2-.3.4v3.3H81.3v-5h1.3v.8c.2-.3.3-.5.5-.6a.9.9,0,0,1,.6-.3h.4Z" transform="translate(-0.9 -1.3)"/><path class="cls-17" d="M84.4,260.7a2.4,2.4,0,0,1,.6-1.8,2.1,2.1,0,0,1,1.7-.8,2.3,2.3,0,0,1,1.8.8,2.4,2.4,0,0,1,.6,1.8h0a2.6,2.6,0,0,1-.6,1.8,2.3,2.3,0,0,1-1.8.7,2.1,2.1,0,0,1-1.7-.7,2.6,2.6,0,0,1-.6-1.8Zm1.3.1a3.6,3.6,0,0,0,.2,1.1.9.9,0,0,0,.8.4.8.8,0,0,0,.8-.4,3.6,3.6,0,0,0,.2-1.1h0a3.1,3.1,0,0,0-.2-1.1.8.8,0,0,0-.8-.4.9.9,0,0,0-.8.4,3.6,3.6,0,0,0-.2,1.1Z" transform="translate(-0.9 -1.3)"/><path class="cls-17" d="M94.3,261.4h0l.6-3.2h1.3l-1.3,5H93.8l-.9-2.8h-.1l-.9,2.8H90.8l-1.3-5h1.3l.7,3.2h0l.9-3.2h.9Z" transform="translate(-0.9 -1.3)"/><path class="cls-17" d="M98.1,258.2v.8a.9.9,0,0,1,.6-.6,1.1,1.1,0,0,1,.8-.3,1.7,1.7,0,0,1,1.2.5,2.5,2.5,0,0,1,.4,1.6v3H99.9v-3a1.5,1.5,0,0,0-.2-.8,1.1,1.1,0,0,0-.6-.2h-.5l-.4.3v3.6H96.9v-5Z" transform="translate(-0.9 -1.3)"/><path class="cls-17" d="M105.8,261.5a.8.8,0,0,0-.2-.6l-1-.5a5.1,5.1,0,0,1-1.8-.8,1.6,1.6,0,0,1-.6-1.3,1.9,1.9,0,0,1,.7-1.4,3.1,3.1,0,0,1,1.7-.5,2.4,2.4,0,0,1,1.8.6,1.7,1.7,0,0,1,.7,1.5h-1.3a1,1,0,0,0-.3-.8,1.2,1.2,0,0,0-.9-.3.8.8,0,0,0-.7.3.6.6,0,0,0-.3.6.9.9,0,0,0,.3.6l1,.4a5.4,5.4,0,0,1,1.7.8,1.8,1.8,0,0,1,.6,1.4,1.5,1.5,0,0,1-.7,1.3,2.4,2.4,0,0,1-1.8.5,2.7,2.7,0,0,1-1.8-.5,1.7,1.7,0,0,1-.8-1.6h1.3a.8.8,0,0,0,.4.8,1.2,1.2,0,0,0,.9.3l.8-.2A.9.9,0,0,0,105.8,261.5Z" transform="translate(-0.9 -1.3)"/><path class="cls-17" d="M112.6,260.9a3.5,3.5,0,0,1-.5,1.8,2,2,0,0,1-1.5.6h-.7l-.5-.4v2.4h-1.3v-7h1.2v.6a1.2,1.2,0,0,1,.5-.5l.7-.2a1.9,1.9,0,0,1,1.5.8,3.6,3.6,0,0,1,.5,1.9Zm-1.4-.1a3.7,3.7,0,0,0-.2-1.2.8.8,0,0,0-.7-.4h-.5a.8.8,0,0,0-.4.4v2.2l.4.3h.5a.8.8,0,0,0,.7-.4,1.5,1.5,0,0,0,.2-1Z" transform="translate(-0.9 -1.3)"/><path class="cls-17" d="M113.2,260.7a2.4,2.4,0,0,1,.6-1.8,2.2,2.2,0,0,1,1.8-.8,2.1,2.1,0,0,1,1.7.8,2.4,2.4,0,0,1,.6,1.8h0a2.6,2.6,0,0,1-.6,1.8,2.1,2.1,0,0,1-1.7.7,2.1,2.1,0,0,1-1.8-.7,2.6,2.6,0,0,1-.6-1.8Zm1.3.1a2,2,0,0,0,.3,1.1c.1.3.4.4.8.4a.7.7,0,0,0,.7-.4,2,2,0,0,0,.3-1.1h0a1.8,1.8,0,0,0-.3-1.1.7.7,0,0,0-.7-.4c-.4,0-.7.1-.8.4a2,2,0,0,0-.3,1.1Z" transform="translate(-0.9 -1.3)"/><path class="cls-17" d="M120.4,257v1.2h.8v1h-.8v2.5c0,.2,0,.4.1.4l.3.2h.4v1h-.8a1.8,1.8,0,0,1-1.1-.3,1.7,1.7,0,0,1-.4-1.3v-2.5h-.7v-1h.7V257Z" transform="translate(-0.9 -1.3)"/></g><g class="cls-16"><path class="cls-17" d="M157.6,263.2h-1.4v-2.8h-2.7v2.8h-1.4v-6.7h1.4v2.9h2.7v-2.9h1.4Z" transform="translate(-0.9 -1.3)"/><path class="cls-17" d="M160.9,263.3a2.1,2.1,0,0,1-1.8-.7,2.4,2.4,0,0,1-.6-1.7v-.2a2.4,2.4,0,0,1,.6-1.8,2.1,2.1,0,0,1,1.7-.8,1.8,1.8,0,0,1,1.5.7,2.1,2.1,0,0,1,.6,1.6v.7h-3a1.2,1.2,0,0,0,.3.9,1,1,0,0,0,.8.3h.8c.2-.1.4-.1.6-.3l.4.9-.8.4Zm-.1-4.1a.6.6,0,0,0-.6.3.9.9,0,0,0-.3.7h1.6a1.5,1.5,0,0,0-.1-.7Z" transform="translate(-0.9 -1.3)"/><path class="cls-17" d="M166.6,263.2a.4.4,0,0,1-.1-.3.6.6,0,0,1-.1-.4l-.6.6a1.1,1.1,0,0,1-.8.2,1.6,1.6,0,0,1-1.2-.4,1.5,1.5,0,0,1,.2-2.2,2.4,2.4,0,0,1,1.6-.4h.8v-.4a1.1,1.1,0,0,0-.2-.6.8.8,0,0,0-.6-.2l-.5.2a.5.5,0,0,0-.2.4h-1.3a1.4,1.4,0,0,1,.6-1.1,2.5,2.5,0,0,1,3,0,1.7,1.7,0,0,1,.5,1.3V262a1.3,1.3,0,0,0,.1.6c0,.2.1.4.1.6Zm-1.2-.9h.6l.4-.4V261h-.8a.6.6,0,0,0-.6.3.5.5,0,0,0-.3.5.5.5,0,0,0,.2.4Z" transform="translate(-0.9 -1.3)"/><path class="cls-17" d="M170.2,263.2h-1.4V256h1.4Z" transform="translate(-0.9 -1.3)"/><path class="cls-17" d="M172.9,257v1.2h.8v1h-.8v2.5c0,.2,0,.4.1.4l.3.2h.4v1H173a1.8,1.8,0,0,1-1.1-.3,2.2,2.2,0,0,1-.4-1.3v-2.5h-.7v-1h.7V257Z" transform="translate(-0.9 -1.3)"/><path class="cls-17" d="M175.9,258.9c.1-.3.3-.4.5-.6l.8-.2a1.4,1.4,0,0,1,1.2.6,2.2,2.2,0,0,1,.5,1.6v2.9h-1.4v-2.9c0-.4,0-.7-.2-.9l-.5-.2h-.6l-.3.3v3.6h-1.4V256h1.4Z" transform="translate(-0.9 -1.3)"/><path class="cls-17" d="M181.7,261.1v.3h0l.9-3.2h1.5l-2,5.8-.6.9a1.8,1.8,0,0,1-1.1.4h-.7l.2-1h.2a.6.6,0,0,0,.5-.2c.2-.1.3-.2.3-.4l.2-.4-1.8-5h1.5Z" transform="translate(-0.9 -1.3)"/></g><g class="cls-16"><path class="cls-17" d="M231.2,263.2h-1.3v-2.8h-2.7v2.8h-1.4v-6.7h1.4v2.9h2.7v-2.9h1.3Z" transform="translate(-0.9 -1.3)"/><path class="cls-17" d="M233.8,257h-1.4v-1h1.4Zm0,6.2h-1.4v-5h1.4Z" transform="translate(-0.9 -1.3)"/><path class="cls-17" d="M237.6,261.9a.5.5,0,0,0-.2-.4l-.8-.3a3.2,3.2,0,0,1-1.3-.5,1.3,1.3,0,0,1,.1-2.1,2,2,0,0,1,1.4-.5,2.5,2.5,0,0,1,1.5.5,1.4,1.4,0,0,1,.6,1.1h-1.3a.8.8,0,0,0-.2-.5.7.7,0,0,0-.6-.2h-.5a.8.8,0,0,0-.2.4.5.5,0,0,0,.2.4l.8.3a3.8,3.8,0,0,1,1.4.5,1.3,1.3,0,0,1,.4,1,1.3,1.3,0,0,1-.6,1.1,2.2,2.2,0,0,1-1.5.4,2.2,2.2,0,0,1-1.6-.5,1.6,1.6,0,0,1-.5-1.1h1.2a.6.6,0,0,0,.3.6.7.7,0,0,0,.6.2h.6A.8.8,0,0,0,237.6,261.9Z" transform="translate(-0.9 -1.3)"/><path class="cls-17" d="M244.3,260.9a3.5,3.5,0,0,1-.5,1.8,1.8,1.8,0,0,1-1.4.6h-.7c-.3-.1-.4-.3-.6-.4v2.4h-1.3v-7H241v.6a1.2,1.2,0,0,1,.5-.5l.7-.2a1.8,1.8,0,0,1,1.5.8,3.6,3.6,0,0,1,.5,1.9Zm-1.4-.1a2.2,2.2,0,0,0-.2-1.2.7.7,0,0,0-.7-.4h-.5a.8.8,0,0,0-.4.4v2.2l.4.3h.5a.7.7,0,0,0,.7-.4,1.5,1.5,0,0,0,.2-1Z" transform="translate(-0.9 -1.3)"/><path class="cls-17" d="M248.1,263.2l-.2-.3v-.4l-.6.6a1.1,1.1,0,0,1-.8.2,1.6,1.6,0,0,1-1.2-.4,1.2,1.2,0,0,1-.4-1.1,1.4,1.4,0,0,1,.5-1.1,2.9,2.9,0,0,1,1.7-.4h.7v-.4a1.1,1.1,0,0,0-.1-.6l-.6-.2-.5.2a.5.5,0,0,0-.2.4h-1.3a1.4,1.4,0,0,1,.6-1.1,2.3,2.3,0,0,1,1.5-.5,2,2,0,0,1,1.4.5,1.5,1.5,0,0,1,.6,1.3V262a1.3,1.3,0,0,0,.1.6,1.3,1.3,0,0,0,.1.6Zm-1.3-.9h.7l.3-.4V261h-.7a.9.9,0,0,0-.7.3.8.8,0,0,0-.2.5.5.5,0,0,0,.2.4Z" transform="translate(-0.9 -1.3)"/></g><g class="cls-16"><path class="cls-17" d="M290,262.2h3v1h-4.3v-6.7H290Z" transform="translate(-0.9 -1.3)"/><path class="cls-17" d="M296,263.3a2.3,2.3,0,0,1-1.8-.7,2.4,2.4,0,0,1-.6-1.7v-.2a2.4,2.4,0,0,1,.6-1.8,2.1,2.1,0,0,1,1.7-.8,2.2,2.2,0,0,1,1.6.7,2.5,2.5,0,0,1,.5,1.6v.7h-3a1.2,1.2,0,0,0,.3.9,1.1,1.1,0,0,0,.8.3h.8l.7-.3.3.9a2.9,2.9,0,0,1-.8.4Zm-.1-4.1a.6.6,0,0,0-.6.3.9.9,0,0,0-.3.7h1.7a1.4,1.4,0,0,0-.2-.7A.8.8,0,0,0,295.9,259.2Z" transform="translate(-0.9 -1.3)"/><path class="cls-17" d="M301.7,263.2c0-.1-.1-.2-.1-.3s-.1-.3-.1-.4l-.5.6a1.2,1.2,0,0,1-.8.2,1.7,1.7,0,0,1-1.3-.4,1.6,1.6,0,0,1-.4-1.1,1.3,1.3,0,0,1,.6-1.1,2.5,2.5,0,0,1,1.6-.4h.8v-.4a1.1,1.1,0,0,0-.2-.6.8.8,0,0,0-.6-.2l-.5.2c-.1.1-.1.2-.1.4h-1.3a1.1,1.1,0,0,1,.5-1.1,2.5,2.5,0,0,1,3,0,1.4,1.4,0,0,1,.5,1.3V262c0,.2.1.4.1.6a1.4,1.4,0,0,0,.2.6Zm-1.2-.9h.6l.4-.4V261h-.8a.7.7,0,0,0-.6.3c-.2.1-.2.3-.2.5s0,.3.1.4Z" transform="translate(-0.9 -1.3)"/><path class="cls-17" d="M304.2,263.2v-4h-.7v-1h.7v-.5a1.7,1.7,0,0,1,.5-1.3,2,2,0,0,1,1.4-.5h.7v1h-.5c-.2,0-.4,0-.5.2a.7.7,0,0,0-.1.5v.5h.9v1h-.9v4Z" transform="translate(-0.9 -1.3)"/><path class="cls-17" d="M307.3,263.2v-6.7h2.2a3,3,0,0,1,1.8.5,1.4,1.4,0,0,1,.7,1.4,1.3,1.3,0,0,1-.3.8,1.3,1.3,0,0,1-.7.5,1.4,1.4,0,0,1,1,.6,1.9,1.9,0,0,1-.3,2.4,2.7,2.7,0,0,1-1.8.5Zm1.3-3.9h.9c.4,0,.6,0,.8-.2a.7.7,0,0,0,.3-.6c0-.4-.1-.6-.3-.7a1,1,0,0,0-.8-.3h-.9Zm0,1v1.9h1.3l.8-.2a.9.9,0,0,0,.3-.7,1.1,1.1,0,0,0-.3-.8c-.2-.2-.5-.2-.9-.2Z" transform="translate(-0.9 -1.3)"/><path class="cls-17" d="M314.6,263.2h-1.3V256h1.3Z" transform="translate(-0.9 -1.3)"/><path class="cls-17" d="M318.7,263.2l-.2-.3v-.4l-.6.6a1.1,1.1,0,0,1-.8.2,1.6,1.6,0,0,1-1.2-.4,1.2,1.2,0,0,1-.4-1.1,1.2,1.2,0,0,1,.5-1.1,2.9,2.9,0,0,1,1.7-.4h.7v-.4c0-.3,0-.4-.2-.6l-.5-.2-.5.2a.5.5,0,0,0-.2.4h-1.3a1.6,1.6,0,0,1,.5-1.1,2.5,2.5,0,0,1,1.6-.5,2,2,0,0,1,1.4.5,1.5,1.5,0,0,1,.6,1.3v2.7c.1.2.1.4.2.6Zm-1.3-.9h.7l.3-.4V261h-.7a.9.9,0,0,0-.7.3.8.8,0,0,0-.2.5.5.5,0,0,0,.2.4Z" transform="translate(-0.9 -1.3)"/><path class="cls-17" d="M323.5,261.9a.5.5,0,0,0-.2-.4l-.8-.3a3.2,3.2,0,0,1-1.3-.5,1.4,1.4,0,0,1-.5-1,1.6,1.6,0,0,1,.5-1.1,2.5,2.5,0,0,1,3,0,1.4,1.4,0,0,1,.6,1.1h-1.3a.8.8,0,0,0-.2-.5.7.7,0,0,0-.6-.2h-.5a.8.8,0,0,0-.2.4.5.5,0,0,0,.2.4l.8.3a3.8,3.8,0,0,1,1.4.5,1.3,1.3,0,0,1,.4,1,1.3,1.3,0,0,1-.6,1.1,2.4,2.4,0,0,1-1.5.4,2.1,2.1,0,0,1-1.6-.5,1.3,1.3,0,0,1-.5-1.1h1.2a.6.6,0,0,0,.3.6c.1.2.4.2.6.2h.6A.8.8,0,0,0,323.5,261.9Z" transform="translate(-0.9 -1.3)"/><path class="cls-17" d="M327.3,257v1.2h.8v1h-.8v2.5c0,.2,0,.4.1.4l.3.2h.4v1h-.8a1.8,1.8,0,0,1-1.1-.3,2.3,2.3,0,0,1-.3-1.3v-2.5h-.8v-1h.8V257Z" transform="translate(-0.9 -1.3)"/></g><g class="cls-16"><path class="cls-17" d="M169.4,273.2v2.4h-1.6v-7h2.7a3.2,3.2,0,0,1,2,.6,2.4,2.4,0,0,1,0,3.4,3.2,3.2,0,0,1-2,.6Zm0-1.2h1.1a1.1,1.1,0,1,0,0-2.2h-1.1Z" transform="translate(-0.9 -1.3)"/><path class="cls-17" d="M176.9,271.8h-1l-.3.3v3.4H174v-5.2h1.5v.8a4.3,4.3,0,0,1,.4-.7l.7-.2h.4Z" transform="translate(-0.9 -1.3)"/><path class="cls-17" d="M179.7,275.7a2.1,2.1,0,0,1-1.8-.7,2.4,2.4,0,0,1-.7-1.8V273a3.2,3.2,0,0,1,.6-2,2.5,2.5,0,0,1,1.9-.7,2.1,2.1,0,0,1,1.6.6,2.6,2.6,0,0,1,.6,1.8v.8h-3a.9.9,0,0,0,.3.6,1,1,0,0,0,.8.3h.7l.8-.3.3,1-.9.5Zm0-4.1c-.3,0-.5,0-.6.2a1.4,1.4,0,0,0-.2.7h1.4c0-.3,0-.5-.1-.6S179.9,271.6,179.7,271.6Z" transform="translate(-0.9 -1.3)"/><path class="cls-17" d="M182.4,273a3.9,3.9,0,0,1,.5-2,1.8,1.8,0,0,1,1.5-.7l.7.2.5.4v-2.8h1.6v7.5h-1.4V275l-.6.5a.8.8,0,0,1-.7.2,1.8,1.8,0,0,1-1.5-.7,3.6,3.6,0,0,1-.5-1.9Zm1.6.1a2.5,2.5,0,0,0,.2,1,.5.5,0,0,0,.6.4h.5l.3-.3V272q-.2-.3-.3-.3h-.5a.5.5,0,0,0-.6.4,2.5,2.5,0,0,0-.2,1Z" transform="translate(-0.9 -1.3)"/><path class="cls-17" d="M189.9,269.2h-1.7v-1.1h1.7Zm0,6.4h-1.7v-5.2h1.7Z" transform="translate(-0.9 -1.3)"/><path class="cls-17" d="M193.1,274.5l.5-.2a.8.8,0,0,0,.2-.5h1.5a1.8,1.8,0,0,1-.6,1.4,2.1,2.1,0,0,1-1.6.5,2.1,2.1,0,0,1-1.8-.7,2.5,2.5,0,0,1-.7-1.9h0a2.7,2.7,0,0,1,.7-2,2.1,2.1,0,0,1,1.8-.7,2.5,2.5,0,0,1,1.6.5,2.1,2.1,0,0,1,.6,1.6h-1.5a.8.8,0,0,0-.2-.6c-.1-.2-.3-.2-.5-.2a.9.9,0,0,0-.7.3,3.4,3.4,0,0,0-.1,1.1h0a2.8,2.8,0,0,0,.1,1A1,1,0,0,0,193.1,274.5Z" transform="translate(-0.9 -1.3)"/><path class="cls-17" d="M197.8,269.1v1.3h.9v1.1h-.9v2.4c0,.2.1.3.1.4a.5.5,0,0,0,.4.2h.3l.2,1.2h-1a1.6,1.6,0,0,1-1.2-.4,1.8,1.8,0,0,1-.4-1.4v-2.4h-.7v-1.1h.7v-1.3Z" transform="translate(-0.9 -1.3)"/><path class="cls-17" d="M201.8,275.7a2.5,2.5,0,0,1-1.9-.7,2.9,2.9,0,0,1-.7-1.8V273a2.7,2.7,0,0,1,.7-2,2.1,2.1,0,0,1,1.8-.7,2.4,2.4,0,0,1,1.7.6,3.2,3.2,0,0,1,.5,1.8v.8h-3l.3.6a1.1,1.1,0,0,0,.8.3h.8l.7-.3.4,1-.9.5Zm-.1-4.1a.7.7,0,0,0-.6.2,1.4,1.4,0,0,0-.2.7h1.4c0-.3,0-.5-.1-.6S201.9,271.6,201.7,271.6Z" transform="translate(-0.9 -1.3)"/><path class="cls-17" d="M204.4,273a3.9,3.9,0,0,1,.5-2,1.9,1.9,0,0,1,1.6-.7l.6.2a1,1,0,0,1,.5.4v-2.8h1.7v7.5h-1.5V275a1.2,1.2,0,0,1-.5.5,1.1,1.1,0,0,1-.8.2,1.8,1.8,0,0,1-1.5-.7,3.6,3.6,0,0,1-.5-1.9Zm1.6.1a2.5,2.5,0,0,0,.2,1,.8.8,0,0,0,.7.4h.4l.3-.3V272a.3.3,0,0,0-.3-.3h-.4a.8.8,0,0,0-.7.4,2.5,2.5,0,0,0-.2,1Z" transform="translate(-0.9 -1.3)"/><path class="cls-17" d="M218.2,273.3h0a2.1,2.1,0,0,1-.7,1.8,3,3,0,0,1-2,.6,2.8,2.8,0,0,1-2.1-.8,2.9,2.9,0,0,1-.8-2.1v-1.4a2.9,2.9,0,0,1,.8-2.1,2.4,2.4,0,0,1,2-.8,3.3,3.3,0,0,1,2.1.6,2.1,2.1,0,0,1,.7,1.8h-1.6a1.1,1.1,0,0,0-1.2-1.2.9.9,0,0,0-.8.5,2.1,2.1,0,0,0-.3,1.2v1.4a2.1,2.1,0,0,0,.3,1.2,1.1,1.1,0,0,0,.9.5c.4,0,.7-.1.8-.3a1.2,1.2,0,0,0,.3-.9Z" transform="translate(-0.9 -1.3)"/><path class="cls-17" d="M220.7,275.6h-1.6v-7.5h1.6Z" transform="translate(-0.9 -1.3)"/><path class="cls-17" d="M224.7,275.6c0-.1-.1-.2-.1-.3a.9.9,0,0,1-.1-.5l-.5.7-.9.2a1.5,1.5,0,0,1-1.7-1.5,1.2,1.2,0,0,1,.6-1.2,3,3,0,0,1,1.8-.5h.6v-.3a1.1,1.1,0,0,0-.1-.6h-.9a.5.5,0,0,0-.2.4h-1.6a1.4,1.4,0,0,1,.6-1.2,3.1,3.1,0,0,1,1.7-.5,2.8,2.8,0,0,1,1.6.5,1.7,1.7,0,0,1,.6,1.4v2.7l.3.7Zm-1.1-1,.5-.2q.3-.1.3-.3v-.7h-.6a.8.8,0,0,0-.6.2.8.8,0,0,0-.2.5l.2.3A.5.5,0,0,0,223.6,274.6Z" transform="translate(-0.9 -1.3)"/><path class="cls-17" d="M229.7,274.2a.5.5,0,0,0-.2-.4l-.8-.3a3.8,3.8,0,0,1-1.4-.5,1.4,1.4,0,0,1-.5-1,1.4,1.4,0,0,1,.6-1.2,2.5,2.5,0,0,1,1.6-.5,3.1,3.1,0,0,1,1.7.5,1.1,1.1,0,0,1,.5,1.2h-1.6a.7.7,0,0,0-.1-.5h-.9c-.2.1-.2.2-.2.4s0,.2.2.3l.8.3a3.8,3.8,0,0,1,1.4.5,1.6,1.6,0,0,1,.5,1.1,1.3,1.3,0,0,1-.7,1.2,2.5,2.5,0,0,1-1.6.4,2.3,2.3,0,0,1-1.7-.5,1.7,1.7,0,0,1-.6-1.2h1.5a.8.8,0,0,0,.2.5l.6.2a.6.6,0,0,0,.5-.2C229.6,274.4,229.7,274.3,229.7,274.2Z" transform="translate(-0.9 -1.3)"/><path class="cls-17" d="M234.8,274.2a.5.5,0,0,0-.2-.4l-.8-.3a3.2,3.2,0,0,1-1.4-.5,1.4,1.4,0,0,1-.5-1,1.4,1.4,0,0,1,.6-1.2,2.8,2.8,0,0,1,3.2,0,1.4,1.4,0,0,1,.6,1.2h-1.6a.7.7,0,0,0-.1-.5h-1c-.1.1-.1.2-.1.4s0,.2.2.3l.8.3a3.8,3.8,0,0,1,1.4.5,1.5,1.5,0,0,1,.4,1.1,1.4,1.4,0,0,1-.6,1.2,2.5,2.5,0,0,1-1.6.4,2.3,2.3,0,0,1-1.7-.5,1.7,1.7,0,0,1-.6-1.2h1.5a.8.8,0,0,0,.2.5l.6.2.5-.2C234.7,274.4,234.8,274.3,234.8,274.2Z" transform="translate(-0.9 -1.3)"/></g><g class="cls-16"><path class="cls-17" d="M12.9,51.3V44.6h2.2a3.6,3.6,0,0,1,1.9.5,1.7,1.7,0,0,1,.7,1.4,1.3,1.3,0,0,1-.3.8,1.3,1.3,0,0,1-.7.5A1.5,1.5,0,0,1,18,49.4a1.8,1.8,0,0,1-.7,1.5,3,3,0,0,1-1.8.4Zm1.4-3.9h.9a1.1,1.1,0,0,0,.8-.2.6.6,0,0,0,.3-.6.8.8,0,0,0-.3-.7c-.2-.2-.5-.2-.9-.2h-.8Zm0,1v1.9h1.2l.9-.2a1.4,1.4,0,0,0,.2-.7,1.9,1.9,0,0,0-.2-.8l-.9-.2Z" transform="translate(-0.9 -1.3)"/><path class="cls-17" d="M21.5,47.5h-1l-.3.4v3.3H18.9v-5h1.2v.8a.9.9,0,0,1,.4-.6.8.8,0,0,1,.7-.2h.3Z" transform="translate(-0.9 -1.3)"/><path class="cls-17" d="M21.9,48.8a2.6,2.6,0,0,1,.6-1.8,2.1,2.1,0,0,1,1.7-.7A2.1,2.1,0,0,1,26,47a2.6,2.6,0,0,1,.6,1.8h0a2.4,2.4,0,0,1-.6,1.8,2.1,2.1,0,0,1-1.7.7,2.1,2.1,0,0,1-1.8-.7,2.4,2.4,0,0,1-.6-1.8Zm1.3.1a1.8,1.8,0,0,0,.3,1.1c.1.3.4.4.8.4A.7.7,0,0,0,25,50a1.8,1.8,0,0,0,.3-1.1h0a2,2,0,0,0-.3-1.1c-.1-.3-.4-.4-.8-.4a.7.7,0,0,0-.7.4,2,2,0,0,0-.3,1.1Z" transform="translate(-0.9 -1.3)"/><path class="cls-17" d="M31.8,49.5h0l.6-3.2h1.3l-1.2,5H31.3l-.9-2.8h0l-.9,2.8H28.3l-1.2-5h1.3l.6,3.2h0l1-3.2h.9Z" transform="translate(-0.9 -1.3)"/><path class="cls-17" d="M35.6,46.3v.8a1.7,1.7,0,0,1,.6-.6,1.2,1.2,0,0,1,.8-.2,1.6,1.6,0,0,1,1.2.4,2.5,2.5,0,0,1,.4,1.6v3H37.4v-3a1.5,1.5,0,0,0-.2-.8.8.8,0,0,0-.6-.2h-.5l-.4.3v3.6H34.4v-5Z" transform="translate(-0.9 -1.3)"/><path class="cls-17" d="M43.4,49.6a.6.6,0,0,0-.3-.6,3,3,0,0,0-1-.5,5.4,5.4,0,0,1-1.7-.8,1.6,1.6,0,0,1-.6-1.3,1.8,1.8,0,0,1,.6-1.4,3.5,3.5,0,0,1,1.8-.5,2.8,2.8,0,0,1,1.8.6,1.7,1.7,0,0,1,.6,1.5H43.3a1.1,1.1,0,0,0-.3-.8,1.1,1.1,0,0,0-.8-.2c-.4,0-.6,0-.8.2a.7.7,0,0,0,0,1.2l1,.4a3.4,3.4,0,0,1,1.7.9,1.5,1.5,0,0,1,.6,1.3,1.4,1.4,0,0,1-.7,1.3,2.3,2.3,0,0,1-1.7.5,2.9,2.9,0,0,1-1.9-.5,1.9,1.9,0,0,1-.8-1.6h1.3a.9.9,0,0,0,.4.8,1.5,1.5,0,0,0,1,.3,1.1,1.1,0,0,0,.8-.2A.9.9,0,0,0,43.4,49.6Z" transform="translate(-0.9 -1.3)"/><path class="cls-17" d="M50.1,49a3.5,3.5,0,0,1-.5,1.8,1.7,1.7,0,0,1-1.4.6h-.7l-.6-.4v2.4H45.6v-7h1.2v.6l.5-.5h.8a1.5,1.5,0,0,1,1.4.7,3.6,3.6,0,0,1,.5,1.9Zm-1.3-.1a2.1,2.1,0,0,0-.3-1.2.8.8,0,0,0-.7-.4h-.5l-.4.4V50l.4.3h.5a.7.7,0,0,0,.7-.4,1.5,1.5,0,0,0,.3-1Z" transform="translate(-0.9 -1.3)"/><path class="cls-17" d="M50.7,48.8a2.3,2.3,0,0,1,.7-1.8,2.4,2.4,0,0,1,3.4,0,2.7,2.7,0,0,1,.7,1.8h0a2.5,2.5,0,0,1-.7,1.8,2.4,2.4,0,0,1-3.4,0,2.1,2.1,0,0,1-.7-1.8Zm1.4.1a3.1,3.1,0,0,0,.2,1.1.8.8,0,0,0,.8.4.9.9,0,0,0,.8-.4,3.1,3.1,0,0,0,.2-1.1h0a3.6,3.6,0,0,0-.2-1.1.9.9,0,0,0-.8-.4.8.8,0,0,0-.8.4,3.6,3.6,0,0,0-.2,1.1Z" transform="translate(-0.9 -1.3)"/><path class="cls-17" d="M57.9,45.1v1.2h.8v1h-.8v2.5a.7.7,0,0,0,.1.5h.7v1H58a1.8,1.8,0,0,1-1.1-.3,2.3,2.3,0,0,1-.3-1.3V47.3h-.8v-1h.8V45.1Z" transform="translate(-0.9 -1.3)"/></g><g class="cls-16"><path class="cls-17" d="M31.9,109.3H30.5v-2.8H27.8v2.8H26.5v-6.7h1.3v2.9h2.7v-2.9h1.4Z" transform="translate(-0.9 -1.3)"/><path class="cls-17" d="M35.2,109.4a2.4,2.4,0,0,1-2.4-2.4v-.2a2.9,2.9,0,0,1,.6-1.9,2.4,2.4,0,0,1,1.7-.7,2.1,2.1,0,0,1,1.6.6,3.1,3.1,0,0,1,.5,1.7v.7h-3a1.4,1.4,0,0,0,.3.9,1.1,1.1,0,0,0,.8.3h.8l.7-.3.3.8-.8.4A2,2,0,0,1,35.2,109.4Zm-.1-4.1a.8.8,0,0,0-.6.2c-.2.2-.2.5-.3.8h1.7a1.4,1.4,0,0,0-.2-.7C35.6,105.3,35.4,105.3,35.1,105.3Z" transform="translate(-0.9 -1.3)"/><path class="cls-17" d="M40.9,109.3V109c0-.2-.1-.3-.1-.4l-.5.6-.8.2c-.6,0-1-.1-1.2-.4a1.4,1.4,0,0,1-.5-1.1,1.1,1.1,0,0,1,.6-1.1,2.5,2.5,0,0,1,1.6-.4h.8V106a.7.7,0,0,0-.8-.8l-.5.2c-.1.1-.1.2-.1.4H38a1.1,1.1,0,0,1,.5-1.1,2.5,2.5,0,0,1,3,0,1.5,1.5,0,0,1,.6,1.3v2.7a1.4,1.4,0,0,0,.2.6Zm-1.2-.9a.7.7,0,0,0,.6-.2l.4-.4v-.7h-.8l-.6.2a.7.7,0,0,0-.2.6.6.6,0,0,0,.1.4Z" transform="translate(-0.9 -1.3)"/><path class="cls-17" d="M44.5,109.3H43.1v-7.2h1.4Z" transform="translate(-0.9 -1.3)"/><path class="cls-17" d="M47.2,103.1v1.2h.9v1h-.9v2.5c0,.2,0,.3.1.4H48v1h-.8a1.4,1.4,0,0,1-1.1-.4,1.7,1.7,0,0,1-.3-1.2v-2.5h-.8v-1h.8v-1.2Z" transform="translate(-0.9 -1.3)"/><path class="cls-17" d="M50.2,104.9l.6-.5.7-.2a1.7,1.7,0,0,1,1.3.5,2.5,2.5,0,0,1,.4,1.6v3H51.9v-3a1.9,1.9,0,0,0-.2-.8l-.6-.2h-.5c-.2,0-.3.1-.4.3v3.6H48.9v-7.2h1.3Z" transform="translate(-0.9 -1.3)"/><path class="cls-17" d="M56,107.2v.3h0l1-3.2h1.4l-2,5.8a4.7,4.7,0,0,1-.6.9,1.6,1.6,0,0,1-1.1.3h-.7l.2-1h.3l.5-.2.3-.4v-.4l-1.8-5h1.5Z" transform="translate(-0.9 -1.3)"/></g><g class="cls-16"><path class="cls-17" d="M39.3,167.3H38v-2.8H35.2v2.8H33.9v-6.7h1.3v2.8H38v-2.8h1.3Z" transform="translate(-0.9 -1.3)"/><path class="cls-17" d="M41.9,161.1H40.5v-1h1.4Zm0,6.2H40.5v-5h1.4Z" transform="translate(-0.9 -1.3)"/><path class="cls-17" d="M45.7,165.9a.5.5,0,0,0-.2-.4l-.8-.3a3.2,3.2,0,0,1-1.3-.5,1,1,0,0,1-.5-1,1.6,1.6,0,0,1,.5-1.1,3,3,0,0,1,3,0,1.4,1.4,0,0,1,.6,1.2H45.6a.7.7,0,0,0-.1-.5l-.6-.2-.5.2a.5.5,0,0,0-.2.4.8.8,0,0,0,.2.4l.8.2a2.6,2.6,0,0,1,1.4.6,1,1,0,0,1,.4.9,1.1,1.1,0,0,1-.6,1.1,2.5,2.5,0,0,1-1.5.5,2.5,2.5,0,0,1-1.6-.5,1.6,1.6,0,0,1-.5-1.2H44a.6.6,0,0,0,.3.6l.6.2.6-.2A.5.5,0,0,0,45.7,165.9Z" transform="translate(-0.9 -1.3)"/><path class="cls-17" d="M52.4,164.9a3,3,0,0,1-.5,1.8,1.7,1.7,0,0,1-1.5.7l-.7-.2-.5-.4v2.4H47.9v-6.9h1.2v.6a1.2,1.2,0,0,1,.5-.5,1,1,0,0,1,.7-.2,1.8,1.8,0,0,1,1.5.7,3.6,3.6,0,0,1,.5,1.9Zm-1.4-.1a1.8,1.8,0,0,0-.2-1.1c-.2-.3-.4-.5-.7-.5l-.5.2c-.2,0-.3.2-.4.3v2.2c.1.1.2.3.4.3h.5a.8.8,0,0,0,.7-.3,1.8,1.8,0,0,0,.2-1.1Z" transform="translate(-0.9 -1.3)"/><path class="cls-17" d="M56.2,167.3c-.1-.1-.1-.3-.2-.4v-.4a1.7,1.7,0,0,1-.6.6,1.1,1.1,0,0,1-.8.3,2.1,2.1,0,0,1-1.2-.4,1.5,1.5,0,0,1-.4-1.1,1.3,1.3,0,0,1,.5-1.2,3.9,3.9,0,0,1,1.7-.4h.7v-.4c0-.2,0-.4-.2-.5s-.3-.2-.5-.2h-.5a.8.8,0,0,0-.2.5H53.2a1.8,1.8,0,0,1,.5-1.1,2.5,2.5,0,0,1,1.6-.4,2,2,0,0,1,1.4.4,1.6,1.6,0,0,1,.6,1.3v2.8l.2.6Zm-1.3-.9.7-.2.3-.4v-.7h-.7l-.7.2a.8.8,0,0,0-.2.5.5.5,0,0,0,.2.4Z" transform="translate(-0.9 -1.3)"/></g><g class="cls-16"><path class="cls-17" d="M18.6,224.2h3v1H17.2v-6.7h1.4Z" transform="translate(-0.9 -1.3)"/><path class="cls-17" d="M24.5,225.3a2.4,2.4,0,0,1-1.7-.6,2.8,2.8,0,0,1-.6-1.8v-.2a2.6,2.6,0,0,1,.6-1.8,1.6,1.6,0,0,1,1.6-.7,2.1,2.1,0,0,1,1.6.6,2.1,2.1,0,0,1,.5,1.6v.7h-3l.3.8a1.2,1.2,0,0,0,.9.3h.7a.9.9,0,0,0,.7-.3l.4.9-.8.4Zm-.1-4.1-.6.3a1.4,1.4,0,0,0-.2.7h1.6a.7.7,0,0,0-.8-.9Z" transform="translate(-0.9 -1.3)"/><path class="cls-17" d="M30.3,225.2l-.2-.3v-.4l-.6.6a1.1,1.1,0,0,1-.8.2,1.6,1.6,0,0,1-1.2-.4,1.2,1.2,0,0,1-.4-1.1,1.4,1.4,0,0,1,.5-1.1,2.9,2.9,0,0,1,1.7-.4H30v-.4a.7.7,0,0,0-.2-.6l-.5-.2-.5.2a.5.5,0,0,0-.2.4H27.3a1.6,1.6,0,0,1,.5-1.1,2.5,2.5,0,0,1,1.6-.4,2,2,0,0,1,1.4.4,1.5,1.5,0,0,1,.6,1.3v2.7c.1.2.1.4.2.6Zm-1.3-.9h.7l.3-.4v-.7h-.7a.8.8,0,0,0-.7.2.8.8,0,0,0-.2.5.5.5,0,0,0,.2.4Z" transform="translate(-0.9 -1.3)"/><path class="cls-17" d="M32.8,225.2v-4H32v-1h.8v-.5a1.7,1.7,0,0,1,.4-1.3,2.2,2.2,0,0,1,1.4-.5h.7v1h-.4a.6.6,0,0,0-.5.2.8.8,0,0,0-.2.5v.5h1v1h-1v4Z" transform="translate(-0.9 -1.3)"/><path class="cls-17" d="M35.8,225.2v-6.7H38a3.6,3.6,0,0,1,1.9.5,1.6,1.6,0,0,1,.6,1.4,2.4,2.4,0,0,1-.2.8,1.8,1.8,0,0,1-.7.5,1.5,1.5,0,0,1,.9.6,1.9,1.9,0,0,1-.3,2.4,2.4,2.4,0,0,1-1.8.5Zm1.4-3.9h.9a1.1,1.1,0,0,0,.8-.2.7.7,0,0,0,.3-.6.8.8,0,0,0-.3-.7c-.2-.2-.5-.2-.9-.2h-.8Zm0,1v1.9h1.2l.8-.2a.9.9,0,0,0,.3-.7,1.1,1.1,0,0,0-.3-.8l-.8-.2Z" transform="translate(-0.9 -1.3)"/><path class="cls-17" d="M43.1,225.2H41.8V218h1.3Z" transform="translate(-0.9 -1.3)"/><path class="cls-17" d="M47.2,225.2v-.3a.6.6,0,0,1-.1-.4l-.5.6a1.3,1.3,0,0,1-.9.2,1.6,1.6,0,0,1-1.2-.4,1.5,1.5,0,0,1,.2-2.2,2.4,2.4,0,0,1,1.6-.4H47v-.4a1.4,1.4,0,0,0-.2-.6l-.6-.2-.5.2a.5.5,0,0,0-.2.4H44.2a1.4,1.4,0,0,1,.6-1.1,3,3,0,0,1,3,0,1.7,1.7,0,0,1,.5,1.3V224a1.3,1.3,0,0,0,.1.6,1.4,1.4,0,0,0,.2.6Zm-1.2-.9h.6l.4-.4v-.7h-.8c-.3,0-.5,0-.6.2s-.2.3-.2.5,0,.3.1.4Z" transform="translate(-0.9 -1.3)"/><path class="cls-17" d="M52,223.9c0-.2,0-.3-.2-.4l-.8-.3a3.2,3.2,0,0,1-1.3-.5,1.3,1.3,0,0,1,.1-2.1,2.1,2.1,0,0,1,1.4-.4,2.5,2.5,0,0,1,1.6.4,1.6,1.6,0,0,1,.5,1.1H52a.8.8,0,0,0-.2-.5c-.1-.2-.3-.2-.6-.2h-.5l-.2.4a.5.5,0,0,0,.2.4l.8.3a3.8,3.8,0,0,1,1.4.5,1.4,1.4,0,0,1,.5,1,1.3,1.3,0,0,1-.6,1.1,2.5,2.5,0,0,1-1.6.4,2,2,0,0,1-1.5-.5,1.4,1.4,0,0,1-.6-1.1h1.3a.8.8,0,0,0,.2.5.8.8,0,0,0,.7.2h.5A.4.4,0,0,0,52,223.9Z" transform="translate(-0.9 -1.3)"/><path class="cls-17" d="M55.8,219v1.2h.9v1h-.9v2.5a.8.8,0,0,0,.2.5h.6l.2,1h-.9a1.5,1.5,0,0,1-1-.3,1.7,1.7,0,0,1-.4-1.3v-2.5h-.7v-1h.7V219Z" transform="translate(-0.9 -1.3)"/></g><g class="cls-16"><path class="cls-17" d="M2.7,153.4v1.9H8.5v1.6H2.7v1.9H1.4v-5.4Z" transform="translate(-0.9 -1.3)"/><path class="cls-17" d="M4.6,150.3v.5a4.3,4.3,0,0,0,.1.5l.3.3H8.5v1.6H3.2v-1.5H4l-.6-.4a.9.9,0,0,1-.3-.7v-.4Z" transform="translate(-0.9 -1.3)"/><path class="cls-17" d="M7.7,146.5l.7.6a2.9,2.9,0,0,1,.2.9,1.6,1.6,0,0,1-.6,1.3,3,3,0,0,1-1.8.4h-3v-1.6H7.1c.1-.2.2-.3.2-.5V147l-.3-.3H3.2V145H8.5v1.3Z" transform="translate(-0.9 -1.3)"/><path class="cls-17" d="M8.6,141.8a2.9,2.9,0,0,1-.7,1.9,2.9,2.9,0,0,1-1.9.6H5.9a3.2,3.2,0,0,1-2-.6,2.2,2.2,0,0,1-.8-1.8,2.4,2.4,0,0,1,.7-1.7,2.4,2.4,0,0,1,1.7-.6h.9v3h0l.7-.4a1.2,1.2,0,0,0,.2-.7,1.9,1.9,0,0,0-.1-.8,2.5,2.5,0,0,0-.2-.7l1-.4a1.9,1.9,0,0,1,.4.9A5,5,0,0,1,8.6,141.8Zm-4.2.1a.5.5,0,0,0,.3.5c.1.2.3.2.6.3h.1v-1.5H5.2l-.6.2A.6.6,0,0,0,4.4,141.9Z" transform="translate(-0.9 -1.3)"/><path class="cls-17" d="M6.1,131h0a2.4,2.4,0,0,1,1.9.6,3.2,3.2,0,0,1,.6,2,2.9,2.9,0,0,1-.8,2.1,2.9,2.9,0,0,1-2.1.8H4.2a3.1,3.1,0,0,1-2.1-.7,3,3,0,0,1-.8-2.1,2.4,2.4,0,0,1,.7-2,2.2,2.2,0,0,1,1.8-.8h0v1.6c-.4,0-.7,0-.9.2a1.2,1.2,0,0,0-.3.9,1,1,0,0,0,.4.9,2.1,2.1,0,0,0,1.2.3H5.7a2.1,2.1,0,0,0,1.2-.3,1.3,1.3,0,0,0,.4-1,1,1,0,0,0-.3-.8c-.1-.2-.5-.2-.9-.2Z" transform="translate(-0.9 -1.3)"/><path class="cls-17" d="M8.5,128.4v1.7H.9v-1.7Z" transform="translate(-0.9 -1.3)"/><path class="cls-17" d="M8.5,124.4l-.4.2H7.7a1.5,1.5,0,0,1,.6.5,1.1,1.1,0,0,1,.3.8,2.2,2.2,0,0,1-.4,1.3,1.6,1.6,0,0,1-1.2.4,1.3,1.3,0,0,1-1.2-.5,3,3,0,0,1-.4-1.8v-.7H5l-.5.2a.6.6,0,0,0-.2.5c0,.2.1.3.1.4h.5v1.6H4.8a1.4,1.4,0,0,1-1.2-.6,2.8,2.8,0,0,1-.5-1.6,2.5,2.5,0,0,1,.5-1.6,1.8,1.8,0,0,1,1.4-.6H7.8l.7-.2Zm-1.1,1.2a1.3,1.3,0,0,0-.1-.6l-.4-.3H6.3v.7a.7.7,0,0,0,.1.5.6.6,0,0,0,.5.2h.4A.6.6,0,0,0,7.4,125.6Z" transform="translate(-0.9 -1.3)"/><path class="cls-17" d="M7,119.4q-.1,0-.3.3a2.2,2.2,0,0,0-.3.8,3,3,0,0,1-.6,1.4,1.2,1.2,0,0,1-1,.4,1.4,1.4,0,0,1-1.2-.6,2.5,2.5,0,0,1-.5-1.5,2.9,2.9,0,0,1,.5-1.7,1.4,1.4,0,0,1,1.2-.6h.1v1.6a.6.6,0,0,0-.5.2.6.6,0,0,0-.2.5.8.8,0,0,0,.2.4l.3.2a.5.5,0,0,0,.4-.2,1.5,1.5,0,0,0,.2-.8,3.6,3.6,0,0,1,.6-1.5,1.2,1.2,0,0,1,1.1-.4,1.4,1.4,0,0,1,1.1.6,2.9,2.9,0,0,1,.5,1.7,2.5,2.5,0,0,1-.6,1.7,1.1,1.1,0,0,1-1.2.5h0V121c.2-.1.4-.1.5-.3a.8.8,0,0,0,.2-.6.7.7,0,0,0-.1-.5Z" transform="translate(-0.9 -1.3)"/><path class="cls-17" d="M7,114.4c-.1,0-.2,0-.3.2a2.2,2.2,0,0,0-.3.8,2.6,2.6,0,0,1-.6,1.4,1.2,1.2,0,0,1-1,.4,1.7,1.7,0,0,1-1.2-.5,2.8,2.8,0,0,1-.5-1.6,2.9,2.9,0,0,1,.5-1.7,1.4,1.4,0,0,1,1.2-.6h.1v1.6a.6.6,0,0,0-.5.2.8.8,0,0,0-.2.5.5.5,0,0,0,.2.4l.3.2a.5.5,0,0,0,.4-.2,1.3,1.3,0,0,0,.2-.8,3.1,3.1,0,0,1,.6-1.4,1.3,1.3,0,0,1,1.1-.5,1.4,1.4,0,0,1,1.1.6,2.9,2.9,0,0,1,.5,1.7,2.4,2.4,0,0,1-.6,1.7,1.4,1.4,0,0,1-1.2.6h0v-1.5l.5-.2a1.4,1.4,0,0,0,.2-.7.9.9,0,0,0-.1-.5Z" transform="translate(-0.9 -1.3)"/></g><path class="cls-18" d="M91.5,50h2v2.7h-2v3.8H88.1V52.7H81V50.6L88,39.2h3.5ZM84,50h4.1V43.7H88l-.4.8Z" transform="translate(-0.9 -1.3)"/><path class="cls-18" d="M107,50.2a7.3,7.3,0,0,1-1.6,4.8,5.8,5.8,0,0,1-4.3,1.7A5.7,5.7,0,0,1,96.9,55a6.8,6.8,0,0,1-1.6-4.8V45.4a6.4,6.4,0,0,1,1.6-4.7,5.3,5.3,0,0,1,4.2-1.8,5.5,5.5,0,0,1,4.3,1.8,6.8,6.8,0,0,1,1.6,4.7Zm-3.5-5.1a4.8,4.8,0,0,0-.6-2.6,2,2,0,0,0-1.8-.9,2,2,0,0,0-1.7.9,4,4,0,0,0-.7,2.6v5.4a3.8,3.8,0,0,0,.7,2.6,1.9,1.9,0,0,0,1.7,1,1.9,1.9,0,0,0,1.8-1,4.5,4.5,0,0,0,.6-2.6Z" transform="translate(-0.9 -1.3)"/><path d="M171.9,56.5H160.3V54.2l5.3-6.1a9.8,9.8,0,0,0,1.7-2.4,3.1,3.1,0,0,0,.5-1.8,2.5,2.5,0,0,0-.5-1.7,2,2,0,0,0-1.6-.6,2.1,2.1,0,0,0-1.7.8,3,3,0,0,0-.7,2.1h-3.4a5.3,5.3,0,0,1,1.6-3.9,5.4,5.4,0,0,1,4.2-1.6,5.6,5.6,0,0,1,4.1,1.4,4.6,4.6,0,0,1,1.5,3.6,5.7,5.7,0,0,1-.8,2.9,39.5,39.5,0,0,1-2.9,3.5l-2.8,3.4h7.1Z" transform="translate(-0.9 -1.3)"/><path class="cls-18" d="M158,104.3a2.6,2.6,0,0,0,1.9-.7,2.4,2.4,0,0,0,.6-1.8,2.3,2.3,0,0,0-.6-1.6,2.8,2.8,0,0,0-1.8-.6,2.2,2.2,0,0,0-1.6.5,2.1,2.1,0,0,0-.7,1.5h-3.3a3.7,3.7,0,0,1,1.5-3.3,6.3,6.3,0,0,1,4.1-1.3,7.1,7.1,0,0,1,4.3,1.2,4.7,4.7,0,0,1,1.5,3.7,4.3,4.3,0,0,1-.6,2.2,5.8,5.8,0,0,1-1.9,1.5,4.9,4.9,0,0,1,2.1,1.6,4.1,4.1,0,0,1,.7,2.5,4.5,4.5,0,0,1-1.7,3.7,6.8,6.8,0,0,1-4.4,1.4,6.3,6.3,0,0,1-4.1-1.3,4.3,4.3,0,0,1-1.8-3.6h3.4a2.6,2.6,0,0,0,.7,1.7,2.8,2.8,0,0,0,1.8.6,2.5,2.5,0,0,0,1.9-.7,2.3,2.3,0,0,0,.8-1.8,3,3,0,0,0-.7-2,3.3,3.3,0,0,0-2.1-.6h-1.9v-2.6Z" transform="translate(-0.9 -1.3)"/><path class="cls-18" d="M174.6,114.4h-3.5V100.1h-3.5V97.5l7-.6Z" transform="translate(-0.9 -1.3)"/><path d="M231.3,114.4h-3.4V100.1h-3.6V97.5l7-.6Z" transform="translate(-0.9 -1.3)"/><path d="M248.7,108.2a6.8,6.8,0,0,1-1.6,4.7,5.5,5.5,0,0,1-4.3,1.8,5.3,5.3,0,0,1-4.2-1.8,6.4,6.4,0,0,1-1.6-4.7v-4.8a6.8,6.8,0,0,1,1.6-4.8,5.4,5.4,0,0,1,4.2-1.7,5.8,5.8,0,0,1,4.3,1.7,7.3,7.3,0,0,1,1.6,4.8Zm-3.5-5.2a4.4,4.4,0,0,0-.6-2.5,2.2,2.2,0,0,0-3.6,0,4.4,4.4,0,0,0-.6,2.5v5.5a4.8,4.8,0,0,0,.6,2.6,2.3,2.3,0,0,0,1.8.9,2,2,0,0,0,1.8-.9,4.8,4.8,0,0,0,.6-2.6Z" transform="translate(-0.9 -1.3)"/><path d="M235,172.4H223.3v-2.3l5.4-6a15.9,15.9,0,0,0,1.7-2.4,4.9,4.9,0,0,0,.5-1.8,2.9,2.9,0,0,0-.5-1.7,1.9,1.9,0,0,0-1.6-.7,2.2,2.2,0,0,0-1.8.8,3.7,3.7,0,0,0-.6,2.1H223a5.6,5.6,0,0,1,1.5-3.9,6.1,6.1,0,0,1,4.3-1.6,6,6,0,0,1,4.1,1.4,4.7,4.7,0,0,1,1.5,3.7,5.7,5.7,0,0,1-.8,2.8,37.7,37.7,0,0,1-2.9,3.6l-2.8,3.4H235Z" transform="translate(-0.9 -1.3)"/><path d="M247.3,166h1.9v2.6h-1.9v3.8h-3.5v-3.8h-7.1v-2l7.2-11.5h3.5Zm-7.6,0h4.1v-6.3h-.1l-.3.7Z" transform="translate(-0.9 -1.3)"/><path class="cls-18" d="M297.8,222.5a2.1,2.1,0,0,0,2.4-2.4,2.1,2.1,0,0,0-.6-1.6,2.1,2.1,0,0,0-1.8-.7,2,2,0,0,0-1.5.6,1.8,1.8,0,0,0-.7,1.5h-3.4a4.1,4.1,0,0,1,1.6-3.3,6,6,0,0,1,4-1.3,6.9,6.9,0,0,1,4.3,1.2,4.4,4.4,0,0,1,1.6,3.7,3.3,3.3,0,0,1-.7,2.1,4.3,4.3,0,0,1-1.9,1.6,4.7,4.7,0,0,1,2.1,1.5,4.5,4.5,0,0,1,.8,2.6,4.7,4.7,0,0,1-1.7,3.7,7.5,7.5,0,0,1-8.6.1,4.2,4.2,0,0,1-1.7-3.6h3.4a1.9,1.9,0,0,0,.7,1.6,2.1,2.1,0,0,0,1.7.7,2.7,2.7,0,0,0,2-.7,2.4,2.4,0,0,0,.7-1.8,2.4,2.4,0,0,0-.7-2,2.8,2.8,0,0,0-2-.7h-1.9v-2.6Z" transform="translate(-0.9 -1.3)"/><path class="cls-18" d="M306.5,225.1l1-9.7h9.7v2.8h-6.8l-.5,4,1.2-.6,1.6-.2a4.9,4.9,0,0,1,3.8,1.5,6.7,6.7,0,0,1,1.3,4.3,6.2,6.2,0,0,1-1.4,4.1A5.7,5.7,0,0,1,312,233a6.9,6.9,0,0,1-4.1-1.3,3.9,3.9,0,0,1-1.7-3.5h.1l3.3-.2a2.4,2.4,0,0,0,.6,1.7,2.6,2.6,0,0,0,1.8.6,2.2,2.2,0,0,0,1.8-.8,4.6,4.6,0,0,0,.5-2.3,4.3,4.3,0,0,0-.6-2.4,2,2,0,0,0-1.8-.9,2.5,2.5,0,0,0-1.6.4,1.8,1.8,0,0,0-.7,1Z" transform="translate(-0.9 -1.3)"/><path d="M100.8,114.4H89.2v-2.2l5.4-6.1a13.6,13.6,0,0,0,1.7-2.4,4.1,4.1,0,0,0,.5-1.8,2.4,2.4,0,0,0-.6-1.7,1.8,1.8,0,0,0-1.6-.6,1.9,1.9,0,0,0-1.7.8,3.3,3.3,0,0,0-.6,2.1H88.9a4.6,4.6,0,0,1,1.5-3.9,5.7,5.7,0,0,1,4.2-1.6,6,6,0,0,1,4.2,1.3,4.8,4.8,0,0,1,1.4,3.7,4.6,4.6,0,0,1-.8,2.8,25.7,25.7,0,0,1-2.8,3.6l-2.9,3.4h7.1Z" transform="translate(-0.9 -1.3)"/><path d="M101.8,166.1a6.9,6.9,0,0,1-1.6,4.8,5.4,5.4,0,0,1-4.3,1.7,5.1,5.1,0,0,1-4.2-1.7,6.5,6.5,0,0,1-1.6-4.8v-4.7a6.6,6.6,0,0,1,1.6-4.8,5.8,5.8,0,0,1,8.4,0,6.7,6.7,0,0,1,1.7,4.8ZM98.3,161a4.8,4.8,0,0,0-.6-2.6,2.2,2.2,0,0,0-3.6,0,4.8,4.8,0,0,0-.6,2.6v5.5a4.8,4.8,0,0,0,.6,2.6,2.3,2.3,0,0,0,1.8.9,2,2,0,0,0,1.8-.9,4.8,4.8,0,0,0,.6-2.6Z" transform="translate(-0.9 -1.3)"/><path d="M99.4,226.2h2v2.7h-2v3.7H96v-3.7H88.9l-.2-2.1,7.2-11.5h3.5Zm-7.5,0H96v-6.3h-.1l-.4.8Z" transform="translate(-0.9 -1.3)"/><path d="M164,172.4H152.4v-2.3l5.3-6,1.8-2.4a4.9,4.9,0,0,0,.5-1.8,2.4,2.4,0,0,0-.6-1.7,1.8,1.8,0,0,0-1.6-.7,2.1,2.1,0,0,0-1.7.8,3.7,3.7,0,0,0-.6,2.1h-3.4a4.8,4.8,0,0,1,1.5-3.9,5.7,5.7,0,0,1,4.2-1.6,6.1,6.1,0,0,1,4.2,1.4,5,5,0,0,1,1.4,3.7,4.8,4.8,0,0,1-.8,2.8c-.6.9-1.5,2-2.8,3.6l-2.9,3.4H164Z" transform="translate(-0.9 -1.3)"/><path d="M177.8,166.1a6.5,6.5,0,0,1-1.6,4.8,5.4,5.4,0,0,1-4.2,1.7,5.4,5.4,0,0,1-4.3-1.7,6.5,6.5,0,0,1-1.6-4.8v-4.7a6.6,6.6,0,0,1,1.6-4.8,5.4,5.4,0,0,1,4.2-1.8,5.5,5.5,0,0,1,4.3,1.8,6.6,6.6,0,0,1,1.6,4.8Zm-3.5-5.1a4.8,4.8,0,0,0-.6-2.6,2,2,0,0,0-1.8-.9,2,2,0,0,0-1.7.9,4.7,4.7,0,0,0-.7,2.6v5.5a4.7,4.7,0,0,0,.7,2.6,2,2,0,0,0,1.8.9,2,2,0,0,0,1.7-.9,4.8,4.8,0,0,0,.6-2.6Z" transform="translate(-0.9 -1.3)"/><path d="M167,215.1l1.9.2,1.7.5-.6,2.6-1.5-.5H167a2.9,2.9,0,0,0-2.4,1.2,5.1,5.1,0,0,0-1,3.2v.6a6.2,6.2,0,0,1,1.7-1.1,6.6,6.6,0,0,1,2.1-.3,4.3,4.3,0,0,1,3.5,1.5,6.6,6.6,0,0,1,1.2,4.1,5.7,5.7,0,0,1-1.6,4.3,6.1,6.1,0,0,1-4.2,1.6,5.5,5.5,0,0,1-4.4-1.9,7.2,7.2,0,0,1-1.7-5v-3.7a6.9,6.9,0,0,1,1.9-5.2A6.3,6.3,0,0,1,167,215.1Zm-.7,8.9a3.5,3.5,0,0,0-1.6.3,3.1,3.1,0,0,0-1.1.8v.9a5.2,5.2,0,0,0,.8,3.1,2.1,2.1,0,0,0,1.9,1.1,2,2,0,0,0,1.7-.9,3.5,3.5,0,0,0,.7-2.3,3.1,3.1,0,0,0-.7-2.2A1.9,1.9,0,0,0,166.3,224Z" transform="translate(-0.9 -1.3)"/><path d="M238.4,56.5h-3.5V42.2h-3.5V39.5l7-.6Z" transform="translate(-0.9 -1.3)"/><path d="M241.9,218.1a22.2,22.2,0,0,0-3.9,6.2,15.4,15.4,0,0,0-1.1,6.3v2.1h-3.5v-2.1a15.9,15.9,0,0,1,1.4-6.6,20.4,20.4,0,0,1,3.8-5.9h-8.8v-2.7h12.1Z" transform="translate(-0.9 -1.3)"/><path d="M311.4,161.9a4.2,4.2,0,0,1-.7,2.3,4.6,4.6,0,0,1-1.8,1.6,5.2,5.2,0,0,1,2.2,1.6,3.9,3.9,0,0,1,.8,2.5,4.6,4.6,0,0,1-1.6,3.8A6.7,6.7,0,0,1,306,175a7.3,7.3,0,0,1-4.5-1.3,4.7,4.7,0,0,1-1.7-3.8,4.6,4.6,0,0,1,.8-2.5,6,6,0,0,1,2.4-1.6,4.3,4.3,0,0,1-1.9-1.6,3.5,3.5,0,0,1-.7-2.3,4.3,4.3,0,0,1,1.5-3.5,6.6,6.6,0,0,1,4.1-1.2,6.1,6.1,0,0,1,3.9,1.2A4.3,4.3,0,0,1,311.4,161.9Zm-2.9,7.9a2.9,2.9,0,0,0-.7-1.9,2.5,2.5,0,0,0-1.8-.8,3,3,0,0,0-2,.8,2.5,2.5,0,0,0-.7,1.9,2.3,2.3,0,0,0,.7,1.8,2.7,2.7,0,0,0,2,.7,2.4,2.4,0,0,0,1.8-.7A2.7,2.7,0,0,0,308.5,169.8Zm-.6-7.7a2.5,2.5,0,0,0-.5-1.6,2,2,0,0,0-1.4-.6,2.1,2.1,0,0,0-2.2,2.2,2.4,2.4,0,0,0,.6,1.7,2.3,2.3,0,0,0,1.6.6,1.8,1.8,0,0,0,1.4-.6A2.9,2.9,0,0,0,307.9,162.1Z" transform="translate(-0.9 -1.3)"/><path d="M305.1,112a2.4,2.4,0,0,0,2.1-1,3.7,3.7,0,0,0,.9-2.7v-1.1a5.3,5.3,0,0,1-1.4,1.2,5.1,5.1,0,0,1-1.7.3,4.9,4.9,0,0,1-3.8-1.5,6.5,6.5,0,0,1-1.4-4.3,6.3,6.3,0,0,1,1.6-4.3,5.7,5.7,0,0,1,4.2-1.7,6,6,0,0,1,4.3,1.7,6.9,6.9,0,0,1,1.6,4.9v4.7a6.3,6.3,0,0,1-1.8,4.7,6.2,6.2,0,0,1-4.6,1.8l-1.8-.2a4.8,4.8,0,0,1-1.8-.6l.6-2.5,1.4.5Zm.4-5.8a3.3,3.3,0,0,0,1.5-.3,3.6,3.6,0,0,0,1.1-1v-2a4.4,4.4,0,0,0-.7-2.5,2.1,2.1,0,0,0-1.8-.8,2,2,0,0,0-1.7.9,4.8,4.8,0,0,0-.6,2.4,4.3,4.3,0,0,0,.6,2.4A1.8,1.8,0,0,0,305.5,106.2Z" transform="translate(-0.9 -1.3)"/><path d="M305.1,54.1a2.7,2.7,0,0,0,2.1-1,4,4,0,0,0,.9-2.7V49.3a4.9,4.9,0,0,1-1.4,1.1,5.3,5.3,0,0,1-1.7.4,4.6,4.6,0,0,1-3.8-1.6,6.3,6.3,0,0,1-1.4-4.3,6.5,6.5,0,0,1,1.6-4.3,5.7,5.7,0,0,1,4.2-1.7,5.7,5.7,0,0,1,4.3,1.8,6.6,6.6,0,0,1,1.6,4.8v4.7a6,6,0,0,1-6.4,6.5l-1.8-.2-1.8-.5.6-2.5,1.4.4Zm.4-5.9a3.1,3.1,0,0,0,2.6-1.2V44.9a4,4,0,0,0-.7-2.4,2.1,2.1,0,0,0-1.8-.9,1.9,1.9,0,0,0-1.7,1,4.1,4.1,0,0,0-.6,2.3,4.3,4.3,0,0,0,.6,2.4A1.8,1.8,0,0,0,305.5,48.2Z" transform="translate(-0.9 -1.3)"/><g class="cls-16"><path class="cls-17" d="M173.4,9.1h0l2.3-7h3.1v10h-2.4V5.6h0l-2.2,6.5h-1.6l-2.2-6.4h0v6.4H168V2.1h3.1Z" transform="translate(-0.9 -1.3)"/><path class="cls-17" d="M179.9,8.3a4.1,4.1,0,0,1,1-2.7,3.4,3.4,0,0,1,2.7-1.1,3.3,3.3,0,0,1,2.6,1.1,3.6,3.6,0,0,1,1,2.7v.2a3.6,3.6,0,0,1-1,2.7,3.3,3.3,0,0,1-2.6,1.1,3.4,3.4,0,0,1-2.7-1.1,4.1,4.1,0,0,1-1-2.7Zm2.4.2a2.6,2.6,0,0,0,.3,1.4,1,1,0,0,0,1,.6,1.1,1.1,0,0,0,1-.6,2.6,2.6,0,0,0,.3-1.4V8.3a2.6,2.6,0,0,0-.3-1.4,1.1,1.1,0,0,0-1-.6,1,1,0,0,0-1,.6,2.6,2.6,0,0,0-.3,1.4Z" transform="translate(-0.9 -1.3)"/><path class="cls-17" d="M195.2,8.6a4.6,4.6,0,0,1-.8,2.7,2.4,2.4,0,0,1-2.1,1,1.8,1.8,0,0,1-1.1-.3,1.8,1.8,0,0,1-.8-.7v.8h-2.1V1.3h2.4V5.4a2.3,2.3,0,0,1,.7-.7l.9-.2a2.5,2.5,0,0,1,2.2,1.1,4.7,4.7,0,0,1,.8,2.8Zm-2.4-.2a4.9,4.9,0,0,0-.2-1.5,1,1,0,0,0-.9-.6H191a1,1,0,0,0-.4.5V10a.8.8,0,0,0,.4.4h.7a1.1,1.1,0,0,0,.9-.5,2.8,2.8,0,0,0,.2-1.4Z" transform="translate(-0.9 -1.3)"/><path class="cls-17" d="M198.7,2.9h-2.4V1.3h2.4Zm0,9.2h-2.4V4.6h2.4Z" transform="translate(-0.9 -1.3)"/><path class="cls-17" d="M202.5,12.1h-2.3V1.3h2.3Z" transform="translate(-0.9 -1.3)"/><path class="cls-17" d="M207.3,12.3a4.1,4.1,0,0,1-2.7-1,4,4,0,0,1-.9-2.7V8.4a4.1,4.1,0,0,1,.9-2.8,3.3,3.3,0,0,1,2.6-1.1,3.2,3.2,0,0,1,2.4.9,3.7,3.7,0,0,1,.8,2.5V9.1h-4.3a1.3,1.3,0,0,0,.4.9,1.4,1.4,0,0,0,1.1.4h1.1l1.1-.4.5,1.5a3.2,3.2,0,0,1-1.3.5A4.7,4.7,0,0,1,207.3,12.3Zm-.1-6a.8.8,0,0,0-.8.4,1.2,1.2,0,0,0-.3.9h2V7.5a2,2,0,0,0-.2-.9A.8.8,0,0,0,207.2,6.3Z" transform="translate(-0.9 -1.3)"/><path class="cls-17" d="M219.9,12.1h-2.3l-3.7-6.3h0v6.3h-2.4V2.1h2.4l3.7,6.3h0V2.1h2.3Z" transform="translate(-0.9 -1.3)"/><path class="cls-17" d="M224.7,12.3a3.6,3.6,0,0,1-2.6-1,3.6,3.6,0,0,1-1-2.7V8.4a4.1,4.1,0,0,1,.9-2.8,3.4,3.4,0,0,1,2.7-1.1,3,3,0,0,1,2.3.9,3.3,3.3,0,0,1,.8,2.5V9.1h-4.3a1.3,1.3,0,0,0,.5.9,1.2,1.2,0,0,0,1.1.4h1.1l1-.4.6,1.5-1.3.5A5.7,5.7,0,0,1,224.7,12.3Zm0-6a1,1,0,0,0-.9.4,1.2,1.2,0,0,0-.3.9h2.1V7.5a1.2,1.2,0,0,0-.3-.9A.6.6,0,0,0,224.7,6.3Z" transform="translate(-0.9 -1.3)"/><path class="cls-17" d="M231.5,2.8V4.6h1.2V6.3h-1.2V9.7a.8.8,0,0,0,.2.6l.4.2h.6v1.7l-.6.2h-.7a2.4,2.4,0,0,1-1.7-.6,2.8,2.8,0,0,1-.6-2V6.3h-1.1V4.6h1.1V2.8Z" transform="translate(-0.9 -1.3)"/><path class="cls-17" d="M236.7,9.1v.7h0l.2-.8,1-4.5h2.4L238,12.1h-2.4l-2.4-7.5h2.4Z" transform="translate(-0.9 -1.3)"/><path class="cls-17" d="M248.2,12.1h-7V10.6l3.1-3.4a7.7,7.7,0,0,0,.9-1.3,1.6,1.6,0,0,0,.3-.9,1.2,1.2,0,0,0-.3-.9.8.8,0,0,0-.8-.4,1.1,1.1,0,0,0-.9.5,1.8,1.8,0,0,0-.3,1.1h-2.3a3.2,3.2,0,0,1,.9-2.4,3.4,3.4,0,0,1,2.6-1,3.7,3.7,0,0,1,2.5.8,3,3,0,0,1,.9,2.3,2.6,2.6,0,0,1-.5,1.7,18.8,18.8,0,0,1-1.8,2.1l-1.2,1.5h3.9Z" transform="translate(-0.9 -1.3)"/></g></g></g></svg>