<svg xmlns="http://www.w3.org/2000/svg" xmlns:xlink="http://www.w3.org/1999/xlink" viewBox="0 0 593.1 320.8"><defs><style>.cls-1,.cls-3,.cls-5{fill:none;}.cls-2{fill:#fff;}.cls-3{stroke:#c1bfbf;}.cls-3,.cls-5{stroke-linejoin:round;stroke-width:1.32px;}.cls-4{clip-path:url(#clip-path);}.cls-5{stroke:#d9d9d9;}.cls-6{fill:#5fc6ff;}.cls-7{fill:#00b1ff;}.cls-8{fill:#007da8;}.cls-9{fill:#004c60;}.cls-10{fill:#e84c3d;}.cls-11{fill:#bf0900;}</style><clipPath id="clip-path" transform="translate(-0.1 -0.1)"><rect class="cls-1" width="593.1" height="320.77"/></clipPath></defs><title>Training Time</title><g id="Layer_2" data-name="Layer 2"><g id="Layer_1-2" data-name="Layer 1"><rect class="cls-2" x="0.7" y="0.7" width="591.7" height="319.45"/><path class="cls-3" d="M76.6,57.3H575.7M76.6,81.7H575.7M76.6,106.2H575.7M76.6,130.6H575.7M76.6,154.9H575.7M76.6,179.3H575.7M76.6,203.6H575.7M76.6,228H575.7" transform="translate(-0.1 -0.1)"/><path class="cls-2" d="M517.4,163h33.3v89.4H517.4Zm-83.2,42.6h33.3v46.8H434.2ZM351,81.7h33.4V252.4H351ZM267.8,117h33.4V252.4H267.8Zm-83.1,97.3H218v38.1H184.7Zm-83.2,15.2h33.3v22.9H101.5Z" transform="translate(-0.1 -0.1)"/><line class="cls-3" x1="76.6" y1="252.3" x2="575.6" y2="252.3"/><path d="M64.1,252.8a3.6,3.6,0,0,1-.9,2.6,2.6,2.6,0,0,1-2.3,1,2.8,2.8,0,0,1-2.3-1,3.6,3.6,0,0,1-.9-2.6V250a4,4,0,0,1,.9-2.7,3.1,3.1,0,0,1,4.6,0,4,4,0,0,1,.9,2.7Zm-1.6-3.1a3.3,3.3,0,0,0-.4-1.5,1.7,1.7,0,0,0-2.4,0,3.3,3.3,0,0,0-.4,1.5V253a2.7,2.7,0,0,0,.4,1.5,1.5,1.5,0,0,0,2.4,0,2.7,2.7,0,0,0,.4-1.5Z" transform="translate(-0.1 -0.1)"/><path d="M57.2,231.9H50.9v-1.2l3-3.5,1.1-1.4a2.6,2.6,0,0,0,.3-1.1,1.5,1.5,0,0,0-.4-1,1.2,1.2,0,0,0-1-.4c-.5,0-.9.1-1.1.5a1.6,1.6,0,0,0-.4,1.2H50.8a2.5,2.5,0,0,1,.8-2.1,3,3,0,0,1,2.3-.8,2.9,2.9,0,0,1,2.2.7,2.8,2.8,0,0,1,.8,2,4.2,4.2,0,0,1-.4,1.5,14.6,14.6,0,0,1-1.5,2l-2.1,2.3h4.3Z" transform="translate(-0.1 -0.1)"/><path d="M64.9,228.4a3.5,3.5,0,0,1-.8,2.6,2.9,2.9,0,0,1-2.3,1,3,3,0,0,1-2.4-1,3.6,3.6,0,0,1-.9-2.6v-2.8a4,4,0,0,1,.9-2.7,3.2,3.2,0,0,1,2.3-.9,3.2,3.2,0,0,1,2.4.9,4,4,0,0,1,.8,2.7Zm-1.6-3a2.5,2.5,0,0,0-.4-1.6,1.3,1.3,0,0,0-1.2-.5,1.2,1.2,0,0,0-1.1.5,2.5,2.5,0,0,0-.4,1.6v3.2a2.5,2.5,0,0,0,.4,1.6,1.7,1.7,0,0,0,1.2.5,1.4,1.4,0,0,0,1.1-.5,2.5,2.5,0,0,0,.4-1.6Z" transform="translate(-0.1 -0.1)"/><path d="M56.2,204h1.2v1.3H56.2v2.2H54.6v-2.2H50.5v-1l4.1-6.6h1.7ZM52,204h2.6v-4h-.1v.4Z" transform="translate(-0.1 -0.1)"/><path d="M64.9,204a3.5,3.5,0,0,1-.8,2.6,2.9,2.9,0,0,1-2.3,1,3,3,0,0,1-2.4-1,3.6,3.6,0,0,1-.9-2.6v-2.8a4,4,0,0,1,.9-2.7,3.2,3.2,0,0,1,2.3-.9,3.2,3.2,0,0,1,2.4.9,4,4,0,0,1,.8,2.7Zm-1.6-3a2.5,2.5,0,0,0-.4-1.6,1.7,1.7,0,0,0-1.2-.5,1.4,1.4,0,0,0-1.1.5,2.5,2.5,0,0,0-.4,1.6v3.2a2.5,2.5,0,0,0,.4,1.6,1.7,1.7,0,0,0,1.2.5,1.4,1.4,0,0,0,1.1-.5,2.5,2.5,0,0,0,.4-1.6Z" transform="translate(-0.1 -0.1)"/><path d="M54.4,173.2h1.1l.9.3-.3,1.2-.8-.2h-.9a1.8,1.8,0,0,0-1.5.7,3.6,3.6,0,0,0-.5,1.9v.5l.9-.6,1.2-.2a2.4,2.4,0,0,1,2,.9,3.1,3.1,0,0,1,.7,2.2,2.9,2.9,0,0,1-3.1,3.3,3,3,0,0,1-2.4-1,4.2,4.2,0,0,1-.9-2.9v-2.1a4.1,4.1,0,0,1,1-2.9A3.6,3.6,0,0,1,54.4,173.2Zm-.4,4.9a1.6,1.6,0,0,0-1,.2,1.2,1.2,0,0,0-.6.6v.5a3.6,3.6,0,0,0,.5,1.9,1.5,1.5,0,0,0,2.3.1,2.4,2.4,0,0,0,.4-1.5,1.8,1.8,0,0,0-.4-1.3A1.3,1.3,0,0,0,54,178.1Z" transform="translate(-0.1 -0.1)"/><path d="M64.9,179.6a4,4,0,0,1-.8,2.7,3.2,3.2,0,0,1-2.3.9,3.2,3.2,0,0,1-2.4-.9,4,4,0,0,1-.9-2.7v-2.8a3.6,3.6,0,0,1,.9-2.6,2.9,2.9,0,0,1,2.3-1,3,3,0,0,1,2.4,1,3.5,3.5,0,0,1,.8,2.6Zm-1.6-3a2.5,2.5,0,0,0-.4-1.6,1.7,1.7,0,0,0-1.2-.5,1.4,1.4,0,0,0-1.1.5,2.5,2.5,0,0,0-.4,1.6v3.2a2.5,2.5,0,0,0,.4,1.6,1.7,1.7,0,0,0,1.2.5,1.4,1.4,0,0,0,1.1-.5,2.5,2.5,0,0,0,.4-1.6Z" transform="translate(-0.1 -0.1)"/><path d="M56.9,151.5a2,2,0,0,1-.4,1.3,2.4,2.4,0,0,1-1.1.8,3.4,3.4,0,0,1,1.3,1,2.4,2.4,0,0,1,.5,1.4,2.6,2.6,0,0,1-.9,2.1,3.5,3.5,0,0,1-2.3.7,3.6,3.6,0,0,1-2.4-.7,2.5,2.5,0,0,1-.5-3.5,4.5,4.5,0,0,1,1.3-1l-1.1-.8a2.8,2.8,0,0,1-.4-1.3,2.3,2.3,0,0,1,.9-2,3.1,3.1,0,0,1,2.2-.7,3.1,3.1,0,0,1,2.1.7A2.5,2.5,0,0,1,56.9,151.5Zm-1.3,4.4a1.7,1.7,0,0,0-1.6-1.6,2.1,2.1,0,0,0-1.3.5,1.6,1.6,0,0,0-.5,1.1,1.7,1.7,0,0,0,.5,1.2,2,2,0,0,0,1.3.4,1.5,1.5,0,0,0,1.1-.4A1.7,1.7,0,0,0,55.6,155.9Zm-.3-4.4a1.3,1.3,0,0,0-.4-1,1,1,0,0,0-.9-.4,1.4,1.4,0,0,0-1.1.4,1.5,1.5,0,0,0-.4,1,1.8,1.8,0,0,0,.4,1.1,1.5,1.5,0,0,0,1.1.4,1,1,0,0,0,.9-.4A1.4,1.4,0,0,0,55.3,151.5Z" transform="translate(-0.1 -0.1)"/><path d="M64.9,155.2a4,4,0,0,1-.8,2.7,3.2,3.2,0,0,1-2.3.9,3.2,3.2,0,0,1-2.4-.9,4,4,0,0,1-.9-2.7v-2.8a3.6,3.6,0,0,1,.9-2.6,2.9,2.9,0,0,1,2.3-1,3,3,0,0,1,2.4,1,3.5,3.5,0,0,1,.8,2.6Zm-1.6-3a2.1,2.1,0,0,0-.4-1.5,1.4,1.4,0,0,0-1.2-.6,1.3,1.3,0,0,0-1.1.6,2.1,2.1,0,0,0-.4,1.5v3.2a2.5,2.5,0,0,0,.4,1.6,1.3,1.3,0,0,0,1.2.5,1.2,1.2,0,0,0,1.1-.5,2.5,2.5,0,0,0,.4-1.6Z" transform="translate(-0.1 -0.1)"/><path d="M48.1,134.3H46.5v-8.2H44.4v-1.3l3.7-.4Z" transform="translate(-0.1 -0.1)"/><path d="M57.9,130.8a3.8,3.8,0,0,1-.9,2.7,2.9,2.9,0,0,1-2.3,1,3.1,3.1,0,0,1-2.3-1,4,4,0,0,1-.9-2.7v-2.7a3.7,3.7,0,0,1,.9-2.7,2.8,2.8,0,0,1,2.3-1,2.6,2.6,0,0,1,2.3,1,3.7,3.7,0,0,1,.9,2.7Zm-1.6-3a3,3,0,0,0-.4-1.5,1.5,1.5,0,0,0-2.4,0,3,3,0,0,0-.4,1.5v3.3a2.5,2.5,0,0,0,.5,1.5,1.1,1.1,0,0,0,1.1.6,1.4,1.4,0,0,0,1.2-.6,3.3,3.3,0,0,0,.4-1.5Z" transform="translate(-0.1 -0.1)"/><path d="M65.8,130.8a3.8,3.8,0,0,1-.9,2.7,3.3,3.3,0,0,1-2.3,1,3.3,3.3,0,0,1-2.4-1,4,4,0,0,1-.8-2.7v-2.7a3.6,3.6,0,0,1,.8-2.7,3,3,0,0,1,2.4-1,2.9,2.9,0,0,1,2.3,1,3.7,3.7,0,0,1,.9,2.7Zm-1.7-3a2.2,2.2,0,0,0-.4-1.5,1.3,1.3,0,0,0-1.1-.6,1.4,1.4,0,0,0-1.2.6,2.2,2.2,0,0,0-.4,1.5v3.3a2.4,2.4,0,0,0,.4,1.5,1.4,1.4,0,0,0,1.2.6,1.1,1.1,0,0,0,1.1-.6,2.4,2.4,0,0,0,.4-1.5Z" transform="translate(-0.1 -0.1)"/><path d="M48.1,109.9H46.5v-8.2H44.4v-1.3l3.7-.4Z" transform="translate(-0.1 -0.1)"/><path d="M58,109.9H51.7v-1.1l3.1-3.5a7.7,7.7,0,0,0,1-1.5,1.9,1.9,0,0,0,.3-1,1.4,1.4,0,0,0-.4-1.1,1.3,1.3,0,0,0-1-.4,1.3,1.3,0,0,0-1.1.5,2,2,0,0,0-.4,1.3H51.6a2.8,2.8,0,0,1,.8-2.1,3.2,3.2,0,0,1,2.3-.9,2.9,2.9,0,0,1,2.2.8,2.6,2.6,0,0,1,.8,2,2.8,2.8,0,0,1-.4,1.5,14.9,14.9,0,0,1-1.5,1.9l-2,2.4H58Z" transform="translate(-0.1 -0.1)"/><path d="M65.8,106.4a3.7,3.7,0,0,1-.9,2.7,2.9,2.9,0,0,1-2.3,1,3,3,0,0,1-2.4-1,3.6,3.6,0,0,1-.8-2.7v-2.7a4,4,0,0,1,.8-2.7,3.3,3.3,0,0,1,2.4-1,3.3,3.3,0,0,1,2.3,1,4,4,0,0,1,.9,2.7Zm-1.7-3a2.4,2.4,0,0,0-.4-1.5,1.3,1.3,0,0,0-1.1-.6,1.4,1.4,0,0,0-1.2.6,2.4,2.4,0,0,0-.4,1.5v3.3a2.2,2.2,0,0,0,.4,1.5,1.4,1.4,0,0,0,1.2.6,1.1,1.1,0,0,0,1.1-.6,2.2,2.2,0,0,0,.4-1.5Z" transform="translate(-0.1 -0.1)"/><path d="M48.1,85.6H46.5V77.3H44.4V76l3.7-.4Z" transform="translate(-0.1 -0.1)"/><path d="M57,82.1h1.2v1.3H57v2.2H55.4V83.4H51.3v-1l4.1-6.6H57Zm-4.2,0h2.6v-4h-.1v.4Z" transform="translate(-0.1 -0.1)"/><path d="M65.8,82.1a3.6,3.6,0,0,1-.9,2.6,2.9,2.9,0,0,1-2.3,1,3,3,0,0,1-2.4-1,3.5,3.5,0,0,1-.8-2.6V79.3a4,4,0,0,1,.8-2.7,3.3,3.3,0,0,1,2.4-1,3.3,3.3,0,0,1,2.3,1,4,4,0,0,1,.9,2.7ZM64.1,79a2.4,2.4,0,0,0-.4-1.5,1.2,1.2,0,0,0-1.1-.5,1.3,1.3,0,0,0-1.2.5A2.4,2.4,0,0,0,61,79v3.3a2.1,2.1,0,0,0,.4,1.5,1.4,1.4,0,0,0,1.2.6,1.1,1.1,0,0,0,1.1-.6,2.1,2.1,0,0,0,.4-1.5Z" transform="translate(-0.1 -0.1)"/><path d="M48.1,61.2H46.5V52.9H44.4V51.6l3.7-.3Z" transform="translate(-0.1 -0.1)"/><path d="M55.2,51.3h1.1a1.4,1.4,0,0,1,.9.3l-.3,1.2-.8-.2h-.9a1.5,1.5,0,0,0-1.4.7,2.9,2.9,0,0,0-.6,1.9v.5a2.1,2.1,0,0,1,1-.6,2.2,2.2,0,0,1,1.2-.2,2.4,2.4,0,0,1,1.9.8,3.6,3.6,0,0,1,.8,2.3,3.2,3.2,0,0,1-.9,2.4,3,3,0,0,1-2.3.9,3.1,3.1,0,0,1-2.4-1,4.4,4.4,0,0,1-.9-2.9V55.3a3.9,3.9,0,0,1,1-2.9A3.3,3.3,0,0,1,55.2,51.3Zm-.4,4.8-1,.2-.6.6v.6a3,3,0,0,0,.5,1.8,1.3,1.3,0,0,0,1.2.7,1.1,1.1,0,0,0,1.1-.6,2,2,0,0,0,.4-1.4,2.1,2.1,0,0,0-.4-1.4A1.7,1.7,0,0,0,54.8,56.1Z" transform="translate(-0.1 -0.1)"/><path d="M65.8,57.7a3.6,3.6,0,0,1-.9,2.6,2.9,2.9,0,0,1-2.3,1,3,3,0,0,1-2.4-1,3.5,3.5,0,0,1-.8-2.6V54.9a4,4,0,0,1,.8-2.7,3.2,3.2,0,0,1,2.4-.9,3.2,3.2,0,0,1,2.3.9,4,4,0,0,1,.9,2.7Zm-1.7-3a2.5,2.5,0,0,0-.4-1.6,1.4,1.4,0,0,0-1.1-.5,1.7,1.7,0,0,0-1.2.5,2.5,2.5,0,0,0-.4,1.6v3.2a2.5,2.5,0,0,0,.4,1.6,1.7,1.7,0,0,0,1.2.5,1.3,1.3,0,0,0,1.1-.5,2.5,2.5,0,0,0,.4-1.6Z" transform="translate(-0.1 -0.1)"/><path d="M86.2,271.7H82.8L82,274H80.3l3.5-9.7h1.5l3.4,9.7H87Zm-3-1.3h2.6l-1.3-3.9h0Z" transform="translate(-0.1 -0.1)"/><path d="M91.3,274H89.7V263.6h1.6Z" transform="translate(-0.1 -0.1)"/><path d="M96.4,274.2a3.4,3.4,0,0,1-2.5-1,3.9,3.9,0,0,1-.9-2.6v-.3a3.7,3.7,0,0,1,.9-2.6,3,3,0,0,1,2.3-1.1,2.7,2.7,0,0,1,2.2.9,3.7,3.7,0,0,1,.8,2.5v.8H94.7a2.1,2.1,0,0,0,.4,1.4,1.7,1.7,0,0,0,1.4.6l1.1-.2a1.9,1.9,0,0,0,.9-.5l.6,1.1a2.4,2.4,0,0,1-1.1.6A4.1,4.1,0,0,1,96.4,274.2Zm-.2-6.3a1.2,1.2,0,0,0-1,.5,2.2,2.2,0,0,0-.5,1.2h2.9a1.4,1.4,0,0,0-.4-1.1A1.1,1.1,0,0,0,96.2,267.9Z" transform="translate(-0.1 -0.1)"/><path d="M103,269.3l1.3-2.5h1.9l-2.3,3.6,2.4,3.6h-1.9l-1.4-2.5-1.4,2.5H99.8l2.3-3.6-2.3-3.6h1.9Z" transform="translate(-0.1 -0.1)"/><path d="M115.1,274h-1.6l-4.3-7h-.1v7h-1.6v-9.7h1.6l4.3,7h.1v-7h1.6Z" transform="translate(-0.1 -0.1)"/><path d="M120.1,274.2a3.1,3.1,0,0,1-2.4-1,3.9,3.9,0,0,1-.9-2.6v-.3a3.7,3.7,0,0,1,.9-2.6,2.7,2.7,0,0,1,2.3-1.1,2.8,2.8,0,0,1,2.2.9,3.7,3.7,0,0,1,.7,2.5v.8h-4.5a2.2,2.2,0,0,0,.5,1.4,1.5,1.5,0,0,0,1.3.6l1.2-.2.9-.5.5,1.1a2,2,0,0,1-1.1.6A3.8,3.8,0,0,1,120.1,274.2Zm-.1-6.3a1.4,1.4,0,0,0-1.1.5,2.1,2.1,0,0,0-.4,1.2h2.8a1.8,1.8,0,0,0-.3-1.1A1.2,1.2,0,0,0,120,267.9Z" transform="translate(-0.1 -0.1)"/><path d="M126.4,265v1.8h1.3V268h-1.3v4c0,.3,0,.5.2.6s.3.2.5.2h.5l.2,1.2-.5.2h-.6a1.7,1.7,0,0,1-1.4-.6,2,2,0,0,1-.6-1.6v-4h-1.1v-1.2h1.1V265Z" transform="translate(-0.1 -0.1)"/><path d="M166.1,272.7a2.8,2.8,0,0,1-1.3,1,4.5,4.5,0,0,1-2.2.5,4.2,4.2,0,0,1-2.9-1.1,4.4,4.4,0,0,1-1.1-2.9v-2.1a4.2,4.2,0,0,1,1.1-2.9,3.8,3.8,0,0,1,2.8-1.1,3.6,3.6,0,0,1,2.6.9,2.4,2.4,0,0,1,.9,2.2h-1.5a2.2,2.2,0,0,0-.5-1.4,2.5,2.5,0,0,0-1.5-.5,1.9,1.9,0,0,0-1.6.8,2.5,2.5,0,0,0-.7,1.9v2.1a2.5,2.5,0,0,0,.7,1.9,2.1,2.1,0,0,0,1.7.8l1.2-.2.7-.4v-2.1h-2V269h3.6Z" transform="translate(-0.1 -0.1)"/><path d="M167.7,270.3a3.8,3.8,0,0,1,.8-2.6,3.1,3.1,0,0,1,2.5-1.1,3,3,0,0,1,2.4,1.1,3.9,3.9,0,0,1,.9,2.6v.2a3.6,3.6,0,0,1-.9,2.6,3,3,0,0,1-2.4,1.1,3.3,3.3,0,0,1-2.5-1.1,3.7,3.7,0,0,1-.8-2.6Zm1.6.2a2.9,2.9,0,0,0,.4,1.7,1.6,1.6,0,0,0,2.6,0,3.9,3.9,0,0,0,.4-1.7v-.2a4.3,4.3,0,0,0-.4-1.7,1.6,1.6,0,0,0-2.6,0,3.1,3.1,0,0,0-.4,1.7Z" transform="translate(-0.1 -0.1)"/><path d="M175.5,270.3a3.9,3.9,0,0,1,.9-2.6,2.9,2.9,0,0,1,2.4-1.1,3,3,0,0,1,2.4,1.1,3.9,3.9,0,0,1,.9,2.6v.2a3.6,3.6,0,0,1-.9,2.6,3,3,0,0,1-2.4,1.1,2.9,2.9,0,0,1-2.4-1.1,3.7,3.7,0,0,1-.9-2.6Zm1.6.2a2.9,2.9,0,0,0,.4,1.7,1.6,1.6,0,0,0,2.6,0,2.9,2.9,0,0,0,.4-1.7v-.2a3.1,3.1,0,0,0-.4-1.7,1.6,1.6,0,0,0-2.6,0,3.1,3.1,0,0,0-.4,1.7Z" transform="translate(-0.1 -0.1)"/><path d="M183.2,270.5a4.7,4.7,0,0,1,.7-2.8,2.5,2.5,0,0,1,2.1-1.1,2.4,2.4,0,0,1,1.2.3,3,3,0,0,1,.8.8l.2-.9h1.3V274a2.9,2.9,0,0,1-.8,2.2,3.7,3.7,0,0,1-2.5.8l-1.1-.2-1.1-.4.2-1.3.9.4h1.1a2.2,2.2,0,0,0,1.3-.4,1.5,1.5,0,0,0,.4-1.2v-.7a1.6,1.6,0,0,1-.8.6,2,2,0,0,1-1.1.3,2.7,2.7,0,0,1-2.1-1,4.2,4.2,0,0,1-.7-2.6Zm1.6.1a2.5,2.5,0,0,0,.4,1.6,1.4,1.4,0,0,0,1.2.6c.4,0,.7,0,.9-.2a.9.9,0,0,0,.6-.6v-3.2c-.2-.2-.3-.5-.6-.6s-.5-.2-.9-.2a1.3,1.3,0,0,0-1.2.7,4,4,0,0,0-.4,1.8Z" transform="translate(-0.1 -0.1)"/><path d="M193.2,272.7h4.5V274h-6.2v-9.7h1.7Z" transform="translate(-0.1 -0.1)"/><path d="M202,274.2a3.6,3.6,0,0,1-2.5-1,3.9,3.9,0,0,1-.9-2.6v-.3a3.7,3.7,0,0,1,.9-2.6,3,3,0,0,1,2.3-1.1,2.9,2.9,0,0,1,2.3.9,3.7,3.7,0,0,1,.7,2.5v.8h-4.5a2.2,2.2,0,0,0,.5,1.4,1.5,1.5,0,0,0,1.3.6l1.2-.2.9-.5.5,1.1a2,2,0,0,1-1.1.6A4.1,4.1,0,0,1,202,274.2Zm-.2-6.3a1.4,1.4,0,0,0-1,.5,2.1,2.1,0,0,0-.4,1.2h2.8a1.8,1.8,0,0,0-.3-1.1A1.3,1.3,0,0,0,201.8,267.9Z" transform="translate(-0.1 -0.1)"/><path d="M214,274h-1.7l-4.3-7h0v7h-1.7v-9.7H208l4.3,7h0v-7H214Z" transform="translate(-0.1 -0.1)"/><path d="M218.9,274.2a3.4,3.4,0,0,1-2.5-1,3.9,3.9,0,0,1-.9-2.6v-.3a3.7,3.7,0,0,1,.9-2.6,2.8,2.8,0,0,1,2.3-1.1,2.7,2.7,0,0,1,2.2.9,3.7,3.7,0,0,1,.7,2.5v.8h-4.5a2.9,2.9,0,0,0,.5,1.4,1.6,1.6,0,0,0,1.3.6l1.2-.2.9-.5.5,1.1a1.7,1.7,0,0,1-1.1.6A3.7,3.7,0,0,1,218.9,274.2Zm-.2-6.3a1.2,1.2,0,0,0-1,.5,1.7,1.7,0,0,0-.5,1.2H220a1.8,1.8,0,0,0-.3-1.1A1.1,1.1,0,0,0,218.7,267.9Z" transform="translate(-0.1 -0.1)"/><path d="M225.1,265v1.8h1.3V268h-1.3v4c0,.3,0,.5.2.6s.3.2.5.2h.5l.2,1.2-.5.2h-.6a1.7,1.7,0,0,1-1.4-.6,1.9,1.9,0,0,1-.5-1.6v-4h-1.1v-1.2h1.1V265Z" transform="translate(-0.1 -0.1)"/><path d="M254.4,270v4h-1.6v-9.7h3.4a3.7,3.7,0,0,1,2.5.7,2.6,2.6,0,0,1,.9,2.1,2.8,2.8,0,0,1-.4,1.3,2.7,2.7,0,0,1-1.2.9,1.8,1.8,0,0,1,1.2.8,2.4,2.4,0,0,1,.4,1.5v.8a2.8,2.8,0,0,0,.1.9,2.1,2.1,0,0,0,.4.6h-1.7c-.2-.1-.3-.3-.4-.7v-1.7a1.7,1.7,0,0,0-.5-1.2,1.4,1.4,0,0,0-1.1-.4Zm0-1.3h1.7a2.6,2.6,0,0,0,1.4-.4,1.5,1.5,0,0,0,.5-1.2,1.6,1.6,0,0,0-.5-1.1,1.7,1.7,0,0,0-1.3-.4h-1.8Z" transform="translate(-0.1 -0.1)"/><path d="M264.6,274.2a3.4,3.4,0,0,1-2.5-1,3.9,3.9,0,0,1-.9-2.6v-.3a3.7,3.7,0,0,1,.9-2.6,2.8,2.8,0,0,1,2.3-1.1,2.7,2.7,0,0,1,2.2.9,3.7,3.7,0,0,1,.7,2.5v.8h-4.5a2.9,2.9,0,0,0,.5,1.4,1.6,1.6,0,0,0,1.3.6l1.2-.2.9-.5.5,1.1a1.7,1.7,0,0,1-1.1.6A3.7,3.7,0,0,1,264.6,274.2Zm-.2-6.3a1.2,1.2,0,0,0-1,.5,1.7,1.7,0,0,0-.5,1.2h2.8a1.8,1.8,0,0,0-.3-1.1A1.2,1.2,0,0,0,264.4,267.9Z" transform="translate(-0.1 -0.1)"/><path d="M272.6,272a.9.9,0,0,0-.3-.6l-1.2-.4a4.2,4.2,0,0,1-1.9-.8,1.5,1.5,0,0,1-.7-1.4,1.7,1.7,0,0,1,.8-1.5,3.2,3.2,0,0,1,2-.7,3.3,3.3,0,0,1,2.1.7,1.7,1.7,0,0,1,.7,1.6h-1.5a.9.9,0,0,0-.4-.8,1.2,1.2,0,0,0-.9-.3c-.4,0-.7,0-.9.2a.9.9,0,0,0-.3.7.9.9,0,0,0,.3.6l1.2.4a4,4,0,0,1,2,.8,1.7,1.7,0,0,1,.7,1.3,2.1,2.1,0,0,1-.9,1.7,3.3,3.3,0,0,1-2.1.6,3.1,3.1,0,0,1-2.2-.8,1.8,1.8,0,0,1-.8-1.6h1.5a1.1,1.1,0,0,0,.5,1,1.6,1.6,0,0,0,1,.2,1.5,1.5,0,0,0,1-.2A.9.9,0,0,0,272.6,272Z" transform="translate(-0.1 -0.1)"/><path d="M283.5,274h-1.6l-4.4-7h0v7h-1.6v-9.7h1.6l4.3,7h.1v-7h1.6Z" transform="translate(-0.1 -0.1)"/><path d="M288.5,274.2a3.6,3.6,0,0,1-2.5-1,3.9,3.9,0,0,1-.9-2.6v-.3a3.7,3.7,0,0,1,.9-2.6,3,3,0,0,1,2.3-1.1,2.9,2.9,0,0,1,2.3.9,3.7,3.7,0,0,1,.7,2.5v.8h-4.5a2.2,2.2,0,0,0,.5,1.4,1.5,1.5,0,0,0,1.3.6l1.2-.2.9-.5.5,1.1a2.4,2.4,0,0,1-1.1.6A4.1,4.1,0,0,1,288.5,274.2Zm-.2-6.3a1.4,1.4,0,0,0-1,.5,3.3,3.3,0,0,0-.5,1.2h2.9a1.8,1.8,0,0,0-.3-1.1A1.3,1.3,0,0,0,288.3,267.9Z" transform="translate(-0.1 -0.1)"/><path d="M294.6,265v1.8h1.3V268h-1.3v4a.8.8,0,0,0,.2.6c.1.2.3.2.5.2h.3c.1,0,.2,0,.2-.1l.2,1.2-.5.2h-.6a1.7,1.7,0,0,1-1.4-.6,2.3,2.3,0,0,1-.5-1.6v-4h-1.1v-1.2H293V265Z" transform="translate(-0.1 -0.1)"/><path d="M297.5,269.7l.6-5.4h5.1v1.4h-3.8l-.3,2.5.7-.4h.9a2.5,2.5,0,0,1,2.1.8,4,4,0,0,1,0,4.8,3.2,3.2,0,0,1-2.4.9,3.8,3.8,0,0,1-2.2-.7,2.1,2.1,0,0,1-.8-2h1.5a1.4,1.4,0,0,0,.4,1.1,1.8,1.8,0,0,0,1.1.4,1.3,1.3,0,0,0,1.1-.5,2.4,2.4,0,0,0,.4-1.5,2.1,2.1,0,0,0-.4-1.4,1.3,1.3,0,0,0-1.1-.5c-.5,0-.8,0-1,.2a1,1,0,0,0-.5.6Z" transform="translate(-0.1 -0.1)"/><path d="M311.4,270.5a3.8,3.8,0,0,1-.9,2.7,3.1,3.1,0,0,1-4.6,0,3.8,3.8,0,0,1-.9-2.7v-2.7a3.8,3.8,0,0,1,.9-2.7,2.6,2.6,0,0,1,2.3-1,2.8,2.8,0,0,1,2.3,1,3.8,3.8,0,0,1,.9,2.7Zm-1.6-3a3.3,3.3,0,0,0-.4-1.5,1.5,1.5,0,0,0-2.4,0,3.3,3.3,0,0,0-.4,1.5v3.3a3.3,3.3,0,0,0,.4,1.5,1.5,1.5,0,0,0,2.4,0,3,3,0,0,0,.4-1.5Z" transform="translate(-0.1 -0.1)"/><path d="M338,274h-1.6v-9.7H338Z" transform="translate(-0.1 -0.1)"/><path d="M341.6,266.8v1a7.6,7.6,0,0,1,.9-.9,2.7,2.7,0,0,1,1.2-.3,2.5,2.5,0,0,1,1.8.7,3.4,3.4,0,0,1,.6,2.2V274h-1.6v-4.5a2.1,2.1,0,0,0-.3-1.2,1.5,1.5,0,0,0-1-.3c-.4,0-.7,0-.9.2a1,1,0,0,0-.6.5V274h-1.7v-7.2Z" transform="translate(-0.1 -0.1)"/><path d="M350.8,272.9a1.3,1.3,0,0,0,1-.4,1.2,1.2,0,0,0,.3-.9h1.5a1.8,1.8,0,0,1-.8,1.7,2.8,2.8,0,0,1-2,.8,3,3,0,0,1-2.4-1.1,3.7,3.7,0,0,1-.9-2.6v-.2a3.7,3.7,0,0,1,.9-2.6,3.2,3.2,0,0,1,4.5-.3,2.3,2.3,0,0,1,.7,1.9h-1.5a1.5,1.5,0,0,0-.3-1,1.4,1.4,0,0,0-1-.5,1.3,1.3,0,0,0-1.2.7,3.1,3.1,0,0,0-.4,1.7v.2a2.9,2.9,0,0,0,.4,1.7A1.3,1.3,0,0,0,350.8,272.9Z" transform="translate(-0.1 -0.1)"/><path d="M358.2,274.2a3.4,3.4,0,0,1-2.5-1,3.9,3.9,0,0,1-.9-2.6v-.3a3.7,3.7,0,0,1,.9-2.6,3,3,0,0,1,2.3-1.1,2.7,2.7,0,0,1,2.2.9,3.7,3.7,0,0,1,.8,2.5v.8h-4.5a2.1,2.1,0,0,0,.4,1.4,1.7,1.7,0,0,0,1.4.6l1.1-.2.9-.5.6,1.1a2.4,2.4,0,0,1-1.1.6A4.1,4.1,0,0,1,358.2,274.2Zm-.2-6.3a1.2,1.2,0,0,0-1,.5,2.2,2.2,0,0,0-.5,1.2h2.9a1.4,1.4,0,0,0-.4-1.1A1.1,1.1,0,0,0,358,267.9Z" transform="translate(-0.1 -0.1)"/><path d="M368.6,270.6a4.2,4.2,0,0,1-.8,2.6,2.7,2.7,0,0,1-2.1,1,2.3,2.3,0,0,1-1.1-.3,2.1,2.1,0,0,1-.8-.6v3.5h-1.6v-10h1.4v.9a2.3,2.3,0,0,1,.9-.8,2,2,0,0,1,1.1-.3,2.5,2.5,0,0,1,2.1,1.1,4.7,4.7,0,0,1,.8,2.8Zm-1.7-.1a3.4,3.4,0,0,0-.4-1.8,1.3,1.3,0,0,0-1.2-.7c-.4,0-.7,0-.9.2a1.7,1.7,0,0,0-.6.6v3.3l.6.6.9.2a1.4,1.4,0,0,0,1.2-.6,3.1,3.1,0,0,0,.4-1.7Z" transform="translate(-0.1 -0.1)"/><path d="M372.1,265v1.8h1.3V268h-1.3v4a.8.8,0,0,0,.2.6c.1.2.3.2.5.2h.3c.1,0,.2,0,.2-.1l.2,1.2-.5.2h-.6a1.8,1.8,0,0,1-1.4-.6,2.3,2.3,0,0,1-.5-1.6v-4h-1.1v-1.2h1.1V265Z" transform="translate(-0.1 -0.1)"/><path d="M376.5,265h-1.6v-1.4h1.6Zm0,9h-1.6v-7.2h1.6Z" transform="translate(-0.1 -0.1)"/><path d="M377.9,270.3a3.9,3.9,0,0,1,.9-2.6,3.1,3.1,0,0,1,2.5-1.1,3,3,0,0,1,2.4,1.1,3.9,3.9,0,0,1,.9,2.6v.2a3.6,3.6,0,0,1-.9,2.6,3,3,0,0,1-2.4,1.1,3.1,3.1,0,0,1-2.5-1.1,3.7,3.7,0,0,1-.9-2.6Zm1.7.2a2.9,2.9,0,0,0,.4,1.7,1.6,1.6,0,0,0,1.3.7,1.7,1.7,0,0,0,1.3-.7,3.9,3.9,0,0,0,.4-1.7v-.2a4.3,4.3,0,0,0-.4-1.7,1.7,1.7,0,0,0-1.3-.7,1.6,1.6,0,0,0-1.3.7,3.1,3.1,0,0,0-.4,1.7Z" transform="translate(-0.1 -0.1)"/><path d="M387.5,266.8v1a7.6,7.6,0,0,1,.9-.9,2.7,2.7,0,0,1,1.2-.3,2.5,2.5,0,0,1,1.8.7,3.4,3.4,0,0,1,.6,2.2V274h-1.6v-4.5a2.1,2.1,0,0,0-.3-1.2,1.5,1.5,0,0,0-1-.3c-.4,0-.7,0-.9.2a1,1,0,0,0-.6.5V274H386v-7.2Z" transform="translate(-0.1 -0.1)"/><path d="M396.4,271.6v.6h.1v-.6l1.4-4.8h1.7l-2.6,7.2h-1.4l-2.6-7.2h1.7Z" transform="translate(-0.1 -0.1)"/><path d="M403.9,268.4a1.6,1.6,0,0,0,1.1-.4,2.1,2.1,0,0,0,.4-1.1,1.4,1.4,0,0,0-1.5-1.5,2.1,2.1,0,0,0-1.1.4,1.3,1.3,0,0,0-.4,1h-1.6a2.2,2.2,0,0,1,.8-1.9,3.6,3.6,0,0,1,2.3-.8,3.9,3.9,0,0,1,2.3.7,2.9,2.9,0,0,1,.8,2.1,1.9,1.9,0,0,1-.4,1.2,2.2,2.2,0,0,1-1,.9,2,2,0,0,1,1.1.9,2.1,2.1,0,0,1,.4,1.4,2.6,2.6,0,0,1-.9,2.1,3.4,3.4,0,0,1-2.3.8,3.8,3.8,0,0,1-2.3-.8,2.2,2.2,0,0,1-.9-1.9h1.6a1.2,1.2,0,0,0,.4,1,1.7,1.7,0,0,0,2.4,0,1.4,1.4,0,0,0,.4-1.1c0-.6-.1-1-.4-1.2a1.7,1.7,0,0,0-1.2-.5h-1.1v-1.2Z" transform="translate(-0.1 -0.1)"/><path d="M434.5,271.5a1.4,1.4,0,0,0-.5-1,4.2,4.2,0,0,0-1.5-.7,6,6,0,0,1-2.4-1.1,2.3,2.3,0,0,1-.9-1.9,2.2,2.2,0,0,1,1-1.9,3.6,3.6,0,0,1,2.4-.8,3.5,3.5,0,0,1,2.5.9,2.6,2.6,0,0,1,.9,2.1h-1.6a1.3,1.3,0,0,0-.5-1.2,1.9,1.9,0,0,0-1.3-.5,2.2,2.2,0,0,0-1.3.4,1.4,1.4,0,0,0-.5,1,1.1,1.1,0,0,0,.5.9,4.6,4.6,0,0,0,1.7.7,5.5,5.5,0,0,1,2.3,1.2,2.6,2.6,0,0,1,.8,1.9,2.2,2.2,0,0,1-.9,1.9,4.2,4.2,0,0,1-2.6.8,4.4,4.4,0,0,1-2.5-.8,2.5,2.5,0,0,1-1.1-2.3h1.6a1.5,1.5,0,0,0,.6,1.3,2.4,2.4,0,0,0,1.4.5,2,2,0,0,0,1.4-.4A1.2,1.2,0,0,0,434.5,271.5Z" transform="translate(-0.1 -0.1)"/><path d="M439.1,267.7a2.4,2.4,0,0,1,.9-.8,2,2,0,0,1,1.1-.3,2.2,2.2,0,0,1,1.8.8,2.8,2.8,0,0,1,.7,2.2V274h-1.7v-4.4a1.7,1.7,0,0,0-.3-1.2,1.1,1.1,0,0,0-1-.4,1.5,1.5,0,0,0-.9.2l-.6.5V274h-1.6V263.6h1.6Z" transform="translate(-0.1 -0.1)"/><path d="M449.8,273l-.8.9a2.7,2.7,0,0,1-1.2.3,2.6,2.6,0,0,1-1.9-.8,3.8,3.8,0,0,1-.6-2.4v-4.2h1.6V271a2.8,2.8,0,0,0,.3,1.5,1.3,1.3,0,0,0,1,.3,1.9,1.9,0,0,0,1.6-.8v-5.2h1.6V274H450Z" transform="translate(-0.1 -0.1)"/><path d="M453.7,274v-6h-1.1v-1.2h1.1v-.9a2.4,2.4,0,0,1,.6-1.8,2.5,2.5,0,0,1,1.9-.7h1l-.2,1.2h-.6a1,1,0,0,0-.8.3,1.1,1.1,0,0,0-.3.8v.9h1.4V268h-1.4v6Z" transform="translate(-0.1 -0.1)"/><path d="M458.3,274v-6h-1.1v-1.2h1.1v-.9a2.4,2.4,0,0,1,.6-1.8,2.5,2.5,0,0,1,1.9-.7h1l-.2,1.2H461c-.4,0-.7.1-.8.3a1.1,1.1,0,0,0-.3.8v.9h1.3V268h-1.3v6Z" transform="translate(-0.1 -0.1)"/><path d="M464.2,274h-1.7V263.6h1.7Z" transform="translate(-0.1 -0.1)"/><path d="M469,274.2a3.4,3.4,0,0,1-2.5-1,3.9,3.9,0,0,1-.9-2.6v-.3a3.7,3.7,0,0,1,.9-2.6,2.8,2.8,0,0,1,2.3-1.1,2.7,2.7,0,0,1,2.2.9,3.7,3.7,0,0,1,.8,2.5v.8h-4.6a2.9,2.9,0,0,0,.5,1.4,1.7,1.7,0,0,0,1.4.6l1.1-.2.9-.5.5,1.1a1.7,1.7,0,0,1-1.1.6A3.3,3.3,0,0,1,469,274.2Zm-.2-6.3a1.2,1.2,0,0,0-1,.5,2.2,2.2,0,0,0-.5,1.2h2.8a1.8,1.8,0,0,0-.3-1.1A1.1,1.1,0,0,0,468.8,267.9Z" transform="translate(-0.1 -0.1)"/><path d="M481,274h-1.6l-4.3-7H475v7h-1.6v-9.7H475l4.4,7h0v-7H481Z" transform="translate(-0.1 -0.1)"/><path d="M485.9,274.2a3.6,3.6,0,0,1-2.5-1,3.9,3.9,0,0,1-.9-2.6v-.3a3.7,3.7,0,0,1,.9-2.6,3,3,0,0,1,2.4-1.1,2.8,2.8,0,0,1,2.2.9,3.7,3.7,0,0,1,.7,2.5v.8h-4.5a2.2,2.2,0,0,0,.5,1.4,1.5,1.5,0,0,0,1.3.6l1.2-.2.9-.5.5,1.1a2,2,0,0,1-1.1.6A4.1,4.1,0,0,1,485.9,274.2Zm-.1-6.3a1.4,1.4,0,0,0-1.1.5,2.1,2.1,0,0,0-.4,1.2h2.8a1.8,1.8,0,0,0-.3-1.1A1.2,1.2,0,0,0,485.8,267.9Z" transform="translate(-0.1 -0.1)"/><path d="M492,265v1.8h1.3V268H492v4a.8.8,0,0,0,.2.6.6.6,0,0,0,.5.2h.3c.1,0,.2,0,.2-.1l.2,1.2-.5.2h-.6a1.8,1.8,0,0,1-1.4-.6,2.3,2.3,0,0,1-.5-1.6v-4h-1.1v-1.2h1.1V265Z" transform="translate(-0.1 -0.1)"/><path d="M517,271.8h0l2.9-7.5h2V274h-1.6v-7h0l-2.7,7h-1.1l-2.8-7.1h0V274h-1.6v-9.7h2.1Z" transform="translate(-0.1 -0.1)"/><path d="M523.5,270.3a3.9,3.9,0,0,1,.9-2.6,3,3,0,0,1,2.4-1.1,3.3,3.3,0,0,1,2.5,1.1,4.5,4.5,0,0,1,.8,2.6v.2a4,4,0,0,1-.8,2.6,3.3,3.3,0,0,1-2.5,1.1,3,3,0,0,1-2.4-1.1,3.7,3.7,0,0,1-.9-2.6Zm1.6.2a3.9,3.9,0,0,0,.4,1.7,1.6,1.6,0,0,0,2.6,0,2.9,2.9,0,0,0,.4-1.7v-.2a3.1,3.1,0,0,0-.4-1.7,1.6,1.6,0,0,0-2.6,0,4.3,4.3,0,0,0-.4,1.7Z" transform="translate(-0.1 -0.1)"/><path d="M538,270.6a4,4,0,0,1-.8,2.6,2.7,2.7,0,0,1-3.3.7,3,3,0,0,1-.8-.8l-.2.9h-1.3V263.6h1.6v4a2.7,2.7,0,0,1,.8-.7,2,2,0,0,1,1.1-.3,2.5,2.5,0,0,1,2.1,1.1,4.7,4.7,0,0,1,.8,2.8Zm-1.7-.1a3,3,0,0,0-.4-1.8,1.1,1.1,0,0,0-1.2-.7l-.9.2-.6.7v3l.6.7a1.3,1.3,0,0,0,.9.2,1.5,1.5,0,0,0,1.3-.6,3.2,3.2,0,0,0,.3-1.6Z" transform="translate(-0.1 -0.1)"/><path d="M541,265h-1.6v-1.4H541Zm0,9h-1.6v-7.2H541Z" transform="translate(-0.1 -0.1)"/><path d="M544.6,274H543V263.6h1.6Z" transform="translate(-0.1 -0.1)"/><path d="M549.5,274.2a3.6,3.6,0,0,1-2.5-1,3.9,3.9,0,0,1-.9-2.6v-.3a3.7,3.7,0,0,1,.9-2.6,3,3,0,0,1,2.3-1.1,2.7,2.7,0,0,1,2.2.9,3.3,3.3,0,0,1,.8,2.5v.8h-4.5a2.2,2.2,0,0,0,.5,1.4,1.5,1.5,0,0,0,1.3.6l1.2-.2.9-.5.5,1.1a2.4,2.4,0,0,1-1.1.6A4.1,4.1,0,0,1,549.5,274.2Zm-.2-6.3a1.4,1.4,0,0,0-1,.5,3.3,3.3,0,0,0-.5,1.2h2.9a1.8,1.8,0,0,0-.3-1.1A1.4,1.4,0,0,0,549.3,267.9Z" transform="translate(-0.1 -0.1)"/><path d="M561.4,274h-1.6l-4.3-7h-.1v7h-1.6v-9.7h1.6l4.4,7h0v-7h1.6Z" transform="translate(-0.1 -0.1)"/><path d="M566.3,274.2a3.3,3.3,0,0,1-2.4-1,3.9,3.9,0,0,1-.9-2.6v-.3a3.7,3.7,0,0,1,.9-2.6,2.8,2.8,0,0,1,2.3-1.1,2.8,2.8,0,0,1,2.2.9,3.7,3.7,0,0,1,.7,2.5v.8h-4.5a2.2,2.2,0,0,0,.5,1.4,1.5,1.5,0,0,0,1.3.6l1.2-.2.9-.5.5,1.1a2,2,0,0,1-1.1.6A3.8,3.8,0,0,1,566.3,274.2Zm-.1-6.3a1.4,1.4,0,0,0-1.1.5,2.1,2.1,0,0,0-.4,1.2h2.8a1.8,1.8,0,0,0-.3-1.1A1.2,1.2,0,0,0,566.2,267.9Z" transform="translate(-0.1 -0.1)"/><path d="M572.6,265v1.8h1.3V268h-1.3v4c0,.3,0,.5.2.6s.3.2.5.2h.5l.2,1.2-.5.2h-.6a1.7,1.7,0,0,1-1.4-.6,2,2,0,0,1-.6-1.6v-4h-1.1v-1.2h1.1V265Z" transform="translate(-0.1 -0.1)"/><path d="M577.8,271.6v.6h0l.2-.6,1.4-4.8h1.7l-2.6,7.2h-1.4l-2.6-7.2h1.7Z" transform="translate(-0.1 -0.1)"/><path d="M588.7,274h-6.3v-1.1l3-3.5a9.2,9.2,0,0,0,1.1-1.5,3.6,3.6,0,0,0,.2-1.1,1.7,1.7,0,0,0-.3-1,1.5,1.5,0,0,0-1-.4,1.7,1.7,0,0,0-1.2.5,2.5,2.5,0,0,0-.4,1.3h-1.6a3.1,3.1,0,0,1,3.2-3,3.1,3.1,0,0,1,2.2.8,2.6,2.6,0,0,1,.8,1.9,3,3,0,0,1-.5,1.6,12.6,12.6,0,0,1-1.4,1.9l-2.1,2.4h4.3Z" transform="translate(-0.1 -0.1)"/><path d="M25.5,180.4v2.9h8.8v2.5H25.5v2.8h-2v-8.2Z" transform="translate(-0.1 -0.1)"/><path d="M24.4,177v2.5H22.8V177Zm9.9,0v2.5h-8V177Z" transform="translate(-0.1 -0.1)"/><path d="M26.3,173.1h1.1a2.6,2.6,0,0,1-.9-.9,3.2,3.2,0,0,1-.3-1.4,2.1,2.1,0,0,1,.3-1.2,1.8,1.8,0,0,1,1-.9,2.2,2.2,0,0,1-1-.9,3.2,3.2,0,0,1-.3-1.4,1.9,1.9,0,0,1,.8-1.8,3.8,3.8,0,0,1,2.6-.7h4.7v2.5H29.6a1.7,1.7,0,0,0-1.2.3.8.8,0,0,0-.3.7,1.3,1.3,0,0,0,.1.6,1,1,0,0,0,.4.5h5.7v2.5H29.6l-1.2.2a1,1,0,0,0-.3.8,1.3,1.3,0,0,0,.1.6l.4.5h5.7v2.5h-8Z" transform="translate(-0.1 -0.1)"/><path d="M34.5,158.9a4,4,0,0,1-1.1,2.9,3.9,3.9,0,0,1-2.8,1h-.3a4.9,4.9,0,0,1-3-.9,3.5,3.5,0,0,1-1.1-2.9,3.3,3.3,0,0,1,.9-2.5,4,4,0,0,1,2.7-.9h1.3v4.6h.1a1.8,1.8,0,0,0,1-.4,2.1,2.1,0,0,0,.4-1.2,3.7,3.7,0,0,0-.2-1.2,6.1,6.1,0,0,0-.3-1.1l1.5-.6a2.6,2.6,0,0,1,.6,1.4A5.7,5.7,0,0,1,34.5,158.9Zm-6.4.1a1,1,0,0,0,.4.9,1.5,1.5,0,0,0,1,.3h0v-2.1h-.1c-.5,0-.8,0-1,.2A.8.8,0,0,0,28.1,159Z" transform="translate(-0.1 -0.1)"/><path d="M29.9,150.2a10.7,10.7,0,0,1-4.9-1.1,5.2,5.2,0,0,1-2.5-2.6h0l1.2-.5a4.2,4.2,0,0,0,2.2,1.6,11.2,11.2,0,0,0,4,.6h.3a11.2,11.2,0,0,0,4-.6,4.2,4.2,0,0,0,2.2-1.6l1.2.5h0a5.2,5.2,0,0,1-2.5,2.6,10.7,10.7,0,0,1-4.9,1.1Z" transform="translate(-0.1 -0.1)"/><path d="M31.1,139.2h0l-7.6-2.4v-3.3H34.3v2.5H27.4l6.9,2.4V140l-6.8,2.3h6.8v2.5H23.5v-3.3Z" transform="translate(-0.1 -0.1)"/><path d="M24.4,129.1v2.5H22.8v-2.5Zm9.9,0v2.5h-8v-2.5Z" transform="translate(-0.1 -0.1)"/><path d="M26.3,125.2h1.1a2,2,0,0,1-.9-.9,2.8,2.8,0,0,1-.3-1.3A2.2,2.2,0,0,1,27,121a4,4,0,0,1,2.5-.6h4.8v2.5H29.5l-1.1.2a.9.9,0,0,0-.3.7,1.9,1.9,0,0,0,.1.8l.4.5h5.7v2.5h-8Z" transform="translate(-0.1 -0.1)"/><path d="M30.2,115a9.5,9.5,0,0,1,4.8,1.2,4.7,4.7,0,0,1,2.6,2.6h0l-1.2.4a4.7,4.7,0,0,0-2.2-1.5,11.2,11.2,0,0,0-4-.6h-.3a11.2,11.2,0,0,0-4,.6,4.7,4.7,0,0,0-2.2,1.5l-1.2-.4h0a4.7,4.7,0,0,1,2.6-2.6,9.5,9.5,0,0,1,4.8-1.2Z" transform="translate(-0.1 -0.1)"/><path d="M275,293.2v3.7h-2.5V286.1h4.1a4,4,0,0,1,3,1,3,3,0,0,1,1.2,2.5,3.1,3.1,0,0,1-1.2,2.6,4,4,0,0,1-3,1Zm0-1.9h1.6a1.7,1.7,0,0,0,1.2-.5,1.6,1.6,0,0,0,.5-1.1,1.7,1.7,0,0,0-1.7-1.7H275Z" transform="translate(-0.1 -0.1)"/><path d="M286.5,291H285c-.2.2-.4.3-.4.5v5.3H282v-8h2.4V290a2.2,2.2,0,0,1,.7-.9,1.1,1.1,0,0,1,.9-.4h.6Z" transform="translate(-0.1 -0.1)"/><path d="M291,297a3.6,3.6,0,0,1-2.9-1.1,3.7,3.7,0,0,1-1-2.8v-.2a4,4,0,0,1,1-3,3.4,3.4,0,0,1,2.8-1.2,3,3,0,0,1,2.5,1,3.6,3.6,0,0,1,.9,2.6v1.4h-4.6a1.2,1.2,0,0,0,.5,1,1.2,1.2,0,0,0,1.1.4h1.2l1.1-.4.6,1.5a3.7,3.7,0,0,1-1.4.7A5.5,5.5,0,0,1,291,297Zm-.1-6.4a1.3,1.3,0,0,0-.9.4,1.8,1.8,0,0,0-.3,1.1h2.2v-.2a1.2,1.2,0,0,0-.3-.9A.7.7,0,0,0,290.9,290.6Z" transform="translate(-0.1 -0.1)"/><path d="M298.1,286.9v2h1.3v1.7h-1.3v3.7a.8.8,0,0,0,.2.6l.5.2h.6l.2,1.9h-1.4a2.5,2.5,0,0,1-1.9-.6,2.8,2.8,0,0,1-.7-2.1v-3.7h-1.1v-1.7h1.1v-2Z" transform="translate(-0.1 -0.1)"/><path d="M305.1,291h-1.5l-.4.5v5.3h-2.5v-8h2.4V290a1.5,1.5,0,0,1,.6-.9,1.3,1.3,0,0,1,1-.4h.6Z" transform="translate(-0.1 -0.1)"/><path d="M310.7,296.9a1.4,1.4,0,0,1-.2-.6,6.4,6.4,0,0,1-.2-.7,3.1,3.1,0,0,1-.8,1.1,2.1,2.1,0,0,1-1.2.3,3,3,0,0,1-2-.6,2.1,2.1,0,0,1-.7-1.8,2,2,0,0,1,.9-1.8,4.1,4.1,0,0,1,2.7-.7h1.1v-.5a1,1,0,0,0-.3-.8.9.9,0,0,0-.7-.3l-.7.2a1.1,1.1,0,0,0-.2.6h-2.5a2.3,2.3,0,0,1,1-1.9,4.6,4.6,0,0,1,2.5-.7,3.6,3.6,0,0,1,2.4.8,2.3,2.3,0,0,1,1,2.1v3a4.9,4.9,0,0,0,.1,1.2,4.5,4.5,0,0,0,.3,1.1Zm-1.8-1.6a1.4,1.4,0,0,0,.9-.3l.5-.5v-1h-1.1a1,1,0,0,0-.8.3.9.9,0,0,0-.3.7.8.8,0,0,0,.2.5A.9.9,0,0,0,308.9,295.3Z" transform="translate(-0.1 -0.1)"/><path d="M316.8,287h-2.5v-1.7h2.5Zm0,9.9h-2.5v-8h2.5Z" transform="translate(-0.1 -0.1)"/><path d="M320.6,288.9V290l1-1a2.8,2.8,0,0,1,1.3-.3,2.2,2.2,0,0,1,1.8.8,3.7,3.7,0,0,1,.7,2.6v4.8H323v-4.8a1.4,1.4,0,0,0-.3-1.1.7.7,0,0,0-.7-.4l-.7.2a1,1,0,0,0-.5.4v5.7h-2.5v-8Z" transform="translate(-0.1 -0.1)"/><path d="M330.5,297a3.6,3.6,0,0,1-2.9-1.1,3.7,3.7,0,0,1-1-2.8v-.2a4,4,0,0,1,1-3,3.4,3.4,0,0,1,2.8-1.2,3,3,0,0,1,2.5,1,3.6,3.6,0,0,1,.9,2.6v1.4h-4.6a1.2,1.2,0,0,0,.5,1,1.2,1.2,0,0,0,1.1.4H332l1.1-.4.6,1.5a3.7,3.7,0,0,1-1.4.7A5.5,5.5,0,0,1,330.5,297Zm-.1-6.4a1.3,1.3,0,0,0-.9.4,1.8,1.8,0,0,0-.3,1.1h2.2v-.2a1.2,1.2,0,0,0-.3-.9A.7.7,0,0,0,330.4,290.6Z" transform="translate(-0.1 -0.1)"/><path d="M334.4,292.9a5.1,5.1,0,0,1,.8-3,2.9,2.9,0,0,1,2.4-1.2,1.9,1.9,0,0,1,1,.3c.3.1.5.4.8.7v-4.4h2.5v11.6h-2.2l-.2-1a2.4,2.4,0,0,1-.8.9l-1.2.2a2.7,2.7,0,0,1-2.3-1.1,5,5,0,0,1-.8-2.9Zm2.5.1a3.5,3.5,0,0,0,.3,1.6,1.1,1.1,0,0,0,1,.5h.7c.2-.1.3-.3.5-.5v-3.2c-.2-.2-.3-.4-.5-.5l-.7-.2a1,1,0,0,0-1,.7,3.5,3.5,0,0,0-.3,1.6Z" transform="translate(-0.1 -0.1)"/><path d="M353.1,293.6h0l2.5-7.5h3.3v10.8h-2.5v-7h-.1l-2.4,7h-1.6l-2.4-6.9h0v6.9h-2.5V286.1h3.3Z" transform="translate(-0.1 -0.1)"/><path d="M360.2,292.8a4.4,4.4,0,0,1,1-3,4,4,0,0,1,2.9-1.1,3.6,3.6,0,0,1,2.8,1.1,4.4,4.4,0,0,1,1.1,3v.2a4,4,0,0,1-1.1,2.9,3.3,3.3,0,0,1-2.8,1.1,3.6,3.6,0,0,1-2.9-1.1,3.9,3.9,0,0,1-1-2.9Zm2.5.2a3.1,3.1,0,0,0,.3,1.5,1.1,1.1,0,0,0,1.1.6,1,1,0,0,0,1-.6,2.2,2.2,0,0,0,.4-1.5v-.2a2.5,2.5,0,0,0-.4-1.6,1,1,0,0,0-1-.6,1.1,1.1,0,0,0-1.1.6,3.8,3.8,0,0,0-.3,1.6Z" transform="translate(-0.1 -0.1)"/><path d="M368.8,292.9a4.5,4.5,0,0,1,.8-3,2.6,2.6,0,0,1,2.3-1.2,1.7,1.7,0,0,1,1,.3,1.8,1.8,0,0,1,.8.7v-4.4h2.5v11.6H374v-1a3.8,3.8,0,0,1-.9.9l-1.1.2a2.5,2.5,0,0,1-2.3-1.1,4.3,4.3,0,0,1-.8-2.9Zm2.5.1a3.5,3.5,0,0,0,.3,1.6,1.1,1.1,0,0,0,.9.5h.7a1.2,1.2,0,0,0,.5-.5v-3.2a1.2,1.2,0,0,0-.5-.5l-.7-.2a.9.9,0,0,0-.9.7,3.5,3.5,0,0,0-.3,1.6Z" transform="translate(-0.1 -0.1)"/><path d="M381.3,297a3.6,3.6,0,0,1-2.9-1.1,3.7,3.7,0,0,1-1-2.8v-.2a4,4,0,0,1,1-3,3.2,3.2,0,0,1,2.8-1.2,3,3,0,0,1,2.5,1,3.6,3.6,0,0,1,.9,2.6v1.4H380a1.5,1.5,0,0,0,.4,1,1.6,1.6,0,0,0,1.2.4h1.2l1.1-.4.6,1.5a3.7,3.7,0,0,1-1.4.7A5.5,5.5,0,0,1,381.3,297Zm-.1-6.4a1.3,1.3,0,0,0-.9.4,1.8,1.8,0,0,0-.3,1.1h2.1v-.2c0-.4,0-.7-.2-.9A.7.7,0,0,0,381.2,290.6Z" transform="translate(-0.1 -0.1)"/><path d="M388.2,296.9h-2.5V285.3h2.5Z" transform="translate(-0.1 -0.1)"/><path d="M250.2,20h-4.1V32.5h-3.5V20h-3.9V17.3h11.5Z" transform="translate(-0.1 -0.1)"/><path d="M256.4,24.2h-1.1l-1,.2a1.3,1.3,0,0,0-.6.7v7.4h-3.5V21.2h3.3v1.7a3.9,3.9,0,0,1,1-1.4,1.7,1.7,0,0,1,1.3-.5h.9Z" transform="translate(-0.1 -0.1)"/><path d="M263.9,32.5a1.9,1.9,0,0,1-.3-.8l-.3-.9a3.8,3.8,0,0,1-1.1,1.4,2.4,2.4,0,0,1-1.8.5,3.8,3.8,0,0,1-2.7-.9,3,3,0,0,1-1-2.5,3.1,3.1,0,0,1,1.2-2.6,7,7,0,0,1,3.9-.9h1.4V25a1.6,1.6,0,0,0-.3-1.1,1.2,1.2,0,0,0-1.1-.4,1.1,1.1,0,0,0-1.2,1.2h-3.4a2.9,2.9,0,0,1,1.3-2.6,5.7,5.7,0,0,1,3.6-1,5.3,5.3,0,0,1,3.4,1,3.8,3.8,0,0,1,1.3,3v4.3a9.7,9.7,0,0,0,.1,1.7,8.8,8.8,0,0,0,.5,1.5Zm-2.5-2.3a2,2,0,0,0,1.1-.3,1.2,1.2,0,0,0,.7-.7V27.7h-1.4a1.5,1.5,0,0,0-1.2.4,1.3,1.3,0,0,0-.4,1,1,1,0,0,0,.3.8Z" transform="translate(-0.1 -0.1)"/><path d="M272.4,18.6h-3.5V16.2h3.5Zm0,13.9h-3.5V21.2h3.5Z" transform="translate(-0.1 -0.1)"/><path d="M277.9,21.2v1.6a3.5,3.5,0,0,1,1.4-1.3,2.7,2.7,0,0,1,1.8-.5,3.3,3.3,0,0,1,2.6,1.1,6,6,0,0,1,.9,3.6v6.8h-3.5V25.7a2.1,2.1,0,0,0-.4-1.5,1.1,1.1,0,0,0-1-.5l-1,.2a1.3,1.3,0,0,0-.7.6v8h-3.6V21.2Z" transform="translate(-0.1 -0.1)"/><path d="M290.3,18.6h-3.6V16.2h3.6Zm0,13.9h-3.6V21.2h3.6Z" transform="translate(-0.1 -0.1)"/><path d="M295.7,21.2v1.6a3.5,3.5,0,0,1,1.4-1.3A2.7,2.7,0,0,1,299,21a3.3,3.3,0,0,1,2.6,1.1,6,6,0,0,1,.9,3.6v6.8H299V25.7a2.8,2.8,0,0,0-.3-1.5,1.4,1.4,0,0,0-1-.5l-1.1.2a1.3,1.3,0,0,0-.7.6v8h-3.5V21.2Z" transform="translate(-0.1 -0.1)"/><path d="M304.1,26.9a7.8,7.8,0,0,1,1.1-4.3,3.8,3.8,0,0,1,3.3-1.6,2.9,2.9,0,0,1,1.6.4,4.3,4.3,0,0,1,1.1,1.2l.3-1.4h3.1V32.4a4.2,4.2,0,0,1-1.6,3.5,6.6,6.6,0,0,1-4.2,1.2,5.7,5.7,0,0,1-1.8-.3,6,6,0,0,1-1.9-.6l.6-2.6,1.5.5h1.6a2.7,2.7,0,0,0,1.7-.4,2,2,0,0,0,.5-1.4v-.9a3.1,3.1,0,0,1-1.1.9,3.2,3.2,0,0,1-1.4.3,4,4,0,0,1-3.3-1.5,7.1,7.1,0,0,1-1.1-4.1Zm3.5.2a4.1,4.1,0,0,0,.4,2.1,1.3,1.3,0,0,0,1.4.8,1.8,1.8,0,0,0,1-.2,1.5,1.5,0,0,0,.6-.5V24.5l-.6-.6-1-.2a1.5,1.5,0,0,0-1.4.9,5,5,0,0,0-.4,2.3Z" transform="translate(-0.1 -0.1)"/><path d="M332.4,20h-4V32.5h-3.6V20h-3.9V17.3h11.5Z" transform="translate(-0.1 -0.1)"/><path d="M337.4,18.6h-3.6V16.2h3.6Zm0,13.9h-3.6V21.2h3.6Z" transform="translate(-0.1 -0.1)"/><path d="M342.7,21.2v1.5A3.3,3.3,0,0,1,346,21a3.4,3.4,0,0,1,1.8.4,3.3,3.3,0,0,1,1.2,1.4,4,4,0,0,1,1.3-1.3,3.2,3.2,0,0,1,1.9-.5,3.1,3.1,0,0,1,2.6,1.2,5.3,5.3,0,0,1,1,3.6v6.7h-3.6V25.8a3,3,0,0,0-.3-1.6,1.2,1.2,0,0,0-1-.5l-.9.2a1.8,1.8,0,0,0-.7.5v8.1h-3.5V25.8a3,3,0,0,0-.3-1.6,1.4,1.4,0,0,0-1.1-.5l-.9.2-.6.5v8.1h-3.6V21.2Z" transform="translate(-0.1 -0.1)"/><path d="M362.9,32.7a5.4,5.4,0,0,1-4.1-1.5,5.6,5.6,0,0,1-1.4-4v-.4a6.4,6.4,0,0,1,1.3-4.2,5.1,5.1,0,0,1,4-1.6,4.5,4.5,0,0,1,3.6,1.4,5.3,5.3,0,0,1,1.2,3.7V28H361a2.6,2.6,0,0,0,.7,1.5,2.5,2.5,0,0,0,1.6.5,4.2,4.2,0,0,0,1.7-.2,5.8,5.8,0,0,0,1.6-.5l.8,2.2a9.6,9.6,0,0,1-2,.9A10.1,10.1,0,0,1,362.9,32.7Zm-.2-9a1.5,1.5,0,0,0-1.2.5,2.5,2.5,0,0,0-.5,1.5h3.1v-.3a2.3,2.3,0,0,0-.3-1.3A1.3,1.3,0,0,0,362.7,23.7Z" transform="translate(-0.1 -0.1)"/><g class="cls-4"><rect class="cls-5" x="0.7" y="0.7" width="591.7" height="319.45"/></g><rect class="cls-6" x="101.5" y="229.5" width="33.3" height="22.86"/><rect class="cls-7" x="184.7" y="214.2" width="33.3" height="38.1"/><rect class="cls-8" x="267.8" y="117" width="33.3" height="135.34"/><rect class="cls-9" x="351" y="81.6" width="33.3" height="170.7"/><rect class="cls-10" x="434.2" y="205.6" width="33.3" height="46.74"/><rect class="cls-11" x="517.3" y="162.9" width="33.3" height="89.41"/><path d="M113.8,224.9H111v-9.6h-2.4v-2.2l5.2-.4Z" transform="translate(-0.1 -0.1)"/><path d="M125.6,216a4.2,4.2,0,0,1-.4,1.6,3.6,3.6,0,0,1-1.3,1.1,3.1,3.1,0,0,1,1.6,1.1,3.4,3.4,0,0,1,.5,1.7,3.3,3.3,0,0,1-1.2,2.7,5,5,0,0,1-3.1.9,5.5,5.5,0,0,1-3.2-.9,3.3,3.3,0,0,1-1.2-2.7,3.4,3.4,0,0,1,.5-1.7,3.6,3.6,0,0,1,1.6-1.1,4.3,4.3,0,0,1-1.2-1.1,3,3,0,0,1,.6-4,4.6,4.6,0,0,1,2.9-.9,4.1,4.1,0,0,1,2.8.9A2.9,2.9,0,0,1,125.6,216Zm-2.4,5.4a1.6,1.6,0,0,0-.4-1.2,1.4,1.4,0,0,0-1.1-.4,1.9,1.9,0,0,0-1.2.4,1.6,1.6,0,0,0-.4,1.2,1.4,1.4,0,0,0,.4,1.1,2.1,2.1,0,0,0,1.2.5,1.4,1.4,0,0,0,1.1-.5A1.4,1.4,0,0,0,123.2,221.4Zm-.4-5.2a1.5,1.5,0,0,0-.3-1,1,1,0,0,0-.8-.3,1.2,1.2,0,0,0-.9.3,1.8,1.8,0,0,0,0,2,1.2,1.2,0,0,0,.9.4.8.8,0,0,0,.8-.4A1.5,1.5,0,0,0,122.8,216.2Z" transform="translate(-0.1 -0.1)"/><path d="M195.3,199.3a1.6,1.6,0,0,0,1.1-.4,1.5,1.5,0,0,0,.4-1.1,1.3,1.3,0,0,0-.4-1,1.2,1.2,0,0,0-1.1-.4l-.9.3a1.1,1.1,0,0,0-.3.8h-2.8a2.9,2.9,0,0,1,1.2-2.4,4.9,4.9,0,0,1,2.8-.8,6.1,6.1,0,0,1,3.2.8,3.3,3.3,0,0,1,1.1,2.6,2.3,2.3,0,0,1-.5,1.5,2.8,2.8,0,0,1-1.3,1.1,3.3,3.3,0,0,1,1.5,1.1,2.9,2.9,0,0,1,.5,1.7,3.1,3.1,0,0,1-1.2,2.6,5.8,5.8,0,0,1-3.3.9,5.5,5.5,0,0,1-2.9-.8,2.9,2.9,0,0,1-1.3-2.6h2.8a1.4,1.4,0,0,0,1.4,1.4,2.8,2.8,0,0,0,1.3-.4,1.5,1.5,0,0,0,.4-1.1c0-.6-.1-1-.4-1.2a1.8,1.8,0,0,0-1.3-.4H194v-2.1Z" transform="translate(-0.1 -0.1)"/><path d="M207.2,206.5h-2.7v-9.7H202v-2.1l5.2-.4Z" transform="translate(-0.1 -0.1)"/><path d="M275.8,108.9H273V99.3h-2.4V97.1l5.2-.4Z" transform="translate(-0.1 -0.1)"/><path d="M285.6,108.9h-2.8V99.3h-2.4V97.1l5.2-.4Z" transform="translate(-0.1 -0.1)"/><path d="M295.4,108.9h-2.8V99.3h-2.4V97.1l5.2-.4Z" transform="translate(-0.1 -0.1)"/><path d="M359,74.1h-2.8V64.4h-2.4V62.3l5.2-.4Z" transform="translate(-0.1 -0.1)"/><path d="M370,69.4h1.2v2.1H370v2.6h-2.8V71.5h-4.8V69.8l4.9-7.7H370Zm-5.3,0h2.5V65.6h0l-.3.6Z" transform="translate(-0.1 -0.1)"/><path d="M380.8,69.6a4.5,4.5,0,0,1-1.2,3.4,4.4,4.4,0,0,1-6,0,4.5,4.5,0,0,1-1.2-3.4V66.5a5,5,0,0,1,1.1-3.4,4.1,4.1,0,0,1,3.1-1.2,3.9,3.9,0,0,1,3,1.2,4.5,4.5,0,0,1,1.2,3.4ZM378,66.3a2.7,2.7,0,0,0-.4-1.7,1.1,1.1,0,0,0-1-.6,1,1,0,0,0-1,.6,2.7,2.7,0,0,0-.4,1.7v3.5a2.7,2.7,0,0,0,.4,1.7,1,1,0,0,0,1,.6,1.1,1.1,0,0,0,1-.6,2.7,2.7,0,0,0,.4-1.7Z" transform="translate(-0.1 -0.1)"/><path d="M445.2,194.5a1.6,1.6,0,0,0,1.2-.4,1.5,1.5,0,0,0,.4-1.1,1.3,1.3,0,0,0-.4-1,1.5,1.5,0,0,0-1.1-.4,1.2,1.2,0,0,0-.9.3.9.9,0,0,0-.4.8h-2.7a2.6,2.6,0,0,1,1.1-2.3,4.8,4.8,0,0,1,2.9-.9,5,5,0,0,1,3.1.9,2.9,2.9,0,0,1,1.2,2.5,2.5,2.5,0,0,1-.5,1.5,3.5,3.5,0,0,1-1.3,1.1,3.3,3.3,0,0,1,1.5,1.1,2.9,2.9,0,0,1,.5,1.7,2.9,2.9,0,0,1-1.3,2.6,5.3,5.3,0,0,1-3.2,1,5.1,5.1,0,0,1-3-.9,3.1,3.1,0,0,1-1.2-2.6h2.7a1.5,1.5,0,0,0,.4,1,1.5,1.5,0,0,0,1.1.4,1.6,1.6,0,0,0,1.2-.4,1.4,1.4,0,0,0,.5-1.1,1.5,1.5,0,0,0-.5-1.2,1.7,1.7,0,0,0-1.3-.4h-1.3v-2.1Z" transform="translate(-0.1 -0.1)"/><path d="M459.2,192.8a2.4,2.4,0,0,1-.4,1.5,3.2,3.2,0,0,1-1.2,1.1,4.4,4.4,0,0,1,1.5,1.2,3.3,3.3,0,0,1-.7,4.3,5,5,0,0,1-3.1,1,5.5,5.5,0,0,1-3.2-1,3.3,3.3,0,0,1-.7-4.3,4.8,4.8,0,0,1,1.6-1.2,2.5,2.5,0,0,1-1.2-1.1,2.5,2.5,0,0,1-.5-1.5,3.1,3.1,0,0,1,1.1-2.5,5.2,5.2,0,0,1,2.9-.8,4.7,4.7,0,0,1,2.8.8A3.1,3.1,0,0,1,459.2,192.8Zm-2.4,5.3a1.5,1.5,0,0,0-.4-1.1,1.4,1.4,0,0,0-1.1-.5,2.1,2.1,0,0,0-1.2.5,1.5,1.5,0,0,0-.4,1.1,1.6,1.6,0,0,0,.4,1.2,1.9,1.9,0,0,0,1.2.4,1.4,1.4,0,0,0,1.1-.4A1.6,1.6,0,0,0,456.8,198.1Zm-.4-5.2a1.2,1.2,0,0,0-.3-.9.8.8,0,0,0-.8-.4,1,1,0,0,0-.9.4,1.2,1.2,0,0,0-.3.9,1.2,1.2,0,0,0,1.2,1.5,1,1,0,0,0,.8-.4A1.8,1.8,0,0,0,456.4,192.9Z" transform="translate(-0.1 -0.1)"/><path d="M532.8,147.8a14.9,14.9,0,0,0-2.6,4,11.8,11.8,0,0,0-.7,4.3v1.6h-2.8v-1.6a10.5,10.5,0,0,1,.9-4.4,13.6,13.6,0,0,1,2.5-3.9h-6v-2.1h8.7Z" transform="translate(-0.1 -0.1)"/><path d="M538.2,150.5a1.6,1.6,0,0,0,1.2-.4,1.8,1.8,0,0,0,.4-1.1,1.8,1.8,0,0,0-.4-1,2.1,2.1,0,0,0-1.1-.4,1.2,1.2,0,0,0-.9.3,1,1,0,0,0-.4.9h-2.7a2.4,2.4,0,0,1,1.1-2.3,4.6,4.6,0,0,1,2.9-.9,5,5,0,0,1,3.1.9,2.9,2.9,0,0,1,1.2,2.5,2.5,2.5,0,0,1-.5,1.5,3.8,3.8,0,0,1-1.4,1.1,2.5,2.5,0,0,1,1.5,1.1,2.5,2.5,0,0,1,.6,1.7,3.2,3.2,0,0,1-1.3,2.6,5.5,5.5,0,0,1-6.2.1,2.9,2.9,0,0,1-1.2-2.6h2.7a1.1,1.1,0,0,0,.4.9,1.4,1.4,0,0,0,1.1.4,1.6,1.6,0,0,0,1.2-.4,1.4,1.4,0,0,0,.5-1,1.7,1.7,0,0,0-.5-1.3,1.7,1.7,0,0,0-1.3-.4h-1.3v-2.1Z" transform="translate(-0.1 -0.1)"/></g></g></svg>